<svg xmlns="http://www.w3.org/2000/svg" height="511pt" version="1.1" viewBox="-4 1 511 511.99999" width="511pt">
<g id="surface1">
<path d="M 411.746094 87.515625 L 93.042969 87.515625 L 93.042969 19.757812 C 93.042969 8.847656 101.886719 0.00390625 112.796875 0.00390625 L 391.992188 0.00390625 C 402.898438 0.00390625 411.742188 8.847656 411.742188 19.757812 L 411.742188 87.515625 Z M 411.746094 87.515625 " style=" stroke:none;fill-rule:nonzero;fill:rgb(100%,88.235294%,73.333333%);fill-opacity:1;" />
<path d="M 411.742188 19.757812 L 411.742188 87.515625 L 252.394531 87.515625 L 252.394531 0 L 391.988281 0 C 402.902344 0 411.742188 8.851562 411.742188 19.757812 Z M 411.742188 19.757812 " style=" stroke:none;fill-rule:nonzero;fill:rgb(100%,82.745098%,60%);fill-opacity:1;" />
<path d="M 471.046875 161.410156 L 471.046875 495.707031 C 471.046875 504.703125 463.75 512 454.753906 512 L 50.035156 512 C 41.039062 512 33.742188 504.703125 33.742188 495.707031 L 33.742188 161.410156 Z M 471.046875 161.410156 " style=" stroke:none;fill-rule:nonzero;fill:rgb(100%,88.235294%,73.333333%);fill-opacity:1;" />
<path d="M 471.046875 161.40625 L 471.046875 495.707031 C 471.046875 504.703125 463.75 512 454.753906 512 L 252.394531 512 L 252.394531 161.40625 Z M 471.046875 161.40625 " style=" stroke:none;fill-rule:nonzero;fill:rgb(100%,82.745098%,60%);fill-opacity:1;" />
<path d="M 323.714844 353.425781 L 323.714844 512 L 181.0625 512 L 181.0625 353.425781 C 181.0625 314.105469 213.0625 282.105469 252.394531 282.105469 C 291.726562 282.105469 323.714844 314.105469 323.714844 353.425781 Z M 323.714844 353.425781 " style=" stroke:none;fill-rule:nonzero;fill:rgb(100%,62.352941%,13.333333%);fill-opacity:1;" />
<path d="M 323.710938 353.429688 L 323.710938 512 L 252.394531 512 L 252.394531 282.105469 C 291.726562 282.105469 323.710938 314.109375 323.710938 353.429688 Z M 323.710938 353.429688 " style=" stroke:none;fill-rule:nonzero;fill:rgb(93.333333%,52.941176%,0%);fill-opacity:1;" />
<path d="M 115.699219 283.390625 L 114.519531 283.390625 C 86.308594 283.390625 63.359375 306.34375 63.359375 334.550781 L 63.359375 420.355469 C 63.359375 429.351562 70.65625 436.648438 79.652344 436.648438 L 150.5625 436.648438 C 159.5625 436.648438 166.855469 429.351562 166.855469 420.355469 L 166.855469 334.550781 C 166.855469 306.34375 143.90625 283.390625 115.699219 283.390625 Z M 115.699219 283.390625 " style=" stroke:none;fill-rule:nonzero;fill:rgb(100%,62.352941%,13.333333%);fill-opacity:1;" />
<path d="M 390.269531 283.390625 L 389.089844 283.390625 C 360.878906 283.390625 337.929688 306.34375 337.929688 334.550781 L 337.929688 420.355469 C 337.929688 429.351562 345.226562 436.648438 354.222656 436.648438 L 425.132812 436.648438 C 434.132812 436.648438 441.425781 429.351562 441.425781 420.355469 L 441.425781 334.550781 C 441.429688 306.34375 418.476562 283.390625 390.269531 283.390625 Z M 390.269531 283.390625 " style=" stroke:none;fill-rule:nonzero;fill:rgb(93.333333%,52.941176%,0%);fill-opacity:1;" />
<path d="M 150.5625 450.175781 L 79.652344 450.175781 C 70.65625 450.175781 63.359375 457.46875 63.359375 466.46875 C 63.359375 475.464844 70.65625 482.761719 79.652344 482.761719 L 150.5625 482.761719 C 159.5625 482.761719 166.855469 475.464844 166.855469 466.46875 C 166.855469 457.46875 159.5625 450.175781 150.5625 450.175781 Z M 150.5625 450.175781 " style=" stroke:none;fill-rule:nonzero;fill:rgb(100%,62.352941%,13.333333%);fill-opacity:1;" />
<path d="M 425.136719 450.175781 L 354.226562 450.175781 C 345.226562 450.175781 337.933594 457.46875 337.933594 466.46875 C 337.933594 475.464844 345.226562 482.761719 354.226562 482.761719 L 425.136719 482.761719 C 434.132812 482.761719 441.429688 475.464844 441.429688 466.46875 C 441.429688 457.46875 434.132812 450.175781 425.136719 450.175781 Z M 425.136719 450.175781 " style=" stroke:none;fill-rule:nonzero;fill:rgb(93.333333%,52.941176%,0%);fill-opacity:1;" />
<path d="M 291.128906 353.425781 L 291.128906 512 L 213.648438 512 L 213.648438 353.425781 C 213.648438 332.070312 231.027344 314.691406 252.394531 314.691406 C 273.761719 314.691406 291.128906 332.070312 291.128906 353.425781 Z M 291.128906 353.425781 " style=" stroke:none;fill-rule:nonzero;fill:rgb(100%,76.862745%,46.666667%);fill-opacity:1;" />
<path d="M 134.269531 334.546875 L 134.269531 404.0625 L 95.949219 404.0625 L 95.949219 334.546875 C 95.949219 324.304688 104.28125 315.972656 114.511719 315.972656 L 115.699219 315.972656 C 125.941406 315.972656 134.269531 324.304688 134.269531 334.546875 Z M 134.269531 334.546875 " style=" stroke:none;fill-rule:nonzero;fill:rgb(100%,76.862745%,46.666667%);fill-opacity:1;" />
<path d="M 408.839844 334.546875 L 408.839844 404.0625 L 370.519531 404.0625 L 370.519531 334.546875 C 370.519531 324.304688 378.847656 315.972656 389.09375 315.972656 L 390.265625 315.972656 C 400.507812 315.972656 408.839844 324.304688 408.839844 334.546875 Z M 408.839844 334.546875 " style=" stroke:none;fill-rule:nonzero;fill:rgb(100%,71.372549%,33.333333%);fill-opacity:1;" />
<path d="M 291.125 353.429688 L 291.125 512 L 252.394531 512 L 252.394531 314.6875 C 273.757812 314.6875 291.125 332.066406 291.125 353.429688 Z M 291.125 353.429688 " style=" stroke:none;fill-rule:nonzero;fill:rgb(100%,71.372549%,33.333333%);fill-opacity:1;" />
<path d="M 503.175781 161.410156 C 501.519531 157.9375 505.105469 162.59375 411.75 73.980469 C 377.640625 73.980469 128.269531 73.980469 93.039062 73.980469 C -1 163.242188 3.273438 157.933594 1.613281 161.410156 L 1.609375 161.410156 C -0.234375 165.242188 0.851562 167.230469 0.542969 189.398438 C 0.542969 222.539062 26.144531 249.703125 58.65625 252.179688 C 96.296875 254.996094 126.464844 225.195312 126.464844 189.398438 C 126.570312 189.398438 126.574219 189.398438 126.472656 189.398438 C 126.472656 199.054688 128.644531 208.203125 132.535156 216.378906 C 155.289062 264.316406 223.59375 264.28125 246.335938 216.378906 C 250.222656 208.199219 252.394531 199.054688 252.394531 189.398438 C 252.394531 199.054688 254.566406 208.203125 258.457031 216.378906 C 281.214844 264.316406 349.519531 264.277344 372.257812 216.378906 C 376.144531 208.199219 378.320312 199.054688 378.320312 189.398438 C 378.320312 225.195312 408.488281 254.996094 446.128906 252.179688 C 478.640625 249.703125 504.242188 222.539062 504.242188 189.398438 C 503.929688 167.230469 505.019531 165.242188 503.175781 161.410156 Z M 503.175781 161.410156 " style=" stroke:none;fill-rule:nonzero;fill:rgb(100%,72.54902%,61.568627%);fill-opacity:1;" />
<path d="M 172.722656 73.980469 L 126.472656 161.410156 L 1.613281 161.410156 C 3.269531 157.933594 -1 163.242188 93.039062 73.980469 Z M 172.722656 73.980469 " style=" stroke:none;fill-rule:nonzero;fill:rgb(100%,53.333333%,34.901961%);fill-opacity:1;" />
<path d="M 503.175781 161.410156 L 378.316406 161.410156 L 332.066406 73.980469 L 411.75 73.980469 C 505.105469 162.59375 501.519531 157.9375 503.175781 161.410156 Z M 503.175781 161.410156 " style=" stroke:none;fill-rule:nonzero;fill:rgb(100%,29.803922%,1.568627%);fill-opacity:1;" />
<path d="M 504.238281 189.398438 C 504.238281 222.539062 478.636719 249.703125 446.128906 252.179688 C 408.488281 254.996094 378.316406 225.195312 378.316406 189.398438 L 378.316406 161.410156 L 503.175781 161.410156 C 505.019531 165.242188 503.929688 167.230469 504.238281 189.398438 Z M 504.238281 189.398438 " style=" stroke:none;fill-rule:nonzero;fill:rgb(100%,53.333333%,34.901961%);fill-opacity:1;" />
<path d="M 252.394531 73.980469 L 252.394531 161.410156 L 126.472656 161.410156 L 172.722656 73.980469 Z M 252.394531 73.980469 " style=" stroke:none;fill-rule:nonzero;fill:rgb(100%,29.803922%,1.568627%);fill-opacity:1;" />
<path d="M 252.394531 161.410156 L 252.394531 189.398438 C 252.394531 199.054688 250.222656 208.203125 246.332031 216.378906 C 223.59375 264.28125 155.289062 264.316406 132.53125 216.378906 C 128.644531 208.199219 126.472656 199.054688 126.472656 189.398438 L 126.472656 161.410156 Z M 252.394531 161.410156 " style=" stroke:none;fill-rule:nonzero;fill:rgb(100%,53.333333%,34.901961%);fill-opacity:1;" />
<path d="M 378.316406 161.410156 L 252.394531 161.410156 L 252.394531 73.980469 L 332.066406 73.980469 Z M 378.316406 161.410156 " style=" stroke:none;fill-rule:nonzero;fill:rgb(100%,53.333333%,34.901961%);fill-opacity:1;" />
<path d="M 378.316406 161.410156 L 378.316406 189.398438 C 378.316406 199.054688 376.144531 208.203125 372.253906 216.378906 C 349.515625 264.277344 281.210938 264.316406 258.457031 216.378906 C 254.566406 208.199219 252.394531 199.054688 252.394531 189.398438 L 252.394531 161.410156 Z M 378.316406 161.410156 " style=" stroke:none;fill-rule:nonzero;fill:rgb(100%,72.54902%,61.568627%);fill-opacity:1;" />
<path d="M 0.542969 189.398438 C 0.542969 222.539062 26.144531 249.703125 58.65625 252.179688 C 96.296875 254.996094 126.464844 225.195312 126.464844 189.398438 L 126.464844 161.410156 L 1.609375 161.410156 C -0.234375 165.242188 0.851562 167.230469 0.542969 189.398438 Z M 0.542969 189.398438 " style=" stroke:none;fill-rule:nonzero;fill:rgb(100%,72.54902%,61.568627%);fill-opacity:1;" />
</g>
</svg>