<svg xmlns="http://www.w3.org/2000/svg" height="512pt" version="1.1" viewBox="0 -18 512 512" width="512pt">
<g id="surface1">
<path d="M 448.152344 0.00390625 L 63.847656 0.00390625 C 28.640625 0.00390625 0 28.644531 0 63.851562 L 0 243.308594 C 0 278.515625 28.640625 307.15625 63.847656 307.15625 L 448.152344 307.15625 C 483.355469 307.15625 511.996094 278.515625 511.996094 243.308594 L 511.996094 63.851562 C 511.996094 28.644531 483.355469 0.00390625 448.152344 0.00390625 Z M 448.152344 0.00390625 " style=" stroke:none;fill-rule:nonzero;fill:rgb(36.862745%,80.784314%,95.686275%);fill-opacity:1;" />
<path d="M 512 63.847656 L 512 243.304688 C 512 278.515625 483.355469 307.148438 448.152344 307.148438 L 258.636719 307.148438 L 258.636719 0 L 448.152344 0 C 483.355469 0 512 28.644531 512 63.847656 Z M 512 63.847656 " style=" stroke:none;fill-rule:nonzero;fill:rgb(18.431373%,75.294118%,94.117647%);fill-opacity:1;" />
<path d="M 441.808594 52.191406 L 70.1875 52.191406 C 61.691406 52.191406 54.804688 59.078125 54.804688 67.574219 L 54.804688 239.585938 C 54.804688 248.082031 61.691406 254.96875 70.1875 254.96875 L 441.808594 254.96875 C 450.304688 254.96875 457.195312 248.082031 457.195312 239.585938 L 457.195312 67.574219 C 457.195312 59.078125 450.304688 52.191406 441.808594 52.191406 Z M 441.808594 52.191406 " style=" stroke:none;fill-rule:nonzero;fill:rgb(74.509804%,92.156863%,98.039216%);fill-opacity:1;" />
<path d="M 457.191406 67.578125 L 457.191406 239.582031 C 457.191406 248.082031 450.308594 254.964844 441.804688 254.964844 L 258.636719 254.964844 L 258.636719 52.195312 L 441.804688 52.195312 C 450.308594 52.195312 457.191406 59.078125 457.191406 67.578125 Z M 457.191406 67.578125 " style=" stroke:none;fill-rule:nonzero;fill:rgb(61.960784%,88.627451%,97.254902%);fill-opacity:1;" />
<path d="M 162.71875 95.253906 L 124.769531 95.253906 C 116.273438 95.253906 109.386719 102.144531 109.386719 110.640625 L 109.386719 196.519531 C 109.386719 205.015625 116.273438 211.90625 124.769531 211.90625 L 162.71875 211.90625 C 183.039062 211.90625 199.574219 195.371094 199.574219 175.050781 C 199.574219 167.042969 197 159.632812 192.644531 153.582031 C 197 147.527344 199.574219 140.117188 199.574219 132.109375 C 199.574219 111.789062 183.039062 95.253906 162.71875 95.253906 Z M 140.15625 126.023438 L 162.71875 126.023438 C 166.074219 126.023438 168.804688 128.753906 168.804688 132.109375 C 168.804688 135.464844 166.074219 138.195312 162.71875 138.195312 L 140.15625 138.195312 Z M 162.71875 181.136719 L 140.15625 181.136719 L 140.15625 168.964844 L 162.71875 168.964844 C 166.074219 168.964844 168.804688 171.695312 168.804688 175.050781 C 168.804688 178.40625 166.074219 181.136719 162.71875 181.136719 Z M 162.71875 181.136719 " style=" stroke:none;fill-rule:nonzero;fill:rgb(5.882353%,66.27451%,86.666667%);fill-opacity:1;" />
<path d="M 288.347656 95.253906 C 279.851562 95.253906 272.964844 102.144531 272.964844 110.640625 L 272.964844 166.8125 C 272.964844 174.710938 266.539062 181.136719 258.640625 181.136719 C 250.742188 181.136719 244.316406 174.710938 244.316406 166.8125 L 244.316406 110.640625 C 244.316406 102.144531 237.425781 95.253906 228.929688 95.253906 C 220.433594 95.253906 213.546875 102.144531 213.546875 110.640625 L 213.546875 166.8125 C 213.546875 191.675781 233.773438 211.90625 258.640625 211.90625 C 283.503906 211.90625 303.734375 191.675781 303.734375 166.8125 L 303.734375 110.640625 C 303.734375 102.144531 296.84375 95.253906 288.347656 95.253906 Z M 288.347656 95.253906 " style=" stroke:none;fill-rule:nonzero;fill:rgb(5.882353%,66.27451%,86.666667%);fill-opacity:1;" />
<path d="M 401.675781 98.285156 C 394.851562 93.222656 385.21875 94.648438 380.152344 101.46875 L 362.796875 124.851562 L 345.445312 101.46875 C 340.378906 94.648438 330.742188 93.222656 323.921875 98.285156 C 317.097656 103.347656 315.671875 112.984375 320.738281 119.808594 L 347.414062 155.75 L 347.414062 196.519531 C 347.414062 205.015625 354.304688 211.90625 362.800781 211.90625 C 371.296875 211.90625 378.183594 205.015625 378.183594 196.519531 L 378.183594 155.75 L 404.863281 119.808594 C 409.925781 112.984375 408.496094 103.351562 401.675781 98.285156 Z M 401.675781 98.285156 " style=" stroke:none;fill-rule:nonzero;fill:rgb(5.098039%,56.862745%,74.117647%);fill-opacity:1;" />
<path d="M 328.886719 318.0625 L 212.179688 228.910156 C 209.078125 226.542969 204.570312 228.371094 203.992188 232.230469 L 182.371094 377.492188 C 181.789062 381.417969 185.695312 384.492188 189.371094 383 L 226.679688 367.863281 L 266.730469 466.601562 C 269.925781 474.476562 278.898438 478.269531 286.769531 475.074219 C 287.945312 474.597656 324.277344 459.863281 321.96875 460.796875 C 329.84375 457.601562 333.636719 448.628906 330.445312 440.757812 L 290.394531 342.019531 L 327.699219 326.886719 C 331.378906 325.394531 332.039062 320.46875 328.886719 318.0625 Z M 328.886719 318.0625 " style=" stroke:none;fill-rule:nonzero;fill:rgb(100%,89.411765%,46.666667%);fill-opacity:1;" />
<path d="M 303.734375 110.636719 L 303.734375 166.8125 C 303.734375 191.671875 283.507812 211.910156 258.636719 211.910156 L 258.636719 181.140625 C 266.542969 181.140625 272.964844 174.707031 272.964844 166.8125 L 272.964844 110.636719 C 272.964844 102.144531 279.855469 95.25 288.347656 95.25 C 296.839844 95.25 303.734375 102.144531 303.734375 110.636719 Z M 303.734375 110.636719 " style=" stroke:none;fill-rule:nonzero;fill:rgb(5.098039%,56.862745%,74.117647%);fill-opacity:1;" />
<path d="M 321.972656 460.796875 C 322.113281 460.742188 322.101562 460.746094 321.972656 460.796875 Z M 321.972656 460.796875 " style=" stroke:none;fill-rule:nonzero;fill:rgb(100%,85.490196%,26.666667%);fill-opacity:1;" />
<path d="M 330.445312 440.757812 L 290.394531 342.019531 L 327.699219 326.886719 C 331.375 325.394531 332.039062 320.46875 328.882812 318.058594 L 212.179688 228.910156 C 210.472656 227.609375 208.34375 227.574219 206.675781 228.449219 L 305.394531 467.519531 C 313.34375 464.296875 321.015625 461.183594 321.96875 460.796875 C 329.84375 457.605469 333.636719 448.632812 330.445312 440.757812 Z M 330.445312 440.757812 " style=" stroke:none;fill-rule:nonzero;fill:rgb(100%,83.137255%,13.333333%);fill-opacity:1;" />
</g>
</svg>