<svg xmlns="http://www.w3.org/2000/svg" height="512pt" version="1.1" viewBox="-8 0 512 512.00001" width="512pt">
<g id="surface1">
<path d="M 350.972656 426.914062 L 180.691406 426.914062 L 107.867188 270.558594 L 261.015625 270.558594 C 269.363281 270.558594 276.132812 263.792969 276.132812 255.441406 C 276.132812 247.09375 269.363281 240.324219 261.015625 240.324219 L 108.386719 240.324219 L 180.691406 85.085938 L 350.972656 85.085938 C 359.324219 85.085938 366.089844 78.316406 366.089844 69.96875 C 366.089844 61.617188 359.324219 54.851562 350.972656 54.851562 C 156.683594 54.867188 169.628906 54.484375 166.140625 55.683594 C 162.132812 57.066406 159.015625 60.015625 157.351562 63.585938 L 73.96875 242.617188 C 64.753906 248.355469 64.398438 261.53125 73.222656 267.777344 C 163.121094 460.769531 157.550781 449.878906 160.316406 452.667969 C 163.046875 455.425781 166.859375 457.148438 171.128906 457.148438 L 350.976562 457.148438 C 359.324219 457.148438 366.089844 450.382812 366.089844 442.03125 C 366.089844 433.683594 359.324219 426.914062 350.972656 426.914062 Z M 350.972656 426.914062 " style=" stroke:none;fill-rule:nonzero;fill:rgb(61.960784%,88.627451%,97.254902%);fill-opacity:1;" />
<path d="M 448.117188 315.914062 L 302.113281 255.972656 L 447.753906 200.535156 C 455.554688 197.566406 459.472656 188.832031 456.503906 181.03125 C 453.535156 173.226562 444.804688 169.308594 436.996094 172.28125 C 241.085938 246.867188 254.335938 241.425781 251.558594 243.652344 C 242.65625 250.777344 244.597656 265.042969 255.273438 269.425781 C 445.929688 347.25 436.738281 345.015625 442.371094 345.015625 C 458.832031 345.019531 463.417969 322.195312 448.117188 315.914062 Z M 448.117188 315.914062 " style=" stroke:none;fill-rule:nonzero;fill:rgb(100%,82.745098%,60%);fill-opacity:1;" />
<path d="M 261.015625 310.652344 C 230.921875 310.652344 206.4375 286.171875 206.4375 256.074219 C 206.4375 225.980469 230.921875 201.496094 261.015625 201.496094 C 291.109375 201.496094 315.59375 225.980469 315.59375 256.074219 C 315.59375 286.171875 291.109375 310.652344 261.015625 310.652344 Z M 261.015625 310.652344 " style=" stroke:none;fill-rule:nonzero;fill:rgb(100%,71.372549%,33.333333%);fill-opacity:1;" />
<path d="M 261.015625 201.496094 L 261.015625 310.648438 C 291.105469 310.648438 315.59375 286.171875 315.59375 256.078125 C 315.59375 225.984375 291.105469 201.496094 261.015625 201.496094 Z M 261.015625 201.496094 " style=" stroke:none;fill-rule:nonzero;fill:rgb(100%,56.862745%,0%);fill-opacity:1;" />
<path d="M 350.972656 372.0625 C 312.394531 372.0625 281.003906 403.453125 281.003906 442.03125 C 281.003906 480.613281 312.394531 512 350.972656 512 C 389.554688 512 420.941406 480.613281 420.941406 442.03125 C 420.941406 403.453125 389.554688 372.0625 350.972656 372.0625 Z M 350.972656 372.0625 " style=" stroke:none;fill-rule:nonzero;fill:rgb(18.431373%,75.294118%,94.117647%);fill-opacity:1;" />
<path d="M 420.9375 442.035156 C 420.9375 480.371094 389.949219 511.601562 351.703125 511.984375 L 351.703125 372.074219 C 389.949219 372.457031 420.9375 403.6875 420.9375 442.035156 Z M 420.9375 442.035156 " style=" stroke:none;fill-rule:nonzero;fill:rgb(5.882353%,66.27451%,86.666667%);fill-opacity:1;" />
<path d="M 372.613281 442.03125 C 372.613281 453.984375 362.925781 463.671875 350.972656 463.671875 C 339.023438 463.671875 329.335938 453.984375 329.335938 442.03125 C 329.335938 430.082031 339.023438 420.394531 350.972656 420.394531 C 362.925781 420.394531 372.613281 430.082031 372.613281 442.03125 Z M 372.613281 442.03125 " style=" stroke:none;fill-rule:nonzero;fill:rgb(74.509804%,92.156863%,98.039216%);fill-opacity:1;" />
<path d="M 171.054688 387.453125 C 140.960938 387.453125 116.476562 411.9375 116.476562 442.03125 C 116.476562 472.125 140.960938 496.609375 171.054688 496.609375 C 201.148438 496.609375 225.632812 472.125 225.632812 442.03125 C 225.632812 411.9375 201.148438 387.453125 171.054688 387.453125 Z M 171.054688 387.453125 " style=" stroke:none;fill-rule:nonzero;fill:rgb(100%,71.372549%,33.333333%);fill-opacity:1;" />
<path d="M 225.628906 442.035156 C 225.628906 472.128906 201.152344 496.605469 171.058594 496.605469 L 171.058594 387.453125 C 201.152344 387.453125 225.628906 411.941406 225.628906 442.035156 Z M 225.628906 442.035156 " style=" stroke:none;fill-rule:nonzero;fill:rgb(100%,56.862745%,0%);fill-opacity:1;" />
<path d="M 350.972656 139.9375 C 389.554688 139.9375 420.941406 108.546875 420.941406 69.96875 C 420.941406 31.386719 389.554688 0 350.972656 0 C 312.394531 0 281.003906 31.386719 281.003906 69.96875 C 281.003906 108.546875 312.394531 139.9375 350.972656 139.9375 Z M 350.972656 139.9375 " style=" stroke:none;fill-rule:nonzero;fill:rgb(18.431373%,75.294118%,94.117647%);fill-opacity:1;" />
<path d="M 420.9375 69.96875 C 420.9375 108.308594 389.949219 139.539062 351.703125 139.921875 L 351.703125 0.0117188 C 389.949219 0.394531 420.9375 31.632812 420.9375 69.96875 Z M 420.9375 69.96875 " style=" stroke:none;fill-rule:nonzero;fill:rgb(5.882353%,66.27451%,86.666667%);fill-opacity:1;" />
<path d="M 84.152344 171.292969 C 37.75 171.292969 0 209.042969 0 255.441406 C 0 301.84375 37.75 339.59375 84.152344 339.59375 C 130.550781 339.59375 168.304688 301.84375 168.304688 255.441406 C 168.304688 209.042969 130.550781 171.292969 84.152344 171.292969 Z M 84.152344 171.292969 " style=" stroke:none;fill-rule:nonzero;fill:rgb(18.431373%,75.294118%,94.117647%);fill-opacity:1;" />
<path d="M 168.308594 255.445312 C 168.308594 301.84375 130.566406 339.582031 84.15625 339.59375 L 84.15625 171.292969 C 130.566406 171.304688 168.308594 209.046875 168.308594 255.445312 Z M 168.308594 255.445312 " style=" stroke:none;fill-rule:nonzero;fill:rgb(5.882353%,66.27451%,86.666667%);fill-opacity:1;" />
<path d="M 372.613281 69.96875 C 372.613281 81.917969 362.925781 91.605469 350.972656 91.605469 C 339.023438 91.605469 329.335938 81.917969 329.335938 69.96875 C 329.335938 58.015625 339.023438 48.328125 350.972656 48.328125 C 362.925781 48.328125 372.613281 58.015625 372.613281 69.96875 Z M 372.613281 69.96875 " style=" stroke:none;fill-rule:nonzero;fill:rgb(74.509804%,92.156863%,98.039216%);fill-opacity:1;" />
<path d="M 171.054688 124.546875 C 140.960938 124.546875 116.476562 100.0625 116.476562 69.96875 C 116.476562 39.875 140.960938 15.390625 171.054688 15.390625 C 201.148438 15.390625 225.632812 39.875 225.632812 69.96875 C 225.632812 100.0625 201.148438 124.546875 171.054688 124.546875 Z M 171.054688 124.546875 " style=" stroke:none;fill-rule:nonzero;fill:rgb(100%,71.372549%,33.333333%);fill-opacity:1;" />
<path d="M 171.058594 15.390625 L 171.058594 124.542969 C 201.152344 124.542969 225.628906 100.0625 225.628906 69.96875 C 225.628906 39.878906 201.152344 15.390625 171.058594 15.390625 Z M 171.058594 15.390625 " style=" stroke:none;fill-rule:nonzero;fill:rgb(100%,56.862745%,0%);fill-opacity:1;" />
<path d="M 442.375 131.832031 C 412.28125 131.832031 387.796875 156.3125 387.796875 186.410156 C 387.796875 216.503906 412.28125 240.984375 442.375 240.984375 C 472.46875 240.984375 496.953125 216.503906 496.953125 186.410156 C 496.953125 156.3125 472.46875 131.832031 442.375 131.832031 Z M 442.375 131.832031 " style=" stroke:none;fill-rule:nonzero;fill:rgb(100%,71.372549%,33.333333%);fill-opacity:1;" />
<path d="M 496.957031 186.410156 C 496.957031 216.503906 472.46875 240.980469 442.375 240.980469 L 442.375 131.828125 C 472.46875 131.828125 496.957031 156.316406 496.957031 186.410156 Z M 496.957031 186.410156 " style=" stroke:none;fill-rule:nonzero;fill:rgb(100%,56.862745%,0%);fill-opacity:1;" />
<path d="M 464.011719 186.410156 C 464.011719 198.359375 454.324219 208.046875 442.375 208.046875 C 430.425781 208.046875 420.738281 198.359375 420.738281 186.410156 C 420.738281 174.460938 430.425781 164.773438 442.375 164.773438 C 454.324219 164.773438 464.011719 174.460938 464.011719 186.410156 Z M 464.011719 186.410156 " style=" stroke:none;fill-rule:nonzero;fill:rgb(100%,88.235294%,73.333333%);fill-opacity:1;" />
<path d="M 442.375 275.320312 C 412.28125 275.320312 387.796875 299.800781 387.796875 329.898438 C 387.796875 359.992188 412.28125 384.476562 442.375 384.476562 C 472.46875 384.476562 496.953125 359.992188 496.953125 329.898438 C 496.953125 299.800781 472.46875 275.320312 442.375 275.320312 Z M 442.375 275.320312 " style=" stroke:none;fill-rule:nonzero;fill:rgb(100%,71.372549%,33.333333%);fill-opacity:1;" />
<path d="M 496.957031 329.898438 C 496.957031 359.992188 472.46875 384.46875 442.375 384.46875 L 442.375 275.316406 C 472.46875 275.316406 496.957031 299.804688 496.957031 329.898438 Z M 496.957031 329.898438 " style=" stroke:none;fill-rule:nonzero;fill:rgb(100%,56.862745%,0%);fill-opacity:1;" />
<path d="M 195.398438 69.96875 C 195.398438 83.394531 184.480469 94.308594 171.058594 94.308594 C 157.636719 94.308594 146.710938 83.394531 146.710938 69.96875 C 146.710938 56.546875 157.636719 45.621094 171.058594 45.621094 C 184.480469 45.621094 195.398438 56.546875 195.398438 69.96875 Z M 195.398438 69.96875 " style=" stroke:none;fill-rule:nonzero;fill:rgb(100%,88.235294%,73.333333%);fill-opacity:1;" />
<path d="M 171.058594 45.621094 L 171.058594 94.308594 C 184.480469 94.308594 195.398438 83.394531 195.398438 69.96875 C 195.398438 56.546875 184.480469 45.621094 171.058594 45.621094 Z M 171.058594 45.621094 " style=" stroke:none;fill-rule:nonzero;fill:rgb(100%,82.745098%,60%);fill-opacity:1;" />
<path d="M 285.351562 256.078125 C 285.351562 269.503906 274.4375 280.417969 261.015625 280.417969 C 247.589844 280.417969 236.664062 269.503906 236.664062 256.078125 C 236.664062 242.65625 247.589844 231.730469 261.015625 231.730469 C 274.4375 231.730469 285.351562 242.65625 285.351562 256.078125 Z M 285.351562 256.078125 " style=" stroke:none;fill-rule:nonzero;fill:rgb(100%,88.235294%,73.333333%);fill-opacity:1;" />
<path d="M 261.015625 231.730469 L 261.015625 280.417969 C 274.4375 280.417969 285.351562 269.503906 285.351562 256.078125 C 285.351562 242.65625 274.4375 231.730469 261.015625 231.730469 Z M 261.015625 231.730469 " style=" stroke:none;fill-rule:nonzero;fill:rgb(100%,82.745098%,60%);fill-opacity:1;" />
<path d="M 192.695312 442.03125 C 192.695312 453.984375 183.003906 463.671875 171.054688 463.671875 C 159.105469 463.671875 149.414062 453.984375 149.414062 442.03125 C 149.414062 430.082031 159.105469 420.394531 171.054688 420.394531 C 183.003906 420.394531 192.695312 430.082031 192.695312 442.03125 Z M 192.695312 442.03125 " style=" stroke:none;fill-rule:nonzero;fill:rgb(100%,88.235294%,73.333333%);fill-opacity:1;" />
<path d="M 464.011719 329.898438 C 464.011719 341.847656 454.324219 351.535156 442.375 351.535156 C 430.425781 351.535156 420.738281 341.847656 420.738281 329.898438 C 420.738281 317.949219 430.425781 308.261719 442.375 308.261719 C 454.324219 308.261719 464.011719 317.949219 464.011719 329.898438 Z M 464.011719 329.898438 " style=" stroke:none;fill-rule:nonzero;fill:rgb(100%,88.235294%,73.333333%);fill-opacity:1;" />
<path d="M 464.011719 186.410156 C 464.011719 198.363281 454.328125 208.046875 442.375 208.046875 L 442.375 164.773438 C 454.328125 164.773438 464.011719 174.457031 464.011719 186.410156 Z M 464.011719 186.410156 " style=" stroke:none;fill-rule:nonzero;fill:rgb(100%,82.745098%,60%);fill-opacity:1;" />
<path d="M 464.011719 329.898438 C 464.011719 341.851562 454.328125 351.535156 442.375 351.535156 L 442.375 308.261719 C 454.328125 308.261719 464.011719 317.945312 464.011719 329.898438 Z M 464.011719 329.898438 " style=" stroke:none;fill-rule:nonzero;fill:rgb(100%,82.745098%,60%);fill-opacity:1;" />
<path d="M 115.785156 255.441406 C 115.785156 272.914062 101.621094 287.074219 84.152344 287.074219 C 66.683594 287.074219 52.519531 272.914062 52.519531 255.441406 C 52.519531 237.972656 66.683594 223.808594 84.152344 223.808594 C 101.621094 223.808594 115.785156 237.972656 115.785156 255.441406 Z M 115.785156 255.441406 " style=" stroke:none;fill-rule:nonzero;fill:rgb(74.509804%,92.156863%,98.039216%);fill-opacity:1;" />
<path d="M 372.617188 442.035156 C 372.617188 453.746094 363.3125 463.28125 351.703125 463.652344 L 351.703125 420.417969 C 363.3125 420.792969 372.617188 430.324219 372.617188 442.035156 Z M 372.617188 442.035156 " style=" stroke:none;fill-rule:nonzero;fill:rgb(61.960784%,88.627451%,97.254902%);fill-opacity:1;" />
<path d="M 372.617188 69.96875 C 372.617188 81.679688 363.3125 91.214844 351.703125 91.585938 L 351.703125 48.355469 C 363.3125 48.726562 372.617188 58.261719 372.617188 69.96875 Z M 372.617188 69.96875 " style=" stroke:none;fill-rule:nonzero;fill:rgb(61.960784%,88.627451%,97.254902%);fill-opacity:1;" />
<path d="M 84.15625 223.808594 L 84.15625 287.078125 C 101.621094 287.078125 115.78125 272.910156 115.78125 255.445312 C 115.78125 237.96875 101.621094 223.808594 84.15625 223.808594 Z M 84.15625 223.808594 " style=" stroke:none;fill-rule:nonzero;fill:rgb(61.960784%,88.627451%,97.254902%);fill-opacity:1;" />
<path d="M 171.054688 420.394531 L 171.054688 463.671875 C 183.007812 463.671875 192.695312 453.984375 192.695312 442.03125 C 192.695312 430.082031 183.003906 420.394531 171.054688 420.394531 Z M 171.054688 420.394531 " style=" stroke:none;fill-rule:nonzero;fill:rgb(100%,82.745098%,60%);fill-opacity:1;" />
</g>
</svg>