<svg xmlns="http://www.w3.org/2000/svg" height="512pt" version="1.1" viewBox="0 -81 512.00003 512" width="512pt">
<g id="surface1">
<path d="M 511.996094 30.632812 L 511.996094 175.085938 L 0.00390625 175.085938 L 0.00390625 30.632812 C 0.00390625 13.714844 13.71875 0 30.636719 0 L 481.363281 0 C 498.28125 0 511.996094 13.714844 511.996094 30.632812 Z M 511.996094 30.632812 " style=" stroke:none;fill-rule:nonzero;fill:rgb(18.431373%,75.294118%,94.117647%);fill-opacity:1;" />
<path d="M 511.996094 30.632812 L 511.996094 175.085938 L 256 175.085938 L 256 0 L 481.363281 0 C 498.28125 0 511.996094 13.714844 511.996094 30.632812 Z M 511.996094 30.632812 " style=" stroke:none;fill-rule:nonzero;fill:rgb(5.882353%,66.27451%,86.666667%);fill-opacity:1;" />
<path d="M 511.996094 214.171875 L 511.996094 318.578125 C 511.996094 335.496094 498.28125 349.210938 481.363281 349.210938 L 30.636719 349.210938 C 13.71875 349.210938 0.00390625 335.496094 0.00390625 318.578125 L 0.00390625 214.171875 Z M 511.996094 214.171875 " style=" stroke:none;fill-rule:nonzero;fill:rgb(100%,71.372549%,33.333333%);fill-opacity:1;" />
<path d="M 256 214.171875 L 511.996094 214.171875 L 511.996094 318.578125 C 511.996094 335.496094 498.28125 349.210938 481.363281 349.210938 L 256 349.210938 Z M 256 214.171875 " style=" stroke:none;fill-rule:nonzero;fill:rgb(100%,62.352941%,13.333333%);fill-opacity:1;" />
<path d="M 0 290.0625 L 0 59.148438 L 512 59.148438 L 512 290.0625 L 150.800781 290.0625 C 131.675781 290.0625 15.839844 290.0625 0 290.0625 Z M 0 290.0625 " style=" stroke:none;fill-rule:nonzero;fill:rgb(100%,91.372549%,80%);fill-opacity:1;" />
<path d="M 256 59.152344 L 511.996094 59.152344 L 511.996094 290.058594 L 256 290.058594 Z M 256 59.152344 " style=" stroke:none;fill-rule:nonzero;fill:rgb(100%,82.745098%,60%);fill-opacity:1;" />
<path d="M 165.1875 113.054688 C 157.804688 108.925781 148.472656 111.566406 144.34375 118.949219 L 108.828125 182.484375 L 94.554688 122.855469 C 92.90625 115.964844 86.746094 111.105469 79.660156 111.105469 L 53.316406 111.105469 C 44.855469 111.105469 38 117.964844 38 126.421875 C 38 134.878906 44.855469 141.738281 53.316406 141.738281 L 67.578125 141.738281 L 88.167969 227.757812 C 89.632812 233.890625 94.714844 238.5 100.964844 239.363281 C 107.148438 240.21875 113.320312 237.226562 116.429688 231.664062 L 171.082031 133.894531 C 175.210938 126.511719 172.570312 117.179688 165.1875 113.054688 Z M 165.1875 113.054688 " style=" stroke:none;fill-rule:nonzero;fill:rgb(18.431373%,75.294118%,94.117647%);fill-opacity:1;" />
<path d="M 351.164062 111.105469 L 290.960938 111.105469 C 273.597656 111.105469 258.375 122.21875 253.089844 138.761719 C 244.882812 164.4375 264 190.621094 290.960938 190.621094 L 317.691406 190.621094 C 321.726562 190.621094 324.042969 192.96875 325.0625 194.367188 C 329.503906 200.449219 325.089844 208.875 317.691406 208.875 L 257.488281 208.875 C 249.027344 208.875 242.171875 215.730469 242.171875 224.191406 C 242.171875 232.648438 249.027344 239.507812 257.488281 239.507812 L 317.691406 239.507812 C 350.332031 239.507812 368.894531 202.445312 349.800781 176.304688 C 342.230469 165.9375 330.527344 159.992188 317.691406 159.992188 L 290.960938 159.992188 C 286.925781 159.992188 284.609375 157.644531 283.589844 156.246094 C 279.148438 150.164062 283.5625 141.738281 290.960938 141.738281 L 351.164062 141.738281 C 359.625 141.738281 366.480469 134.878906 366.480469 126.421875 C 366.480469 117.964844 359.625 111.105469 351.164062 111.105469 Z M 351.164062 111.105469 " style=" stroke:none;fill-rule:nonzero;fill:rgb(5.882353%,66.27451%,86.666667%);fill-opacity:1;" />
<path d="M 473.578125 219.222656 L 450.175781 121.453125 C 446.9375 107.921875 428.703125 105.394531 421.910156 117.546875 C 416.421875 127.367188 374.472656 202.410156 367.261719 215.316406 C 363.132812 222.699219 365.773438 232.03125 373.15625 236.15625 C 380.539062 240.285156 389.871094 237.644531 394 230.261719 L 402.328125 215.355469 L 441.152344 215.355469 L 443.785156 226.355469 C 445.46875 233.382812 451.746094 238.109375 458.667969 238.109375 C 459.851562 238.109375 461.050781 237.972656 462.246094 237.683594 C 470.472656 235.714844 475.546875 227.449219 473.578125 219.222656 Z M 419.453125 184.726562 L 429.515625 166.726562 L 433.820312 184.726562 Z M 419.453125 184.726562 " style=" stroke:none;fill-rule:nonzero;fill:rgb(5.882353%,66.27451%,86.666667%);fill-opacity:1;" />
<path d="M 214.523438 111.296875 C 206.171875 109.957031 198.320312 115.652344 196.984375 124.003906 L 181.359375 221.773438 C 180.023438 230.125 185.710938 237.980469 194.066406 239.316406 C 202.386719 240.648438 210.269531 234.988281 211.605469 226.609375 L 227.234375 128.839844 C 228.566406 120.488281 222.878906 112.632812 214.523438 111.296875 Z M 214.523438 111.296875 " style=" stroke:none;fill-rule:nonzero;fill:rgb(18.431373%,75.294118%,94.117647%);fill-opacity:1;" />
</g>
</svg>