<svg xmlns="http://www.w3.org/2000/svg" height="511pt" version="1.1" viewBox="-4 1 511 511.99999" width="511pt">
<g id="surface1">
<path d="M 411.742188 87.515625 L 93.042969 87.515625 L 93.042969 19.757812 C 93.042969 8.847656 101.886719 0.00390625 112.796875 0.00390625 L 391.988281 0.00390625 C 402.898438 0.00390625 411.742188 8.847656 411.742188 19.757812 Z M 411.742188 87.515625 " style=" stroke:none;fill-rule:nonzero;fill:rgb(0%,86.666667%,50.196078%);fill-opacity:1;" />
<path d="M 411.742188 19.757812 L 411.742188 87.515625 L 252.390625 87.515625 L 252.390625 0 L 391.984375 0 C 402.902344 0 411.742188 8.851562 411.742188 19.757812 Z M 411.742188 19.757812 " style=" stroke:none;fill-rule:nonzero;fill:rgb(0%,66.666667%,38.823529%);fill-opacity:1;" />
<path d="M 471.042969 160.222656 L 471.042969 495.652344 C 471.042969 504.679688 463.75 512 454.75 512 L 50.035156 512 C 41.039062 512 33.742188 504.679688 33.742188 495.652344 L 33.742188 160.222656 Z M 471.042969 160.222656 " style=" stroke:none;fill-rule:nonzero;fill:rgb(0%,86.666667%,50.196078%);fill-opacity:1;" />
<path d="M 471.046875 160.21875 L 471.046875 495.652344 C 471.046875 504.679688 463.75 512 454.753906 512 L 252.390625 512 L 252.390625 160.21875 Z M 471.046875 160.21875 " style=" stroke:none;fill-rule:nonzero;fill:rgb(0%,66.666667%,38.823529%);fill-opacity:1;" />
<path d="M 312.101562 392.269531 C 309.515625 394.855469 308.316406 398.527344 308.878906 402.144531 L 316.25 448.945312 C 317.691406 458.183594 308.058594 465.171875 299.734375 460.921875 L 257.597656 439.425781 C 254.34375 437.765625 250.4375 437.761719 247.183594 439.425781 L 205.046875 460.921875 C 196.722656 465.171875 187.089844 458.183594 188.53125 448.945312 L 195.902344 402.144531 C 196.464844 398.527344 195.265625 394.855469 192.679688 392.269531 L 159.277344 358.878906 C 152.667969 352.273438 156.332031 340.953125 165.558594 339.476562 L 212.300781 331.96875 C 215.902344 331.378906 219.023438 329.125 220.671875 325.867188 L 242.191406 283.804688 C 246.464844 275.488281 258.3125 275.488281 262.585938 283.804688 L 284.105469 325.867188 C 285.757812 329.125 288.875 331.378906 292.476562 331.96875 L 339.21875 339.476562 C 348.449219 340.953125 352.109375 352.273438 345.503906 358.878906 Z M 312.101562 392.269531 " style=" stroke:none;fill-rule:nonzero;fill:rgb(100%,92.156863%,60%);fill-opacity:1;" />
<path d="M 312.101562 392.269531 C 309.515625 394.855469 308.316406 398.527344 308.878906 402.144531 L 316.25 448.945312 C 317.691406 458.183594 308.058594 465.171875 299.734375 460.921875 C 255.914062 439.046875 257.265625 438.179688 252.390625 438.179688 L 252.390625 277.570312 C 256.421875 277.570312 260.453125 279.648438 262.589844 283.804688 L 284.105469 325.871094 C 285.757812 329.128906 288.878906 331.378906 292.480469 331.96875 L 339.222656 339.476562 C 348.449219 340.953125 352.109375 352.273438 345.503906 358.878906 Z M 312.101562 392.269531 " style=" stroke:none;fill-rule:nonzero;fill:rgb(100%,87.058824%,33.333333%);fill-opacity:1;" />
<path d="M 503.175781 160.273438 C 501.519531 156.804688 505.105469 161.460938 411.75 72.847656 C 377.640625 72.847656 128.269531 72.847656 93.039062 72.847656 C -1 162.109375 3.273438 156.800781 1.613281 160.273438 L 1.609375 160.273438 C -0.234375 164.109375 0.851562 166.097656 0.542969 188.265625 C 0.542969 221.40625 26.144531 248.570312 58.65625 251.046875 C 96.296875 253.863281 126.464844 224.0625 126.464844 188.265625 C 126.570312 188.265625 126.574219 188.265625 126.472656 188.265625 C 126.472656 197.921875 128.644531 207.070312 132.535156 215.246094 C 155.289062 263.179688 223.59375 263.148438 246.335938 215.246094 C 250.222656 207.066406 252.394531 197.921875 252.394531 188.265625 C 252.394531 197.921875 254.566406 207.070312 258.457031 215.246094 C 281.210938 263.179688 349.519531 263.144531 372.257812 215.246094 C 376.144531 207.066406 378.316406 197.921875 378.316406 188.265625 C 378.316406 224.0625 408.488281 253.863281 446.128906 251.046875 C 478.636719 248.570312 504.238281 221.40625 504.238281 188.265625 C 503.929688 166.097656 505.019531 164.109375 503.175781 160.273438 Z M 503.175781 160.273438 " style=" stroke:none;fill-rule:nonzero;fill:rgb(100%,72.54902%,61.568627%);fill-opacity:1;" />
<path d="M 172.722656 72.847656 L 126.472656 160.273438 L 1.613281 160.273438 C 3.269531 156.800781 -1 162.109375 93.039062 72.847656 Z M 172.722656 72.847656 " style=" stroke:none;fill-rule:nonzero;fill:rgb(100%,53.333333%,34.901961%);fill-opacity:1;" />
<path d="M 503.175781 160.273438 L 378.316406 160.273438 L 332.066406 72.847656 L 411.75 72.847656 C 505.105469 161.460938 501.519531 156.804688 503.175781 160.273438 Z M 503.175781 160.273438 " style=" stroke:none;fill-rule:nonzero;fill:rgb(100%,29.803922%,1.568627%);fill-opacity:1;" />
<path d="M 504.238281 188.265625 C 504.238281 221.40625 478.636719 248.570312 446.128906 251.046875 C 408.488281 253.863281 378.316406 224.0625 378.316406 188.265625 L 378.316406 160.273438 L 503.175781 160.273438 C 505.019531 164.109375 503.929688 166.097656 504.238281 188.265625 Z M 504.238281 188.265625 " style=" stroke:none;fill-rule:nonzero;fill:rgb(100%,53.333333%,34.901961%);fill-opacity:1;" />
<path d="M 252.394531 72.847656 L 252.394531 160.273438 L 126.472656 160.273438 L 172.722656 72.847656 Z M 252.394531 72.847656 " style=" stroke:none;fill-rule:nonzero;fill:rgb(100%,29.803922%,1.568627%);fill-opacity:1;" />
<path d="M 252.394531 160.273438 L 252.394531 188.265625 C 252.394531 197.921875 250.222656 207.070312 246.332031 215.246094 C 223.59375 263.148438 155.289062 263.179688 132.53125 215.246094 C 128.644531 207.066406 126.472656 197.921875 126.472656 188.265625 L 126.472656 160.273438 Z M 252.394531 160.273438 " style=" stroke:none;fill-rule:nonzero;fill:rgb(100%,53.333333%,34.901961%);fill-opacity:1;" />
<path d="M 378.316406 160.273438 L 252.394531 160.273438 L 252.394531 72.847656 L 332.066406 72.847656 Z M 378.316406 160.273438 " style=" stroke:none;fill-rule:nonzero;fill:rgb(100%,53.333333%,34.901961%);fill-opacity:1;" />
<path d="M 378.316406 160.273438 L 378.316406 188.265625 C 378.316406 197.921875 376.144531 207.070312 372.253906 215.246094 C 349.515625 263.144531 281.210938 263.179688 258.457031 215.246094 C 254.566406 207.066406 252.394531 197.921875 252.394531 188.265625 L 252.394531 160.273438 Z M 378.316406 160.273438 " style=" stroke:none;fill-rule:nonzero;fill:rgb(100%,72.54902%,61.568627%);fill-opacity:1;" />
<path d="M 0.542969 188.265625 C 0.542969 221.40625 26.144531 248.570312 58.65625 251.046875 C 96.296875 253.863281 126.464844 224.0625 126.464844 188.265625 L 126.464844 160.273438 L 1.609375 160.273438 C -0.234375 164.109375 0.851562 166.097656 0.542969 188.265625 Z M 0.542969 188.265625 " style=" stroke:none;fill-rule:nonzero;fill:rgb(100%,72.54902%,61.568627%);fill-opacity:1;" />
</g>
</svg>