<svg xmlns="http://www.w3.org/2000/svg" height="512pt" version="1.1" viewBox="0 -1 512.00002 512" width="512pt">
<g id="surface1">
<path d="M 512 15.207031 L 512 495.371094 C 512 503.765625 505.1875 510.582031 496.792969 510.582031 L 171.847656 510.582031 L 171.847656 0 L 501.890625 0 C 507.476562 0 512 6.8125 512 15.207031 Z M 512 15.207031 " style=" stroke:none;fill-rule:nonzero;fill:rgb(18.431373%,75.294118%,94.117647%);fill-opacity:1;" />
<path d="M 512 15.207031 L 512 495.371094 C 512 503.765625 505.1875 510.582031 496.792969 510.582031 L 341.925781 510.582031 L 341.925781 0 L 501.890625 0 C 507.476562 0 512 6.8125 512 15.207031 Z M 512 15.207031 " style=" stroke:none;fill-rule:nonzero;fill:rgb(5.882353%,66.27451%,86.666667%);fill-opacity:1;" />
<path d="M 512 83.390625 L 512 495.371094 C 512 503.765625 505.1875 510.582031 496.792969 510.582031 L 15.207031 510.582031 C 6.8125 510.582031 0 503.765625 0 495.371094 L 0 15.207031 C 0 6.8125 6.8125 0 15.207031 0 L 192.023438 0 C 198.503906 0 204.273438 4.105469 206.390625 10.21875 L 224.132812 61.367188 C 225.554688 65.445312 229.394531 68.183594 233.714844 68.183594 L 496.792969 68.183594 C 505.1875 68.183594 512 74.996094 512 83.390625 Z M 512 83.390625 " style=" stroke:none;fill-rule:nonzero;fill:rgb(61.960784%,88.627451%,97.254902%);fill-opacity:1;" />
<path d="M 512 83.390625 L 512 495.371094 C 512 503.765625 505.1875 510.582031 496.792969 510.582031 L 258.605469 510.582031 L 258.605469 68.183594 L 496.792969 68.183594 C 505.1875 68.183594 512 74.996094 512 83.390625 Z M 512 83.390625 " style=" stroke:none;fill-rule:nonzero;fill:rgb(49.411765%,84.705882%,96.470588%);fill-opacity:1;" />
<path d="M 145.828125 68.738281 L 102.230469 68.738281 C 93.832031 68.738281 87.023438 61.929688 87.023438 53.53125 C 87.023438 45.132812 93.832031 38.324219 102.230469 38.324219 L 145.828125 38.324219 C 154.226562 38.324219 161.035156 45.132812 161.035156 53.53125 C 161.035156 61.929688 154.226562 68.738281 145.828125 68.738281 Z M 145.828125 68.738281 " style=" stroke:none;fill-rule:nonzero;fill:rgb(5.882353%,66.27451%,86.666667%);fill-opacity:1;" />
<path d="M 74.449219 53.53125 C 74.449219 61.929688 67.640625 68.738281 59.238281 68.738281 C 50.839844 68.738281 44.03125 61.929688 44.03125 53.53125 C 44.03125 45.132812 50.839844 38.324219 59.238281 38.324219 C 67.640625 38.324219 74.449219 45.132812 74.449219 53.53125 Z M 74.449219 53.53125 " style=" stroke:none;fill-rule:nonzero;fill:rgb(5.882353%,66.27451%,86.666667%);fill-opacity:1;" />
<path d="M 420.476562 202.054688 L 391.199219 338.707031 C 389.605469 346.152344 383.03125 351.46875 375.410156 351.46875 L 182.167969 351.46875 C 174.5625 351.46875 167.988281 346.152344 166.394531 338.707031 L 137.113281 202.054688 C 134.960938 192.003906 142.628906 182.535156 152.890625 182.535156 L 404.691406 182.535156 C 414.960938 182.535156 422.632812 192 420.476562 202.054688 Z M 420.476562 202.054688 " style=" stroke:none;fill-rule:nonzero;fill:rgb(100%,91.372549%,80%);fill-opacity:1;" />
<path d="M 420.480469 202.050781 L 391.199219 338.699219 C 389.605469 346.152344 383.027344 351.464844 375.414062 351.464844 L 278.792969 351.464844 L 278.792969 182.535156 L 404.691406 182.535156 C 414.964844 182.535156 422.636719 192.003906 420.480469 202.050781 Z M 420.480469 202.050781 " style=" stroke:none;fill-rule:nonzero;fill:rgb(100%,82.745098%,60%);fill-opacity:1;" />
<path d="M 321.480469 283.84375 L 236.113281 283.84375 C 227.714844 283.84375 220.902344 290.652344 220.902344 299.050781 C 220.902344 307.449219 227.714844 314.257812 236.113281 314.257812 L 321.480469 314.257812 C 329.878906 314.257812 336.6875 307.449219 336.6875 299.050781 C 336.6875 290.652344 329.878906 283.84375 321.480469 283.84375 Z M 321.480469 283.84375 " style=" stroke:none;fill-rule:nonzero;fill:rgb(100%,43.921569%,21.568627%);fill-opacity:1;" />
<path d="M 247.117188 267.988281 L 310.476562 267.988281 C 318.875 267.988281 325.683594 261.179688 325.683594 252.78125 C 325.683594 244.382812 318.875 237.570312 310.476562 237.570312 L 247.117188 237.570312 C 238.714844 237.570312 231.90625 244.382812 231.90625 252.78125 C 231.90625 261.179688 238.714844 267.988281 247.117188 267.988281 Z M 247.117188 267.988281 " style=" stroke:none;fill-rule:nonzero;fill:rgb(100%,43.921569%,21.568627%);fill-opacity:1;" />
<path d="M 325.683594 252.777344 C 325.683594 261.179688 318.878906 267.984375 310.476562 267.984375 L 278.792969 267.984375 L 278.792969 237.566406 L 310.476562 237.566406 C 318.878906 237.566406 325.683594 244.382812 325.683594 252.777344 Z M 325.683594 252.777344 " style=" stroke:none;fill-rule:nonzero;fill:rgb(100%,29.803922%,1.568627%);fill-opacity:1;" />
<path d="M 336.683594 299.046875 C 336.683594 307.453125 329.878906 314.257812 321.476562 314.257812 L 278.792969 314.257812 L 278.792969 283.839844 L 321.476562 283.839844 C 329.878906 283.839844 336.683594 290.652344 336.683594 299.046875 Z M 336.683594 299.046875 " style=" stroke:none;fill-rule:nonzero;fill:rgb(100%,29.803922%,1.568627%);fill-opacity:1;" />
<path d="M 344.71875 399.410156 L 212.410156 399.410156 L 162.691406 167.355469 C 157.332031 142.339844 134.871094 124.183594 109.292969 124.183594 L 75.054688 124.183594 C 66.140625 124.183594 58.914062 131.410156 58.914062 140.324219 C 58.914062 149.238281 66.140625 156.464844 75.054688 156.464844 L 109.289062 156.464844 C 119.75 156.464844 128.933594 163.886719 131.125 174.117188 L 183.578125 418.929688 C 185.171875 426.375 191.75 431.691406 199.363281 431.691406 L 344.71875 431.691406 C 353.632812 431.691406 360.859375 424.464844 360.859375 415.550781 C 360.859375 406.636719 353.636719 399.410156 344.71875 399.410156 Z M 344.71875 399.410156 " style=" stroke:none;fill-rule:nonzero;fill:rgb(100%,29.803922%,1.568627%);fill-opacity:1;" />
<path d="M 209.886719 362.898438 C 180.855469 362.898438 157.238281 386.519531 157.238281 415.550781 C 157.238281 444.582031 180.855469 468.203125 209.886719 468.203125 C 238.921875 468.203125 262.539062 444.582031 262.539062 415.550781 C 262.539062 386.519531 238.921875 362.898438 209.886719 362.898438 Z M 209.886719 362.898438 " style=" stroke:none;fill-rule:nonzero;fill:rgb(100%,43.921569%,21.568627%);fill-opacity:1;" />
<path d="M 262.539062 415.550781 C 262.539062 444.578125 238.917969 468.203125 209.890625 468.203125 L 209.890625 362.902344 C 238.917969 362.902344 262.539062 386.515625 262.539062 415.550781 Z M 262.539062 415.550781 " style=" stroke:none;fill-rule:nonzero;fill:rgb(100%,29.803922%,1.568627%);fill-opacity:1;" />
<path d="M 344.71875 362.898438 C 315.6875 362.898438 292.070312 386.519531 292.070312 415.550781 C 292.070312 444.582031 315.6875 468.203125 344.71875 468.203125 C 373.75 468.203125 397.371094 444.582031 397.371094 415.550781 C 397.371094 386.519531 373.75 362.898438 344.71875 362.898438 Z M 344.71875 362.898438 " style=" stroke:none;fill-rule:nonzero;fill:rgb(100%,43.921569%,21.568627%);fill-opacity:1;" />
<path d="M 397.269531 415.550781 C 397.269531 444.578125 373.644531 468.203125 344.617188 468.203125 L 344.617188 362.902344 C 373.644531 362.902344 397.269531 386.515625 397.269531 415.550781 Z M 397.269531 415.550781 " style=" stroke:none;fill-rule:nonzero;fill:rgb(100%,29.803922%,1.568627%);fill-opacity:1;" />
<path d="M 209.886719 389.328125 C 195.429688 389.328125 183.667969 401.089844 183.667969 415.550781 C 183.667969 430.007812 195.429688 441.773438 209.886719 441.773438 C 224.347656 441.773438 236.109375 430.007812 236.109375 415.550781 C 236.113281 401.089844 224.347656 389.328125 209.886719 389.328125 Z M 209.886719 389.328125 " style=" stroke:none;fill-rule:nonzero;fill:rgb(100%,91.372549%,80%);fill-opacity:1;" />
<path d="M 236.109375 415.550781 C 236.109375 430.007812 224.347656 441.769531 209.890625 441.769531 L 209.890625 389.324219 C 224.347656 389.324219 236.109375 401.09375 236.109375 415.550781 Z M 236.109375 415.550781 " style=" stroke:none;fill-rule:nonzero;fill:rgb(100%,82.745098%,60%);fill-opacity:1;" />
<path d="M 370.941406 415.550781 C 370.941406 430.007812 359.179688 441.769531 344.722656 441.769531 L 344.621094 441.769531 C 330.214844 441.71875 318.496094 429.980469 318.496094 415.550781 C 318.496094 401.125 330.214844 389.375 344.621094 389.324219 L 344.722656 389.324219 C 359.179688 389.324219 370.941406 401.09375 370.941406 415.550781 Z M 370.941406 415.550781 " style=" stroke:none;fill-rule:nonzero;fill:rgb(100%,91.372549%,80%);fill-opacity:1;" />
<path d="M 370.941406 415.550781 C 370.941406 430.007812 359.179688 441.769531 344.722656 441.769531 L 344.621094 441.769531 L 344.621094 389.324219 L 344.722656 389.324219 C 359.179688 389.324219 370.941406 401.09375 370.941406 415.550781 Z M 370.941406 415.550781 " style=" stroke:none;fill-rule:nonzero;fill:rgb(100%,82.745098%,60%);fill-opacity:1;" />
</g>
</svg>