<svg xmlns="http://www.w3.org/2000/svg" height="511pt" version="1.1" viewBox="0 -27 511.99999 511" width="511pt">
<g id="surface1">
<path d="M 374.75 75.410156 C 374.875 82.113281 376.207031 75.734375 264.449219 221.734375 C 260.414062 226.960938 252.5 226.972656 248.453125 221.734375 L 140.25 81.742188 C 137.472656 78.148438 137.378906 72.917969 140.390625 69.203125 C 153.925781 52.445312 179.246094 21.125 193.058594 4.039062 C 194.96875 1.804688 197.777344 0.5 200.742188 0.5 L 312.164062 0.5 C 315.535156 0.5 318.457031 2.171875 320.03125 4.25 C 376.601562 74.261719 374.703125 70.46875 374.75 75.410156 Z M 374.75 75.410156 " style=" stroke:none;fill-rule:nonzero;fill:rgb(49.411765%,84.705882%,96.470588%);fill-opacity:1;" />
<path d="M 374.75 75.410156 C 374.875 82.113281 376.207031 75.734375 264.449219 221.734375 C 262.429688 224.355469 259.433594 225.660156 256.453125 225.660156 L 256.453125 0.5 L 312.164062 0.5 C 317.191406 0.5 319.742188 3.960938 319.847656 4.039062 C 375.796875 73.261719 374.703125 70.089844 374.75 75.410156 Z M 374.75 75.410156 " style=" stroke:none;fill-rule:nonzero;fill:rgb(18.431373%,75.294118%,94.117647%);fill-opacity:1;" />
<path d="M 374.75 75.410156 L 138.15625 75.410156 C 138.203125 70.09375 137.09375 73.28125 193.058594 4.039062 C 194.96875 1.804688 197.777344 0.5 200.742188 0.5 L 312.164062 0.5 C 317.191406 0.5 319.742188 3.960938 319.847656 4.039062 C 375.796875 73.261719 374.703125 70.089844 374.75 75.410156 Z M 374.75 75.410156 " style=" stroke:none;fill-rule:nonzero;fill:rgb(74.509804%,92.156863%,98.039216%);fill-opacity:1;" />
<path d="M 374.75 75.410156 L 256.453125 75.410156 L 256.453125 0.5 L 312.164062 0.5 C 317.191406 0.5 319.742188 3.960938 319.847656 4.039062 C 375.796875 73.261719 374.703125 70.089844 374.75 75.410156 Z M 374.75 75.410156 " style=" stroke:none;fill-rule:nonzero;fill:rgb(49.411765%,84.705882%,96.470588%);fill-opacity:1;" />
<path d="M 488.390625 151.019531 L 472.855469 146.859375 L 489.316406 130.398438 C 495.238281 124.476562 495.238281 114.875 489.316406 108.953125 C 483.394531 103.027344 473.789062 103.027344 467.867188 108.953125 L 451.410156 125.410156 L 447.246094 109.875 C 445.078125 101.78125 436.765625 96.980469 428.671875 99.148438 C 420.578125 101.316406 415.777344 109.632812 417.945312 117.722656 L 422.109375 133.261719 L 406.574219 129.097656 C 398.496094 126.929688 390.167969 131.730469 388 139.820312 C 385.832031 147.910156 390.632812 156.226562 398.722656 158.394531 L 414.261719 162.558594 L 383.109375 193.707031 C 376.574219 200.242188 377.714844 209.902344 383.34375 215.390625 C 389.132812 221.03125 398.65625 221.058594 404.558594 215.15625 L 435.707031 184.007812 L 439.871094 199.542969 C 442.011719 207.539062 450.136719 212.292969 458.117188 210.363281 C 466.164062 208.414062 471.425781 200.101562 469.171875 191.691406 L 465.007812 176.15625 L 480.542969 180.320312 C 488.667969 182.496094 496.960938 177.648438 499.117188 169.59375 C 501.285156 161.503906 496.484375 153.1875 488.390625 151.019531 Z M 488.390625 151.019531 " style=" stroke:none;fill-rule:nonzero;fill:rgb(74.509804%,92.156863%,98.039216%);fill-opacity:1;" />
<path d="M 99.84375 162.558594 L 115.378906 158.394531 C 123.46875 156.226562 128.269531 147.910156 126.101562 139.820312 C 123.933594 131.730469 115.617188 126.925781 107.527344 129.097656 L 91.992188 133.261719 L 96.15625 117.722656 C 98.324219 109.632812 93.523438 101.316406 85.433594 99.148438 C 77.34375 96.984375 69.023438 101.78125 66.855469 109.875 L 62.695312 125.410156 L 46.234375 108.953125 C 40.3125 103.027344 30.710938 103.027344 24.785156 108.953125 C 18.863281 114.875 18.863281 124.476562 24.785156 130.398438 L 41.246094 146.859375 L 25.710938 151.019531 C 17.617188 153.1875 12.816406 161.503906 14.984375 169.59375 C 17.152344 177.675781 25.460938 182.492188 33.558594 180.320312 L 49.09375 176.15625 L 44.933594 191.691406 C 42.765625 199.785156 47.566406 208.101562 55.65625 210.265625 C 63.796875 212.449219 72.078125 207.582031 74.230469 199.542969 L 78.394531 184.007812 L 109.546875 215.15625 C 115.46875 221.078125 125.070312 221.082031 130.992188 215.15625 C 136.917969 209.234375 136.917969 199.632812 130.992188 193.707031 Z M 99.84375 162.558594 " style=" stroke:none;fill-rule:nonzero;fill:rgb(74.509804%,92.156863%,98.039216%);fill-opacity:1;" />
<path d="M 107.640625 307.882812 L 107.640625 441.535156 C 107.640625 449.917969 100.847656 456.703125 92.472656 456.703125 L 15.167969 456.703125 C 6.792969 456.703125 0 449.917969 0 441.535156 L 0 307.882812 C 0 299.507812 6.792969 292.714844 15.167969 292.714844 L 92.472656 292.714844 C 100.847656 292.714844 107.640625 299.511719 107.640625 307.882812 Z M 107.640625 307.882812 " style=" stroke:none;fill-rule:nonzero;fill:rgb(100%,39.215686%,14.901961%);fill-opacity:1;" />
<path d="M 107.640625 374.714844 L 107.640625 441.535156 C 107.640625 449.917969 100.847656 456.703125 92.472656 456.703125 L 15.167969 456.703125 C 6.792969 456.703125 0 449.917969 0 441.535156 L 0 374.714844 Z M 107.640625 374.714844 " style=" stroke:none;fill-rule:nonzero;fill:rgb(100%,29.803922%,1.568627%);fill-opacity:1;" />
<path d="M 490.851562 379.839844 L 398.519531 433.628906 C 372.585938 448.734375 343.023438 456.722656 313.011719 456.722656 L 77.308594 456.722656 L 77.308594 307.882812 C 77.308594 273.199219 104.203125 249.90625 144.242188 249.90625 C 155.6875 251.476562 205.355469 241.773438 227.140625 277.789062 C 230.75 283.757812 236.828125 287.316406 243.378906 287.316406 L 293.914062 287.316406 C 325.464844 287.316406 347.648438 318.527344 337.472656 348.152344 L 337.472656 348.164062 C 373.503906 343.460938 383.027344 333.527344 452.230469 304.3125 C 469.699219 296.546875 490.015625 301.652344 501.945312 315.765625 C 503.824219 317.980469 505.492188 320.417969 506.910156 323.058594 C 517.769531 343.328125 510.722656 368.265625 490.851562 379.839844 Z M 490.851562 379.839844 " style=" stroke:none;fill-rule:nonzero;fill:rgb(100%,74.117647%,52.54902%);fill-opacity:1;" />
<path d="M 490.851562 379.839844 L 398.519531 433.628906 C 372.585938 448.734375 343.023438 456.722656 313.011719 456.722656 L 255.976562 456.722656 L 255.976562 287.316406 L 293.914062 287.316406 C 325.464844 287.316406 347.648438 318.527344 337.472656 348.152344 L 337.472656 348.164062 C 351.398438 346.347656 363.191406 343.875 378.613281 337 L 452.230469 304.3125 C 469.699219 296.546875 490.015625 301.652344 501.945312 315.765625 C 503.824219 317.980469 505.492188 320.417969 506.910156 323.058594 C 517.769531 343.328125 510.722656 368.265625 490.851562 379.839844 Z M 490.851562 379.839844 " style=" stroke:none;fill-rule:nonzero;fill:rgb(96.470588%,66.27451%,42.352941%);fill-opacity:1;" />
<path d="M 501.945312 315.769531 L 464.484375 332.058594 L 390.925781 364.726562 C 369.078125 374.433594 345.882812 379.347656 321.980469 379.347656 L 207.535156 379.347656 C 199.164062 379.347656 192.371094 372.5625 192.371094 364.179688 C 192.371094 355.808594 199.164062 349.011719 207.535156 349.011719 C 323.542969 347.851562 340.796875 353.855469 378.613281 337 L 452.230469 304.3125 C 469.699219 296.546875 490.015625 301.652344 501.945312 315.769531 Z M 501.945312 315.769531 " style=" stroke:none;fill-rule:nonzero;fill:rgb(96.470588%,66.27451%,42.352941%);fill-opacity:1;" />
<path d="M 501.945312 315.769531 L 464.484375 332.058594 L 390.925781 364.726562 C 369.078125 374.433594 345.882812 379.347656 321.980469 379.347656 L 255.976562 379.347656 L 255.976562 349.011719 C 320.875 348.007812 341.847656 353.390625 378.613281 337 L 452.230469 304.3125 C 469.699219 296.546875 490.015625 301.652344 501.945312 315.769531 Z M 501.945312 315.769531 " style=" stroke:none;fill-rule:nonzero;fill:rgb(91.764706%,60.784314%,34.509804%);fill-opacity:1;" />
<path d="M 24.785156 108.949219 C 18.863281 114.875 18.863281 124.476562 24.785156 130.398438 L 41.246094 146.855469 L 25.707031 151.019531 C 17.617188 153.1875 12.816406 161.503906 14.984375 169.59375 C 17.148438 177.675781 25.460938 182.492188 33.558594 180.316406 L 49.09375 176.15625 L 44.933594 191.691406 C 42.765625 199.78125 47.566406 208.097656 55.65625 210.265625 C 63.796875 212.449219 72.078125 207.582031 74.230469 199.542969 L 78.394531 184.007812 L 109.542969 215.15625 C 115.464844 221.078125 125.070312 221.078125 130.992188 215.15625 Z M 24.785156 108.949219 " style=" stroke:none;fill-rule:nonzero;fill:rgb(61.960784%,88.627451%,97.254902%);fill-opacity:1;" />
<path d="M 488.390625 151.019531 L 472.855469 146.859375 L 489.316406 130.398438 C 495.238281 124.476562 495.238281 114.875 489.316406 108.953125 L 383.34375 215.390625 C 389.132812 221.03125 398.65625 221.058594 404.558594 215.15625 L 435.707031 184.007812 L 439.871094 199.542969 C 442.011719 207.539062 450.132812 212.292969 458.117188 210.363281 C 466.164062 208.414062 471.421875 200.101562 469.171875 191.691406 L 465.007812 176.15625 L 480.542969 180.320312 C 488.667969 182.496094 496.960938 177.648438 499.117188 169.59375 C 501.285156 161.503906 496.484375 153.1875 488.390625 151.019531 Z M 488.390625 151.019531 " style=" stroke:none;fill-rule:nonzero;fill:rgb(61.960784%,88.627451%,97.254902%);fill-opacity:1;" />
</g>
</svg>