<svg xmlns="http://www.w3.org/2000/svg" height="511pt" version="1.1" viewBox="1 0 511.99998 511" width="511pt">
<g id="surface1">
<path d="M 433.742188 95.460938 C 433.742188 87.03125 426.910156 80.199219 418.484375 80.199219 L 15.261719 80.199219 C 6.832031 80.199219 0.00390625 87.03125 0.00390625 95.460938 L 0.00390625 211.078125 L 0 211.078125 L 0 326.695312 C 0 335.117188 6.835938 341.953125 15.257812 341.953125 L 418.480469 341.953125 C 426.929688 341.953125 433.742188 335.085938 433.742188 326.691406 Z M 433.742188 95.460938 " style=" stroke:none;fill-rule:nonzero;fill:rgb(77.254902%,100%,80.392157%);fill-opacity:1;" />
<path d="M 30.515625 211.078125 L 0 211.078125 L 0 326.695312 C 0 335.117188 6.835938 341.953125 15.257812 341.953125 L 418.480469 341.953125 C 426.914062 341.953125 433.742188 335.117188 433.742188 326.695312 L 433.742188 211.078125 C 419.121094 211.078125 44.730469 211.078125 30.515625 211.078125 Z M 30.515625 211.078125 " style=" stroke:none;fill-rule:nonzero;fill:rgb(0%,100%,58.039216%);fill-opacity:1;" />
<path d="M 30.515625 110.71875 L 403.222656 110.71875 L 403.222656 311.4375 L 30.515625 311.4375 Z M 30.515625 110.71875 " style=" stroke:none;fill-rule:nonzero;fill:rgb(0%,100%,58.039216%);fill-opacity:1;" />
<path d="M 30.515625 211.078125 L 403.222656 211.078125 L 403.222656 311.433594 L 30.515625 311.433594 Z M 30.515625 211.078125 " style=" stroke:none;fill-rule:nonzero;fill:rgb(0%,86.666667%,50.196078%);fill-opacity:1;" />
<path d="M 491.445312 153.992188 C 491.445312 145.566406 484.613281 138.734375 476.1875 138.734375 L 72.964844 138.734375 C 64.539062 138.734375 57.707031 145.566406 57.707031 153.992188 L 57.707031 269.609375 L 57.703125 269.609375 L 57.703125 385.226562 C 57.703125 393.648438 64.539062 400.484375 72.960938 400.484375 L 476.1875 400.484375 C 484.632812 400.484375 491.445312 393.621094 491.445312 385.226562 Z M 491.445312 153.992188 " style=" stroke:none;fill-rule:nonzero;fill:rgb(77.254902%,100%,80.392157%);fill-opacity:1;" />
<path d="M 460.925781 269.609375 L 57.703125 269.609375 L 57.703125 385.226562 C 57.703125 393.648438 64.539062 400.484375 72.960938 400.484375 L 476.1875 400.484375 C 484.617188 400.484375 491.445312 393.648438 491.445312 385.226562 L 491.445312 269.609375 Z M 460.925781 269.609375 " style=" stroke:none;fill-rule:nonzero;fill:rgb(0%,93.333333%,54.117647%);fill-opacity:1;" />
<path d="M 88.21875 169.25 L 460.925781 169.25 L 460.925781 369.96875 L 88.21875 369.96875 Z M 88.21875 169.25 " style=" stroke:none;fill-rule:nonzero;fill:rgb(0%,100%,58.039216%);fill-opacity:1;" />
<path d="M 88.21875 269.609375 L 460.925781 269.609375 L 460.925781 369.96875 L 88.21875 369.96875 Z M 88.21875 269.609375 " style=" stroke:none;fill-rule:nonzero;fill:rgb(0%,80%,46.27451%);fill-opacity:1;" />
<path d="M 413.140625 240.5625 L 413.140625 298.660156 C 396.855469 298.660156 383.65625 311.863281 383.65625 328.148438 L 165.496094 328.148438 C 165.496094 311.863281 152.292969 298.660156 136.011719 298.660156 L 136.011719 240.5625 C 152.292969 240.5625 165.496094 227.359375 165.496094 211.074219 L 383.652344 211.074219 C 383.652344 227.359375 396.855469 240.5625 413.140625 240.5625 Z M 413.140625 240.5625 " style=" stroke:none;fill-rule:nonzero;fill:rgb(77.254902%,100%,80.392157%);fill-opacity:1;" />
<path d="M 383.652344 343.40625 L 165.496094 343.40625 C 157.070312 343.40625 150.238281 336.574219 150.238281 328.148438 C 150.238281 320.304688 143.855469 313.921875 136.007812 313.921875 C 127.582031 313.921875 120.75 307.089844 120.75 298.660156 L 120.75 240.5625 C 120.75 232.136719 127.582031 225.304688 136.007812 225.304688 C 143.855469 225.304688 150.238281 218.921875 150.238281 211.074219 C 150.238281 202.648438 157.070312 195.816406 165.496094 195.816406 L 383.652344 195.816406 C 392.082031 195.816406 398.914062 202.648438 398.914062 211.074219 C 398.914062 218.921875 405.296875 225.304688 413.140625 225.304688 C 421.566406 225.304688 428.398438 232.136719 428.398438 240.5625 L 428.398438 298.660156 C 428.398438 307.089844 421.566406 313.921875 413.140625 313.921875 C 405.296875 313.921875 398.914062 320.304688 398.914062 328.148438 C 398.914062 336.574219 392.082031 343.40625 383.652344 343.40625 Z M 178.074219 312.890625 L 371.074219 312.890625 C 375.59375 300.46875 385.460938 290.601562 397.882812 286.082031 L 397.882812 253.140625 C 385.460938 248.625 375.59375 238.753906 371.074219 226.332031 L 178.074219 226.332031 C 173.554688 238.753906 163.6875 248.625 151.265625 253.140625 L 151.265625 286.082031 C 163.6875 290.601562 173.554688 300.46875 178.074219 312.890625 Z M 178.074219 312.890625 " style=" stroke:none;fill-rule:nonzero;fill:rgb(0%,86.666667%,50.196078%);fill-opacity:1;" />
<path d="M 413.140625 269.609375 L 413.140625 298.660156 C 396.855469 298.660156 383.652344 311.863281 383.652344 328.148438 L 165.492188 328.148438 C 165.492188 311.863281 152.296875 298.660156 136.011719 298.660156 L 136.011719 269.609375 Z M 413.140625 269.609375 " style=" stroke:none;fill-rule:nonzero;fill:rgb(0%,100%,58.039216%);fill-opacity:1;" />
<path d="M 397.882812 269.609375 L 397.882812 286.085938 C 385.464844 290.605469 375.597656 300.46875 371.070312 312.890625 L 178.074219 312.890625 C 173.558594 300.46875 163.691406 290.605469 151.269531 286.085938 L 151.269531 269.609375 L 120.753906 269.609375 L 120.753906 298.660156 C 120.753906 307.09375 127.578125 313.917969 136.011719 313.917969 C 143.855469 313.917969 150.242188 320.304688 150.242188 328.148438 C 150.242188 336.570312 157.066406 343.40625 165.5 343.40625 L 383.652344 343.40625 C 392.085938 343.40625 398.910156 336.570312 398.910156 328.148438 C 398.910156 320.304688 405.300781 313.917969 413.140625 313.917969 C 421.566406 313.917969 428.398438 307.09375 428.398438 298.660156 L 428.398438 269.609375 Z M 397.882812 269.609375 " style=" stroke:none;fill-rule:nonzero;fill:rgb(0%,66.666667%,38.823529%);fill-opacity:1;" />
<path d="M 465.683594 0.5 L 251.605469 0.5 C 226.066406 0.5 205.289062 21.277344 205.289062 46.816406 L 205.289062 465.503906 C 205.289062 491.042969 226.066406 511.820312 251.605469 511.820312 L 465.683594 511.820312 C 491.222656 511.820312 512 491.042969 512 465.503906 L 512 46.816406 C 512 21.277344 491.222656 0.5 465.683594 0.5 Z M 465.683594 0.5 " style=" stroke:none;fill-rule:nonzero;fill:rgb(18.431373%,75.294118%,94.117647%);fill-opacity:1;" />
<path d="M 512 46.816406 L 512 465.503906 C 512 491.039062 491.21875 511.820312 465.683594 511.820312 L 358.644531 511.820312 L 358.644531 0.5 L 465.683594 0.5 C 491.21875 0.5 512 21.28125 512 46.816406 Z M 512 46.816406 " style=" stroke:none;fill-rule:nonzero;fill:rgb(5.882353%,66.27451%,86.666667%);fill-opacity:1;" />
<path d="M 481.125 46.816406 L 481.125 465.503906 C 481.125 474.03125 474.210938 480.945312 465.683594 480.945312 L 251.605469 480.945312 C 243.078125 480.945312 236.167969 474.03125 236.167969 465.503906 L 236.167969 46.816406 C 236.167969 38.289062 243.078125 31.378906 251.605469 31.378906 L 271.207031 31.378906 C 275.925781 31.378906 280.039062 34.582031 281.191406 39.15625 L 287.042969 62.386719 C 289.316406 71.425781 297.449219 77.765625 306.773438 77.765625 L 410.515625 77.765625 C 419.84375 77.765625 427.972656 71.425781 430.246094 62.386719 L 436.097656 39.15625 C 437.25 34.582031 441.363281 31.378906 446.082031 31.378906 L 465.683594 31.378906 C 474.210938 31.375 481.125 38.289062 481.125 46.816406 Z M 481.125 46.816406 " style=" stroke:none;fill-rule:nonzero;fill:rgb(77.254902%,100%,80.392157%);fill-opacity:1;" />
<path d="M 481.125 46.816406 L 481.125 465.503906 C 481.125 474.027344 474.207031 480.945312 465.683594 480.945312 L 358.644531 480.945312 L 358.644531 77.765625 L 410.515625 77.765625 C 419.84375 77.765625 427.972656 71.425781 430.246094 62.386719 L 436.105469 39.160156 C 437.257812 34.578125 441.363281 31.378906 446.078125 31.378906 L 465.683594 31.378906 C 474.207031 31.375 481.125 38.292969 481.125 46.816406 Z M 481.125 46.816406 " style=" stroke:none;fill-rule:nonzero;fill:rgb(65.098039%,100%,70.980392%);fill-opacity:1;" />
<path d="M 397.070312 431.128906 L 320.21875 431.128906 C 311.695312 431.128906 304.78125 438.039062 304.78125 446.566406 C 304.78125 455.09375 311.695312 462.003906 320.21875 462.003906 L 397.070312 462.003906 C 405.59375 462.003906 412.507812 455.09375 412.507812 446.566406 C 412.507812 438.039062 405.59375 431.128906 397.070312 431.128906 Z M 397.070312 431.128906 " style=" stroke:none;fill-rule:nonzero;fill:rgb(18.431373%,75.294118%,94.117647%);fill-opacity:1;" />
<path d="M 412.503906 446.566406 C 412.503906 455.089844 405.597656 462.003906 397.066406 462.003906 L 358.644531 462.003906 L 358.644531 431.128906 L 397.066406 431.128906 C 405.597656 431.128906 412.503906 438.046875 412.503906 446.566406 Z M 412.503906 446.566406 " style=" stroke:none;fill-rule:nonzero;fill:rgb(5.882353%,66.27451%,86.666667%);fill-opacity:1;" />
<path d="M 302.785156 231.40625 C 276.703125 231.40625 255.484375 210.191406 255.484375 184.109375 L 255.484375 162.746094 C 255.484375 136.664062 276.703125 115.445312 302.785156 115.445312 C 328.863281 115.445312 350.082031 136.664062 350.082031 162.746094 L 350.082031 184.109375 C 350.082031 210.191406 328.863281 231.40625 302.785156 231.40625 Z M 302.785156 145.960938 C 293.53125 145.960938 286 153.488281 286 162.746094 L 286 184.109375 C 286 193.363281 293.53125 200.890625 302.785156 200.890625 C 312.035156 200.890625 319.566406 193.363281 319.566406 184.109375 L 319.566406 162.746094 C 319.566406 153.488281 312.035156 145.960938 302.785156 145.960938 Z M 302.785156 145.960938 " style=" stroke:none;fill-rule:nonzero;fill:rgb(0%,80%,46.27451%);fill-opacity:1;" />
<path d="M 418.199219 231.40625 C 409.769531 231.40625 402.9375 224.578125 402.9375 216.148438 L 402.9375 145.960938 L 392.296875 145.960938 C 383.871094 145.960938 377.039062 139.128906 377.039062 130.703125 C 377.039062 122.277344 383.871094 115.445312 392.296875 115.445312 L 418.199219 115.445312 C 426.625 115.445312 433.457031 122.277344 433.457031 130.703125 L 433.457031 216.148438 C 433.457031 224.578125 426.625 231.40625 418.199219 231.40625 Z M 418.199219 231.40625 " style=" stroke:none;fill-rule:nonzero;fill:rgb(0%,66.666667%,38.823529%);fill-opacity:1;" />
<path d="M 302.785156 374.15625 C 294.355469 374.15625 287.523438 367.324219 287.523438 358.898438 L 287.523438 288.710938 L 276.882812 288.710938 C 268.457031 288.710938 261.625 281.878906 261.625 273.453125 C 261.625 265.027344 268.457031 258.195312 276.882812 258.195312 L 302.785156 258.195312 C 311.210938 258.195312 318.042969 265.027344 318.042969 273.453125 L 318.042969 358.898438 C 318.042969 367.324219 311.210938 374.15625 302.785156 374.15625 Z M 302.785156 374.15625 " style=" stroke:none;fill-rule:nonzero;fill:rgb(0%,80%,46.27451%);fill-opacity:1;" />
<path d="M 415.960938 374.15625 C 389.882812 374.15625 368.664062 352.941406 368.664062 326.859375 L 368.664062 305.492188 C 368.664062 279.414062 389.878906 258.195312 415.960938 258.195312 C 442.042969 258.195312 463.261719 279.414062 463.261719 305.492188 L 463.261719 326.859375 C 463.261719 352.9375 442.042969 374.15625 415.960938 374.15625 Z M 415.960938 288.710938 C 406.707031 288.710938 399.179688 296.238281 399.179688 305.496094 L 399.179688 326.859375 C 399.179688 336.113281 406.707031 343.640625 415.960938 343.640625 C 425.214844 343.640625 432.746094 336.113281 432.746094 326.859375 L 432.746094 305.496094 C 432.742188 296.238281 425.214844 288.710938 415.960938 288.710938 Z M 415.960938 288.710938 " style=" stroke:none;fill-rule:nonzero;fill:rgb(0%,66.666667%,38.823529%);fill-opacity:1;" />
</g>
</svg>