<svg xmlns="http://www.w3.org/2000/svg" height="512pt" version="1.1" viewBox="-6 0 512 512.00001" width="512pt">
<g id="surface1">
<path d="M 349.664062 159.761719 C 341.023438 175.769531 196.316406 443.839844 189.191406 457.035156 L 164.191406 443.535156 C 170.074219 432.652344 171.355469 420.128906 167.8125 408.28125 C 165.648438 401.050781 161.859375 394.601562 156.753906 389.339844 L 178.234375 349.542969 L 322.65625 82 L 327.140625 84.425781 C 354.160156 99.019531 364.246094 132.742188 349.664062 159.761719 Z M 349.664062 159.761719 " style=" stroke:none;fill-rule:nonzero;fill:rgb(100%,80.392157%,0%);fill-opacity:1;" />
<path d="M 500.503906 31.585938 L 500.503906 260.632812 C 500.503906 278.078125 486.359375 292.222656 468.914062 292.222656 L 31.585938 292.222656 C 14.140625 292.222656 0 278.078125 0 260.632812 L 0 31.585938 C 0 14.140625 14.140625 0 31.585938 0 L 468.914062 0 C 486.359375 0 500.503906 14.140625 500.503906 31.585938 Z M 500.503906 31.585938 " style=" stroke:none;fill-rule:nonzero;fill:rgb(49.411765%,84.705882%,96.470588%);fill-opacity:1;" />
<path d="M 500.503906 31.585938 L 500.503906 260.632812 C 500.503906 278.078125 486.359375 292.222656 468.914062 292.222656 L 248.585938 292.222656 L 248.585938 0 L 468.914062 0 C 486.359375 0 500.503906 14.140625 500.503906 31.585938 Z M 500.503906 31.585938 " style=" stroke:none;fill-rule:nonzero;fill:rgb(18.431373%,75.294118%,94.117647%);fill-opacity:1;" />
<path d="M 354.28125 29.722656 C 323.851562 29.722656 299.097656 54.480469 299.097656 84.910156 C 299.097656 115.339844 323.851562 140.097656 354.28125 140.097656 C 384.710938 140.097656 409.46875 115.339844 409.46875 84.910156 C 409.46875 54.480469 384.710938 29.722656 354.28125 29.722656 Z M 354.28125 29.722656 " style=" stroke:none;fill-rule:nonzero;fill:rgb(100%,39.215686%,14.901961%);fill-opacity:1;" />
<path d="M 416.066406 29.722656 C 385.636719 29.722656 360.878906 54.480469 360.878906 84.910156 C 360.878906 115.339844 385.636719 140.097656 416.066406 140.097656 C 446.496094 140.097656 471.253906 115.339844 471.253906 84.910156 C 471.253906 54.480469 446.496094 29.722656 416.066406 29.722656 Z M 416.066406 29.722656 " style=" stroke:none;fill-rule:nonzero;fill:rgb(100%,89.411765%,46.666667%);fill-opacity:1;" />
<path d="M 315.238281 421.527344 C 315.238281 432.390625 318.976562 442.371094 325.238281 450.269531 L 309.113281 459.136719 C 307.054688 455.3125 293.398438 430.027344 274.84375 395.652344 C 229.472656 311.585938 154.777344 173.230469 148.640625 161.863281 C 134.058594 134.84375 144.136719 101.121094 171.15625 86.527344 C 173.617188 85.179688 176.734375 86.105469 178.078125 88.597656 C 185.234375 101.855469 271.714844 262.210938 315.617188 343.617188 C 324.890625 360.804688 332.265625 374.484375 336.59375 382.5 C 323.746094 390.734375 315.238281 405.136719 315.238281 421.527344 Z M 315.238281 421.527344 " style=" stroke:none;fill-rule:nonzero;fill:rgb(100%,92.156863%,60%);fill-opacity:1;" />
<path d="M 296.015625 299.984375 C 296.015625 328.914062 272.5625 352.363281 243.636719 352.363281 C 214.710938 352.363281 191.257812 328.914062 191.257812 299.984375 C 191.257812 271.058594 214.710938 247.609375 243.636719 247.609375 C 272.5625 247.609375 296.015625 271.058594 296.015625 299.984375 Z M 296.015625 299.984375 " style=" stroke:none;fill-rule:nonzero;fill:rgb(100%,53.333333%,34.901961%);fill-opacity:1;" />
<path d="M 243.632812 247.609375 L 243.632812 352.359375 C 272.566406 352.359375 296.011719 328.910156 296.011719 299.988281 C 296.011719 271.058594 272.566406 247.609375 243.632812 247.609375 Z M 243.632812 247.609375 " style=" stroke:none;fill-rule:nonzero;fill:rgb(100%,39.215686%,14.901961%);fill-opacity:1;" />
<path d="M 101.453125 29.722656 L 42.824219 29.722656 C 34.121094 29.722656 27.0625 36.78125 27.0625 45.480469 L 27.0625 101.3125 C 27.0625 110.011719 34.121094 117.070312 42.824219 117.070312 L 101.453125 117.070312 C 110.152344 117.070312 117.210938 110.011719 117.210938 101.3125 L 117.210938 45.480469 C 117.210938 36.78125 110.152344 29.722656 101.453125 29.722656 Z M 101.453125 29.722656 " style=" stroke:none;fill-rule:nonzero;fill:rgb(18.431373%,75.294118%,94.117647%);fill-opacity:1;" />
<path d="M 42.824219 213.949219 L 101.453125 213.949219 C 110.152344 213.949219 117.210938 206.894531 117.210938 198.191406 C 117.210938 189.488281 110.152344 182.433594 101.453125 182.433594 L 42.824219 182.433594 C 34.121094 182.433594 27.0625 189.488281 27.0625 198.191406 C 27.0625 206.894531 34.121094 213.949219 42.824219 213.949219 Z M 42.824219 213.949219 " style=" stroke:none;fill-rule:nonzero;fill:rgb(18.431373%,75.294118%,94.117647%);fill-opacity:1;" />
<path d="M 141.046875 231.851562 L 42.824219 231.851562 C 34.121094 231.851562 27.0625 238.90625 27.0625 247.609375 C 27.0625 256.3125 34.121094 263.367188 42.824219 263.367188 L 141.046875 263.367188 C 149.75 263.367188 156.804688 256.3125 156.804688 247.609375 C 156.804688 238.90625 149.75 231.851562 141.046875 231.851562 Z M 141.046875 231.851562 " style=" stroke:none;fill-rule:nonzero;fill:rgb(18.431373%,75.294118%,94.117647%);fill-opacity:1;" />
<path d="M 369.234375 202.777344 L 338.699219 202.777344 C 329.996094 202.777344 322.941406 209.835938 322.941406 218.535156 C 322.941406 227.238281 329.996094 234.296875 338.699219 234.296875 L 369.234375 234.296875 C 377.9375 234.296875 384.992188 227.238281 384.992188 218.535156 C 384.992188 209.835938 377.9375 202.777344 369.234375 202.777344 Z M 369.234375 202.777344 " style=" stroke:none;fill-rule:nonzero;fill:rgb(49.411765%,84.705882%,96.470588%);fill-opacity:1;" />
<path d="M 446.601562 202.777344 L 416.066406 202.777344 C 407.363281 202.777344 400.308594 209.835938 400.308594 218.535156 C 400.308594 227.238281 407.363281 234.296875 416.066406 234.296875 L 446.601562 234.296875 C 455.304688 234.296875 462.359375 227.238281 462.359375 218.535156 C 462.359375 209.835938 455.304688 202.777344 446.601562 202.777344 Z M 446.601562 202.777344 " style=" stroke:none;fill-rule:nonzero;fill:rgb(49.411765%,84.705882%,96.470588%);fill-opacity:1;" />
<path d="M 264.53125 298.933594 C 264.53125 310.476562 255.175781 319.832031 243.636719 319.832031 C 232.097656 319.832031 222.742188 310.476562 222.742188 298.933594 C 222.742188 287.394531 232.097656 278.039062 243.636719 278.039062 C 255.175781 278.039062 264.53125 287.394531 264.53125 298.933594 Z M 264.53125 298.933594 " style=" stroke:none;fill-rule:nonzero;fill:rgb(100%,72.54902%,61.568627%);fill-opacity:1;" />
<path d="M 409.472656 84.910156 C 409.472656 103.90625 399.828125 120.679688 385.183594 130.621094 C 370.527344 120.691406 360.882812 103.90625 360.882812 84.910156 C 360.882812 65.917969 370.527344 49.128906 385.183594 39.203125 C 399.828125 49.140625 409.472656 65.917969 409.472656 84.910156 Z M 409.472656 84.910156 " style=" stroke:none;fill-rule:nonzero;fill:rgb(100%,39.215686%,14.901961%);fill-opacity:1;" />
<path d="M 409.472656 84.910156 C 409.472656 103.90625 399.828125 120.679688 385.183594 130.621094 C 370.527344 120.691406 360.882812 103.90625 360.882812 84.910156 C 360.882812 65.917969 370.527344 49.128906 385.183594 39.203125 C 399.828125 49.140625 409.472656 65.917969 409.472656 84.910156 Z M 409.472656 84.910156 " style=" stroke:none;fill-rule:nonzero;fill:rgb(100%,58.039216%,41.568627%);fill-opacity:1;" />
<path d="M 174.785156 349.542969 C 130.324219 315.753906 66.574219 330.058594 40.386719 378.570312 C 16.6875 422.460938 33.117188 477.457031 77.019531 501.160156 C 90.644531 508.511719 105.34375 512 119.839844 512 L 120 512 C 152.144531 511.949219 183.292969 494.730469 199.609375 464.515625 C 221.179688 424.554688 209.394531 375.84375 174.785156 349.542969 Z M 120.007812 467.84375 L 120 467.84375 C 94.417969 467.835938 73.691406 447.109375 73.691406 421.527344 C 73.691406 395.945312 94.417969 375.21875 120 375.207031 L 120.007812 375.207031 C 145.589844 375.207031 166.328125 395.945312 166.328125 421.527344 C 166.328125 447.109375 145.589844 467.84375 120.007812 467.84375 Z M 120.007812 467.84375 " style=" stroke:none;fill-rule:nonzero;fill:rgb(100%,53.333333%,34.901961%);fill-opacity:1;" />
<path d="M 199.609375 464.515625 C 183.292969 494.730469 152.144531 511.949219 120 512 L 120 467.84375 L 120.007812 467.84375 C 145.589844 467.84375 166.328125 447.109375 166.328125 421.527344 C 166.328125 395.945312 145.589844 375.207031 120.007812 375.207031 L 120 375.207031 L 120 331.085938 C 188.210938 330.988281 232.0625 404.402344 199.609375 464.515625 Z M 199.609375 464.515625 " style=" stroke:none;fill-rule:nonzero;fill:rgb(100%,39.215686%,14.901961%);fill-opacity:1;" />
<path d="M 435.292969 349.542969 C 385.207031 311.472656 312.039062 334.910156 293.804688 395.652344 C 281.785156 435.855469 299.171875 480.453125 337.527344 501.160156 C 351.152344 508.511719 365.851562 512 380.347656 512 L 380.507812 512 C 412.652344 511.949219 443.800781 494.730469 460.117188 464.515625 C 481.683594 424.550781 469.898438 375.847656 435.292969 349.542969 Z M 380.515625 467.84375 L 380.507812 467.84375 C 354.964844 467.828125 334.199219 447.128906 334.199219 421.527344 C 334.199219 395.988281 354.890625 375.207031 380.507812 375.207031 L 380.515625 375.207031 C 406.097656 375.207031 426.835938 395.945312 426.835938 421.527344 C 426.835938 447.109375 406.097656 467.84375 380.515625 467.84375 Z M 380.515625 467.84375 " style=" stroke:none;fill-rule:nonzero;fill:rgb(100%,53.333333%,34.901961%);fill-opacity:1;" />
<path d="M 460.117188 464.515625 C 443.800781 494.730469 412.652344 511.949219 380.507812 512 L 380.507812 467.84375 L 380.519531 467.84375 C 406.097656 467.84375 426.835938 447.109375 426.835938 421.527344 C 426.835938 395.945312 406.097656 375.207031 380.519531 375.207031 L 380.507812 375.207031 L 380.507812 331.085938 C 401.09375 331.054688 420.179688 338.058594 435.292969 349.542969 C 469.933594 375.867188 481.660156 424.609375 460.117188 464.515625 Z M 460.117188 464.515625 " style=" stroke:none;fill-rule:nonzero;fill:rgb(100%,39.215686%,14.901961%);fill-opacity:1;" />
<path d="M 264.527344 298.9375 C 264.527344 310.472656 255.179688 319.832031 243.632812 319.832031 L 243.632812 278.042969 C 255.179688 278.042969 264.527344 287.394531 264.527344 298.9375 Z M 264.527344 298.9375 " style=" stroke:none;fill-rule:nonzero;fill:rgb(100%,58.039216%,41.568627%);fill-opacity:1;" />
</g>
</svg>