<svg xmlns="http://www.w3.org/2000/svg" height="511pt" version="1.1" viewBox="1 -23 511.99998 511" width="511pt">
<g id="surface1">
<path d="M 426.351562 241.667969 L 256 71.316406 L 85.648438 241.667969 C 79.625 247.691406 69.859375 247.691406 63.835938 241.667969 C 57.816406 235.644531 57.816406 225.882812 63.835938 219.859375 L 245.097656 38.601562 C 247.988281 35.710938 251.910156 34.085938 256 34.085938 C 260.089844 34.085938 264.011719 35.710938 266.902344 38.601562 L 448.160156 219.859375 C 454.183594 225.882812 454.183594 235.644531 448.160156 241.667969 C 442.140625 247.691406 432.375 247.691406 426.351562 241.667969 Z M 426.351562 241.667969 " style=" stroke:none;fill-rule:nonzero;fill:rgb(100%,88.235294%,73.333333%);fill-opacity:1;" />
<path d="M 437.257812 246.179688 C 433.308594 246.179688 429.359375 244.679688 426.347656 241.667969 L 256 71.320312 L 256 34.082031 C 260.09375 34.082031 264.007812 35.707031 266.910156 38.605469 L 280.695312 52.390625 C 287.691406 59.386719 438.25 209.945312 448.164062 219.859375 C 457.914062 229.609375 450.875 246.179688 437.257812 246.179688 Z M 437.257812 246.179688 " style=" stroke:none;fill-rule:nonzero;fill:rgb(100%,71.372549%,33.333333%);fill-opacity:1;" />
<path d="M 466.6875 465.4375 L 45.3125 465.4375 C 20.328125 465.4375 0 445.113281 0 420.128906 L 0 260.65625 C 0 235.667969 20.328125 215.34375 45.3125 215.34375 L 466.6875 215.34375 C 491.671875 215.34375 512 235.667969 512 260.65625 L 512 420.128906 C 512 445.113281 491.671875 465.4375 466.6875 465.4375 Z M 466.6875 465.4375 " style=" stroke:none;fill-rule:nonzero;fill:rgb(100%,39.215686%,14.901961%);fill-opacity:1;" />
<path d="M 466.691406 215.335938 L 256 215.335938 L 256 465.4375 L 466.691406 465.4375 C 491.675781 465.4375 512 445.109375 512 420.128906 L 512 260.65625 C 512 235.671875 491.675781 215.335938 466.691406 215.335938 Z M 466.691406 215.335938 " style=" stroke:none;fill-rule:nonzero;fill:rgb(100%,29.803922%,1.568627%);fill-opacity:1;" />
<path d="M 481.15625 260.65625 L 481.15625 420.128906 C 481.15625 428.105469 474.667969 434.59375 466.691406 434.59375 L 45.308594 434.59375 C 37.332031 434.59375 30.84375 428.105469 30.84375 420.128906 L 30.84375 260.65625 C 30.84375 252.679688 37.332031 246.179688 45.308594 246.179688 L 466.691406 246.179688 C 474.667969 246.179688 481.15625 252.679688 481.15625 260.65625 Z M 481.15625 260.65625 " style=" stroke:none;fill-rule:nonzero;fill:rgb(100%,88.235294%,73.333333%);fill-opacity:1;" />
<path d="M 481.15625 260.65625 L 481.15625 420.128906 C 481.15625 428.105469 474.667969 434.59375 466.691406 434.59375 L 256 434.59375 L 256 246.179688 L 466.691406 246.179688 C 474.667969 246.179688 481.15625 252.679688 481.15625 260.65625 Z M 481.15625 260.65625 " style=" stroke:none;fill-rule:nonzero;fill:rgb(100%,82.745098%,60%);fill-opacity:1;" />
<path d="M 77.542969 305.167969 L 123.988281 305.167969 C 132.503906 305.167969 139.410156 298.265625 139.410156 289.75 C 139.410156 281.230469 132.503906 274.328125 123.988281 274.328125 L 77.542969 274.328125 C 55.074219 274.328125 36.796875 292.601562 36.796875 315.070312 C 36.796875 337.535156 55.074219 355.8125 77.542969 355.8125 L 98.667969 355.8125 C 104.125 355.8125 108.566406 360.253906 108.566406 365.710938 C 108.566406 371.171875 104.125 375.613281 98.667969 375.613281 L 52.21875 375.613281 C 43.703125 375.613281 36.796875 382.515625 36.796875 391.035156 C 36.796875 399.550781 43.703125 406.457031 52.21875 406.457031 L 98.667969 406.457031 C 121.132812 406.457031 139.410156 388.179688 139.410156 365.710938 C 139.410156 343.246094 121.132812 324.96875 98.667969 324.96875 L 77.542969 324.96875 C 72.082031 324.96875 67.640625 320.527344 67.640625 315.070312 C 67.640625 309.609375 72.082031 305.167969 77.542969 305.167969 Z M 77.542969 305.167969 " style=" stroke:none;fill-rule:nonzero;fill:rgb(100%,39.215686%,14.901961%);fill-opacity:1;" />
<path d="M 339.320312 375.613281 L 301.085938 375.613281 L 301.085938 289.75 C 301.085938 281.230469 294.183594 274.328125 285.664062 274.328125 C 277.148438 274.328125 270.242188 281.230469 270.242188 289.75 L 270.242188 391.035156 C 270.242188 399.550781 277.148438 406.457031 285.664062 406.457031 L 339.320312 406.457031 C 347.839844 406.457031 354.742188 399.550781 354.742188 391.035156 C 354.742188 382.515625 347.839844 375.613281 339.320312 375.613281 Z M 339.320312 375.613281 " style=" stroke:none;fill-rule:nonzero;fill:rgb(100%,39.215686%,14.901961%);fill-opacity:1;" />
<path d="M 403.996094 274.328125 L 382.871094 274.328125 C 374.355469 274.328125 367.449219 281.230469 367.449219 289.75 L 367.449219 391.035156 C 367.449219 399.550781 374.355469 406.457031 382.871094 406.457031 L 403.996094 406.457031 C 440.425781 406.457031 470.0625 376.820312 470.0625 340.390625 C 470.0625 303.960938 440.425781 274.328125 403.996094 274.328125 Z M 403.996094 375.613281 L 398.292969 375.613281 L 398.292969 305.167969 L 403.996094 305.167969 C 423.417969 305.167969 439.21875 320.96875 439.21875 340.390625 C 439.21875 359.8125 423.417969 375.613281 403.996094 375.613281 Z M 403.996094 375.613281 " style=" stroke:none;fill-rule:nonzero;fill:rgb(100%,39.215686%,14.901961%);fill-opacity:1;" />
<path d="M 200.296875 274.328125 C 172.007812 274.328125 148.992188 297.339844 148.992188 325.632812 L 148.992188 355.148438 C 148.992188 383.441406 172.007812 406.457031 200.296875 406.457031 C 228.589844 406.457031 251.605469 383.441406 251.605469 355.148438 L 251.605469 325.632812 C 251.605469 297.339844 228.589844 274.328125 200.296875 274.328125 Z M 220.761719 355.148438 C 220.761719 366.433594 211.582031 375.613281 200.300781 375.613281 C 189.015625 375.613281 179.835938 366.433594 179.835938 355.148438 L 179.835938 325.632812 C 179.835938 314.347656 189.015625 305.167969 200.300781 305.167969 C 211.582031 305.167969 220.761719 314.347656 220.761719 325.632812 Z M 220.761719 355.148438 " style=" stroke:none;fill-rule:nonzero;fill:rgb(100%,39.215686%,14.901961%);fill-opacity:1;" />
<path d="M 256 112.222656 C 225.199219 112.222656 200.140625 87.164062 200.140625 56.363281 C 200.140625 25.558594 225.199219 0.5 256 0.5 C 286.800781 0.5 311.859375 25.558594 311.859375 56.359375 C 311.859375 87.160156 286.800781 112.222656 256 112.222656 Z M 256 112.222656 " style=" stroke:none;fill-rule:nonzero;fill:rgb(100%,39.215686%,14.901961%);fill-opacity:1;" />
<path d="M 281.015625 56.359375 C 281.015625 70.15625 269.796875 81.375 256 81.375 C 242.203125 81.375 230.984375 70.15625 230.984375 56.359375 C 230.984375 42.5625 242.203125 31.347656 256 31.347656 C 269.796875 31.347656 281.015625 42.5625 281.015625 56.359375 Z M 281.015625 56.359375 " style=" stroke:none;fill-rule:nonzero;fill:rgb(100%,88.235294%,73.333333%);fill-opacity:1;" />
<path d="M 339.320312 375.613281 L 301.085938 375.613281 L 301.085938 289.75 C 301.085938 281.230469 294.183594 274.328125 285.664062 274.328125 C 277.148438 274.328125 270.242188 281.230469 270.242188 289.75 L 270.242188 391.035156 C 270.242188 399.550781 277.148438 406.457031 285.664062 406.457031 L 339.320312 406.457031 C 347.839844 406.457031 354.742188 399.550781 354.742188 391.035156 C 354.742188 382.515625 347.839844 375.613281 339.320312 375.613281 Z M 339.320312 375.613281 " style=" stroke:none;fill-rule:nonzero;fill:rgb(100%,29.803922%,1.568627%);fill-opacity:1;" />
<path d="M 403.996094 274.332031 L 382.867188 274.332031 C 374.355469 274.332031 367.449219 281.230469 367.449219 289.753906 L 367.449219 391.03125 C 367.449219 399.554688 374.355469 406.453125 382.867188 406.453125 L 403.996094 406.453125 C 440.421875 406.453125 470.0625 376.824219 470.0625 340.386719 C 470.0625 303.960938 440.421875 274.332031 403.996094 274.332031 Z M 403.996094 375.609375 L 398.289062 375.609375 L 398.289062 305.175781 L 403.996094 305.175781 C 423.417969 305.175781 439.21875 320.964844 439.21875 340.386719 C 439.21875 359.808594 423.417969 375.609375 403.996094 375.609375 Z M 403.996094 375.609375 " style=" stroke:none;fill-rule:nonzero;fill:rgb(100%,29.803922%,1.568627%);fill-opacity:1;" />
<path d="M 256 0.503906 L 256 112.21875 C 286.761719 112.21875 311.855469 87.21875 311.855469 56.359375 C 311.855469 25.558594 286.800781 0.503906 256 0.503906 Z M 256 0.503906 " style=" stroke:none;fill-rule:nonzero;fill:rgb(100%,29.803922%,1.568627%);fill-opacity:1;" />
<path d="M 281.015625 56.359375 C 281.015625 67.15625 274.144531 76.367188 264.554688 79.875 C 261.878906 80.839844 259.003906 81.375 256 81.375 L 256 31.347656 C 268.449219 31.347656 278.792969 40.476562 280.695312 52.390625 C 280.910156 53.6875 281.015625 55.011719 281.015625 56.359375 Z M 281.015625 56.359375 " style=" stroke:none;fill-rule:nonzero;fill:rgb(100%,82.745098%,60%);fill-opacity:1;" />
</g>
</svg>