<svg xmlns="http://www.w3.org/2000/svg" height="511pt" version="1.1" viewBox="-75 1 511 511.99999" width="511pt">
<g id="surface1">
<path d="M 265.238281 0.00390625 L 97.304688 0.00390625 C 88.886719 0.00390625 82.058594 6.832031 82.058594 15.253906 L 82.058594 135.066406 C 82.058594 143.488281 88.886719 150.3125 97.304688 150.3125 L 265.238281 150.3125 C 273.65625 150.3125 280.484375 143.488281 280.484375 135.066406 L 280.484375 15.253906 C 280.484375 6.832031 273.65625 0.00390625 265.238281 0.00390625 Z M 265.238281 0.00390625 " style=" stroke:none;fill-rule:nonzero;fill:rgb(74.509804%,92.156863%,98.039216%);fill-opacity:1;" />
<path d="M 213.375 76.300781 L 149.167969 76.300781 C 140.746094 76.300781 133.921875 83.125 133.921875 91.546875 C 133.921875 99.96875 140.746094 106.792969 149.167969 106.792969 L 213.375 106.792969 C 221.796875 106.792969 228.625 99.96875 228.625 91.546875 C 228.625 83.125 221.796875 76.300781 213.375 76.300781 Z M 213.375 76.300781 " style=" stroke:none;fill-rule:nonzero;fill:rgb(49.411765%,84.705882%,96.470588%);fill-opacity:1;" />
<path d="M 149.167969 54.953125 L 213.375 54.953125 C 221.796875 54.953125 228.625 48.128906 228.625 39.707031 C 228.625 31.285156 221.796875 24.460938 213.375 24.460938 L 149.167969 24.460938 C 140.746094 24.460938 133.921875 31.285156 133.921875 39.707031 C 133.921875 48.128906 140.746094 54.953125 149.167969 54.953125 Z M 149.167969 54.953125 " style=" stroke:none;fill-rule:nonzero;fill:rgb(49.411765%,84.705882%,96.470588%);fill-opacity:1;" />
<path d="M 280.480469 15.246094 L 280.480469 135.070312 C 280.480469 143.484375 273.660156 150.316406 265.234375 150.316406 L 181.273438 150.316406 L 181.273438 0 L 265.234375 0 C 273.660156 0 280.480469 6.832031 280.480469 15.246094 Z M 280.480469 15.246094 " style=" stroke:none;fill-rule:nonzero;fill:rgb(61.960784%,88.627451%,97.254902%);fill-opacity:1;" />
<path d="M 228.617188 91.542969 C 228.617188 99.96875 221.796875 106.789062 213.371094 106.789062 L 181.273438 106.789062 L 181.273438 76.296875 L 213.371094 76.296875 C 221.796875 76.296875 228.617188 83.128906 228.617188 91.542969 Z M 228.617188 91.542969 " style=" stroke:none;fill-rule:nonzero;fill:rgb(36.862745%,80.784314%,95.686275%);fill-opacity:1;" />
<path d="M 228.617188 39.703125 C 228.617188 48.128906 221.796875 54.949219 213.371094 54.949219 L 181.273438 54.949219 L 181.273438 24.457031 L 213.371094 24.457031 C 221.796875 24.457031 228.617188 31.285156 228.617188 39.703125 Z M 228.617188 39.703125 " style=" stroke:none;fill-rule:nonzero;fill:rgb(36.862745%,80.784314%,95.686275%);fill-opacity:1;" />
<path d="M 326.46875 119.820312 L 36.078125 119.820312 C 16.460938 119.820312 0.5 135.78125 0.5 155.398438 L 0.5 476.421875 C 0.5 496.039062 16.460938 512 36.078125 512 L 326.46875 512 C 346.082031 512 362.042969 496.039062 362.042969 476.421875 L 362.042969 155.398438 C 362.042969 135.78125 346.082031 119.820312 326.46875 119.820312 Z M 326.46875 119.820312 " style=" stroke:none;fill-rule:nonzero;fill:rgb(100%,43.921569%,21.568627%);fill-opacity:1;" />
<path d="M 362.042969 155.398438 L 362.042969 476.421875 C 362.042969 496.039062 346.082031 511.996094 326.464844 511.996094 L 181.273438 511.996094 L 181.273438 119.820312 L 326.464844 119.820312 C 346.082031 119.820312 362.042969 135.78125 362.042969 155.398438 Z M 362.042969 155.398438 " style=" stroke:none;fill-rule:nonzero;fill:rgb(100%,29.803922%,1.568627%);fill-opacity:1;" />
<path d="M 318.832031 176.59375 L 318.832031 247.257812 C 318.832031 255.671875 312.011719 262.503906 303.585938 262.503906 L 58.960938 262.503906 C 50.53125 262.503906 43.710938 255.671875 43.710938 247.257812 L 43.710938 176.59375 C 43.710938 168.175781 50.53125 161.34375 58.960938 161.34375 L 303.585938 161.34375 C 312.011719 161.34375 318.832031 168.175781 318.832031 176.59375 Z M 318.832031 176.59375 " style=" stroke:none;fill-rule:nonzero;fill:rgb(100%,92.156863%,60%);fill-opacity:1;" />
<path d="M 318.832031 176.59375 L 318.832031 247.257812 C 318.832031 255.671875 312.011719 262.503906 303.585938 262.503906 L 181.273438 262.503906 L 181.273438 161.34375 L 303.585938 161.34375 C 312.011719 161.34375 318.832031 168.175781 318.832031 176.59375 Z M 318.832031 176.59375 " style=" stroke:none;fill-rule:nonzero;fill:rgb(100%,83.137255%,13.333333%);fill-opacity:1;" />
<path d="M 109.183594 307.828125 L 56.667969 307.828125 C 48.660156 307.828125 42.171875 314.316406 42.171875 322.324219 L 42.171875 369.59375 C 42.171875 377.601562 48.660156 384.089844 56.667969 384.089844 L 109.183594 384.089844 C 117.191406 384.089844 123.679688 377.601562 123.679688 369.59375 L 123.679688 322.324219 C 123.679688 314.316406 117.191406 307.828125 109.183594 307.828125 Z M 109.183594 307.828125 " style=" stroke:none;fill-rule:nonzero;fill:rgb(100%,72.54902%,61.568627%);fill-opacity:1;" />
<path d="M 207.53125 307.828125 L 155.011719 307.828125 C 147.007812 307.828125 140.515625 314.316406 140.515625 322.324219 L 140.515625 369.59375 C 140.515625 377.601562 147.007812 384.089844 155.011719 384.089844 L 207.53125 384.089844 C 215.535156 384.089844 222.027344 377.601562 222.027344 369.59375 L 222.027344 322.324219 C 222.027344 314.316406 215.535156 307.828125 207.53125 307.828125 Z M 207.53125 307.828125 " style=" stroke:none;fill-rule:nonzero;fill:rgb(100%,72.54902%,61.568627%);fill-opacity:1;" />
<path d="M 305.875 307.828125 L 253.359375 307.828125 C 245.351562 307.828125 238.863281 314.316406 238.863281 322.324219 L 238.863281 461.789062 C 238.863281 469.796875 245.351562 476.285156 253.359375 476.285156 L 305.875 476.285156 C 313.882812 476.285156 320.371094 469.796875 320.371094 461.789062 L 320.371094 322.324219 C 320.371094 314.316406 313.882812 307.828125 305.875 307.828125 Z M 305.875 307.828125 " style=" stroke:none;fill-rule:nonzero;fill:rgb(100%,63.137255%,48.235294%);fill-opacity:1;" />
<path d="M 109.183594 400.019531 L 56.667969 400.019531 C 48.660156 400.019531 42.171875 406.511719 42.171875 414.519531 L 42.171875 461.789062 C 42.171875 469.792969 48.660156 476.285156 56.667969 476.285156 L 109.183594 476.285156 C 117.191406 476.285156 123.679688 469.792969 123.679688 461.789062 L 123.679688 414.519531 C 123.679688 406.511719 117.191406 400.019531 109.183594 400.019531 Z M 109.183594 400.019531 " style=" stroke:none;fill-rule:nonzero;fill:rgb(100%,72.54902%,61.568627%);fill-opacity:1;" />
<path d="M 207.53125 400.019531 L 155.011719 400.019531 C 147.007812 400.019531 140.515625 406.511719 140.515625 414.519531 L 140.515625 461.789062 C 140.515625 469.792969 147.007812 476.285156 155.011719 476.285156 L 207.53125 476.285156 C 215.535156 476.285156 222.027344 469.792969 222.027344 461.789062 L 222.027344 414.519531 C 222.027344 406.511719 215.535156 400.019531 207.53125 400.019531 Z M 207.53125 400.019531 " style=" stroke:none;fill-rule:nonzero;fill:rgb(100%,72.54902%,61.568627%);fill-opacity:1;" />
<path d="M 222.023438 322.324219 L 222.023438 369.589844 C 222.023438 377.601562 215.539062 384.09375 207.527344 384.09375 L 181.273438 384.09375 L 181.273438 307.828125 L 207.527344 307.828125 C 215.539062 307.828125 222.023438 314.3125 222.023438 322.324219 Z M 222.023438 322.324219 " style=" stroke:none;fill-rule:nonzero;fill:rgb(100%,63.137255%,48.235294%);fill-opacity:1;" />
<path d="M 222.023438 414.519531 L 222.023438 461.785156 C 222.023438 469.792969 215.539062 476.289062 207.527344 476.289062 L 181.273438 476.289062 L 181.273438 400.023438 L 207.527344 400.023438 C 215.539062 400.023438 222.023438 406.507812 222.023438 414.519531 Z M 222.023438 414.519531 " style=" stroke:none;fill-rule:nonzero;fill:rgb(100%,63.137255%,48.235294%);fill-opacity:1;" />
</g>
</svg>