<svg xmlns="http://www.w3.org/2000/svg" height="512pt" version="1.1" viewBox="0 -25 512.00002 512" width="512pt">
<g id="surface1">
<path d="M 150.296875 193.550781 L 52.929688 193.550781 C 44.585938 193.550781 37.820312 200.316406 37.820312 208.660156 L 37.820312 447.566406 C 37.820312 455.910156 44.585938 462.675781 52.929688 462.675781 L 150.296875 462.675781 C 158.640625 462.675781 165.40625 455.910156 165.40625 447.566406 L 165.40625 208.660156 C 165.40625 200.316406 158.644531 193.550781 150.296875 193.550781 Z M 150.296875 193.550781 " style=" stroke:none;fill-rule:nonzero;fill:rgb(61.960784%,88.627451%,97.254902%);fill-opacity:1;" />
<path d="M 165.40625 208.664062 L 165.40625 447.566406 C 165.40625 455.90625 158.644531 462.679688 150.292969 462.679688 L 101.617188 462.679688 L 101.617188 193.550781 L 150.292969 193.550781 C 158.644531 193.550781 165.40625 200.3125 165.40625 208.664062 Z M 165.40625 208.664062 " style=" stroke:none;fill-rule:nonzero;fill:rgb(36.862745%,80.784314%,95.686275%);fill-opacity:1;" />
<path d="M 304.683594 266.808594 L 207.316406 266.808594 C 198.972656 266.808594 192.207031 273.574219 192.207031 281.921875 L 192.207031 447.566406 C 192.207031 455.910156 198.972656 462.675781 207.316406 462.675781 L 304.683594 462.675781 C 313.027344 462.675781 319.792969 455.910156 319.792969 447.566406 L 319.792969 281.921875 C 319.792969 273.574219 313.027344 266.808594 304.683594 266.808594 Z M 304.683594 266.808594 " style=" stroke:none;fill-rule:nonzero;fill:rgb(61.960784%,88.627451%,97.254902%);fill-opacity:1;" />
<path d="M 319.796875 281.921875 L 319.796875 447.566406 C 319.796875 455.90625 313.027344 462.679688 304.6875 462.679688 L 255.265625 462.679688 L 255.265625 266.808594 L 304.6875 266.808594 C 313.027344 266.808594 319.796875 273.578125 319.796875 281.921875 Z M 319.796875 281.921875 " style=" stroke:none;fill-rule:nonzero;fill:rgb(36.862745%,80.784314%,95.686275%);fill-opacity:1;" />
<path d="M 459.070312 117.613281 L 361.703125 117.613281 C 353.359375 117.613281 346.59375 124.378906 346.59375 132.726562 L 346.59375 447.566406 C 346.59375 455.910156 353.359375 462.675781 361.703125 462.675781 L 459.070312 462.675781 C 467.414062 462.675781 474.179688 455.910156 474.179688 447.566406 L 474.179688 132.726562 C 474.179688 124.378906 467.414062 117.613281 459.070312 117.613281 Z M 459.070312 117.613281 " style=" stroke:none;fill-rule:nonzero;fill:rgb(61.960784%,88.627451%,97.254902%);fill-opacity:1;" />
<path d="M 474.183594 132.726562 L 474.183594 447.566406 C 474.183594 455.90625 467.414062 462.679688 459.070312 462.679688 L 410.382812 462.679688 L 410.382812 117.613281 L 459.070312 117.613281 C 467.414062 117.613281 474.183594 124.382812 474.183594 132.726562 Z M 474.183594 132.726562 " style=" stroke:none;fill-rule:nonzero;fill:rgb(36.862745%,80.784314%,95.686275%);fill-opacity:1;" />
<path d="M 293.738281 139.046875 L 216.796875 139.046875 C 205.265625 139.046875 197.976562 151.480469 203.609375 161.539062 L 242.082031 230.25 C 247.832031 240.519531 262.675781 240.566406 268.453125 230.25 L 306.921875 161.539062 C 312.554688 151.480469 305.269531 139.046875 293.738281 139.046875 Z M 293.738281 139.046875 " style=" stroke:none;fill-rule:nonzero;fill:rgb(100%,48.627451%,28.235294%);fill-opacity:1;" />
<path d="M 462.042969 76.441406 L 423.570312 7.730469 C 417.824219 -2.539062 402.976562 -2.582031 397.203125 7.730469 L 358.730469 76.441406 C 353.097656 86.5 360.386719 98.933594 371.914062 98.933594 L 448.859375 98.933594 C 460.390625 98.933594 467.675781 86.5 462.042969 76.441406 Z M 462.042969 76.441406 " style=" stroke:none;fill-rule:nonzero;fill:rgb(0%,100%,58.039216%);fill-opacity:1;" />
<path d="M 448.855469 98.9375 L 410.382812 98.9375 L 410.382812 0 C 415.855469 0 420.902344 2.960938 423.570312 7.726562 L 462.042969 76.441406 C 467.664062 86.472656 460.421875 98.9375 448.855469 98.9375 Z M 448.855469 98.9375 " style=" stroke:none;fill-rule:nonzero;fill:rgb(0%,86.666667%,50.196078%);fill-opacity:1;" />
<path d="M 153.269531 147.222656 L 114.800781 78.511719 C 109.050781 68.242188 94.203125 68.199219 88.429688 78.511719 L 49.957031 147.222656 C 44.324219 157.28125 51.613281 169.714844 63.140625 169.714844 L 140.085938 169.714844 C 151.617188 169.714844 158.902344 157.28125 153.269531 147.222656 Z M 153.269531 147.222656 " style=" stroke:none;fill-rule:nonzero;fill:rgb(0%,100%,58.039216%);fill-opacity:1;" />
<path d="M 512 447.566406 C 512 455.90625 505.242188 462.679688 496.890625 462.679688 L 15.109375 462.679688 C 6.757812 462.679688 0 455.90625 0 447.566406 C 0 439.214844 6.757812 432.457031 15.109375 432.457031 L 496.890625 432.457031 C 505.242188 432.457031 512 439.214844 512 447.566406 Z M 512 447.566406 " style=" stroke:none;fill-rule:nonzero;fill:rgb(5.882353%,66.27451%,86.666667%);fill-opacity:1;" />
<path d="M 140.089844 169.714844 L 101.617188 169.714844 L 101.617188 70.78125 C 107.085938 70.78125 112.125 73.742188 114.792969 78.515625 L 153.265625 147.222656 C 158.898438 157.296875 151.613281 169.714844 140.089844 169.714844 Z M 140.089844 169.714844 " style=" stroke:none;fill-rule:nonzero;fill:rgb(0%,86.666667%,50.196078%);fill-opacity:1;" />
<path d="M 306.925781 161.535156 L 268.453125 230.25 C 265.78125 235.027344 260.734375 237.976562 255.265625 237.976562 L 255.265625 139.050781 L 293.738281 139.050781 C 305.34375 139.050781 312.523438 151.542969 306.925781 161.535156 Z M 306.925781 161.535156 " style=" stroke:none;fill-rule:nonzero;fill:rgb(100%,39.215686%,14.901961%);fill-opacity:1;" />
<path d="M 512 447.566406 C 512 455.90625 505.242188 462.679688 496.890625 462.679688 L 256.472656 462.679688 L 256.472656 432.457031 L 496.890625 432.457031 C 505.242188 432.457031 512 439.214844 512 447.566406 Z M 512 447.566406 " style=" stroke:none;fill-rule:nonzero;fill:rgb(4.313725%,47.45098%,61.568627%);fill-opacity:1;" />
</g>
</svg>