<svg xmlns="http://www.w3.org/2000/svg" height="511pt" version="1.1" viewBox="-102 1 511 511.99998" width="511pt">
<g id="surface1">
<path d="M 261.242188 0 L 46.875 0 C 21.304688 0 0.5 20.804688 0.5 46.375 L 0.5 465.625 C 0.5 491.195312 21.304688 512 46.875 512 L 261.242188 512 C 286.8125 512 307.617188 491.195312 307.617188 465.625 L 307.617188 46.375 C 307.617188 20.804688 286.8125 0 261.242188 0 Z M 261.242188 0 " style=" stroke:none;fill-rule:nonzero;fill:rgb(100%,76.862745%,46.666667%);fill-opacity:1;" />
<path d="M 307.617188 46.375 L 307.617188 465.625 C 307.617188 491.191406 286.808594 512 261.242188 512 L 154.058594 512 L 154.058594 0 L 261.242188 0 C 286.808594 0 307.617188 20.808594 307.617188 46.375 Z M 307.617188 46.375 " style=" stroke:none;fill-rule:nonzero;fill:rgb(100%,62.352941%,13.333333%);fill-opacity:1;" />
<path d="M 276.699219 46.375 L 276.699219 465.625 C 276.699219 474.160156 269.777344 481.082031 261.242188 481.082031 L 46.875 481.082031 C 38.339844 481.082031 31.417969 474.160156 31.417969 465.625 L 31.417969 46.375 C 31.417969 37.839844 38.339844 30.917969 46.875 30.917969 L 66.507812 30.917969 C 71.230469 30.917969 75.347656 34.128906 76.5 38.707031 L 82.359375 61.96875 C 84.636719 71.019531 92.78125 77.367188 102.117188 77.367188 L 206 77.367188 C 215.339844 77.367188 223.480469 71.019531 225.757812 61.96875 L 231.617188 38.707031 C 232.769531 34.128906 236.890625 30.917969 241.609375 30.917969 L 261.242188 30.917969 C 269.777344 30.917969 276.699219 37.839844 276.699219 46.375 Z M 276.699219 46.375 " style=" stroke:none;fill-rule:nonzero;fill:rgb(100%,94.509804%,71.372549%);fill-opacity:1;" />
<path d="M 276.699219 46.375 L 276.699219 465.625 C 276.699219 474.15625 269.773438 481.082031 261.242188 481.082031 L 154.058594 481.082031 L 154.058594 77.367188 L 206 77.367188 C 215.339844 77.367188 223.480469 71.019531 225.757812 61.96875 L 231.621094 38.710938 C 232.777344 34.121094 236.886719 30.917969 241.609375 30.917969 L 261.242188 30.917969 C 269.773438 30.917969 276.699219 37.84375 276.699219 46.375 Z M 276.699219 46.375 " style=" stroke:none;fill-rule:nonzero;fill:rgb(100%,89.411765%,46.666667%);fill-opacity:1;" />
<path d="M 192.535156 431.203125 L 115.582031 431.203125 C 107.046875 431.203125 100.125 438.121094 100.125 446.660156 C 100.125 455.199219 107.046875 462.121094 115.582031 462.121094 L 192.535156 462.121094 C 201.070312 462.121094 207.992188 455.199219 207.992188 446.660156 C 207.992188 438.121094 201.070312 431.203125 192.535156 431.203125 Z M 192.535156 431.203125 " style=" stroke:none;fill-rule:nonzero;fill:rgb(100%,76.862745%,46.666667%);fill-opacity:1;" />
<path d="M 113.148438 232.445312 C 102.597656 229.871094 91.9375 236.332031 89.355469 246.894531 L 71.753906 318.898438 C 69.171875 329.457031 75.640625 340.109375 86.199219 342.691406 C 96.691406 345.261719 107.394531 338.867188 109.992188 328.246094 L 127.59375 256.238281 C 130.175781 245.683594 123.707031 235.027344 113.148438 232.445312 Z M 113.148438 232.445312 " style=" stroke:none;fill-rule:nonzero;fill:rgb(100%,43.921569%,21.568627%);fill-opacity:1;" />
<path d="M 207.988281 446.660156 C 207.988281 455.195312 201.074219 462.121094 192.53125 462.121094 L 154.058594 462.121094 L 154.058594 431.203125 L 192.53125 431.203125 C 201.074219 431.203125 207.988281 438.125 207.988281 446.660156 Z M 207.988281 446.660156 " style=" stroke:none;fill-rule:nonzero;fill:rgb(100%,62.352941%,13.333333%);fill-opacity:1;" />
<path d="M 222.316406 181.363281 L 222.316406 267.234375 L 100.601562 267.234375 C 81.980469 267.234375 66.878906 252.136719 66.878906 233.511719 L 66.878906 215.085938 C 66.878906 196.460938 81.980469 181.363281 100.601562 181.363281 Z M 222.316406 181.363281 " style=" stroke:none;fill-rule:nonzero;fill:rgb(49.411765%,84.705882%,96.470588%);fill-opacity:1;" />
<path d="M 154.058594 181.363281 L 222.316406 181.363281 L 222.316406 267.234375 L 154.058594 267.234375 Z M 154.058594 181.363281 " style=" stroke:none;fill-rule:nonzero;fill:rgb(36.862745%,80.784314%,95.686275%);fill-opacity:1;" />
<path d="M 223.664062 156.75 L 181.023438 181.351562 L 181.023438 267.21875 L 223.664062 291.816406 C 232.214844 294.898438 241.234375 288.5625 241.234375 279.472656 L 241.234375 169.097656 C 241.234375 160.007812 232.214844 153.671875 223.664062 156.75 Z M 223.664062 156.75 " style=" stroke:none;fill-rule:nonzero;fill:rgb(100%,43.921569%,21.568627%);fill-opacity:1;" />
</g>
</svg>