<svg xmlns="http://www.w3.org/2000/svg" height="511pt" version="1.1" viewBox="-102 1 511 511.99998" width="511pt">
<g id="surface1">
<path d="M 261.242188 0 L 46.875 0 C 21.304688 0 0.5 20.804688 0.5 46.375 L 0.5 465.625 C 0.5 491.195312 21.304688 512 46.875 512 L 261.242188 512 C 286.8125 512 307.617188 491.195312 307.617188 465.625 L 307.617188 46.375 C 307.617188 20.804688 286.8125 0 261.242188 0 Z M 261.242188 0 " style=" stroke:none;fill-rule:nonzero;fill:rgb(18.431373%,75.294118%,94.117647%);fill-opacity:1;" />
<path d="M 307.617188 46.375 L 307.617188 465.625 C 307.617188 491.191406 286.808594 512 261.242188 512 L 154.058594 512 L 154.058594 0 L 261.242188 0 C 286.808594 0 307.617188 20.808594 307.617188 46.375 Z M 307.617188 46.375 " style=" stroke:none;fill-rule:nonzero;fill:rgb(5.882353%,66.27451%,86.666667%);fill-opacity:1;" />
<path d="M 276.699219 46.375 L 276.699219 465.625 C 276.699219 474.160156 269.777344 481.082031 261.242188 481.082031 L 46.875 481.082031 C 38.339844 481.082031 31.417969 474.160156 31.417969 465.625 L 31.417969 46.375 C 31.417969 37.839844 38.339844 30.917969 46.875 30.917969 L 66.507812 30.917969 C 71.230469 30.917969 75.347656 34.128906 76.5 38.707031 L 82.359375 61.96875 C 84.636719 71.019531 92.78125 77.367188 102.117188 77.367188 L 206 77.367188 C 215.339844 77.367188 223.480469 71.019531 225.757812 61.96875 L 231.617188 38.707031 C 232.769531 34.128906 236.890625 30.917969 241.609375 30.917969 L 261.242188 30.917969 C 269.777344 30.917969 276.699219 37.839844 276.699219 46.375 Z M 276.699219 46.375 " style=" stroke:none;fill-rule:nonzero;fill:rgb(100%,94.509804%,71.372549%);fill-opacity:1;" />
<path d="M 276.699219 46.375 L 276.699219 465.625 C 276.699219 474.15625 269.773438 481.082031 261.242188 481.082031 L 154.058594 481.082031 L 154.058594 77.367188 L 206 77.367188 C 215.339844 77.367188 223.480469 71.019531 225.757812 61.96875 L 231.621094 38.710938 C 232.777344 34.121094 236.886719 30.917969 241.609375 30.917969 L 261.242188 30.917969 C 269.773438 30.917969 276.699219 37.84375 276.699219 46.375 Z M 276.699219 46.375 " style=" stroke:none;fill-rule:nonzero;fill:rgb(100%,89.411765%,46.666667%);fill-opacity:1;" />
<path d="M 192.535156 431.203125 L 115.582031 431.203125 C 107.046875 431.203125 100.125 438.121094 100.125 446.660156 C 100.125 455.199219 107.046875 462.121094 115.582031 462.121094 L 192.535156 462.121094 C 201.070312 462.121094 207.992188 455.199219 207.992188 446.660156 C 207.992188 438.121094 201.070312 431.203125 192.535156 431.203125 Z M 192.535156 431.203125 " style=" stroke:none;fill-rule:nonzero;fill:rgb(36.862745%,80.784314%,95.686275%);fill-opacity:1;" />
<path d="M 207.988281 446.660156 C 207.988281 455.195312 201.074219 462.121094 192.53125 462.121094 L 154.058594 462.121094 L 154.058594 431.203125 L 192.53125 431.203125 C 201.074219 431.203125 207.988281 438.125 207.988281 446.660156 Z M 207.988281 446.660156 " style=" stroke:none;fill-rule:nonzero;fill:rgb(5.882353%,66.27451%,86.666667%);fill-opacity:1;" />
<path d="M 232.753906 192.910156 L 111.816406 192.910156 L 110.949219 188.902344 C 107.660156 173.527344 93.851562 162.375 78.136719 162.375 L 60.210938 162.375 C 52.800781 162.375 46.792969 168.382812 46.792969 175.792969 C 46.792969 183.214844 52.800781 189.222656 60.210938 189.222656 L 78.136719 189.222656 C 81.277344 189.222656 84.039062 191.457031 84.699219 194.53125 C 87.734375 208.699219 109.628906 310.875 112.15625 322.664062 C 113.484375 328.859375 118.945312 333.277344 125.285156 333.277344 L 201.363281 333.277344 C 208.773438 333.277344 214.78125 327.269531 214.78125 319.851562 C 214.78125 312.441406 208.773438 306.433594 201.363281 306.433594 L 136.136719 306.433594 L 132.890625 291.292969 L 217.429688 291.292969 C 223.757812 291.292969 229.230469 286.871094 230.558594 280.675781 L 245.886719 209.152344 C 247.660156 200.808594 241.308594 192.910156 232.753906 192.910156 Z M 206.578125 264.445312 L 127.140625 264.445312 L 117.566406 219.757812 L 216.152344 219.757812 Z M 206.578125 264.445312 " style=" stroke:none;fill-rule:nonzero;fill:rgb(100%,48.627451%,28.235294%);fill-opacity:1;" />
<path d="M 214.78125 319.851562 C 214.78125 327.269531 208.773438 333.277344 201.363281 333.277344 L 154.058594 333.277344 L 154.058594 306.433594 L 201.363281 306.433594 C 208.773438 306.433594 214.78125 312.441406 214.78125 319.851562 Z M 214.78125 319.851562 " style=" stroke:none;fill-rule:nonzero;fill:rgb(100%,39.215686%,14.901961%);fill-opacity:1;" />
<path d="M 245.886719 209.152344 L 230.558594 280.675781 C 229.230469 286.871094 223.757812 291.292969 217.429688 291.292969 L 154.058594 291.292969 L 154.058594 264.445312 L 206.578125 264.445312 L 216.152344 219.757812 L 154.058594 219.757812 L 154.058594 192.910156 L 232.753906 192.910156 C 241.285156 192.910156 247.667969 200.785156 245.886719 209.152344 Z M 245.886719 209.152344 " style=" stroke:none;fill-rule:nonzero;fill:rgb(100%,39.215686%,14.901961%);fill-opacity:1;" />
</g>
</svg>