<svg xmlns="http://www.w3.org/2000/svg" height="512pt" version="1.1" viewBox="0 0 512.00001 512" width="512pt">
<g id="surface1">
<path d="M 509.023438 300.222656 C 508.054688 294.003906 507.621094 241.40625 480.53125 181.019531 C 450.386719 113.832031 397.691406 59.785156 328.054688 28.542969 C 267.417969 1.339844 215.21875 1.042969 208.851562 0.0546875 C 194.855469 -1.074219 186.988281 15.894531 196.925781 25.832031 L 483.242188 312.152344 C 493.167969 322.078125 510.167969 314.230469 509.023438 300.222656 Z M 509.023438 300.222656 " style=" stroke:none;fill-rule:nonzero;fill:rgb(84.705882%,86.27451%,92.156863%);fill-opacity:1;" />
<path d="M 483.242188 312.148438 C 474.785156 303.6875 346.957031 175.863281 340.085938 168.992188 C 346.617188 162.460938 406.894531 102.183594 418.441406 90.632812 C 433.875 106.078125 447.523438 123.105469 459.273438 141.542969 C 507.410156 217.125 507.636719 291.320312 509.023438 300.222656 C 510.160156 314.1875 493.207031 322.113281 483.242188 312.148438 Z M 483.242188 312.148438 " style=" stroke:none;fill-rule:nonzero;fill:rgb(68.627451%,71.764706%,80%);fill-opacity:1;" />
<path d="M 388.824219 125.136719 C 388.722656 125.0625 351.359375 84.253906 315.367188 120.253906 C 237.6875 197.933594 73.046875 362.574219 17.390625 418.226562 C -1.558594 437.175781 -1.570312 467.855469 17.390625 486.804688 C 20.175781 488.832031 31.632812 505.890625 56.558594 505.890625 C 78.378906 505.890625 90.488281 491.875 91.003906 491.53125 C 118.296875 464.238281 361.449219 221.082031 388.824219 193.710938 C 407.773438 174.765625 407.785156 144.085938 388.824219 125.136719 Z M 388.824219 125.136719 " style=" stroke:none;fill-rule:nonzero;fill:rgb(100%,80.392157%,0%);fill-opacity:1;" />
<path d="M 388.824219 193.714844 C 374.691406 207.847656 275.667969 306.859375 261.535156 321.003906 L 261.527344 321.003906 C 259.246094 323.285156 186.8125 395.726562 182.542969 399.996094 L 182.535156 399.996094 C 182.433594 400.097656 90.777344 491.738281 90.679688 491.839844 L 90.679688 491.851562 C 88.5625 493.949219 76.691406 505.890625 56.554688 505.890625 C 36.210938 505.890625 24.832031 494.523438 19.828125 489.246094 C 19.992188 489.082031 212.089844 296.996094 386.363281 122.710938 C 387.949219 124.183594 388.804688 125.121094 388.824219 125.132812 C 407.789062 144.085938 407.769531 174.761719 388.824219 193.714844 Z M 388.824219 193.714844 " style=" stroke:none;fill-rule:nonzero;fill:rgb(93.333333%,74.901961%,0%);fill-opacity:1;" />
<path d="M 448.050781 61.023438 C 421.695312 34.667969 379.03125 34.664062 352.667969 61.023438 L 218.011719 195.679688 C 212.105469 201.585938 212.101562 211.171875 218.011719 217.078125 L 291.996094 291.0625 C 297.902344 296.96875 307.488281 296.972656 313.394531 291.0625 L 448.050781 156.40625 C 474.347656 130.109375 474.347656 87.320312 448.050781 61.023438 Z M 448.050781 61.023438 " style=" stroke:none;fill-rule:nonzero;fill:rgb(92.941176%,94.117647%,96.078431%);fill-opacity:1;" />
<path d="M 459.273438 141.542969 C 452.785156 153.195312 458.183594 146.265625 313.394531 291.066406 C 307.484375 296.976562 297.902344 296.964844 292 291.066406 L 255.011719 254.074219 C 261.8125 247.273438 251.875 257.199219 448.046875 61.027344 C 469.824219 82.804688 473.566406 115.882812 459.273438 141.542969 Z M 459.273438 141.542969 " style=" stroke:none;fill-rule:nonzero;fill:rgb(84.705882%,86.27451%,92.156863%);fill-opacity:1;" />
<path d="M 396.765625 281.453125 C 333.226562 281.453125 281.535156 333.144531 281.535156 396.683594 C 281.535156 460.222656 333.226562 511.914062 396.765625 511.914062 C 460.304688 511.914062 511.996094 460.21875 511.996094 396.683594 C 511.996094 333.144531 460.304688 281.453125 396.765625 281.453125 Z M 396.765625 281.453125 " style=" stroke:none;fill-rule:nonzero;fill:rgb(100%,80.392157%,0%);fill-opacity:1;" />
<path d="M 512 396.675781 C 512 460.214844 460.304688 511.914062 396.765625 511.914062 L 396.765625 281.453125 C 460.304688 281.453125 512 333.148438 512 396.675781 Z M 512 396.675781 " style=" stroke:none;fill-rule:nonzero;fill:rgb(93.333333%,74.901961%,0%);fill-opacity:1;" />
<path d="M 396.765625 312.304688 C 350.238281 312.304688 312.386719 350.15625 312.386719 396.683594 C 312.386719 443.207031 350.242188 481.058594 396.765625 481.058594 C 443.289062 481.058594 481.140625 443.207031 481.140625 396.683594 C 481.140625 350.15625 443.289062 312.304688 396.765625 312.304688 Z M 396.765625 312.304688 " style=" stroke:none;fill-rule:nonzero;fill:rgb(100%,94.509804%,71.372549%);fill-opacity:1;" />
<path d="M 481.144531 396.675781 C 481.144531 443.210938 443.285156 481.054688 396.765625 481.054688 L 396.765625 312.308594 C 443.285156 312.308594 481.144531 350.15625 481.144531 396.675781 Z M 481.144531 396.675781 " style=" stroke:none;fill-rule:nonzero;fill:rgb(100%,89.411765%,46.666667%);fill-opacity:1;" />
<path d="M 433.800781 391.148438 C 441.996094 372.074219 431.203125 350.003906 411.027344 344.777344 L 411.027344 339.894531 C 411.027344 331.539062 404.253906 324.765625 395.898438 324.765625 C 387.539062 324.765625 380.765625 331.539062 380.765625 339.894531 L 380.765625 343.695312 L 373.152344 343.695312 C 364.796875 343.695312 358.019531 350.46875 358.019531 358.824219 C 358.019531 379.15625 358.019531 422.214844 358.019531 434.539062 C 358.019531 442.894531 364.796875 449.671875 373.152344 449.671875 L 380.765625 449.671875 L 380.765625 453.46875 C 380.765625 461.824219 387.539062 468.597656 395.898438 468.597656 C 404.253906 468.597656 411.027344 461.824219 411.027344 453.46875 L 411.027344 449.648438 C 441.253906 448.867188 455.363281 412.015625 433.800781 391.148438 Z M 388.28125 373.957031 L 402.492188 373.957031 C 404.585938 373.957031 406.289062 375.660156 406.289062 377.753906 C 406.289062 379.847656 404.585938 381.550781 402.492188 381.550781 L 388.28125 381.550781 Z M 410.136719 419.410156 L 388.28125 419.410156 L 388.28125 411.8125 C 395.847656 411.8125 402.578125 411.8125 410.136719 411.8125 C 412.230469 411.8125 413.933594 413.515625 413.933594 415.613281 C 413.933594 417.707031 412.230469 419.410156 410.136719 419.410156 Z M 410.136719 419.410156 " style=" stroke:none;fill-rule:nonzero;fill:rgb(100%,80.392157%,0%);fill-opacity:1;" />
<path d="M 433.804688 391.148438 C 441.996094 372.074219 431.203125 350.003906 411.027344 344.78125 L 411.027344 339.898438 C 411.027344 331.835938 404.714844 325.242188 396.765625 324.796875 L 396.765625 373.953125 L 402.492188 373.953125 C 404.582031 373.953125 406.285156 375.65625 406.285156 377.753906 C 406.285156 379.851562 404.582031 381.546875 402.492188 381.546875 L 396.765625 381.546875 L 396.765625 411.808594 L 410.140625 411.808594 C 412.226562 411.808594 413.933594 413.511719 413.933594 415.609375 C 413.933594 417.710938 412.226562 419.414062 410.140625 419.414062 L 396.765625 419.414062 L 396.765625 468.570312 C 404.714844 468.125 411.027344 461.527344 411.027344 453.46875 L 411.027344 449.644531 C 441.257812 448.867188 455.359375 412.019531 433.804688 391.148438 Z M 433.804688 391.148438 " style=" stroke:none;fill-rule:nonzero;fill:rgb(93.333333%,74.901961%,0%);fill-opacity:1;" />
<path d="M 186.246094 396.285156 L 90.679688 491.851562 L 62.664062 372.957031 L 125.085938 310.535156 Z M 186.246094 396.285156 " style=" stroke:none;fill-rule:nonzero;fill:rgb(100%,48.627451%,28.235294%);fill-opacity:1;" />
<path d="M 186.246094 396.285156 L 182.542969 399.996094 L 182.535156 399.996094 L 90.679688 491.851562 L 90.679688 491.839844 L 76.667969 432.40625 C 78.007812 431.070312 72.382812 436.691406 155.671875 353.414062 Z M 186.246094 396.285156 " style=" stroke:none;fill-rule:nonzero;fill:rgb(100%,39.215686%,14.901961%);fill-opacity:1;" />
<path d="M 155.820312 279.792969 C 110.375 325.253906 128.8125 306.804688 76.824219 358.796875 L 182.546875 400 L 261.535156 321 Z M 155.820312 279.792969 " style=" stroke:none;fill-rule:nonzero;fill:rgb(100%,63.137255%,48.235294%);fill-opacity:1;" />
<path d="M 261.535156 321.003906 C 254.242188 328.300781 193.804688 388.738281 182.542969 399.996094 L 182.535156 399.996094 L 129.6875 379.398438 C 212.964844 296.109375 207.34375 301.734375 208.679688 300.394531 L 261.527344 321.003906 Z M 261.535156 321.003906 " style=" stroke:none;fill-rule:nonzero;fill:rgb(100%,53.333333%,34.901961%);fill-opacity:1;" />
<path d="M 157.074219 112.402344 C 128.988281 112.402344 106.140625 135.25 106.140625 163.335938 C 106.140625 191.421875 128.988281 214.269531 157.074219 214.269531 C 185.160156 214.269531 208.007812 191.421875 208.007812 163.335938 C 208.007812 135.25 185.160156 112.402344 157.074219 112.402344 Z M 157.074219 112.402344 " style=" stroke:none;fill-rule:nonzero;fill:rgb(100%,80.392157%,0%);fill-opacity:1;" />
<path d="M 130.601562 108.34375 C 158.6875 108.34375 181.535156 85.496094 181.535156 57.410156 C 181.535156 29.324219 158.6875 6.476562 130.601562 6.476562 C 102.515625 6.476562 79.667969 29.324219 79.667969 57.410156 C 79.667969 85.496094 102.515625 108.34375 130.601562 108.34375 Z M 130.601562 108.34375 " style=" stroke:none;fill-rule:nonzero;fill:rgb(100%,80.392157%,0%);fill-opacity:1;" />
<path d="M 50.933594 80.234375 C 22.847656 80.234375 0 103.085938 0 131.171875 C 0 159.253906 22.847656 182.105469 50.933594 182.105469 C 79.019531 182.105469 101.867188 159.253906 101.867188 131.171875 C 101.867188 103.085938 79.019531 80.234375 50.933594 80.234375 Z M 50.933594 80.234375 " style=" stroke:none;fill-rule:nonzero;fill:rgb(100%,80.392157%,0%);fill-opacity:1;" />
<path d="M 181.53125 57.417969 C 181.53125 85.5 158.683594 108.347656 130.601562 108.347656 L 130.601562 6.476562 C 158.683594 6.476562 181.53125 29.324219 181.53125 57.417969 Z M 181.53125 57.417969 " style=" stroke:none;fill-rule:nonzero;fill:rgb(93.333333%,74.901961%,0%);fill-opacity:1;" />
<path d="M 208.003906 163.34375 C 208.003906 191.425781 185.15625 214.273438 157.074219 214.273438 L 157.074219 112.402344 C 185.15625 112.402344 208.003906 135.25 208.003906 163.34375 Z M 208.003906 163.34375 " style=" stroke:none;fill-rule:nonzero;fill:rgb(93.333333%,74.901961%,0%);fill-opacity:1;" />
<path d="M 101.867188 131.175781 C 101.867188 159.257812 79.019531 182.105469 50.9375 182.105469 L 50.9375 80.234375 C 79.019531 80.234375 101.867188 103.082031 101.867188 131.175781 Z M 101.867188 131.175781 " style=" stroke:none;fill-rule:nonzero;fill:rgb(93.333333%,74.901961%,0%);fill-opacity:1;" />
<path d="M 151.273438 57.40625 C 151.273438 68.804688 142.003906 78.085938 130.605469 78.085938 C 119.195312 78.085938 109.925781 68.804688 109.925781 57.40625 C 109.925781 46.007812 119.195312 36.738281 130.605469 36.738281 C 142.003906 36.738281 151.273438 46.007812 151.273438 57.40625 Z M 151.273438 57.40625 " style=" stroke:none;fill-rule:nonzero;fill:rgb(100%,94.509804%,71.372549%);fill-opacity:1;" />
<path d="M 71.605469 131.175781 C 71.605469 142.574219 62.335938 151.84375 50.9375 151.84375 C 39.539062 151.84375 30.257812 142.574219 30.257812 131.175781 C 30.257812 119.765625 39.539062 110.496094 50.9375 110.496094 C 62.335938 110.496094 71.605469 119.765625 71.605469 131.175781 Z M 71.605469 131.175781 " style=" stroke:none;fill-rule:nonzero;fill:rgb(100%,94.509804%,71.372549%);fill-opacity:1;" />
<path d="M 177.742188 163.332031 C 177.742188 174.742188 168.472656 184.011719 157.074219 184.011719 C 145.675781 184.011719 136.40625 174.742188 136.40625 163.332031 C 136.40625 151.933594 145.675781 142.664062 157.074219 142.664062 C 168.472656 142.664062 177.742188 151.933594 177.742188 163.332031 Z M 177.742188 163.332031 " style=" stroke:none;fill-rule:nonzero;fill:rgb(100%,94.509804%,71.372549%);fill-opacity:1;" />
<path d="M 71.605469 131.175781 C 71.605469 142.574219 62.335938 151.84375 50.9375 151.84375 L 50.9375 110.496094 C 62.335938 110.496094 71.605469 119.765625 71.605469 131.175781 Z M 71.605469 131.175781 " style=" stroke:none;fill-rule:nonzero;fill:rgb(100%,89.411765%,46.666667%);fill-opacity:1;" />
<path d="M 151.269531 57.417969 C 151.269531 68.816406 142 78.085938 130.601562 78.085938 L 130.601562 36.738281 C 142 36.738281 151.269531 46.007812 151.269531 57.417969 Z M 151.269531 57.417969 " style=" stroke:none;fill-rule:nonzero;fill:rgb(100%,89.411765%,46.666667%);fill-opacity:1;" />
<path d="M 177.742188 163.34375 C 177.742188 174.742188 168.472656 184.011719 157.074219 184.011719 L 157.074219 142.664062 C 168.472656 142.664062 177.742188 151.933594 177.742188 163.34375 Z M 177.742188 163.34375 " style=" stroke:none;fill-rule:nonzero;fill:rgb(100%,89.411765%,46.666667%);fill-opacity:1;" />
</g>
</svg>