<svg xmlns="http://www.w3.org/2000/svg" height="512pt" version="1.1" viewBox="0 -8 512.00001 512" width="512pt">
<g id="surface1">
<path d="M 465.34375 415.875 L 456.183594 482.175781 C 455.144531 489.730469 448.683594 495.347656 441.058594 495.347656 L 377.941406 495.347656 C 370.316406 495.347656 363.863281 489.730469 362.816406 482.175781 L 353.664062 415.875 C 353.066406 411.496094 354.378906 407.078125 357.28125 403.75 C 360.179688 400.421875 364.375 398.507812 368.792969 398.507812 L 450.21875 398.507812 C 454.625 398.507812 458.832031 400.421875 461.730469 403.75 C 464.621094 407.078125 465.945312 411.496094 465.34375 415.875 Z M 465.34375 415.875 " style=" stroke:none;fill-rule:nonzero;fill:rgb(61.960784%,88.627451%,97.254902%);fill-opacity:1;" />
<path d="M 465.34375 415.875 L 456.183594 482.175781 C 455.144531 489.730469 448.683594 495.347656 441.058594 495.347656 L 409.503906 495.347656 L 409.503906 398.507812 L 450.21875 398.507812 C 454.625 398.507812 458.832031 400.421875 461.730469 403.75 C 464.621094 407.078125 465.945312 411.496094 465.34375 415.875 Z M 465.34375 415.875 " style=" stroke:none;fill-rule:nonzero;fill:rgb(49.411765%,84.705882%,96.470588%);fill-opacity:1;" />
<path d="M 158.335938 415.875 L 149.175781 482.175781 C 148.136719 489.730469 141.675781 495.347656 134.050781 495.347656 L 70.933594 495.347656 C 63.308594 495.347656 56.855469 489.730469 55.808594 482.175781 L 46.660156 415.875 C 45.386719 406.617188 52.597656 398.507812 61.785156 398.507812 L 143.210938 398.507812 C 147.617188 398.507812 151.824219 400.421875 154.722656 403.75 C 157.613281 407.078125 158.9375 411.496094 158.335938 415.875 Z M 158.335938 415.875 " style=" stroke:none;fill-rule:nonzero;fill:rgb(61.960784%,88.627451%,97.254902%);fill-opacity:1;" />
<path d="M 158.335938 415.875 L 149.175781 482.175781 C 148.136719 489.730469 141.675781 495.347656 134.050781 495.347656 L 102.496094 495.347656 L 102.496094 398.507812 L 143.210938 398.507812 C 147.617188 398.507812 151.824219 400.421875 154.722656 403.75 C 157.613281 407.078125 158.9375 411.496094 158.335938 415.875 Z M 158.335938 415.875 " style=" stroke:none;fill-rule:nonzero;fill:rgb(49.411765%,84.705882%,96.470588%);fill-opacity:1;" />
<path d="M 512 15.269531 L 512 413.777344 C 512 422.214844 505.160156 429.046875 496.730469 429.046875 L 15.269531 429.046875 C 6.839844 429.046875 0 422.214844 0 413.777344 L 0 15.269531 C 0 6.828125 6.839844 0 15.269531 0 L 496.730469 0 C 505.160156 0 512 6.828125 512 15.269531 Z M 512 15.269531 " style=" stroke:none;fill-rule:nonzero;fill:rgb(18.431373%,75.294118%,94.117647%);fill-opacity:1;" />
<path d="M 512 15.269531 L 512 413.777344 C 512 422.214844 505.160156 429.046875 496.730469 429.046875 L 256.476562 429.046875 L 256.476562 0 L 496.730469 0 C 505.160156 0 512 6.828125 512 15.269531 Z M 512 15.269531 " style=" stroke:none;fill-rule:nonzero;fill:rgb(5.882353%,66.27451%,86.666667%);fill-opacity:1;" />
<path d="M 412.03125 64.800781 L 99.96875 64.800781 C 90.492188 64.800781 82.800781 72.492188 82.800781 81.96875 L 82.800781 347.074219 C 82.800781 356.554688 90.492188 364.246094 99.96875 364.246094 L 412.03125 364.246094 C 421.507812 364.246094 429.199219 356.554688 429.199219 347.074219 L 429.199219 81.96875 C 429.199219 72.492188 421.507812 64.800781 412.03125 64.800781 Z M 412.03125 64.800781 " style=" stroke:none;fill-rule:nonzero;fill:rgb(74.509804%,92.156863%,98.039216%);fill-opacity:1;" />
<path d="M 429.199219 81.96875 L 429.199219 347.074219 C 429.199219 356.550781 421.507812 364.246094 412.03125 364.246094 L 256.539062 364.246094 L 256.539062 64.800781 L 412.03125 64.800781 C 421.507812 64.800781 429.199219 72.492188 429.199219 81.96875 Z M 429.199219 81.96875 " style=" stroke:none;fill-rule:nonzero;fill:rgb(49.411765%,84.705882%,96.470588%);fill-opacity:1;" />
<path d="M 125.164062 154.804688 C 125.164062 163.242188 118.324219 170.074219 109.894531 170.074219 L 55.703125 170.074219 C 47.277344 170.074219 40.4375 163.242188 40.4375 154.804688 C 40.4375 146.378906 47.277344 139.539062 55.703125 139.539062 L 109.894531 139.539062 C 118.324219 139.539062 125.164062 146.378906 125.164062 154.804688 Z M 125.164062 154.804688 " style=" stroke:none;fill-rule:nonzero;fill:rgb(74.509804%,92.156863%,98.039216%);fill-opacity:1;" />
<path d="M 125.164062 274.238281 C 125.164062 282.667969 118.324219 289.507812 109.894531 289.507812 L 55.703125 289.507812 C 47.277344 289.507812 40.4375 282.667969 40.4375 274.238281 C 40.4375 265.800781 47.277344 258.972656 55.703125 258.972656 L 109.894531 258.972656 C 118.324219 258.972656 125.164062 265.800781 125.164062 274.238281 Z M 125.164062 274.238281 " style=" stroke:none;fill-rule:nonzero;fill:rgb(74.509804%,92.156863%,98.039216%);fill-opacity:1;" />
<path d="M 125.164062 274.394531 C 125.164062 282.820312 118.324219 289.660156 109.894531 289.660156 L 82.800781 289.660156 L 82.800781 259.125 L 109.894531 259.125 C 118.324219 259.125 125.164062 265.953125 125.164062 274.394531 Z M 125.164062 274.394531 " style=" stroke:none;fill-rule:nonzero;fill:rgb(49.411765%,84.705882%,96.470588%);fill-opacity:1;" />
<path d="M 109.894531 170.074219 L 82.800781 170.074219 L 82.800781 139.539062 L 109.894531 139.539062 C 118.324219 139.539062 125.164062 146.378906 125.164062 154.804688 C 125.164062 163.242188 118.324219 170.074219 109.894531 170.074219 Z M 109.894531 170.074219 " style=" stroke:none;fill-rule:nonzero;fill:rgb(49.411765%,84.705882%,96.470588%);fill-opacity:1;" />
<path d="M 351.191406 197.351562 L 336.609375 197.351562 C 329.867188 165.65625 304.867188 140.65625 273.171875 133.914062 L 273.171875 119.332031 C 273.171875 110.027344 265.765625 102.460938 256.539062 102.171875 C 247.6875 101.582031 238.832031 109.109375 238.832031 119.332031 L 238.832031 133.914062 C 207.136719 140.65625 182.136719 165.65625 175.394531 197.351562 L 160.808594 197.351562 C 151.320312 197.351562 143.640625 205.042969 143.640625 214.523438 C 143.640625 224 151.320312 231.691406 160.808594 231.691406 L 175.394531 231.691406 C 182.148438 263.375 207.144531 288.375 238.832031 295.117188 L 238.832031 309.710938 C 238.832031 319.851562 247.625 327.464844 256.539062 326.871094 C 265.765625 326.585938 273.171875 319.019531 273.171875 309.710938 L 273.171875 295.117188 C 304.855469 288.375 329.855469 263.375 336.609375 231.691406 L 351.191406 231.691406 C 360.679688 231.691406 368.359375 224 368.359375 214.523438 C 368.359375 205.042969 360.679688 197.351562 351.191406 197.351562 Z M 256.539062 262.585938 L 256 262.585938 C 229.488281 262.585938 207.921875 241.019531 207.921875 214.511719 C 207.921875 188 229.488281 166.433594 256 166.433594 L 256.539062 166.433594 C 282.808594 166.730469 304.078125 188.183594 304.078125 214.511719 C 304.078125 240.839844 282.808594 262.289062 256.539062 262.585938 Z M 256.539062 262.585938 " style=" stroke:none;fill-rule:nonzero;fill:rgb(18.431373%,75.294118%,94.117647%);fill-opacity:1;" />
<path d="M 368.359375 214.523438 C 368.359375 224 360.679688 231.691406 351.191406 231.691406 L 336.609375 231.691406 C 329.855469 263.378906 304.855469 288.375 273.171875 295.117188 L 273.171875 309.714844 C 273.171875 319.019531 265.765625 326.585938 256.539062 326.875 L 256.539062 262.589844 C 282.808594 262.292969 304.078125 240.839844 304.078125 214.511719 C 304.078125 188.183594 282.808594 166.734375 256.539062 166.4375 L 256.539062 102.175781 C 265.765625 102.460938 273.171875 110.027344 273.171875 119.335938 L 273.171875 133.917969 C 304.867188 140.660156 329.867188 165.660156 336.609375 197.355469 L 351.191406 197.355469 C 360.679688 197.351562 368.359375 205.042969 368.359375 214.523438 Z M 368.359375 214.523438 " style=" stroke:none;fill-rule:nonzero;fill:rgb(5.882353%,66.27451%,86.666667%);fill-opacity:1;" />
<path d="M 278.894531 214.511719 C 278.894531 227.203125 268.589844 237.40625 256 237.40625 C 243.351562 237.40625 233.105469 227.160156 233.105469 214.511719 C 233.105469 201.007812 244.820312 190.894531 256.539062 191.628906 C 268.933594 191.914062 278.894531 202.058594 278.894531 214.511719 Z M 278.894531 214.511719 " style=" stroke:none;fill-rule:nonzero;fill:rgb(18.431373%,75.294118%,94.117647%);fill-opacity:1;" />
<path d="M 256.539062 237.394531 L 256.539062 191.628906 C 268.933594 191.914062 278.894531 202.058594 278.894531 214.511719 C 278.894531 226.976562 268.933594 237.105469 256.539062 237.394531 Z M 256.539062 237.394531 " style=" stroke:none;fill-rule:nonzero;fill:rgb(5.882353%,66.27451%,86.666667%);fill-opacity:1;" />
</g>
</svg>