<svg xmlns="http://www.w3.org/2000/svg" height="512pt" version="1.1" viewBox="-52 0 512 512.00001" width="512pt">
<g id="surface1">
<path d="M 408.664062 236.550781 L 399.492188 312.84375 C 394.585938 353.660156 359.960938 384.371094 318.851562 384.371094 L 247.101562 384.371094 L 234.078125 492.757812 C 232.757812 503.738281 223.445312 512 212.386719 512 L 130.371094 512 C 117.269531 512 107.117188 500.550781 108.679688 487.542969 L 148.050781 160.0625 C 149.042969 151.828125 156.027344 145.632812 164.320312 145.632812 L 328.023438 145.632812 C 376.726562 145.632812 414.480469 188.195312 408.664062 236.550781 Z M 408.664062 236.550781 " style=" stroke:none;fill-rule:nonzero;fill:rgb(36.862745%,80.784314%,95.686275%);fill-opacity:1;" />
<path d="M 300.144531 90.917969 L 290.972656 167.210938 C 286.066406 208.027344 251.441406 238.738281 210.332031 238.738281 L 138.582031 238.738281 L 125.558594 347.125 C 124.238281 358.105469 114.925781 366.367188 103.867188 366.367188 L 21.851562 366.367188 C 8.75 366.367188 -1.40625 354.917969 0.160156 341.910156 L 39.53125 14.429688 C 40.523438 6.195312 47.507812 0 55.800781 0 L 219.503906 0 C 268.207031 0 305.957031 42.5625 300.144531 90.917969 Z M 300.144531 90.917969 " style=" stroke:none;fill-rule:nonzero;fill:rgb(74.509804%,92.156863%,98.039216%);fill-opacity:1;" />
<path d="M 293.574219 145.628906 L 290.972656 167.214844 C 286.066406 208.03125 251.4375 238.738281 210.328125 238.738281 L 138.585938 238.738281 L 148.046875 160.058594 C 149.042969 151.832031 156.023438 145.628906 164.324219 145.628906 Z M 293.574219 145.628906 " style=" stroke:none;fill-rule:nonzero;fill:rgb(49.411765%,84.705882%,96.470588%);fill-opacity:1;" />
</g>
</svg>