<svg xmlns="http://www.w3.org/2000/svg" height="512pt" version="1.1" viewBox="0 -1 512.00002 512" width="512pt">
<g id="surface1">
<path d="M 512 15.207031 L 512 495.371094 C 512 503.765625 507.476562 510.582031 501.890625 510.582031 L 171.847656 510.582031 L 171.847656 0 L 501.890625 0 C 507.476562 0 512 6.8125 512 15.207031 Z M 512 15.207031 " style=" stroke:none;fill-rule:nonzero;fill:rgb(18.431373%,75.294118%,94.117647%);fill-opacity:1;" />
<path d="M 512 15.207031 L 512 495.371094 C 512 503.765625 507.476562 510.582031 501.890625 510.582031 L 341.925781 510.582031 L 341.925781 0 L 501.890625 0 C 507.476562 0 512 6.8125 512 15.207031 Z M 512 15.207031 " style=" stroke:none;fill-rule:nonzero;fill:rgb(5.882353%,66.27451%,86.666667%);fill-opacity:1;" />
<path d="M 512 83.390625 L 512 495.371094 C 512 503.765625 505.1875 510.582031 496.792969 510.582031 L 15.207031 510.582031 C 6.8125 510.582031 0 503.765625 0 495.371094 L 0 15.207031 C 0 6.8125 6.8125 0 15.207031 0 L 192.023438 0 C 198.503906 0 204.273438 4.105469 206.390625 10.21875 L 224.132812 61.367188 C 225.554688 65.445312 229.394531 68.183594 233.714844 68.183594 L 496.792969 68.183594 C 505.1875 68.183594 512 74.996094 512 83.390625 Z M 512 83.390625 " style=" stroke:none;fill-rule:nonzero;fill:rgb(74.509804%,92.156863%,98.039216%);fill-opacity:1;" />
<path d="M 512 83.390625 L 512 495.371094 C 512 503.765625 505.1875 510.582031 496.792969 510.582031 L 258.605469 510.582031 L 258.605469 68.183594 L 496.792969 68.183594 C 505.1875 68.183594 512 74.996094 512 83.390625 Z M 512 83.390625 " style=" stroke:none;fill-rule:nonzero;fill:rgb(61.960784%,88.627451%,97.254902%);fill-opacity:1;" />
<path d="M 145.828125 58.601562 L 102.230469 58.601562 C 93.832031 58.601562 87.023438 51.792969 87.023438 43.394531 C 87.023438 34.996094 93.832031 28.183594 102.230469 28.183594 L 145.828125 28.183594 C 154.226562 28.183594 161.035156 34.996094 161.035156 43.394531 C 161.035156 51.792969 154.226562 58.601562 145.828125 58.601562 Z M 145.828125 58.601562 " style=" stroke:none;fill-rule:nonzero;fill:rgb(36.862745%,80.784314%,95.686275%);fill-opacity:1;" />
<path d="M 74.449219 43.394531 C 74.449219 51.792969 67.640625 58.601562 59.238281 58.601562 C 50.839844 58.601562 44.03125 51.792969 44.03125 43.394531 C 44.03125 34.996094 50.839844 28.183594 59.238281 28.183594 C 67.640625 28.183594 74.449219 34.996094 74.449219 43.394531 Z M 74.449219 43.394531 " style=" stroke:none;fill-rule:nonzero;fill:rgb(36.862745%,80.784314%,95.686275%);fill-opacity:1;" />
<path d="M 134.25 286.09375 L 103.308594 286.09375 C 80.804688 286.09375 62.496094 267.789062 62.496094 245.285156 L 62.496094 231.941406 C 62.496094 223.542969 69.304688 216.734375 77.707031 216.734375 C 86.105469 216.734375 92.914062 223.542969 92.914062 231.941406 L 92.914062 245.285156 C 92.914062 251.015625 97.578125 255.679688 103.308594 255.679688 L 134.25 255.679688 C 142.648438 255.679688 149.460938 262.488281 149.460938 270.886719 C 149.460938 279.289062 142.648438 286.09375 134.25 286.09375 Z M 134.25 286.09375 " style=" stroke:none;fill-rule:nonzero;fill:rgb(100%,53.333333%,34.901961%);fill-opacity:1;" />
<path d="M 414.675781 145.871094 L 412.339844 144.035156 C 386.84375 123.988281 349.925781 128.410156 329.882812 153.90625 L 297.203125 195.476562 L 357.660156 243.003906 L 417.230469 167.222656 C 422.421875 160.621094 421.277344 151.058594 414.675781 145.871094 Z M 414.675781 145.871094 " style=" stroke:none;fill-rule:nonzero;fill:rgb(100%,29.803922%,1.568627%);fill-opacity:1;" />
<path d="M 440.933594 254.148438 L 361.917969 246.828125 L 361.917969 328.046875 L 439.53125 328.046875 C 447.929688 328.046875 454.738281 321.238281 454.738281 312.839844 L 454.738281 269.289062 C 454.738281 261.433594 448.757812 254.871094 440.933594 254.148438 Z M 440.933594 254.148438 " style=" stroke:none;fill-rule:nonzero;fill:rgb(100%,29.803922%,1.568627%);fill-opacity:1;" />
<path d="M 157.3125 343.464844 L 167.546875 424.984375 C 168.183594 430.054688 172.496094 433.859375 177.605469 433.859375 L 205.1875 433.859375 C 210.785156 433.859375 215.324219 429.320312 215.324219 423.722656 L 215.324219 343.464844 Z M 157.3125 343.464844 " style=" stroke:none;fill-rule:nonzero;fill:rgb(100%,53.333333%,34.901961%);fill-opacity:1;" />
<path d="M 295.605469 343.464844 L 295.605469 423.722656 C 295.605469 429.320312 300.144531 433.859375 305.742188 433.859375 L 333.324219 433.859375 C 338.433594 433.859375 342.746094 430.054688 343.382812 424.984375 L 353.617188 343.464844 Z M 295.605469 343.464844 " style=" stroke:none;fill-rule:nonzero;fill:rgb(100%,29.803922%,1.568627%);fill-opacity:1;" />
<path d="M 403.054688 256.6875 L 403.054688 306.40625 C 403.054688 350.761719 367.101562 386.714844 322.746094 386.714844 L 202.726562 386.714844 C 158.378906 386.714844 122.425781 350.761719 122.425781 306.40625 L 122.425781 256.6875 C 122.425781 212.328125 158.378906 176.378906 202.726562 176.378906 L 322.746094 176.378906 C 367.101562 176.378906 403.054688 212.328125 403.054688 256.6875 Z M 403.054688 256.6875 " style=" stroke:none;fill-rule:nonzero;fill:rgb(100%,72.54902%,61.568627%);fill-opacity:1;" />
<path d="M 403.054688 256.6875 L 403.054688 306.40625 C 403.054688 350.761719 367.101562 386.714844 322.746094 386.714844 L 258.617188 386.714844 L 258.617188 176.378906 L 322.746094 176.378906 C 367.101562 176.378906 403.054688 212.328125 403.054688 256.6875 Z M 403.054688 256.6875 " style=" stroke:none;fill-rule:nonzero;fill:rgb(100%,63.137255%,48.235294%);fill-opacity:1;" />
<path d="M 338.75 290.175781 C 330.351562 290.175781 323.542969 283.363281 323.542969 274.964844 L 323.542969 262.570312 C 323.542969 254.171875 330.351562 247.363281 338.75 247.363281 C 347.148438 247.363281 353.960938 254.171875 353.960938 262.570312 L 353.960938 274.964844 C 353.960938 283.363281 347.152344 290.175781 338.75 290.175781 Z M 338.75 290.175781 " style=" stroke:none;fill-rule:nonzero;fill:rgb(100%,29.803922%,1.568627%);fill-opacity:1;" />
<path d="M 305.894531 212.097656 C 305.894531 220.492188 299.082031 227.304688 290.6875 227.304688 L 226.558594 227.304688 C 218.15625 227.304688 211.351562 220.492188 211.351562 212.097656 C 211.351562 203.691406 218.15625 196.890625 226.558594 196.890625 L 290.6875 196.890625 C 299.082031 196.890625 305.894531 203.691406 305.894531 212.097656 Z M 305.894531 212.097656 " style=" stroke:none;fill-rule:nonzero;fill:rgb(100%,53.333333%,34.901961%);fill-opacity:1;" />
<path d="M 305.894531 212.097656 C 305.894531 220.492188 299.082031 227.304688 290.6875 227.304688 L 258.617188 227.304688 L 258.617188 196.890625 L 290.6875 196.890625 C 299.082031 196.890625 305.894531 203.691406 305.894531 212.097656 Z M 305.894531 212.097656 " style=" stroke:none;fill-rule:nonzero;fill:rgb(100%,29.803922%,1.568627%);fill-opacity:1;" />
</g>
</svg>