<svg xmlns="http://www.w3.org/2000/svg" height="512pt" version="1.1" viewBox="0 -3 512 512" width="512pt">
<g id="surface1">
<path d="M 512 16.195312 L 512 489.207031 C 512 498.148438 504.753906 505.402344 495.816406 505.402344 L 16.183594 505.402344 C 7.246094 505.402344 0 498.148438 0 489.207031 L 0 16.195312 C 0 7.253906 7.246094 0 16.183594 0 L 495.816406 0 C 504.753906 0 512 7.253906 512 16.195312 Z M 512 16.195312 " style=" stroke:none;fill-rule:nonzero;fill:rgb(100%,96.078431%,80%);fill-opacity:1;" />
<path d="M 512 16.195312 L 512 489.207031 C 512 498.148438 504.753906 505.402344 495.816406 505.402344 L 256 505.402344 L 256 0 L 495.816406 0 C 504.753906 0 512 7.253906 512 16.195312 Z M 512 16.195312 " style=" stroke:none;fill-rule:nonzero;fill:rgb(100%,92.156863%,60%);fill-opacity:1;" />
<path d="M 302.605469 280.972656 L 205.863281 228.265625 C 202.140625 226.238281 197.75 225.832031 193.71875 227.144531 C 189.691406 228.453125 186.378906 231.367188 184.5625 235.195312 L 137.34375 334.742188 C 133.695312 342.429688 136.96875 351.617188 144.652344 355.269531 C 204.21875 383.574219 276.5625 360.875 308.761719 301.894531 C 312.839844 294.421875 310.085938 285.046875 302.605469 280.972656 Z M 302.605469 280.972656 " style=" stroke:none;fill-rule:nonzero;fill:rgb(36.862745%,80.784314%,95.686275%);fill-opacity:1;" />
<path d="M 160.773438 55.382812 C 152.582031 57.703125 147.820312 66.234375 150.144531 74.425781 L 180.230469 180.410156 C 181.359375 184.394531 184.046875 187.757812 187.683594 189.738281 L 284.425781 242.445312 C 291.9375 246.535156 301.273438 243.722656 305.328125 236.292969 C 357.9375 139.917969 268.507812 24.867188 160.773438 55.382812 Z M 160.773438 55.382812 " style=" stroke:none;fill-rule:nonzero;fill:rgb(100%,39.215686%,14.901961%);fill-opacity:1;" />
<path d="M 110.070312 397.179688 L 64.308594 397.179688 L 64.308594 284.746094 C 64.308594 276.234375 57.40625 269.332031 48.894531 269.332031 C 40.382812 269.332031 33.480469 276.234375 33.480469 284.746094 L 33.480469 412.59375 C 33.480469 421.109375 40.382812 428.007812 48.894531 428.007812 L 110.070312 428.007812 C 118.582031 428.007812 125.484375 421.109375 125.484375 412.59375 C 125.484375 404.082031 118.582031 397.179688 110.070312 397.179688 Z M 110.070312 397.179688 " style=" stroke:none;fill-rule:nonzero;fill:rgb(0%,93.333333%,54.117647%);fill-opacity:1;" />
<path d="M 197.460938 428.007812 L 148.066406 428.007812 C 139.554688 428.007812 132.652344 421.109375 132.652344 412.59375 C 132.652344 404.082031 139.554688 397.179688 148.066406 397.179688 L 197.460938 397.179688 C 205.972656 397.179688 212.875 404.082031 212.875 412.59375 C 212.875 421.109375 205.972656 428.007812 197.460938 428.007812 Z M 197.460938 428.007812 " style=" stroke:none;fill-rule:nonzero;fill:rgb(0%,80%,46.27451%);fill-opacity:1;" />
<path d="M 197.460938 469.71875 L 48.894531 469.71875 C 40.382812 469.71875 33.480469 462.816406 33.480469 454.304688 C 33.480469 445.792969 40.382812 438.890625 48.894531 438.890625 L 197.460938 438.890625 C 205.972656 438.890625 212.875 445.792969 212.875 454.304688 C 212.875 462.816406 205.972656 469.71875 197.460938 469.71875 Z M 197.460938 469.71875 " style=" stroke:none;fill-rule:nonzero;fill:rgb(0%,80%,46.27451%);fill-opacity:1;" />
<path d="M 157.730469 223.101562 L 127.648438 117.113281 C 125.324219 108.929688 116.800781 104.175781 108.617188 106.492188 C 27.65625 129.421875 -8.296875 224.570312 37.308594 295.285156 C 50.023438 315 67.921875 330.730469 89.066406 340.78125 C 92.769531 342.539062 97.007812 342.75 100.855469 341.378906 C 104.710938 340.007812 107.859375 337.160156 109.613281 333.464844 L 156.832031 233.917969 C 158.433594 230.539062 158.753906 226.699219 157.730469 223.101562 Z M 157.730469 223.101562 " style=" stroke:none;fill-rule:nonzero;fill:rgb(0%,80%,46.27451%);fill-opacity:1;" />
<path d="M 451.609375 327.707031 L 378.726562 327.707031 C 370.214844 327.707031 363.3125 320.804688 363.3125 312.292969 C 363.3125 303.78125 370.214844 296.878906 378.726562 296.878906 L 451.609375 296.878906 C 460.125 296.878906 467.023438 303.78125 467.023438 312.292969 C 467.023438 320.804688 460.125 327.707031 451.609375 327.707031 Z M 451.609375 327.707031 " style=" stroke:none;fill-rule:nonzero;fill:rgb(36.862745%,80.784314%,95.686275%);fill-opacity:1;" />
<path d="M 451.609375 377.566406 C 306.578125 377 310.222656 379.027344 304.058594 375.90625 L 223.5625 335.179688 C 215.964844 331.335938 212.925781 322.066406 216.769531 314.46875 C 220.609375 306.871094 229.886719 303.828125 237.480469 307.671875 L 314.695312 346.738281 L 451.609375 346.738281 C 460.125 346.738281 467.023438 353.640625 467.023438 362.152344 C 467.023438 370.664062 460.125 377.566406 451.609375 377.566406 Z M 451.609375 377.566406 " style=" stroke:none;fill-rule:nonzero;fill:rgb(61.960784%,88.627451%,97.254902%);fill-opacity:1;" />
<path d="M 394.261719 428.730469 L 322.828125 428.730469 C 314.316406 428.730469 307.414062 421.828125 307.414062 413.316406 C 307.414062 404.804688 314.316406 397.902344 322.828125 397.902344 L 394.261719 397.902344 C 402.773438 397.902344 409.675781 404.804688 409.675781 413.316406 C 409.675781 421.828125 402.773438 428.730469 394.261719 428.730469 Z M 394.261719 428.730469 " style=" stroke:none;fill-rule:nonzero;fill:rgb(36.862745%,80.784314%,95.686275%);fill-opacity:1;" />
<path d="M 451.609375 428.730469 L 434.625 428.730469 C 426.113281 428.730469 419.210938 421.828125 419.210938 413.316406 C 419.210938 404.804688 426.113281 397.902344 434.625 397.902344 L 451.609375 397.902344 C 460.125 397.902344 467.023438 404.804688 467.023438 413.316406 C 467.023438 421.828125 460.125 428.730469 451.609375 428.730469 Z M 451.609375 428.730469 " style=" stroke:none;fill-rule:nonzero;fill:rgb(36.862745%,80.784314%,95.686275%);fill-opacity:1;" />
<path d="M 289.425781 134.785156 C 283.078125 134.785156 277.136719 130.839844 274.894531 124.519531 C 272.050781 116.496094 276.25 107.683594 284.273438 104.839844 L 335.257812 86.765625 C 336.910156 86.175781 338.652344 85.878906 340.40625 85.878906 L 402.597656 85.878906 C 411.109375 85.878906 418.011719 92.78125 418.011719 101.292969 C 418.011719 109.804688 411.109375 116.707031 402.597656 116.707031 L 343.058594 116.707031 L 294.574219 133.898438 C 292.871094 134.5 291.132812 134.785156 289.425781 134.785156 Z M 289.425781 134.785156 " style=" stroke:none;fill-rule:nonzero;fill:rgb(100%,63.137255%,48.235294%);fill-opacity:1;" />
<path d="M 461.75 116.707031 L 441.398438 116.707031 C 432.882812 116.707031 425.980469 109.804688 425.980469 101.292969 C 425.980469 92.777344 432.882812 85.875 441.398438 85.875 L 461.75 85.875 C 470.261719 85.875 477.164062 92.777344 477.164062 101.292969 C 477.164062 109.804688 470.261719 116.707031 461.75 116.707031 Z M 461.75 116.707031 " style=" stroke:none;fill-rule:nonzero;fill:rgb(100%,39.215686%,14.901961%);fill-opacity:1;" />
<path d="M 461.75 160.425781 L 353.417969 160.425781 C 344.90625 160.425781 338.003906 153.523438 338.003906 145.011719 C 338.003906 136.5 344.90625 129.597656 353.417969 129.597656 L 461.75 129.597656 C 470.261719 129.597656 477.164062 136.5 477.164062 145.011719 C 477.164062 153.523438 470.261719 160.425781 461.75 160.425781 Z M 461.75 160.425781 " style=" stroke:none;fill-rule:nonzero;fill:rgb(100%,39.215686%,14.901961%);fill-opacity:1;" />
<path d="M 461.75 200.125 L 353.417969 200.125 C 344.90625 200.125 338.003906 193.226562 338.003906 184.710938 C 338.003906 176.199219 344.90625 169.296875 353.417969 169.296875 L 461.75 169.296875 C 470.261719 169.296875 477.164062 176.199219 477.164062 184.710938 C 477.164062 193.226562 470.261719 200.125 461.75 200.125 Z M 461.75 200.125 " style=" stroke:none;fill-rule:nonzero;fill:rgb(100%,39.215686%,14.901961%);fill-opacity:1;" />
<path d="M 308.757812 301.894531 C 276.695312 360.648438 204.410156 383.691406 144.65625 355.269531 C 136.972656 351.621094 133.691406 342.433594 137.339844 334.746094 L 184.558594 235.191406 C 186.378906 231.367188 189.6875 228.460938 193.714844 227.144531 C 197.753906 225.828125 202.144531 226.238281 205.863281 228.265625 C 206.015625 228.347656 302.449219 280.886719 302.601562 280.972656 C 310.117188 285.074219 312.828125 294.453125 308.757812 301.894531 Z M 308.757812 301.894531 " style=" stroke:none;fill-rule:nonzero;fill:rgb(36.862745%,80.784314%,95.686275%);fill-opacity:1;" />
<path d="M 305.324219 236.289062 C 301.25 243.769531 291.894531 246.507812 284.425781 242.445312 C 276.414062 238.082031 198.464844 195.613281 187.683594 189.738281 C 184.046875 187.757812 181.363281 184.394531 180.234375 180.410156 L 150.144531 74.421875 C 147.824219 66.285156 152.542969 57.707031 160.769531 55.386719 C 171.878906 52.234375 183.417969 50.640625 195.0625 50.640625 C 217.15625 50.640625 237.945312 56.375 256 66.445312 C 317.277344 100.601562 337.789062 176.867188 305.324219 236.289062 Z M 305.324219 236.289062 " style=" stroke:none;fill-rule:nonzero;fill:rgb(100%,39.215686%,14.901961%);fill-opacity:1;" />
<path d="M 308.757812 301.894531 C 296.488281 324.378906 277.949219 342.113281 256 353.429688 L 256 255.578125 L 302.601562 280.972656 C 310.117188 285.074219 312.828125 294.453125 308.757812 301.894531 Z M 308.757812 301.894531 " style=" stroke:none;fill-rule:nonzero;fill:rgb(18.431373%,75.294118%,94.117647%);fill-opacity:1;" />
<path d="M 284.425781 242.445312 L 256 226.960938 L 256 66.445312 C 317.277344 100.601562 337.789062 176.867188 305.324219 236.289062 C 301.25 243.769531 291.894531 246.507812 284.425781 242.445312 Z M 284.425781 242.445312 " style=" stroke:none;fill-rule:nonzero;fill:rgb(100%,29.803922%,1.568627%);fill-opacity:1;" />
</g>
</svg>