<svg xmlns="http://www.w3.org/2000/svg" height="511pt" version="1.1" viewBox="-4 1 511 511.99999" width="511pt">
<g id="surface1">
<path d="M 411.746094 87.515625 L 93.042969 87.515625 L 93.042969 19.757812 C 93.042969 8.847656 101.886719 0.00390625 112.796875 0.00390625 L 391.992188 0.00390625 C 402.898438 0.00390625 411.742188 8.847656 411.742188 19.757812 L 411.742188 87.515625 Z M 411.746094 87.515625 " style=" stroke:none;fill-rule:nonzero;fill:rgb(100%,88.235294%,73.333333%);fill-opacity:1;" />
<path d="M 411.742188 19.757812 L 411.742188 87.515625 L 252.394531 87.515625 L 252.394531 0 L 391.988281 0 C 402.902344 0 411.742188 8.851562 411.742188 19.757812 Z M 411.742188 19.757812 " style=" stroke:none;fill-rule:nonzero;fill:rgb(100%,82.745098%,60%);fill-opacity:1;" />
<path d="M 471.046875 161.410156 L 471.046875 495.707031 C 471.046875 504.703125 463.75 512 454.753906 512 L 50.035156 512 C 41.039062 512 33.742188 504.703125 33.742188 495.707031 L 33.742188 161.410156 Z M 471.046875 161.410156 " style=" stroke:none;fill-rule:nonzero;fill:rgb(100%,88.235294%,73.333333%);fill-opacity:1;" />
<path d="M 471.046875 161.40625 L 471.046875 495.707031 C 471.046875 504.703125 463.75 512 454.753906 512 L 252.394531 512 L 252.394531 161.40625 Z M 471.046875 161.40625 " style=" stroke:none;fill-rule:nonzero;fill:rgb(100%,82.745098%,60%);fill-opacity:1;" />
<path d="M 503.175781 161.410156 C 501.519531 157.9375 505.105469 162.59375 411.75 73.980469 C 377.640625 73.980469 128.269531 73.980469 93.039062 73.980469 C -1 163.242188 3.273438 157.933594 1.613281 161.410156 L 1.609375 161.410156 C -0.234375 165.242188 0.851562 167.230469 0.542969 189.398438 C 0.542969 222.539062 26.144531 249.703125 58.65625 252.179688 C 96.296875 254.996094 126.464844 225.195312 126.464844 189.398438 C 126.570312 189.398438 126.574219 189.398438 126.472656 189.398438 C 126.472656 199.054688 128.644531 208.203125 132.535156 216.378906 C 155.289062 264.316406 223.59375 264.28125 246.335938 216.378906 C 250.222656 208.199219 252.394531 199.054688 252.394531 189.398438 C 252.394531 199.054688 254.566406 208.203125 258.457031 216.378906 C 281.214844 264.316406 349.519531 264.277344 372.257812 216.378906 C 376.144531 208.199219 378.320312 199.054688 378.320312 189.398438 C 378.320312 225.195312 408.488281 254.996094 446.128906 252.179688 C 478.640625 249.703125 504.242188 222.539062 504.242188 189.398438 C 503.929688 167.230469 505.019531 165.242188 503.175781 161.410156 Z M 503.175781 161.410156 " style=" stroke:none;fill-rule:nonzero;fill:rgb(100%,72.54902%,61.568627%);fill-opacity:1;" />
<path d="M 172.722656 73.980469 L 126.472656 161.410156 L 1.613281 161.410156 C 3.269531 157.933594 -1 163.242188 93.039062 73.980469 Z M 172.722656 73.980469 " style=" stroke:none;fill-rule:nonzero;fill:rgb(100%,53.333333%,34.901961%);fill-opacity:1;" />
<path d="M 503.175781 161.410156 L 378.316406 161.410156 L 332.066406 73.980469 L 411.75 73.980469 C 505.105469 162.59375 501.519531 157.9375 503.175781 161.410156 Z M 503.175781 161.410156 " style=" stroke:none;fill-rule:nonzero;fill:rgb(100%,29.803922%,1.568627%);fill-opacity:1;" />
<path d="M 504.238281 189.398438 C 504.238281 222.539062 478.636719 249.703125 446.128906 252.179688 C 408.488281 254.996094 378.316406 225.195312 378.316406 189.398438 L 378.316406 161.410156 L 503.175781 161.410156 C 505.019531 165.242188 503.929688 167.230469 504.238281 189.398438 Z M 504.238281 189.398438 " style=" stroke:none;fill-rule:nonzero;fill:rgb(100%,53.333333%,34.901961%);fill-opacity:1;" />
<path d="M 252.394531 73.980469 L 252.394531 161.410156 L 126.472656 161.410156 L 172.722656 73.980469 Z M 252.394531 73.980469 " style=" stroke:none;fill-rule:nonzero;fill:rgb(100%,29.803922%,1.568627%);fill-opacity:1;" />
<path d="M 252.394531 161.410156 L 252.394531 189.398438 C 252.394531 199.054688 250.222656 208.203125 246.332031 216.378906 C 223.59375 264.28125 155.289062 264.316406 132.53125 216.378906 C 128.644531 208.199219 126.472656 199.054688 126.472656 189.398438 L 126.472656 161.410156 Z M 252.394531 161.410156 " style=" stroke:none;fill-rule:nonzero;fill:rgb(100%,53.333333%,34.901961%);fill-opacity:1;" />
<path d="M 378.316406 161.410156 L 252.394531 161.410156 L 252.394531 73.980469 L 332.066406 73.980469 Z M 378.316406 161.410156 " style=" stroke:none;fill-rule:nonzero;fill:rgb(100%,53.333333%,34.901961%);fill-opacity:1;" />
<path d="M 378.316406 161.410156 L 378.316406 189.398438 C 378.316406 199.054688 376.144531 208.203125 372.253906 216.378906 C 349.515625 264.277344 281.210938 264.316406 258.457031 216.378906 C 254.566406 208.199219 252.394531 199.054688 252.394531 189.398438 L 252.394531 161.410156 Z M 378.316406 161.410156 " style=" stroke:none;fill-rule:nonzero;fill:rgb(100%,72.54902%,61.568627%);fill-opacity:1;" />
<path d="M 0.542969 189.398438 C 0.542969 222.539062 26.144531 249.703125 58.65625 252.179688 C 96.296875 254.996094 126.464844 225.195312 126.464844 189.398438 L 126.464844 161.410156 L 1.609375 161.410156 C -0.234375 165.242188 0.851562 167.230469 0.542969 189.398438 Z M 0.542969 189.398438 " style=" stroke:none;fill-rule:nonzero;fill:rgb(100%,72.54902%,61.568627%);fill-opacity:1;" />
<path d="M 126.007812 339.398438 C 134.425781 339.398438 141.253906 332.574219 141.253906 324.15625 C 141.253906 315.734375 134.425781 308.910156 126.007812 308.910156 L 90.335938 308.910156 C 73.113281 308.910156 59.105469 324.019531 59.105469 342.589844 C 59.105469 361.164062 73.113281 376.273438 90.335938 376.273438 L 109.675781 376.273438 C 111.117188 377.613281 111.121094 381.3125 109.675781 382.65625 L 74.351562 382.65625 C 65.929688 382.65625 59.105469 389.480469 59.105469 397.898438 C 59.105469 406.320312 65.929688 413.144531 74.351562 413.144531 L 110.019531 413.144531 C 127.242188 413.144531 141.253906 398.035156 141.253906 379.464844 C 141.253906 360.890625 127.242188 345.78125 110.019531 345.78125 L 90.679688 345.78125 C 89.238281 344.441406 89.238281 340.742188 90.679688 339.398438 Z M 126.007812 339.398438 " style=" stroke:none;fill-rule:nonzero;fill:rgb(100%,53.333333%,34.901961%);fill-opacity:1;" />
<path d="M 200 308.910156 C 176.648438 308.910156 157.648438 329.773438 157.648438 355.417969 C 157.648438 364.050781 157.648438 384.179688 157.648438 397.898438 C 157.648438 406.316406 164.472656 413.144531 172.894531 413.144531 C 181.3125 413.144531 188.136719 406.316406 188.136719 397.898438 L 188.136719 391.566406 L 211.863281 391.566406 L 211.863281 397.898438 C 211.863281 406.316406 218.6875 413.144531 227.105469 413.144531 C 235.527344 413.144531 242.351562 406.316406 242.351562 397.898438 L 242.351562 355.417969 C 242.351562 329.773438 223.355469 308.910156 200 308.910156 Z M 188.140625 361.074219 L 188.140625 355.417969 C 188.140625 346.734375 193.570312 339.398438 200 339.398438 C 206.433594 339.398438 211.863281 346.734375 211.863281 355.417969 L 211.863281 361.074219 Z M 188.140625 361.074219 " style=" stroke:none;fill-rule:nonzero;fill:rgb(100%,53.333333%,34.901961%);fill-opacity:1;" />
<path d="M 332.035156 382.652344 L 293.066406 382.652344 L 293.066406 324.152344 C 293.066406 315.734375 286.238281 308.910156 277.820312 308.910156 C 269.402344 308.910156 262.574219 315.734375 262.574219 324.152344 L 262.574219 397.898438 C 262.574219 406.316406 269.402344 413.144531 277.820312 413.144531 L 332.035156 413.144531 C 340.453125 413.144531 347.28125 406.316406 347.28125 397.898438 C 347.28125 389.480469 340.457031 382.652344 332.035156 382.652344 Z M 332.035156 382.652344 " style=" stroke:none;fill-rule:nonzero;fill:rgb(100%,43.921569%,21.568627%);fill-opacity:1;" />
<path d="M 430.546875 382.652344 L 394.136719 382.652344 L 394.136719 376.269531 L 414.359375 376.269531 C 422.777344 376.269531 429.605469 369.445312 429.605469 361.027344 C 429.605469 352.605469 422.777344 345.78125 414.359375 345.78125 L 394.136719 345.78125 L 394.136719 339.398438 L 430.546875 339.398438 C 438.964844 339.398438 445.792969 332.574219 445.792969 324.152344 C 445.792969 315.734375 438.964844 308.910156 430.546875 308.910156 L 378.890625 308.910156 C 370.472656 308.910156 363.644531 315.734375 363.644531 324.152344 L 363.644531 397.898438 C 363.644531 406.316406 370.472656 413.144531 378.890625 413.144531 L 430.546875 413.144531 C 438.964844 413.144531 445.792969 406.316406 445.792969 397.898438 C 445.792969 389.480469 438.964844 382.652344 430.546875 382.652344 Z M 430.546875 382.652344 " style=" stroke:none;fill-rule:nonzero;fill:rgb(100%,43.921569%,21.568627%);fill-opacity:1;" />
</g>
</svg>