<svg xmlns="http://www.w3.org/2000/svg" height="512pt" version="1.1" viewBox="0 -2 512 511" width="512pt">
<g id="surface1">
<path d="M 192.976562 406.167969 C 192.976562 414.550781 186.179688 421.335938 177.808594 421.335938 L 28.988281 421.335938 C 20.605469 421.335938 13.820312 414.550781 13.820312 406.167969 C 13.820312 397.796875 20.605469 391 28.988281 391 L 177.808594 391 C 186.179688 391 192.976562 397.796875 192.976562 406.167969 Z M 192.976562 406.167969 " style=" stroke:none;fill-rule:nonzero;fill:rgb(0%,93.333333%,54.117647%);fill-opacity:1;" />
<path d="M 252.371094 454.703125 C 252.371094 463.074219 245.574219 469.871094 237.203125 469.871094 L 28.988281 469.871094 C 20.605469 469.871094 13.820312 463.074219 13.820312 454.703125 C 13.820312 446.332031 20.605469 439.535156 28.988281 439.535156 L 237.203125 439.535156 C 245.574219 439.535156 252.371094 446.332031 252.371094 454.703125 Z M 252.371094 454.703125 " style=" stroke:none;fill-rule:nonzero;fill:rgb(0%,93.333333%,54.117647%);fill-opacity:1;" />
<path d="M 192.976562 406.167969 C 192.976562 414.550781 186.179688 421.335938 177.808594 421.335938 L 103.398438 421.335938 L 103.398438 391 L 177.808594 391 C 186.179688 391 192.976562 397.796875 192.976562 406.167969 Z M 192.976562 406.167969 " style=" stroke:none;fill-rule:nonzero;fill:rgb(0%,86.666667%,50.196078%);fill-opacity:1;" />
<path d="M 252.371094 454.703125 C 252.371094 463.074219 245.574219 469.871094 237.203125 469.871094 L 133.097656 469.871094 L 133.097656 439.535156 L 237.203125 439.535156 C 245.574219 439.535156 252.371094 446.332031 252.371094 454.703125 Z M 252.371094 454.703125 " style=" stroke:none;fill-rule:nonzero;fill:rgb(0%,86.666667%,50.196078%);fill-opacity:1;" />
<path d="M 360.300781 107.085938 L 317.863281 163.28125 L 325.234375 162.242188 C 333.542969 161.070312 341.199219 166.84375 342.371094 175.132812 C 343.542969 183.425781 337.769531 191.097656 329.480469 192.273438 L 291.957031 197.582031 C 290.175781 199.9375 297.527344 190.203125 250.933594 251.898438 C 245.917969 258.550781 236.414062 259.9375 229.691406 254.863281 C 223.007812 249.816406 221.683594 240.300781 226.726562 233.617188 C 228.503906 231.269531 221.140625 241.011719 267.738281 179.320312 L 262.441406 141.757812 C 261.269531 133.453125 267.042969 125.78125 275.34375 124.617188 C 283.644531 123.453125 291.308594 129.21875 292.472656 137.519531 L 293.554688 145.132812 L 336.09375 88.800781 C 341.136719 82.117188 350.652344 80.792969 357.335938 85.839844 C 364.019531 90.886719 365.34375 100.402344 360.300781 107.085938 Z M 360.300781 107.085938 " style=" stroke:none;fill-rule:nonzero;fill:rgb(65.098039%,100%,70.980392%);fill-opacity:1;" />
<path d="M 458.359375 208.105469 L 433.636719 232.828125 L 433.636719 338.855469 C 433.636719 347.230469 426.84375 354.023438 418.46875 354.023438 C 410.097656 354.023438 403.300781 347.230469 403.300781 338.855469 L 403.300781 289.980469 L 348.660156 289.980469 L 323.9375 314.699219 C 318.011719 320.625 308.40625 320.625 302.480469 314.699219 C 296.566406 308.777344 296.566406 299.171875 302.480469 293.246094 L 305.757812 289.980469 L 251.015625 289.980469 C 242.644531 289.980469 235.847656 283.183594 235.847656 274.8125 C 235.847656 266.429688 242.644531 259.644531 251.015625 259.644531 L 305.757812 259.644531 L 302.480469 256.367188 C 296.566406 250.441406 296.566406 240.835938 302.480469 234.914062 C 308.40625 228.996094 318.011719 228.996094 323.9375 234.914062 L 348.660156 259.644531 L 403.300781 259.644531 L 403.300781 232.828125 L 378.582031 208.105469 C 372.65625 202.183594 372.65625 192.585938 378.582031 186.660156 C 384.496094 180.734375 394.101562 180.734375 400.027344 186.660156 L 403.300781 189.9375 L 403.300781 112.210938 C 403.300781 103.839844 410.097656 97.042969 418.46875 97.042969 C 426.84375 97.042969 433.636719 103.839844 433.636719 112.210938 L 433.636719 189.9375 L 436.914062 186.660156 C 442.839844 180.734375 452.433594 180.734375 458.359375 186.660156 C 464.285156 192.585938 464.285156 202.183594 458.359375 208.105469 Z M 458.359375 208.105469 " style=" stroke:none;fill-rule:nonzero;fill:rgb(65.098039%,100%,70.980392%);fill-opacity:1;" />
<path d="M 126.597656 144.382812 L 126.597656 112.210938 C 126.597656 103.835938 119.808594 97.042969 111.429688 97.042969 C 103.054688 97.042969 96.265625 103.835938 96.265625 112.210938 L 96.265625 144.382812 L 71.539062 169.109375 C 65.617188 175.03125 65.617188 184.632812 71.539062 190.558594 C 77.460938 196.480469 87.066406 196.480469 92.988281 190.558594 L 96.265625 187.28125 L 96.265625 226.535156 C 96.265625 234.914062 103.054688 241.703125 111.429688 241.703125 C 119.808594 241.703125 126.597656 234.914062 126.597656 226.535156 L 126.597656 187.28125 L 129.871094 190.554688 C 135.792969 196.480469 145.398438 196.480469 151.320312 190.554688 C 157.246094 184.632812 157.246094 175.03125 151.320312 169.105469 Z M 126.597656 144.382812 " style=" stroke:none;fill-rule:nonzero;fill:rgb(65.098039%,100%,70.980392%);fill-opacity:1;" />
<path d="M 409.640625 63.9375 C 409.640625 72.3125 402.847656 79.105469 394.476562 79.105469 L 298.328125 79.105469 L 273.59375 103.828125 C 268.355469 109.074219 260.214844 109.671875 254.3125 105.617188 C 246.5 100.304688 245.410156 89.121094 252.148438 82.382812 L 255.421875 79.105469 L 206.789062 79.105469 C 198.414062 79.105469 191.621094 72.3125 191.621094 63.9375 C 191.621094 55.566406 198.414062 48.773438 206.789062 48.773438 L 255.421875 48.773438 L 252.148438 45.496094 C 246.222656 39.570312 246.222656 29.976562 252.148438 24.050781 C 252.824219 23.371094 253.554688 22.773438 254.3125 22.257812 C 260.214844 18.203125 268.355469 18.800781 273.59375 24.050781 L 298.328125 48.773438 L 394.476562 48.773438 C 402.847656 48.773438 409.640625 55.566406 409.640625 63.9375 Z M 409.640625 63.9375 " style=" stroke:none;fill-rule:nonzero;fill:rgb(65.098039%,100%,70.980392%);fill-opacity:1;" />
<path d="M 202.742188 211.367188 L 63.4375 211.367188 C 28.457031 211.367188 0 239.828125 0 274.808594 C 0 309.789062 28.460938 338.246094 63.4375 338.246094 L 202.742188 338.246094 C 237.722656 338.246094 266.183594 309.789062 266.183594 274.808594 C 266.183594 239.828125 237.722656 211.367188 202.742188 211.367188 Z M 202.742188 211.367188 " style=" stroke:none;fill-rule:nonzero;fill:rgb(100%,29.803922%,1.568627%);fill-opacity:1;" />
<path d="M 266.183594 274.8125 C 266.183594 309.785156 237.71875 338.25 202.742188 338.25 L 63.4375 338.25 C 28.464844 338.25 0 309.785156 0 274.8125 Z M 266.183594 274.8125 " style=" stroke:none;fill-rule:nonzero;fill:rgb(81.568627%,23.137255%,0%);fill-opacity:1;" />
<path d="M 235.847656 274.8125 C 235.847656 293.0625 220.996094 307.917969 202.742188 307.917969 L 63.4375 307.917969 C 45.1875 307.917969 30.335938 293.0625 30.335938 274.8125 C 30.335938 256.550781 45.1875 241.707031 63.4375 241.707031 L 202.742188 241.707031 C 220.996094 241.707031 235.847656 256.550781 235.847656 274.8125 Z M 235.847656 274.8125 " style=" stroke:none;fill-rule:nonzero;fill:rgb(100%,72.54902%,61.568627%);fill-opacity:1;" />
<path d="M 235.847656 274.8125 C 235.847656 293.0625 220.996094 307.917969 202.742188 307.917969 L 63.4375 307.917969 C 45.1875 307.917969 30.335938 293.0625 30.335938 274.8125 Z M 235.847656 274.8125 " style=" stroke:none;fill-rule:nonzero;fill:rgb(100%,72.54902%,61.568627%);fill-opacity:1;" />
<path d="M 158.515625 0.5 L 63.4375 0.5 C 28.457031 0.5 0 28.957031 0 63.9375 C 0 98.917969 28.460938 127.378906 63.4375 127.378906 L 158.515625 127.378906 C 193.496094 127.378906 221.953125 98.917969 221.953125 63.9375 C 221.953125 28.957031 193.496094 0.5 158.515625 0.5 Z M 158.515625 0.5 " style=" stroke:none;fill-rule:nonzero;fill:rgb(100%,62.352941%,13.333333%);fill-opacity:1;" />
<path d="M 221.953125 63.9375 C 221.953125 98.914062 193.492188 127.378906 158.515625 127.378906 L 63.4375 127.378906 C 28.464844 127.378906 0 98.914062 0 63.9375 Z M 221.953125 63.9375 " style=" stroke:none;fill-rule:nonzero;fill:rgb(93.333333%,52.941176%,0%);fill-opacity:1;" />
<path d="M 191.621094 63.9375 C 191.621094 82.191406 176.765625 97.042969 158.515625 97.042969 L 63.4375 97.042969 C 45.1875 97.042969 30.335938 82.191406 30.335938 63.9375 C 30.335938 45.6875 45.1875 30.835938 63.4375 30.835938 L 158.515625 30.835938 C 176.765625 30.835938 191.621094 45.6875 191.621094 63.9375 Z M 191.621094 63.9375 " style=" stroke:none;fill-rule:nonzero;fill:rgb(100%,91.372549%,80%);fill-opacity:1;" />
<path d="M 191.621094 63.9375 C 191.621094 82.191406 176.765625 97.042969 158.515625 97.042969 L 63.4375 97.042969 C 45.1875 97.042969 30.335938 82.191406 30.335938 63.9375 Z M 191.621094 63.9375 " style=" stroke:none;fill-rule:nonzero;fill:rgb(100%,82.745098%,60%);fill-opacity:1;" />
<path d="M 448.554688 0.5 L 382.464844 0.5 C 347.484375 0.5 319.023438 28.957031 319.023438 63.9375 C 319.023438 98.917969 347.484375 127.378906 382.464844 127.378906 L 448.554688 127.378906 C 483.535156 127.378906 511.996094 98.917969 511.996094 63.9375 C 511.996094 28.957031 483.535156 0.5 448.554688 0.5 Z M 448.554688 0.5 " style=" stroke:none;fill-rule:nonzero;fill:rgb(18.431373%,75.294118%,94.117647%);fill-opacity:1;" />
<path d="M 512 63.9375 C 512 98.914062 483.535156 127.378906 448.5625 127.378906 L 382.464844 127.378906 C 347.488281 127.378906 319.023438 98.914062 319.023438 63.9375 Z M 512 63.9375 " style=" stroke:none;fill-rule:nonzero;fill:rgb(5.098039%,56.862745%,74.117647%);fill-opacity:1;" />
<path d="M 481.664062 63.9375 C 481.664062 82.191406 466.8125 97.042969 448.5625 97.042969 L 382.464844 97.042969 C 364.210938 97.042969 349.359375 82.191406 349.359375 63.9375 C 349.359375 45.6875 364.210938 30.835938 382.464844 30.835938 L 448.5625 30.835938 C 466.8125 30.835938 481.664062 45.6875 481.664062 63.9375 Z M 481.664062 63.9375 " style=" stroke:none;fill-rule:nonzero;fill:rgb(74.509804%,92.156863%,98.039216%);fill-opacity:1;" />
<path d="M 481.664062 63.9375 C 481.664062 82.191406 466.8125 97.042969 448.5625 97.042969 L 382.464844 97.042969 C 364.210938 97.042969 349.359375 82.191406 349.359375 63.9375 Z M 481.664062 63.9375 " style=" stroke:none;fill-rule:nonzero;fill:rgb(61.960784%,88.627451%,97.254902%);fill-opacity:1;" />
<path d="M 162.546875 79.105469 L 59.410156 79.105469 C 51.03125 79.105469 44.242188 72.316406 44.242188 63.9375 C 44.242188 55.5625 51.03125 48.773438 59.410156 48.773438 L 162.546875 48.773438 C 170.921875 48.773438 177.710938 55.5625 177.710938 63.9375 C 177.710938 72.316406 170.921875 79.105469 162.546875 79.105469 Z M 162.546875 79.105469 " style=" stroke:none;fill-rule:nonzero;fill:rgb(100%,62.352941%,13.333333%);fill-opacity:1;" />
<path d="M 446.203125 79.105469 L 384.816406 79.105469 C 376.441406 79.105469 369.648438 72.316406 369.648438 63.9375 C 369.648438 55.5625 376.441406 48.773438 384.816406 48.773438 L 446.203125 48.773438 C 454.578125 48.773438 461.371094 55.5625 461.371094 63.9375 C 461.371094 72.316406 454.578125 79.105469 446.203125 79.105469 Z M 446.203125 79.105469 " style=" stroke:none;fill-rule:nonzero;fill:rgb(18.431373%,75.294118%,94.117647%);fill-opacity:1;" />
<path d="M 461.371094 63.9375 C 461.371094 72.3125 454.578125 79.105469 446.207031 79.105469 L 384.820312 79.105469 C 376.4375 79.105469 369.652344 72.3125 369.652344 63.9375 Z M 461.371094 63.9375 " style=" stroke:none;fill-rule:nonzero;fill:rgb(5.098039%,56.862745%,74.117647%);fill-opacity:1;" />
<path d="M 92.140625 259.640625 L 58.265625 259.640625 C 49.890625 259.640625 43.101562 266.429688 43.101562 274.808594 C 43.101562 283.183594 49.890625 289.972656 58.265625 289.972656 L 92.140625 289.972656 C 100.515625 289.972656 107.308594 283.183594 107.308594 274.808594 C 107.308594 266.429688 100.515625 259.640625 92.140625 259.640625 Z M 92.140625 259.640625 " style=" stroke:none;fill-rule:nonzero;fill:rgb(100%,29.803922%,1.568627%);fill-opacity:1;" />
<path d="M 207.914062 259.640625 L 131.574219 259.640625 C 123.199219 259.640625 116.40625 266.429688 116.40625 274.808594 C 116.40625 283.183594 123.199219 289.972656 131.574219 289.972656 L 207.914062 289.972656 C 216.292969 289.972656 223.082031 283.183594 223.082031 274.808594 C 223.082031 266.429688 216.292969 259.640625 207.914062 259.640625 Z M 207.914062 259.640625 " style=" stroke:none;fill-rule:nonzero;fill:rgb(100%,29.803922%,1.568627%);fill-opacity:1;" />
<path d="M 177.71875 63.9375 C 177.71875 72.3125 170.921875 79.105469 162.550781 79.105469 L 59.414062 79.105469 C 51.03125 79.105469 44.246094 72.3125 44.246094 63.9375 Z M 177.71875 63.9375 " style=" stroke:none;fill-rule:nonzero;fill:rgb(93.333333%,52.941176%,0%);fill-opacity:1;" />
<path d="M 107.3125 274.8125 C 107.3125 283.183594 100.515625 289.980469 92.144531 289.980469 L 58.273438 289.980469 C 49.890625 289.980469 43.105469 283.183594 43.105469 274.8125 Z M 107.3125 274.8125 " style=" stroke:none;fill-rule:nonzero;fill:rgb(81.568627%,23.137255%,0%);fill-opacity:1;" />
<path d="M 223.085938 274.8125 C 223.085938 283.183594 216.292969 289.980469 207.921875 289.980469 L 131.578125 289.980469 C 123.195312 289.980469 116.414062 283.183594 116.414062 274.8125 Z M 223.085938 274.8125 " style=" stroke:none;fill-rule:nonzero;fill:rgb(81.568627%,23.137255%,0%);fill-opacity:1;" />
<path d="M 418.542969 323.683594 C 367.660156 323.683594 326.261719 365.082031 326.261719 415.964844 C 326.261719 466.847656 367.660156 508.242188 418.542969 508.242188 C 469.425781 508.242188 510.824219 466.847656 510.824219 415.964844 C 510.824219 365.082031 469.425781 323.683594 418.542969 323.683594 Z M 418.542969 323.683594 " style=" stroke:none;fill-rule:nonzero;fill:rgb(0%,93.333333%,54.117647%);fill-opacity:1;" />
<path d="M 510.808594 417.847656 C 509.804688 467.867188 468.804688 508.242188 418.539062 508.242188 C 368.285156 508.242188 327.285156 467.867188 326.285156 417.847656 Z M 510.808594 417.847656 " style=" stroke:none;fill-rule:nonzero;fill:rgb(0%,86.666667%,50.196078%);fill-opacity:1;" />
<path d="M 480.492188 415.964844 C 480.492188 450.121094 452.695312 477.910156 418.539062 477.910156 C 384.382812 477.910156 356.597656 450.121094 356.597656 415.964844 C 356.597656 381.808594 384.382812 354.015625 418.539062 354.015625 C 452.695312 354.015625 480.492188 381.808594 480.492188 415.964844 Z M 480.492188 415.964844 " style=" stroke:none;fill-rule:nonzero;fill:rgb(77.254902%,100%,80.392157%);fill-opacity:1;" />
<path d="M 480.460938 417.847656 C 479.472656 451.132812 452.070312 477.910156 418.539062 477.910156 C 385.011719 477.910156 357.621094 451.132812 356.628906 417.847656 Z M 480.460938 417.847656 " style=" stroke:none;fill-rule:nonzero;fill:rgb(65.098039%,100%,70.980392%);fill-opacity:1;" />
<path d="M 407.664062 451.5625 C 403.640625 451.5625 399.785156 449.960938 396.941406 447.117188 L 377.832031 428.007812 C 371.910156 422.085938 371.910156 412.484375 377.832031 406.558594 C 383.753906 400.640625 393.359375 400.636719 399.28125 406.558594 L 407.664062 414.941406 L 437.808594 384.804688 C 443.730469 378.878906 453.332031 378.878906 459.257812 384.804688 C 465.179688 390.726562 465.179688 400.328125 459.257812 406.253906 L 418.390625 447.117188 C 415.546875 449.964844 411.6875 451.5625 407.664062 451.5625 Z M 407.664062 451.5625 " style=" stroke:none;fill-rule:nonzero;fill:rgb(0%,93.333333%,54.117647%);fill-opacity:1;" />
<path d="M 447.660156 417.847656 L 418.390625 447.121094 C 412.484375 453.023438 402.871094 453.046875 396.941406 447.121094 L 377.832031 428.007812 C 375.011719 425.1875 373.523438 421.527344 373.402344 417.847656 Z M 447.660156 417.847656 " style=" stroke:none;fill-rule:nonzero;fill:rgb(0%,86.666667%,50.196078%);fill-opacity:1;" />
</g>
</svg>