<svg xmlns="http://www.w3.org/2000/svg" height="512pt" version="1.1" viewBox="-120 0 512 512.00003" width="512pt">
<g id="surface1">
<path d="M 271.066406 277.605469 L 271.066406 376.464844 C 271.066406 451.203125 210.261719 512 135.535156 512 C 60.804688 512 0 451.203125 0 376.464844 L 0 277.605469 C 0 213.40625 52.238281 161.175781 116.441406 161.175781 L 154.625 161.175781 C 218.828125 161.175781 271.066406 213.40625 271.066406 277.605469 Z M 271.066406 277.605469 " style=" stroke:none;fill-rule:nonzero;fill:rgb(100%,94.509804%,71.372549%);fill-opacity:1;" />
<path d="M 271.066406 277.605469 L 271.066406 376.464844 C 271.066406 451.203125 210.261719 512 135.535156 512 L 135.535156 161.175781 L 154.625 161.175781 C 218.828125 161.175781 271.066406 213.40625 271.066406 277.605469 Z M 271.066406 277.605469 " style=" stroke:none;fill-rule:nonzero;fill:rgb(100%,89.411765%,46.666667%);fill-opacity:1;" />
<path d="M 240.617188 64.953125 C 234.675781 70.894531 225.042969 70.894531 219.101562 64.953125 C 173.03125 18.882812 98.039062 18.878906 51.964844 64.953125 C 46.023438 70.894531 36.390625 70.894531 30.449219 64.953125 C 24.515625 59.023438 24.515625 49.390625 30.449219 43.449219 C 59.425781 14.480469 97.480469 0 135.535156 0 C 173.585938 0 211.640625 14.480469 240.617188 43.449219 C 246.550781 49.390625 246.550781 59.023438 240.617188 64.953125 Z M 240.617188 64.953125 " style=" stroke:none;fill-rule:nonzero;fill:rgb(74.509804%,92.156863%,98.039216%);fill-opacity:1;" />
<path d="M 203.355469 102.214844 C 197.414062 108.15625 187.78125 108.15625 181.851562 102.214844 C 156.257812 76.625 114.808594 76.621094 89.214844 102.214844 C 83.285156 108.15625 73.652344 108.15625 67.710938 102.214844 C 61.769531 96.273438 61.769531 86.652344 67.710938 80.710938 C 105.230469 43.210938 165.859375 43.234375 203.355469 80.710938 C 209.296875 86.652344 209.296875 96.273438 203.355469 102.214844 Z M 203.355469 102.214844 " style=" stroke:none;fill-rule:nonzero;fill:rgb(74.509804%,92.156863%,98.039216%);fill-opacity:1;" />
<path d="M 164.726562 140.847656 C 158.785156 146.789062 149.152344 146.789062 143.210938 140.847656 C 138.992188 136.628906 132.105469 136.601562 127.859375 140.847656 C 121.917969 146.789062 112.285156 146.789062 106.34375 140.847656 C 100.402344 134.914062 100.402344 125.28125 106.34375 119.339844 C 122.371094 103.289062 148.519531 103.136719 164.726562 119.339844 C 170.65625 125.28125 170.65625 134.914062 164.726562 140.847656 Z M 164.726562 140.847656 " style=" stroke:none;fill-rule:nonzero;fill:rgb(74.509804%,92.156863%,98.039216%);fill-opacity:1;" />
<path d="M 150.742188 161.175781 L 150.742188 265.003906 C 150.742188 273.398438 143.929688 280.214844 135.535156 280.214844 C 127.136719 280.214844 120.324219 273.398438 120.324219 265.003906 L 120.324219 161.175781 Z M 150.742188 161.175781 " style=" stroke:none;fill-rule:nonzero;fill:rgb(100%,82.745098%,60%);fill-opacity:1;" />
<path d="M 135.535156 262.0625 C 115.964844 262.0625 100.046875 277.984375 100.046875 297.550781 C 100.046875 317.121094 115.964844 333.039062 135.535156 333.039062 C 155.101562 333.039062 171.023438 317.121094 171.023438 297.550781 C 171.023438 277.984375 155.101562 262.0625 135.535156 262.0625 Z M 135.535156 262.0625 " style=" stroke:none;fill-rule:nonzero;fill:rgb(100%,76.862745%,46.666667%);fill-opacity:1;" />
<path d="M 150.742188 161.175781 C 150.742188 269.910156 150.75 265.242188 150.734375 265.480469 C 150.480469 273.652344 143.765625 280.214844 135.535156 280.214844 L 135.535156 161.175781 Z M 150.742188 161.175781 " style=" stroke:none;fill-rule:nonzero;fill:rgb(100%,76.862745%,46.666667%);fill-opacity:1;" />
<path d="M 171.023438 297.550781 C 171.023438 317.121094 155.101562 333.039062 135.535156 333.039062 L 135.535156 262.0625 C 155.140625 262.0625 171.023438 278.015625 171.023438 297.550781 Z M 171.023438 297.550781 " style=" stroke:none;fill-rule:nonzero;fill:rgb(100%,62.352941%,13.333333%);fill-opacity:1;" />
<path d="M 164.726562 119.339844 C 170.65625 125.28125 170.65625 134.914062 164.726562 140.847656 C 158.785156 146.789062 149.152344 146.789062 143.210938 140.847656 C 141.089844 138.726562 138.3125 137.671875 135.535156 137.671875 L 135.535156 107.246094 C 146.089844 107.246094 156.652344 111.269531 164.726562 119.339844 Z M 164.726562 119.339844 " style=" stroke:none;fill-rule:nonzero;fill:rgb(61.960784%,88.627451%,97.254902%);fill-opacity:1;" />
<path d="M 203.355469 80.710938 C 209.296875 86.652344 209.296875 96.273438 203.355469 102.214844 C 197.414062 108.15625 187.78125 108.15625 181.851562 102.214844 C 169.054688 89.417969 152.292969 83.023438 135.535156 83.023438 L 135.535156 52.59375 C 160.070312 52.59375 184.609375 61.972656 203.355469 80.710938 Z M 203.355469 80.710938 " style=" stroke:none;fill-rule:nonzero;fill:rgb(61.960784%,88.627451%,97.254902%);fill-opacity:1;" />
<path d="M 240.617188 64.953125 C 234.675781 70.894531 225.042969 70.894531 219.101562 64.953125 C 196.066406 41.917969 165.800781 30.398438 135.535156 30.398438 L 135.535156 0 C 173.585938 0 211.640625 14.480469 240.617188 43.449219 C 246.550781 49.390625 246.550781 59.023438 240.617188 64.953125 Z M 240.617188 64.953125 " style=" stroke:none;fill-rule:nonzero;fill:rgb(61.960784%,88.627451%,97.254902%);fill-opacity:1;" />
</g>
</svg>