<svg xmlns="http://www.w3.org/2000/svg" height="512pt" version="1.1" viewBox="0 -34 512.00056 512" width="512pt">
<g id="surface1">
<path d="M 176.746094 220.820312 C 176.34375 216.558594 177.390625 219.839844 145.6875 155.011719 C 142.988281 149.496094 137.382812 146 131.246094 146 L 16.097656 146 C 4.25 146 -3.585938 158.445312 1.65625 169.148438 L 27.695312 222.339844 L 1.65625 275.523438 C -3.550781 286.164062 4.179688 298.671875 16.097656 298.671875 L 131.246094 298.671875 C 137.382812 298.671875 142.988281 295.175781 145.6875 289.664062 C 178.105469 223.4375 177.347656 227.117188 176.746094 220.820312 Z M 176.746094 220.820312 " style=" stroke:none;fill-rule:nonzero;fill:rgb(100%,92.156863%,60%);fill-opacity:1;" />
<path d="M 145.691406 289.664062 C 142.988281 295.175781 137.382812 298.667969 131.242188 298.667969 L 16.09375 298.667969 C 4.175781 298.667969 -3.554688 286.160156 1.65625 275.527344 L 27.695312 222.339844 L 176.882812 222.339844 C 177.214844 227.023438 175.191406 229.390625 145.691406 289.664062 Z M 145.691406 289.664062 " style=" stroke:none;fill-rule:nonzero;fill:rgb(100%,85.490196%,26.666667%);fill-opacity:1;" />
<path d="M 346.609375 161.238281 L 269.964844 161.238281 C 261.085938 161.238281 253.886719 168.4375 253.886719 177.316406 C 253.886719 186.195312 261.085938 193.394531 269.964844 193.394531 L 346.609375 193.394531 C 355.492188 193.394531 362.691406 186.195312 362.691406 177.316406 C 362.691406 168.4375 355.492188 161.238281 346.609375 161.238281 Z M 346.609375 161.238281 " style=" stroke:none;fill-rule:nonzero;fill:rgb(74.509804%,92.156863%,98.039216%);fill-opacity:1;" />
<path d="M 237 320.957031 L 97.925781 320.957031 C 89.042969 320.957031 81.84375 328.152344 81.84375 337.035156 C 81.84375 345.914062 89.042969 353.113281 97.925781 353.113281 L 237 353.113281 C 245.878906 353.113281 253.078125 345.914062 253.078125 337.035156 C 253.078125 328.152344 245.882812 320.957031 237 320.957031 Z M 237 320.957031 " style=" stroke:none;fill-rule:nonzero;fill:rgb(74.509804%,92.156863%,98.039216%);fill-opacity:1;" />
<path d="M 124.585938 412.515625 L 27.039062 412.515625 C 18.160156 412.515625 10.960938 419.714844 10.960938 428.597656 C 10.960938 437.476562 18.160156 444.675781 27.039062 444.675781 L 124.585938 444.675781 C 133.464844 444.675781 140.664062 437.476562 140.664062 428.597656 C 140.664062 419.714844 133.464844 412.515625 124.585938 412.515625 Z M 124.585938 412.515625 " style=" stroke:none;fill-rule:nonzero;fill:rgb(100%,85.490196%,26.666667%);fill-opacity:1;" />
<path d="M 43.117188 32.15625 L 167.460938 32.15625 C 176.34375 32.15625 183.539062 24.960938 183.539062 16.078125 C 183.539062 7.199219 176.34375 0 167.460938 0 L 43.117188 0 C 34.238281 0 27.039062 7.199219 27.039062 16.078125 C 27.039062 24.960938 34.238281 32.15625 43.117188 32.15625 Z M 43.117188 32.15625 " style=" stroke:none;fill-rule:nonzero;fill:rgb(74.509804%,92.156863%,98.039216%);fill-opacity:1;" />
<path d="M 141.882812 106.570312 C 141.882812 115.449219 149.082031 122.648438 157.960938 122.648438 L 234.792969 122.648438 C 243.671875 122.648438 250.871094 115.449219 250.871094 106.570312 C 250.871094 97.691406 243.671875 90.492188 234.792969 90.492188 L 157.960938 90.492188 C 149.082031 90.492188 141.882812 97.6875 141.882812 106.570312 Z M 141.882812 106.570312 " style=" stroke:none;fill-rule:nonzero;fill:rgb(100%,92.156863%,60%);fill-opacity:1;" />
<path d="M 440.074219 222.339844 C 440.074219 231.214844 432.871094 238.417969 423.996094 238.417969 L 19 238.417969 C 10.125 238.417969 2.921875 231.214844 2.921875 222.339844 C 2.921875 213.460938 10.125 206.257812 19 206.257812 L 423.996094 206.257812 C 432.871094 206.257812 440.074219 213.460938 440.074219 222.339844 Z M 440.074219 222.339844 " style=" stroke:none;fill-rule:nonzero;fill:rgb(18.431373%,75.294118%,94.117647%);fill-opacity:1;" />
<path d="M 16.097656 79.863281 L 308.285156 79.863281 C 317.167969 79.863281 324.363281 72.667969 324.363281 63.785156 C 324.363281 54.90625 317.167969 47.707031 308.285156 47.707031 L 16.097656 47.707031 C 7.21875 47.707031 0.0195312 54.90625 0.0195312 63.785156 C 0.0195312 72.667969 7.21875 79.863281 16.097656 79.863281 Z M 16.097656 79.863281 " style=" stroke:none;fill-rule:nonzero;fill:rgb(18.431373%,75.294118%,94.117647%);fill-opacity:1;" />
<path d="M 308.285156 364.816406 L 16.097656 364.816406 C 7.21875 364.816406 0.0195312 372.015625 0.0195312 380.894531 C 0.0195312 389.777344 7.21875 396.976562 16.097656 396.976562 L 308.285156 396.976562 C 317.167969 396.976562 324.363281 389.777344 324.363281 380.894531 C 324.363281 372.015625 317.167969 364.816406 308.285156 364.816406 Z M 308.285156 364.816406 " style=" stroke:none;fill-rule:nonzero;fill:rgb(18.431373%,75.294118%,94.117647%);fill-opacity:1;" />
<path d="M 506.203125 231.855469 L 439.632812 266.253906 C 432.496094 269.929688 423.996094 264.753906 423.996094 256.726562 L 423.996094 187.949219 C 423.996094 179.921875 432.496094 174.746094 439.632812 178.421875 L 506.203125 212.820312 C 513.925781 216.796875 513.941406 227.871094 506.203125 231.855469 Z M 506.203125 231.855469 " style=" stroke:none;fill-rule:nonzero;fill:rgb(100%,92.156863%,60%);fill-opacity:1;" />
<path d="M 390.496094 54.257812 L 323.925781 19.871094 C 316.792969 16.183594 308.289062 21.363281 308.289062 29.394531 L 308.289062 98.171875 C 308.289062 106.203125 316.792969 111.382812 323.925781 107.695312 L 390.496094 73.308594 C 398.230469 69.3125 398.230469 58.253906 390.496094 54.257812 Z M 390.496094 54.257812 " style=" stroke:none;fill-rule:nonzero;fill:rgb(100%,92.156863%,60%);fill-opacity:1;" />
<path d="M 390.496094 371.367188 L 323.925781 336.980469 C 316.792969 333.296875 308.289062 338.472656 308.289062 346.503906 L 308.289062 415.28125 C 308.289062 423.3125 316.792969 428.492188 323.925781 424.804688 L 390.496094 390.417969 C 398.230469 386.421875 398.230469 375.363281 390.496094 371.367188 Z M 390.496094 371.367188 " style=" stroke:none;fill-rule:nonzero;fill:rgb(100%,92.156863%,60%);fill-opacity:1;" />
<path d="M 440.074219 222.339844 C 440.074219 231.214844 432.871094 238.417969 423.996094 238.417969 L 19 238.417969 C 10.125 238.417969 2.921875 231.214844 2.921875 222.339844 Z M 440.074219 222.339844 " style=" stroke:none;fill-rule:nonzero;fill:rgb(5.882353%,66.27451%,86.666667%);fill-opacity:1;" />
<path d="M 512 222.339844 C 512 226.101562 510.070312 229.863281 506.203125 231.855469 L 439.632812 266.253906 C 432.496094 269.929688 423.996094 264.753906 423.996094 256.726562 L 423.996094 222.339844 Z M 512 222.339844 " style=" stroke:none;fill-rule:nonzero;fill:rgb(100%,85.490196%,26.666667%);fill-opacity:1;" />
<path d="M 324.371094 63.777344 L 324.371094 63.789062 C 324.371094 72.664062 317.167969 79.867188 308.292969 79.867188 L 16.09375 79.867188 C 7.21875 79.867188 0.015625 72.664062 0.015625 63.789062 L 0.015625 63.777344 Z M 324.371094 63.777344 " style=" stroke:none;fill-rule:nonzero;fill:rgb(5.882353%,66.27451%,86.666667%);fill-opacity:1;" />
<path d="M 396.296875 63.777344 C 396.296875 67.550781 394.367188 71.304688 390.496094 73.308594 L 323.929688 107.695312 C 316.792969 111.382812 308.292969 106.207031 308.292969 98.175781 L 308.292969 63.777344 Z M 396.296875 63.777344 " style=" stroke:none;fill-rule:nonzero;fill:rgb(100%,85.490196%,26.666667%);fill-opacity:1;" />
<path d="M 324.371094 380.898438 C 324.371094 389.773438 317.167969 396.976562 308.292969 396.976562 L 16.09375 396.976562 C 7.21875 396.976562 0.015625 389.773438 0.015625 380.898438 Z M 324.371094 380.898438 " style=" stroke:none;fill-rule:nonzero;fill:rgb(5.882353%,66.27451%,86.666667%);fill-opacity:1;" />
<path d="M 396.296875 380.898438 C 396.296875 384.648438 394.367188 388.421875 390.496094 390.417969 L 323.929688 424.804688 C 316.792969 428.492188 308.292969 423.3125 308.292969 415.285156 L 308.292969 380.898438 Z M 396.296875 380.898438 " style=" stroke:none;fill-rule:nonzero;fill:rgb(100%,85.490196%,26.666667%);fill-opacity:1;" />
</g>
</svg>