<svg xmlns="http://www.w3.org/2000/svg" height="512.00038pt" version="1.1" viewBox="0 0 512.00038 512.00038" width="512.00038pt">
<g id="surface1">
<path d="M 512 220.191406 C 512 228.5625 505.207031 235.355469 496.835938 235.355469 L 484.96875 235.355469 C 477.597656 330.121094 401.75 405.96875 306.972656 413.339844 L 306.972656 425.207031 C 306.972656 433.589844 300.191406 440.371094 291.808594 440.371094 C 283.4375 440.371094 276.644531 433.589844 276.644531 425.207031 L 276.644531 413.339844 C 181.882812 405.96875 106.03125 330.121094 98.660156 235.355469 L 86.792969 235.355469 C 78.414062 235.355469 71.628906 228.5625 71.628906 220.191406 C 71.628906 211.808594 78.414062 205.027344 86.792969 205.027344 L 98.660156 205.027344 C 106.03125 110.253906 181.882812 34.402344 276.644531 27.03125 L 276.644531 15.164062 C 276.644531 6.792969 283.4375 0 291.808594 0 C 300.191406 0 306.972656 6.792969 306.972656 15.164062 L 306.972656 27.03125 C 401.75 34.402344 477.597656 110.253906 484.96875 205.027344 L 496.835938 205.027344 C 505.207031 205.027344 512 211.808594 512 220.191406 Z M 512 220.191406 " style=" stroke:none;fill-rule:nonzero;fill:rgb(100%,53.333333%,34.901961%);fill-opacity:1;" />
<path d="M 512 220.191406 C 512 228.5625 505.207031 235.355469 496.835938 235.355469 L 484.96875 235.355469 C 477.597656 330.121094 401.75 405.96875 306.972656 413.339844 L 306.972656 425.207031 C 306.972656 433.589844 300.191406 440.371094 291.808594 440.371094 L 291.808594 0 C 300.191406 0 306.972656 6.792969 306.972656 15.164062 L 306.972656 27.03125 C 401.75 34.402344 477.597656 110.253906 484.96875 205.027344 L 496.835938 205.027344 C 505.207031 205.027344 512 211.808594 512 220.191406 Z M 512 220.191406 " style=" stroke:none;fill-rule:nonzero;fill:rgb(100%,29.803922%,1.568627%);fill-opacity:1;" />
<path d="M 291.8125 147.226562 C 251.582031 147.226562 218.851562 179.957031 218.851562 220.1875 C 218.851562 260.417969 251.582031 293.148438 291.8125 293.148438 C 332.042969 293.148438 364.773438 260.417969 364.773438 220.1875 C 364.773438 179.957031 332.042969 147.226562 291.8125 147.226562 Z M 291.8125 262.820312 C 268.304688 262.820312 249.179688 243.695312 249.179688 220.1875 C 249.179688 196.679688 268.304688 177.554688 291.8125 177.554688 C 315.320312 177.554688 334.445312 196.679688 334.445312 220.1875 C 334.445312 243.695312 315.320312 262.820312 291.8125 262.820312 Z M 291.8125 262.820312 " style=" stroke:none;fill-rule:nonzero;fill:rgb(100%,96.078431%,80%);fill-opacity:1;" />
<path d="M 291.8125 79.414062 C 214.191406 79.414062 151.039062 142.566406 151.039062 220.1875 C 151.039062 297.808594 214.191406 360.957031 291.8125 360.957031 C 369.433594 360.957031 432.585938 297.808594 432.585938 220.1875 C 432.585938 142.566406 369.4375 79.414062 291.8125 79.414062 Z M 291.8125 330.632812 C 230.914062 330.632812 181.367188 281.085938 181.367188 220.1875 C 181.367188 159.289062 230.914062 109.742188 291.8125 109.742188 C 352.710938 109.742188 402.257812 159.289062 402.257812 220.1875 C 402.257812 281.085938 352.714844 330.632812 291.8125 330.632812 Z M 291.8125 330.632812 " style=" stroke:none;fill-rule:nonzero;fill:rgb(100%,96.078431%,80%);fill-opacity:1;" />
<path d="M 291.808594 79.417969 L 291.808594 109.746094 C 352.707031 109.746094 402.253906 159.292969 402.253906 220.191406 C 402.253906 281.089844 352.707031 330.636719 291.808594 330.636719 L 291.808594 360.964844 C 369.4375 360.964844 432.582031 297.808594 432.582031 220.191406 C 432.582031 142.5625 369.4375 79.417969 291.808594 79.417969 Z M 291.808594 79.417969 " style=" stroke:none;fill-rule:nonzero;fill:rgb(100%,87.058824%,33.333333%);fill-opacity:1;" />
<path d="M 291.808594 147.222656 L 291.808594 177.550781 C 315.324219 177.550781 334.449219 196.675781 334.449219 220.191406 C 334.449219 243.695312 315.324219 262.820312 291.808594 262.820312 L 291.808594 293.148438 C 332.042969 293.148438 364.777344 260.414062 364.777344 220.191406 C 364.777344 179.957031 332.042969 147.222656 291.808594 147.222656 Z M 291.808594 147.222656 " style=" stroke:none;fill-rule:nonzero;fill:rgb(100%,87.058824%,33.333333%);fill-opacity:1;" />
<path d="M 65.511719 377.003906 C 61.78125 375.5625 57.546875 376.457031 54.71875 379.285156 L 2.964844 431.039062 C -2.203125 436.210938 -0.347656 444.984375 6.46875 447.617188 L 48.246094 463.753906 L 115.636719 396.363281 Z M 65.511719 377.003906 " style=" stroke:none;fill-rule:nonzero;fill:rgb(61.960784%,88.627451%,97.254902%);fill-opacity:1;" />
<path d="M 134.996094 446.488281 L 115.636719 396.363281 L 48.246094 463.753906 L 64.382812 505.53125 C 67.015625 512.347656 75.792969 514.203125 80.960938 509.035156 L 132.714844 457.28125 C 135.542969 454.453125 136.4375 450.222656 134.996094 446.488281 Z M 134.996094 446.488281 " style=" stroke:none;fill-rule:nonzero;fill:rgb(49.411765%,84.705882%,96.470588%);fill-opacity:1;" />
<path d="M 31.605469 480.394531 C 25.683594 474.472656 25.683594 464.871094 31.605469 458.949219 L 281.089844 209.464844 C 287.011719 203.542969 296.613281 203.542969 302.535156 209.464844 C 308.457031 215.386719 308.457031 224.988281 302.535156 230.910156 L 53.050781 480.394531 C 47.132812 486.316406 37.527344 486.316406 31.605469 480.394531 Z M 31.605469 480.394531 " style=" stroke:none;fill-rule:nonzero;fill:rgb(18.431373%,75.294118%,94.117647%);fill-opacity:1;" />
<path d="M 302.535156 209.464844 L 31.605469 480.394531 C 37.527344 486.316406 47.128906 486.316406 53.050781 480.394531 L 302.535156 230.910156 C 308.457031 224.988281 308.457031 215.386719 302.535156 209.464844 Z M 302.535156 209.464844 " style=" stroke:none;fill-rule:nonzero;fill:rgb(5.882353%,66.27451%,86.666667%);fill-opacity:1;" />
</g>
</svg>