<svg xmlns="http://www.w3.org/2000/svg" height="511pt" version="1.1" viewBox="1 0 511.99998 511" width="511pt">
<g id="surface1">
<path d="M 445.527344 297.207031 L 422.191406 297.207031 C 418.167969 297.207031 415.726562 292.800781 417.835938 289.375 C 493.949219 165.617188 406.667969 -0.324219 254.949219 0.503906 C 150.8125 1.070312 66.269531 85.964844 66.269531 190.230469 C 66.269531 225.746094 75.992188 259.824219 94.167969 289.378906 C 96.273438 292.800781 93.832031 297.207031 89.808594 297.207031 L 66.472656 297.207031 C 29.761719 297.207031 0 326.964844 0 363.675781 L 0 444.289062 C 0 481 29.761719 510.761719 66.472656 510.761719 L 445.527344 510.761719 C 482.238281 510.761719 512 481 512 444.289062 L 512 363.675781 C 512 326.964844 482.242188 297.207031 445.527344 297.207031 Z M 445.527344 297.207031 " style=" stroke:none;fill-rule:nonzero;fill:rgb(0%,86.666667%,50.196078%);fill-opacity:1;" />
<path d="M 512 363.679688 L 512 444.296875 C 512 481.007812 482.238281 510.765625 445.527344 510.765625 L 256 510.765625 L 256 0.503906 C 406.976562 0.488281 493.894531 165.773438 417.832031 289.375 C 415.726562 292.804688 418.167969 297.207031 422.195312 297.207031 L 445.527344 297.207031 C 482.238281 297.207031 512 326.96875 512 363.679688 Z M 512 363.679688 " style=" stroke:none;fill-rule:nonzero;fill:rgb(0%,80%,46.27451%);fill-opacity:1;" />
<path d="M 97.699219 353.96875 C 111.363281 372.714844 111.769531 374.46875 116.695312 376.109375 L 137.988281 383.210938 C 146.066406 385.90625 149.113281 395.734375 143.976562 402.523438 C 130.597656 420.21875 128.53125 421.554688 128.578125 427.171875 L 128.769531 449.472656 C 128.84375 458.101562 120.324219 464.1875 112.183594 461.316406 C 90.992188 453.839844 88.96875 452.1875 83.5 454.117188 L 63.09375 461.316406 C 54.953125 464.1875 46.433594 458.101562 46.507812 449.472656 C 46.710938 425.960938 47.519531 423.976562 44.183594 419.558594 L 31.300781 402.523438 C 26.164062 395.734375 29.210938 385.90625 37.289062 383.210938 C 59.179688 375.910156 61.574219 375.925781 64.703125 371.636719 L 77.582031 353.96875 C 82.554688 347.144531 92.726562 347.144531 97.699219 353.96875 Z M 97.699219 353.96875 " style=" stroke:none;fill-rule:nonzero;fill:rgb(100%,92.156863%,60%);fill-opacity:1;" />
<path d="M 266.058594 353.96875 C 279.722656 372.714844 280.128906 374.46875 285.054688 376.109375 L 306.347656 383.210938 C 314.425781 385.90625 317.472656 395.734375 312.335938 402.523438 C 298.957031 420.21875 296.890625 421.554688 296.9375 427.171875 L 297.128906 449.472656 C 297.203125 458.101562 288.683594 464.1875 280.542969 461.316406 C 259.351562 453.839844 257.328125 452.1875 251.859375 454.117188 L 231.453125 461.316406 C 223.316406 464.1875 214.796875 458.101562 214.867188 449.472656 C 215.070312 425.960938 215.878906 423.976562 212.542969 419.558594 L 199.660156 402.523438 C 194.523438 395.734375 197.570312 385.90625 205.648438 383.210938 C 227.539062 375.910156 229.933594 375.925781 233.0625 371.636719 L 245.941406 353.96875 C 250.914062 347.144531 261.085938 347.144531 266.058594 353.96875 Z M 266.058594 353.96875 " style=" stroke:none;fill-rule:nonzero;fill:rgb(100%,92.156863%,60%);fill-opacity:1;" />
<path d="M 434.417969 353.96875 C 448.082031 372.714844 448.488281 374.46875 453.414062 376.109375 L 474.707031 383.210938 C 482.785156 385.90625 485.832031 395.734375 480.699219 402.523438 C 467.316406 420.21875 465.25 421.554688 465.296875 427.171875 L 465.488281 449.472656 C 465.5625 458.101562 457.042969 464.1875 448.902344 461.316406 C 427.710938 453.839844 425.6875 452.1875 420.21875 454.117188 L 399.8125 461.316406 C 391.675781 464.1875 383.15625 458.101562 383.230469 449.472656 C 383.429688 425.960938 384.238281 423.976562 380.902344 419.558594 L 368.019531 402.523438 C 362.882812 395.734375 365.929688 385.90625 374.007812 383.210938 C 395.898438 375.910156 398.292969 375.925781 401.421875 371.636719 L 414.300781 353.96875 C 419.273438 347.144531 429.445312 347.144531 434.417969 353.96875 Z M 434.417969 353.96875 " style=" stroke:none;fill-rule:nonzero;fill:rgb(100%,87.058824%,33.333333%);fill-opacity:1;" />
<path d="M 376.832031 190.230469 C 376.832031 256.964844 322.734375 311.066406 256 311.066406 C 189.265625 311.066406 135.167969 256.964844 135.167969 190.230469 C 135.167969 123.496094 189.265625 69.398438 256 69.398438 C 322.734375 69.398438 376.832031 123.496094 376.832031 190.230469 Z M 376.832031 190.230469 " style=" stroke:none;fill-rule:nonzero;fill:rgb(100%,92.156863%,60%);fill-opacity:1;" />
<path d="M 376.828125 190.226562 C 376.828125 256.964844 322.738281 311.066406 256 311.066406 L 256 69.398438 C 322.738281 69.398438 376.828125 123.5 376.828125 190.226562 Z M 376.828125 190.226562 " style=" stroke:none;fill-rule:nonzero;fill:rgb(100%,87.058824%,33.333333%);fill-opacity:1;" />
<path d="M 228.09375 156.292969 C 228.09375 164.796875 221.199219 171.691406 212.695312 171.691406 C 204.191406 171.691406 197.296875 164.796875 197.296875 156.292969 C 197.296875 147.789062 204.191406 140.894531 212.695312 140.894531 C 221.199219 140.894531 228.09375 147.789062 228.09375 156.292969 Z M 228.09375 156.292969 " style=" stroke:none;fill-rule:nonzero;fill:rgb(86.666667%,69.411765%,0%);fill-opacity:1;" />
<path d="M 314.703125 156.292969 C 314.703125 164.796875 307.808594 171.691406 299.304688 171.691406 C 290.800781 171.691406 283.90625 164.796875 283.90625 156.292969 C 283.90625 147.789062 290.800781 140.894531 299.304688 140.894531 C 307.808594 140.894531 314.703125 147.789062 314.703125 156.292969 Z M 314.703125 156.292969 " style=" stroke:none;fill-rule:nonzero;fill:rgb(80%,61.568627%,0.784314%);fill-opacity:1;" />
<path d="M 314.699219 211.109375 C 314.699219 241.792969 289.742188 266.757812 259.058594 266.757812 L 252.941406 266.757812 C 222.257812 266.757812 197.300781 241.792969 197.300781 211.109375 C 197.300781 202.609375 204.1875 195.710938 212.699219 195.710938 C 221.199219 195.710938 228.097656 202.609375 228.097656 211.109375 C 228.097656 224.8125 239.246094 235.960938 252.941406 235.960938 L 259.058594 235.960938 C 272.753906 235.960938 283.902344 224.8125 283.902344 211.109375 C 283.902344 202.609375 290.800781 195.710938 299.300781 195.710938 C 307.8125 195.710938 314.699219 202.609375 314.699219 211.109375 Z M 314.699219 211.109375 " style=" stroke:none;fill-rule:nonzero;fill:rgb(86.666667%,69.411765%,0%);fill-opacity:1;" />
<path d="M 314.699219 211.109375 C 314.699219 241.792969 289.742188 266.757812 259.058594 266.757812 L 256 266.757812 L 256 235.960938 L 259.058594 235.960938 C 272.753906 235.960938 283.902344 224.8125 283.902344 211.109375 C 283.902344 202.609375 290.800781 195.710938 299.300781 195.710938 C 307.8125 195.710938 314.699219 202.609375 314.699219 211.109375 Z M 314.699219 211.109375 " style=" stroke:none;fill-rule:nonzero;fill:rgb(73.333333%,56.470588%,0.784314%);fill-opacity:1;" />
<path d="M 312.339844 402.523438 C 298.960938 420.222656 296.890625 421.558594 296.941406 427.171875 L 297.136719 449.472656 C 297.207031 458.105469 288.6875 464.191406 280.546875 461.316406 C 265.085938 455.855469 259.828125 453.503906 256 453.390625 L 256 348.855469 C 259.789062 348.855469 263.578125 350.558594 266.058594 353.96875 C 279.722656 372.714844 280.125 374.46875 285.050781 376.109375 L 306.355469 383.214844 C 314.421875 385.90625 317.472656 395.726562 312.339844 402.523438 Z M 312.339844 402.523438 " style=" stroke:none;fill-rule:nonzero;fill:rgb(100%,87.058824%,33.333333%);fill-opacity:1;" />
</g>
</svg>