<svg xmlns="http://www.w3.org/2000/svg" height="512pt" version="1.1" viewBox="-52 0 512 512.00049" width="512pt">
<g id="surface1">
<path d="M 395.351562 56.707031 C 394.15625 56.542969 275.269531 39.984375 225.492188 10.1875 L 212.074219 2.160156 C 207.257812 -0.71875 201.25 -0.71875 196.4375 2.160156 L 183.019531 10.191406 C 133.242188 39.984375 14.355469 56.542969 13.160156 56.707031 C 5.621094 57.738281 0 64.179688 0 71.789062 L 0 307.746094 C 0 420.371094 91.628906 512 204.257812 512 C 317.132812 512 408.511719 420.664062 408.511719 307.746094 L 408.511719 71.789062 C 408.511719 64.179688 402.890625 57.738281 395.351562 56.707031 Z M 395.351562 56.707031 " style=" stroke:none;fill-rule:nonzero;fill:rgb(18.431373%,75.294118%,94.117647%);fill-opacity:1;" />
<path d="M 408.511719 71.789062 L 408.511719 307.746094 C 408.511719 420.660156 317.132812 512 204.257812 512 L 204.257812 0 C 210.988281 0 213.910156 3.824219 225.488281 10.191406 C 275.265625 39.980469 394.160156 56.546875 395.359375 56.707031 C 402.890625 57.742188 408.511719 64.179688 408.511719 71.789062 Z M 408.511719 71.789062 " style=" stroke:none;fill-rule:nonzero;fill:rgb(5.882353%,66.27451%,86.666667%);fill-opacity:1;" />
<path d="M 204.257812 442.757812 C 121.601562 442.757812 54.359375 375.515625 54.359375 292.859375 L 54.359375 124.769531 C 54.359375 117.15625 59.976562 110.714844 67.519531 109.683594 C 68.359375 109.566406 152.1875 97.886719 186.871094 77.128906 L 196.4375 71.402344 C 201.25 68.523438 207.257812 68.523438 212.074219 71.402344 L 221.636719 77.128906 C 250.460938 94.378906 317.566406 106.476562 340.992188 109.683594 C 348.53125 110.714844 354.152344 117.15625 354.152344 124.765625 L 354.152344 292.859375 C 354.15625 375.691406 287.128906 442.757812 204.257812 442.757812 Z M 84.808594 137.828125 L 84.808594 292.859375 C 84.808594 358.722656 138.390625 412.308594 204.257812 412.308594 C 270.253906 412.308594 323.703125 358.898438 323.703125 292.859375 L 323.703125 137.828125 C 231.691406 122.628906 205.503906 102.628906 204.257812 102.210938 C 203.132812 102.589844 176.414062 122.695312 84.808594 137.828125 Z M 84.808594 137.828125 " style=" stroke:none;fill-rule:nonzero;fill:rgb(74.509804%,92.156863%,98.039216%);fill-opacity:1;" />
<path d="M 340.996094 109.679688 C 317.570312 106.484375 250.457031 94.382812 221.644531 77.128906 C 213.773438 72.902344 210.742188 69.242188 204.257812 69.242188 L 204.257812 102.210938 C 205.402344 102.59375 231.832031 122.636719 323.699219 137.824219 L 323.699219 292.863281 C 323.699219 358.898438 270.25 412.308594 204.257812 412.308594 L 204.257812 442.757812 C 287.128906 442.757812 354.148438 375.6875 354.148438 292.863281 L 354.148438 124.773438 C 354.148438 117.160156 348.535156 110.714844 340.996094 109.679688 Z M 340.996094 109.679688 " style=" stroke:none;fill-rule:nonzero;fill:rgb(49.411765%,84.705882%,96.470588%);fill-opacity:1;" />
<path d="M 257.351562 285.039062 C 257.351562 307.519531 240.675781 326.167969 219.054688 329.292969 L 219.054688 348.363281 C 219.054688 356.625 212.46875 363.355469 204.257812 363.578125 C 204.113281 363.589844 203.972656 363.589844 203.828125 363.589844 C 195.425781 363.589844 188.605469 356.769531 188.605469 348.363281 L 188.605469 329.757812 L 155.566406 329.757812 C 147.152344 329.757812 140.34375 322.9375 140.34375 314.535156 C 140.34375 306.121094 147.152344 299.308594 155.566406 299.308594 L 212.628906 299.308594 C 220.496094 299.308594 226.902344 292.90625 226.902344 285.039062 C 226.902344 277.171875 220.496094 270.777344 212.628906 270.777344 L 185.050781 270.777344 C 160.398438 270.777344 140.34375 250.722656 140.34375 226.070312 C 140.34375 201.40625 160.398438 181.347656 185.050781 181.347656 L 188.605469 181.347656 L 188.605469 163.636719 C 188.605469 154.574219 196.539062 147.871094 204.257812 148.421875 C 212.46875 148.644531 219.054688 155.375 219.054688 163.636719 L 219.054688 181.347656 L 233.316406 181.347656 C 241.71875 181.347656 248.539062 188.167969 248.539062 196.574219 C 248.539062 204.976562 241.71875 211.796875 233.316406 211.796875 L 185.050781 211.796875 C 177.1875 211.796875 170.792969 218.203125 170.792969 226.070312 C 170.792969 233.925781 177.1875 240.328125 185.050781 240.328125 L 212.628906 240.328125 C 237.285156 240.328125 257.351562 260.386719 257.351562 285.039062 Z M 257.351562 285.039062 " style=" stroke:none;fill-rule:nonzero;fill:rgb(74.509804%,92.156863%,98.039216%);fill-opacity:1;" />
<path d="M 233.316406 211.796875 L 204.257812 211.796875 L 204.257812 148.421875 C 212.46875 148.644531 219.054688 155.375 219.054688 163.636719 L 219.054688 181.347656 L 233.316406 181.347656 C 241.71875 181.347656 248.539062 188.167969 248.539062 196.574219 C 248.539062 204.976562 241.71875 211.796875 233.316406 211.796875 Z M 233.316406 211.796875 " style=" stroke:none;fill-rule:nonzero;fill:rgb(49.411765%,84.705882%,96.470588%);fill-opacity:1;" />
<path d="M 257.351562 285.039062 C 257.351562 307.519531 240.675781 326.167969 219.054688 329.292969 L 219.054688 348.363281 C 219.054688 356.625 212.46875 363.355469 204.257812 363.578125 L 204.257812 299.308594 L 212.628906 299.308594 C 220.496094 299.308594 226.902344 292.90625 226.902344 285.039062 C 226.902344 277.171875 220.496094 270.777344 212.628906 270.777344 L 204.257812 270.777344 L 204.257812 240.328125 L 212.628906 240.328125 C 237.285156 240.328125 257.351562 260.386719 257.351562 285.039062 Z M 257.351562 285.039062 " style=" stroke:none;fill-rule:nonzero;fill:rgb(49.411765%,84.705882%,96.470588%);fill-opacity:1;" />
</g>
</svg>