<svg xmlns="http://www.w3.org/2000/svg" height="512pt" version="1.1" viewBox="-27 0 512 512" width="512pt">
<g id="surface1">
<path d="M 443.472656 512 L 15.332031 512 C 5.449219 512 -1.796875 502.800781 0.390625 493.257812 C 0.46875 492.917969 37.21875 332.128906 34.882812 342.355469 L 44.304688 301.128906 C 45.898438 294.160156 52.09375 289.214844 59.246094 289.214844 L 399.558594 289.214844 C 406.710938 289.214844 412.902344 294.160156 414.5 301.128906 C 436.882812 399.054688 435.429688 392.703125 458.410156 493.257812 C 459.453125 497.804688 453.339844 512 443.472656 512 Z M 443.472656 512 " style=" stroke:none;fill-rule:nonzero;fill:rgb(65.098039%,100%,70.980392%);fill-opacity:1;" />
<path d="M 443.472656 512 L 229.402344 512 L 229.402344 289.214844 L 399.558594 289.214844 C 406.710938 289.214844 412.902344 294.160156 414.5 301.128906 C 414.5 301.128906 414.507812 301.171875 414.527344 301.261719 L 414.527344 301.273438 C 414.539062 301.304688 414.539062 301.324219 414.550781 301.34375 L 414.539062 301.332031 C 414.550781 301.355469 414.550781 301.375 414.558594 301.40625 C 414.867188 302.734375 416.511719 309.960938 423.921875 342.355469 C 425.945312 351.207031 447.683594 446.3125 450.554688 458.859375 C 456.550781 485.082031 458.035156 491.582031 458.339844 492.941406 C 458.339844 492.960938 458.351562 492.972656 458.351562 492.992188 C 458.359375 493.042969 458.382812 493.125 458.410156 493.257812 C 459.453125 497.804688 453.34375 512 443.472656 512 Z M 443.472656 512 " style=" stroke:none;fill-rule:nonzero;fill:rgb(0%,100%,58.039216%);fill-opacity:1;" />
<path d="M 450.554688 458.859375 L 443.542969 428.199219 L 353.792969 428.199219 L 345.597656 373.015625 L 430.929688 373.015625 L 423.921875 342.355469 L 341.039062 342.355469 L 333.140625 289.214844 L 302.144531 289.214844 L 310.042969 342.355469 L 148.757812 342.355469 L 156.660156 289.214844 L 125.664062 289.214844 L 117.761719 342.355469 L 34.882812 342.355469 L 27.871094 373.015625 L 113.207031 373.015625 L 105.007812 428.199219 L 15.261719 428.199219 L 8.25 458.859375 L 100.453125 458.859375 L 92.550781 512 L 123.546875 512 L 131.449219 458.859375 L 327.355469 458.859375 L 335.257812 512 L 366.25 512 L 358.351562 458.859375 Z M 136.003906 428.199219 L 144.203125 373.015625 L 314.601562 373.015625 L 322.796875 428.199219 Z M 136.003906 428.199219 " style=" stroke:none;fill-rule:nonzero;fill:rgb(0%,86.666667%,50.196078%);fill-opacity:1;" />
<path d="M 450.554688 458.859375 L 443.542969 428.199219 L 353.792969 428.199219 L 345.597656 373.015625 L 430.929688 373.015625 C 430.628906 371.691406 423.976562 342.59375 423.921875 342.355469 L 341.039062 342.355469 L 333.140625 289.214844 L 302.144531 289.214844 L 310.042969 342.355469 L 229.402344 342.355469 L 229.402344 373.015625 L 314.601562 373.015625 L 322.796875 428.199219 L 229.402344 428.199219 L 229.402344 458.859375 L 327.355469 458.859375 L 335.257812 512 L 366.25 512 L 358.351562 458.859375 Z M 450.554688 458.859375 " style=" stroke:none;fill-rule:nonzero;fill:rgb(0%,80%,46.27451%);fill-opacity:1;" />
<path d="M 229.402344 0 C 161.523438 0 106.492188 55.023438 106.492188 122.910156 C 106.492188 179.617188 192.28125 335.402344 220.515625 385.132812 C 224.433594 392.03125 234.371094 392.03125 238.289062 385.132812 C 266.523438 335.402344 352.3125 179.617188 352.3125 122.910156 C 352.3125 55.023438 297.277344 0 229.402344 0 Z M 229.402344 166.71875 C 201.507812 166.71875 178.894531 144.105469 178.894531 116.210938 C 178.894531 88.308594 201.507812 65.695312 229.402344 65.695312 C 257.296875 65.695312 279.910156 88.308594 279.910156 116.210938 C 279.910156 144.105469 257.296875 166.71875 229.402344 166.71875 Z M 229.402344 166.71875 " style=" stroke:none;fill-rule:nonzero;fill:rgb(100%,43.921569%,21.568627%);fill-opacity:1;" />
<path d="M 229.402344 0 L 229.402344 65.691406 C 257.289062 65.691406 279.90625 88.308594 279.90625 116.21875 C 279.90625 144.105469 257.289062 166.722656 229.402344 166.722656 L 229.402344 390.304688 C 232.867188 390.304688 236.332031 388.589844 238.292969 385.132812 C 240.296875 381.609375 242.59375 377.542969 245.121094 373.015625 C 249.984375 364.316406 255.738281 353.925781 262.003906 342.355469 C 285.730469 298.472656 352.3125 172.75 352.3125 122.910156 C 352.3125 55.023438 297.28125 0 229.402344 0 Z M 229.402344 0 " style=" stroke:none;fill-rule:nonzero;fill:rgb(100%,29.803922%,1.568627%);fill-opacity:1;" />
</g>
</svg>