<svg xmlns="http://www.w3.org/2000/svg" height="512pt" version="1.1" viewBox="-5 0 512 512.00021" width="512pt">
<g id="surface1">
<path d="M 493.582031 136.546875 L 485.691406 132.570312 L 493.515625 128.675781 C 501.121094 124.890625 504.214844 115.65625 500.429688 108.050781 C 496.644531 100.445312 487.410156 97.347656 479.804688 101.132812 L 466.941406 107.539062 L 466.941406 94.910156 C 466.941406 86.414062 460.054688 79.527344 451.558594 79.527344 C 443.066406 79.527344 436.179688 86.414062 436.179688 94.910156 L 436.179688 107.617188 L 423.382812 101.167969 C 415.796875 97.347656 406.546875 100.394531 402.726562 107.984375 C 398.902344 115.570312 401.953125 124.820312 409.539062 128.640625 L 417 132.402344 L 378.035156 151.796875 C 370.433594 155.582031 367.335938 164.816406 371.121094 172.421875 C 374.925781 180.066406 384.179688 183.105469 391.746094 179.339844 L 436.179688 157.21875 L 436.179688 170.28125 C 436.179688 178.777344 443.066406 185.664062 451.558594 185.664062 C 460.054688 185.664062 466.941406 178.777344 466.941406 170.28125 L 466.941406 157.574219 C 478.203125 162.820312 480.808594 165.671875 486.648438 165.671875 C 502.816406 165.667969 507.992188 143.808594 493.582031 136.546875 Z M 493.582031 136.546875 " style=" stroke:none;fill-rule:nonzero;fill:rgb(0%,100%,58.039216%);fill-opacity:1;" />
<path d="M 123.222656 151.824219 L 84.789062 132.53125 L 92.507812 128.640625 C 100.09375 124.816406 103.144531 115.570312 99.320312 107.984375 C 95.496094 100.394531 86.25 97.347656 78.664062 101.167969 L 65.867188 107.617188 L 65.867188 94.910156 C 65.867188 86.414062 58.980469 79.527344 50.484375 79.527344 C 41.992188 79.527344 35.105469 86.414062 35.105469 94.910156 L 35.105469 107.59375 L 22.285156 101.15625 C 14.699219 97.347656 5.453125 100.414062 1.640625 108.003906 C -2.171875 115.597656 0.894531 124.839844 8.484375 128.652344 L 16.324219 132.585938 L 8.460938 136.546875 C 0.878906 140.371094 -2.175781 149.621094 1.648438 157.207031 C 4.355469 162.570312 9.773438 165.667969 15.398438 165.667969 C 21.238281 165.667969 23.84375 162.816406 35.101562 157.570312 L 35.101562 170.28125 C 35.101562 178.773438 41.988281 185.660156 50.484375 185.660156 C 58.980469 185.660156 65.867188 178.773438 65.867188 170.28125 L 65.867188 157.457031 L 109.421875 179.320312 C 116.996094 183.121094 126.25 180.078125 130.066406 172.472656 C 133.882812 164.878906 130.816406 155.632812 123.222656 151.824219 Z M 123.222656 151.824219 " style=" stroke:none;fill-rule:nonzero;fill:rgb(0%,100%,58.039216%);fill-opacity:1;" />
<path d="M 293.273438 86.136719 C 287.4375 86.136719 284.84375 83.296875 273.574219 78.046875 L 273.574219 122.796875 C 273.574219 131.289062 266.683594 138.179688 258.191406 138.179688 C 249.691406 138.179688 242.808594 131.289062 242.808594 122.796875 L 242.808594 78.039062 L 230.011719 84.488281 C 222.335938 88.34375 213.144531 85.195312 209.347656 77.679688 C 205.523438 70.089844 208.578125 60.839844 216.167969 57.015625 L 224.011719 53.066406 L 216.167969 49.109375 C 208.578125 45.285156 205.523438 36.035156 209.347656 28.457031 C 213.171875 20.867188 222.421875 17.8125 230.011719 21.636719 L 242.808594 28.085938 L 242.808594 15.382812 C 242.808594 6.878906 249.691406 0 258.191406 0 C 266.683594 0 273.574219 6.878906 273.574219 15.382812 L 273.574219 28.085938 L 286.359375 21.636719 C 293.949219 17.8125 303.199219 20.867188 307.023438 28.457031 C 310.847656 36.035156 307.792969 45.285156 300.203125 49.109375 L 292.371094 53.066406 L 300.203125 57.015625 C 314.621094 64.285156 309.441406 86.136719 293.273438 86.136719 Z M 293.273438 86.136719 " style=" stroke:none;fill-rule:nonzero;fill:rgb(65.098039%,100%,70.980392%);fill-opacity:1;" />
<path d="M 419.4375 289.335938 C 304.097656 446.980469 321.632812 423.015625 319.78125 425.542969 L 259.769531 507.566406 C 258.101562 509.855469 255.75 511.261719 253.234375 511.773438 C 249.328125 512.589844 244.941406 511.214844 242.277344 507.566406 L 82.988281 289.878906 C 78.675781 283.964844 78.878906 276.066406 83.203125 270.40625 C 84.027344 269.332031 158.554688 171.914062 158.738281 171.703125 C 161.8125 167.824219 166.496094 165.570312 171.460938 165.570312 L 330.585938 165.570312 C 335.507812 165.570312 340.15625 167.792969 343.234375 171.597656 L 343.253906 171.628906 L 343.296875 171.683594 L 343.308594 171.703125 L 343.332031 171.738281 L 343.382812 171.800781 C 343.429688 171.84375 343.472656 171.890625 343.503906 171.945312 L 379.382812 218.835938 C 380.984375 220.929688 414.605469 264.871094 418.839844 270.40625 C 423.046875 275.90625 423.34375 283.523438 419.4375 289.335938 Z M 419.4375 289.335938 " style=" stroke:none;fill-rule:nonzero;fill:rgb(0%,86.666667%,50.196078%);fill-opacity:1;" />
<path d="M 422.191406 280.058594 L 79.855469 280.058594 C 79.910156 276.65625 81.027344 273.253906 83.203125 270.40625 C 83.296875 270.28125 158.601562 171.878906 158.738281 171.703125 C 161.8125 167.824219 166.496094 165.570312 171.460938 165.570312 L 330.585938 165.570312 C 335.507812 165.570312 340.15625 167.789062 343.234375 171.59375 L 343.253906 171.628906 L 343.296875 171.683594 L 343.308594 171.703125 L 343.332031 171.734375 L 343.382812 171.800781 L 379.382812 218.832031 C 417.59375 270.511719 422.039062 270.605469 422.191406 280.058594 Z M 422.191406 280.058594 " style=" stroke:none;fill-rule:nonzero;fill:rgb(0%,100%,58.039216%);fill-opacity:1;" />
<path d="M 319.3125 280.0625 L 182.734375 280.0625 L 216.882812 165.570312 L 285.164062 165.570312 Z M 319.3125 280.0625 " style=" stroke:none;fill-rule:nonzero;fill:rgb(0%,86.666667%,50.196078%);fill-opacity:1;" />
<path d="M 319.304688 280.058594 L 253.234375 511.773438 C 251.78125 512.074219 250.265625 512.074219 248.8125 511.773438 L 182.738281 280.058594 Z M 319.304688 280.058594 " style=" stroke:none;fill-rule:nonzero;fill:rgb(65.098039%,100%,70.980392%);fill-opacity:1;" />
<path d="M 293.273438 86.136719 C 287.4375 86.136719 284.84375 83.296875 273.574219 78.046875 L 273.574219 122.796875 C 273.574219 131.289062 266.683594 138.179688 258.191406 138.179688 L 258.191406 0 C 266.683594 0 273.574219 6.878906 273.574219 15.382812 L 273.574219 28.085938 L 286.359375 21.636719 C 293.949219 17.8125 303.199219 20.867188 307.023438 28.457031 C 310.847656 36.035156 307.792969 45.285156 300.203125 49.109375 L 292.371094 53.066406 L 300.203125 57.015625 C 314.621094 64.285156 309.441406 86.136719 293.273438 86.136719 Z M 293.273438 86.136719 " style=" stroke:none;fill-rule:nonzero;fill:rgb(0%,100%,58.039216%);fill-opacity:1;" />
<path d="M 493.582031 136.546875 L 485.691406 132.570312 L 493.515625 128.675781 C 501.121094 124.890625 504.214844 115.65625 500.429688 108.050781 L 371.121094 172.421875 C 374.925781 180.0625 384.175781 183.105469 391.746094 179.335938 L 436.175781 157.21875 L 436.175781 170.28125 C 436.175781 178.773438 443.0625 185.660156 451.558594 185.660156 C 460.054688 185.660156 466.941406 178.773438 466.941406 170.28125 L 466.941406 157.570312 C 478.203125 162.820312 480.808594 165.667969 486.648438 165.667969 C 502.816406 165.667969 507.992188 143.808594 493.582031 136.546875 Z M 493.582031 136.546875 " style=" stroke:none;fill-rule:nonzero;fill:rgb(0%,86.666667%,50.196078%);fill-opacity:1;" />
<path d="M 1.640625 108.003906 C -2.171875 115.597656 0.894531 124.839844 8.484375 128.652344 L 16.324219 132.585938 L 8.460938 136.546875 C 0.878906 140.371094 -2.175781 149.621094 1.648438 157.207031 C 4.355469 162.570312 9.773438 165.667969 15.398438 165.667969 C 21.238281 165.667969 23.84375 162.816406 35.101562 157.570312 L 35.101562 170.28125 C 35.101562 178.773438 41.988281 185.660156 50.484375 185.660156 C 58.980469 185.660156 65.867188 178.773438 65.867188 170.28125 L 65.867188 157.457031 L 109.421875 179.320312 C 116.996094 183.121094 126.25 180.078125 130.066406 172.472656 Z M 1.640625 108.003906 " style=" stroke:none;fill-rule:nonzero;fill:rgb(65.098039%,100%,70.980392%);fill-opacity:1;" />
</g>
</svg>