<svg xmlns="http://www.w3.org/2000/svg" height="512pt" version="1.1" viewBox="0 0 512 512" width="512pt">
<g id="surface1">
<path d="M 256 0 C 114.519531 0 0 114.496094 0 256 C 0 397.484375 114.496094 512 256 512 C 397.480469 512 512 397.503906 512 256 C 512 114.515625 397.503906 0 256 0 Z M 256 0 " style=" stroke:none;fill-rule:nonzero;fill:rgb(49.411765%,84.705882%,96.470588%);fill-opacity:1;" />
<path d="M 511.996094 256 C 511.996094 397.507812 397.484375 511.996094 256 511.996094 C 255.339844 511.996094 254.679688 511.996094 254.019531 511.988281 L 254.019531 0.0117188 C 254.679688 0.00390625 255.339844 0.00390625 256 0.00390625 C 397.507812 0.00390625 511.996094 114.515625 511.996094 256 Z M 511.996094 256 " style=" stroke:none;fill-rule:nonzero;fill:rgb(18.431373%,75.294118%,94.117647%);fill-opacity:1;" />
<path d="M 432.941406 256 C 432.941406 387.699219 293.171875 473.328125 176.210938 413.976562 C 117.625 384.320312 79.058594 323.984375 79.058594 256 C 79.058594 158.277344 158.277344 79.058594 256 79.058594 C 353.722656 79.058594 432.941406 158.277344 432.941406 256 Z M 432.941406 256 " style=" stroke:none;fill-rule:nonzero;fill:rgb(74.509804%,92.156863%,98.039216%);fill-opacity:1;" />
<path d="M 432.941406 256 C 432.941406 359.078125 347.3125 433.933594 254.019531 433.140625 L 254.019531 79.066406 C 254.679688 79.058594 255.339844 79.058594 256 79.058594 C 353.722656 79.058594 432.941406 158.277344 432.941406 256 Z M 432.941406 256 " style=" stroke:none;fill-rule:nonzero;fill:rgb(49.411765%,84.705882%,96.470588%);fill-opacity:1;" />
<path d="M 257.980469 306.5625 L 257.980469 432.933594 C 256.519531 432.773438 216.921875 434.898438 176.210938 413.976562 C 143.367188 397.351562 116.164062 370.65625 98.941406 337.5625 L 98.941406 306.5625 C 98.941406 263.503906 133.210938 228.273438 176.210938 227.066406 C 176.957031 227.042969 177.707031 227.035156 178.460938 227.035156 C 222.554688 227.035156 257.980469 262.820312 257.980469 306.5625 Z M 257.980469 306.5625 " style=" stroke:none;fill-rule:nonzero;fill:rgb(0%,93.333333%,54.117647%);fill-opacity:1;" />
<path d="M 257.980469 306.5625 L 257.980469 432.933594 C 256.546875 432.777344 218.226562 434.824219 178.460938 415.089844 L 178.460938 227.035156 C 222.554688 227.035156 257.980469 262.820312 257.980469 306.5625 Z M 257.980469 306.5625 " style=" stroke:none;fill-rule:nonzero;fill:rgb(0%,80%,46.27451%);fill-opacity:1;" />
<path d="M 228.921875 206.601562 C 228.921875 234.464844 206.324219 257.0625 178.460938 257.0625 C 150.589844 257.0625 128 234.464844 128 206.601562 C 128 178.730469 150.589844 156.140625 178.460938 156.140625 C 206.324219 156.140625 228.921875 178.730469 228.921875 206.601562 Z M 228.921875 206.601562 " style=" stroke:none;fill-rule:nonzero;fill:rgb(100%,74.117647%,52.54902%);fill-opacity:1;" />
<path d="M 413.058594 306.5625 L 413.058594 337.542969 C 396.191406 370.042969 368.867188 398.210938 333.539062 415.171875 C 291.929688 435.171875 254.710938 432.757812 254.019531 432.933594 L 254.019531 306.5625 C 254.019531 304.40625 254.101562 302.28125 254.277344 300.167969 C 254.574219 296.316406 255.164062 292.550781 256 288.875 C 263.976562 253.59375 295.542969 227.035156 333.539062 227.035156 C 348.015625 227.035156 361.597656 230.902344 373.296875 237.671875 C 397.042969 251.417969 413.058594 277.082031 413.058594 306.5625 Z M 413.058594 306.5625 " style=" stroke:none;fill-rule:nonzero;fill:rgb(100%,83.137255%,13.333333%);fill-opacity:1;" />
<path d="M 413.058594 306.5625 L 413.058594 337.542969 C 396.191406 370.042969 368.867188 398.210938 333.539062 415.171875 L 333.539062 227.035156 C 348.015625 227.035156 361.597656 230.902344 373.296875 237.671875 C 397.042969 251.417969 413.058594 277.082031 413.058594 306.5625 Z M 413.058594 306.5625 " style=" stroke:none;fill-rule:nonzero;fill:rgb(93.333333%,74.901961%,0%);fill-opacity:1;" />
<path d="M 384 206.601562 C 384 234.464844 361.410156 257.0625 333.539062 257.0625 C 305.675781 257.0625 283.078125 234.464844 283.078125 206.601562 C 283.078125 178.730469 305.675781 156.140625 333.539062 156.140625 C 361.410156 156.140625 384 178.730469 384 206.601562 Z M 384 206.601562 " style=" stroke:none;fill-rule:nonzero;fill:rgb(100%,74.117647%,52.54902%);fill-opacity:1;" />
<path d="M 335.242188 349.675781 L 335.242188 414.265625 C 286.140625 439.054688 226.265625 439.375 176.210938 413.976562 L 176.210938 349.675781 C 176.210938 320.246094 192.195312 294.5625 215.960938 280.808594 C 215.960938 280.808594 215.972656 280.808594 215.972656 280.796875 C 226.332031 274.8125 237.734375 271.355469 249.304688 270.414062 C 251.519531 270.242188 253.75 270.148438 256 270.15625 C 269.445312 270.210938 283.148438 273.65625 295.480469 280.796875 C 295.480469 280.808594 295.492188 280.808594 295.492188 280.808594 C 319.144531 294.46875 335.242188 320.144531 335.242188 349.675781 Z M 335.242188 349.675781 " style=" stroke:none;fill-rule:nonzero;fill:rgb(100%,43.921569%,21.568627%);fill-opacity:1;" />
<path d="M 335.242188 349.675781 L 335.242188 414.265625 C 310.628906 426.6875 283.367188 432.964844 256 432.941406 L 256 270.15625 C 269.445312 270.210938 283.148438 273.65625 295.480469 280.796875 C 295.480469 280.808594 295.492188 280.808594 295.492188 280.808594 C 319.144531 294.46875 335.242188 320.144531 335.242188 349.675781 Z M 335.242188 349.675781 " style=" stroke:none;fill-rule:nonzero;fill:rgb(100%,29.803922%,1.568627%);fill-opacity:1;" />
<path d="M 228.921875 206.601562 C 228.921875 234.464844 206.324219 257.0625 178.460938 257.0625 L 178.460938 156.140625 C 206.324219 156.140625 228.921875 178.730469 228.921875 206.601562 Z M 228.921875 206.601562 " style=" stroke:none;fill-rule:nonzero;fill:rgb(96.470588%,66.27451%,42.352941%);fill-opacity:1;" />
<path d="M 306.183594 249.726562 C 306.183594 277.597656 283.59375 300.1875 255.722656 300.1875 C 227.859375 300.1875 205.269531 277.597656 205.269531 249.726562 C 205.269531 221.855469 227.859375 199.265625 255.722656 199.265625 C 283.59375 199.265625 306.183594 221.855469 306.183594 249.726562 Z M 306.183594 249.726562 " style=" stroke:none;fill-rule:nonzero;fill:rgb(100%,74.117647%,52.54902%);fill-opacity:1;" />
<path d="M 306.183594 249.726562 C 306.183594 277.597656 283.59375 300.1875 255.722656 300.1875 L 255.722656 199.265625 C 283.59375 199.265625 306.183594 221.855469 306.183594 249.726562 Z M 306.183594 249.726562 " style=" stroke:none;fill-rule:nonzero;fill:rgb(96.470588%,66.27451%,42.352941%);fill-opacity:1;" />
<path d="M 384 206.601562 C 384 234.464844 361.410156 257.0625 333.539062 257.0625 L 333.539062 156.140625 C 361.410156 156.140625 384 178.730469 384 206.601562 Z M 384 206.601562 " style=" stroke:none;fill-rule:nonzero;fill:rgb(96.470588%,66.27451%,42.352941%);fill-opacity:1;" />
</g>
</svg>