<svg xmlns="http://www.w3.org/2000/svg" height="511pt" version="1.1" viewBox="-102 1 511 511.99998" width="511pt">
<g id="surface1">
<path d="M 276.699219 46.375 L 276.699219 465.625 C 276.699219 474.15625 269.773438 481.082031 261.242188 481.082031 L 154.058594 481.082031 L 154.058594 77.367188 L 206 77.367188 C 215.339844 77.367188 223.480469 71.019531 225.757812 61.96875 L 231.621094 38.710938 C 232.777344 34.121094 236.886719 30.917969 241.609375 30.917969 L 261.242188 30.917969 C 269.773438 30.917969 276.699219 37.84375 276.699219 46.375 Z M 276.699219 46.375 " style=" stroke:none;fill-rule:nonzero;fill:rgb(100%,89.411765%,46.666667%);fill-opacity:1;" />
<path d="M 276.699219 46.375 L 276.699219 465.625 C 276.699219 474.15625 269.773438 481.082031 261.242188 481.082031 L 154.058594 481.082031 L 154.058594 77.367188 L 206 77.367188 C 215.339844 77.367188 223.480469 71.019531 225.757812 61.96875 L 231.621094 38.710938 C 232.777344 34.121094 236.886719 30.917969 241.609375 30.917969 L 261.242188 30.917969 C 269.773438 30.917969 276.699219 37.84375 276.699219 46.375 Z M 276.699219 46.375 " style=" stroke:none;fill-rule:nonzero;fill:rgb(100%,89.411765%,46.666667%);fill-opacity:1;" />
<path d="M 276.699219 46.375 L 276.699219 465.625 C 276.699219 474.15625 269.773438 481.082031 261.242188 481.082031 L 154.058594 481.082031 L 154.058594 77.367188 L 206 77.367188 C 215.339844 77.367188 223.480469 71.019531 225.757812 61.96875 L 231.621094 38.710938 C 232.777344 34.121094 236.886719 30.917969 241.609375 30.917969 L 261.242188 30.917969 C 269.773438 30.917969 276.699219 37.84375 276.699219 46.375 Z M 276.699219 46.375 " style=" stroke:none;fill-rule:nonzero;fill:rgb(100%,89.411765%,46.666667%);fill-opacity:1;" />
<path d="M 276.699219 46.375 L 276.699219 465.625 C 276.699219 474.15625 269.773438 481.082031 261.242188 481.082031 L 154.058594 481.082031 L 154.058594 77.367188 L 206 77.367188 C 215.339844 77.367188 223.480469 71.019531 225.757812 61.96875 L 231.621094 38.710938 C 232.777344 34.121094 236.886719 30.917969 241.609375 30.917969 L 261.242188 30.917969 C 269.773438 30.917969 276.699219 37.84375 276.699219 46.375 Z M 276.699219 46.375 " style=" stroke:none;fill-rule:nonzero;fill:rgb(100%,89.411765%,46.666667%);fill-opacity:1;" />
<path d="M 276.699219 46.375 L 276.699219 465.625 C 276.699219 474.15625 269.773438 481.082031 261.242188 481.082031 L 154.058594 481.082031 L 154.058594 77.367188 L 206 77.367188 C 215.339844 77.367188 223.480469 71.019531 225.757812 61.96875 L 231.621094 38.710938 C 232.777344 34.121094 236.886719 30.917969 241.609375 30.917969 L 261.242188 30.917969 C 269.773438 30.917969 276.699219 37.84375 276.699219 46.375 Z M 276.699219 46.375 " style=" stroke:none;fill-rule:nonzero;fill:rgb(100%,89.411765%,46.666667%);fill-opacity:1;" />
<path d="M 261.242188 0 L 46.875 0 C 21.304688 0 0.5 20.804688 0.5 46.375 L 0.5 465.625 C 0.5 491.195312 21.304688 512 46.875 512 L 261.242188 512 C 286.8125 512 307.617188 491.195312 307.617188 465.625 L 307.617188 46.375 C 307.617188 20.804688 286.8125 0 261.242188 0 Z M 261.242188 0 " style=" stroke:none;fill-rule:nonzero;fill:rgb(18.431373%,75.294118%,94.117647%);fill-opacity:1;" />
<path d="M 307.617188 46.375 L 307.617188 465.625 C 307.617188 491.191406 286.808594 512 261.242188 512 L 154.058594 512 L 154.058594 0 L 261.242188 0 C 286.808594 0 307.617188 20.808594 307.617188 46.375 Z M 307.617188 46.375 " style=" stroke:none;fill-rule:nonzero;fill:rgb(5.882353%,66.27451%,86.666667%);fill-opacity:1;" />
<path d="M 276.699219 46.375 L 276.699219 465.625 C 276.699219 474.160156 269.777344 481.082031 261.242188 481.082031 L 46.875 481.082031 C 38.339844 481.082031 31.417969 474.160156 31.417969 465.625 L 31.417969 46.375 C 31.417969 37.839844 38.339844 30.917969 46.875 30.917969 L 66.507812 30.917969 C 71.230469 30.917969 75.347656 34.128906 76.5 38.707031 L 82.359375 61.96875 C 84.636719 71.019531 92.78125 77.367188 102.117188 77.367188 L 206 77.367188 C 215.339844 77.367188 223.480469 71.019531 225.757812 61.96875 L 231.617188 38.707031 C 232.769531 34.128906 236.890625 30.917969 241.609375 30.917969 L 261.242188 30.917969 C 269.777344 30.917969 276.699219 37.839844 276.699219 46.375 Z M 276.699219 46.375 " style=" stroke:none;fill-rule:nonzero;fill:rgb(100%,94.509804%,71.372549%);fill-opacity:1;" />
<path d="M 276.699219 46.375 L 276.699219 465.625 C 276.699219 474.15625 269.773438 481.082031 261.242188 481.082031 L 154.058594 481.082031 L 154.058594 77.367188 L 206 77.367188 C 215.339844 77.367188 223.480469 71.019531 225.757812 61.96875 L 231.621094 38.710938 C 232.777344 34.121094 236.886719 30.917969 241.609375 30.917969 L 261.242188 30.917969 C 269.773438 30.917969 276.699219 37.84375 276.699219 46.375 Z M 276.699219 46.375 " style=" stroke:none;fill-rule:nonzero;fill:rgb(100%,89.411765%,46.666667%);fill-opacity:1;" />
<path d="M 154.058594 148.816406 C 93.378906 148.816406 45.386719 199.199219 46.90625 258.441406 C 46.90625 312.824219 93.226562 363.183594 154.058594 363.183594 C 213.339844 363.183594 261.242188 315.167969 261.242188 256 C 261.242188 196.894531 213.164062 148.816406 154.058594 148.816406 Z M 116.359375 189.734375 C 111.578125 205.222656 108.835938 223.742188 107.980469 242.777344 L 78.949219 242.777344 C 82.925781 220.0625 97.003906 200.78125 116.359375 189.734375 Z M 79.816406 273.695312 L 108.21875 273.695312 C 109.289062 291.246094 111.988281 308.179688 116.433594 322.503906 C 98.210938 312.269531 84.71875 294.75 79.816406 273.695312 Z M 154.058594 330.945312 C 149.214844 324.9375 141.402344 305.488281 139.199219 273.695312 L 168.921875 273.695312 C 166.714844 305.488281 158.902344 324.9375 154.058594 330.945312 Z M 138.929688 242.777344 C 140.679688 208.324219 148.988281 187.339844 154.058594 181.054688 C 159.128906 187.339844 167.4375 208.324219 169.1875 242.777344 Z M 191.6875 322.503906 C 196.128906 308.179688 198.828125 291.246094 199.898438 273.695312 L 228.304688 273.695312 C 223.398438 294.75 209.90625 312.269531 191.6875 322.503906 Z M 200.136719 242.777344 C 199.28125 223.742188 196.539062 205.222656 191.757812 189.734375 C 211.113281 200.78125 225.191406 220.0625 229.167969 242.777344 Z M 200.136719 242.777344 " style=" stroke:none;fill-rule:nonzero;fill:rgb(100%,53.333333%,34.901961%);fill-opacity:1;" />
<path d="M 192.535156 431.203125 L 115.582031 431.203125 C 107.046875 431.203125 100.125 438.121094 100.125 446.660156 C 100.125 455.199219 107.046875 462.121094 115.582031 462.121094 L 192.535156 462.121094 C 201.070312 462.121094 207.992188 455.199219 207.992188 446.660156 C 207.992188 438.121094 201.070312 431.203125 192.535156 431.203125 Z M 192.535156 431.203125 " style=" stroke:none;fill-rule:nonzero;fill:rgb(18.431373%,75.294118%,94.117647%);fill-opacity:1;" />
<path d="M 207.988281 446.660156 C 207.988281 455.195312 201.074219 462.121094 192.53125 462.121094 L 154.058594 462.121094 L 154.058594 431.203125 L 192.53125 431.203125 C 201.074219 431.203125 207.988281 438.125 207.988281 446.660156 Z M 207.988281 446.660156 " style=" stroke:none;fill-rule:nonzero;fill:rgb(5.882353%,66.27451%,86.666667%);fill-opacity:1;" />
<path d="M 154.058594 148.816406 L 154.058594 181.054688 C 159.128906 187.339844 167.4375 208.324219 169.1875 242.777344 L 154.058594 242.777344 L 154.058594 273.695312 L 168.921875 273.695312 C 166.714844 305.488281 158.902344 324.9375 154.058594 330.945312 L 154.058594 363.183594 C 213.339844 363.183594 261.242188 315.167969 261.242188 256 C 261.242188 196.894531 213.164062 148.816406 154.058594 148.816406 Z M 191.6875 322.503906 C 196.128906 308.179688 198.828125 291.246094 199.898438 273.695312 L 228.304688 273.695312 C 223.398438 294.75 209.90625 312.269531 191.6875 322.503906 Z M 200.136719 242.777344 C 199.28125 223.742188 196.539062 205.222656 191.757812 189.734375 C 211.113281 200.78125 225.191406 220.0625 229.167969 242.777344 Z M 200.136719 242.777344 " style=" stroke:none;fill-rule:nonzero;fill:rgb(100%,29.803922%,1.568627%);fill-opacity:1;" />
</g>
</svg>