<svg xmlns="http://www.w3.org/2000/svg" height="512pt" version="1.1" viewBox="0 -128 512 512" width="512pt">
<g id="surface1">
<path d="M 511.996094 16.277344 L 511.996094 238.785156 C 511.996094 247.773438 504.710938 255.0625 495.722656 255.0625 L 16.277344 255.0625 C 7.289062 255.0625 0.00390625 247.773438 0.00390625 238.785156 L 0.00390625 173.917969 C 0.00390625 168.707031 3.710938 164.261719 8.828125 163.265625 C 25.558594 160.003906 38.019531 145.078125 38.019531 127.53125 C 38.019531 113.421875 28.8125 95.867188 8.824219 91.84375 C 3.71875 90.816406 0.00390625 86.394531 0.00390625 81.1875 L 0.00390625 16.277344 C 0.00390625 7.289062 7.292969 0 16.28125 0 L 495.722656 0 C 504.710938 0 511.996094 7.289062 511.996094 16.277344 Z M 511.996094 16.277344 " style=" stroke:none;fill-rule:nonzero;fill:rgb(100%,92.156863%,60%);fill-opacity:1;" />
<path d="M 512 127.53125 L 512 238.792969 C 512 247.773438 504.710938 255.058594 495.71875 255.058594 L 16.28125 255.058594 C 7.289062 255.058594 0 247.773438 0 238.792969 L 0 173.921875 C 0 168.710938 3.710938 164.265625 8.828125 163.261719 C 25.582031 160.015625 38.015625 145.039062 38.015625 127.53125 Z M 512 127.53125 " style=" stroke:none;fill-rule:nonzero;fill:rgb(100%,87.058824%,33.333333%);fill-opacity:1;" />
<path d="M 432.957031 145.234375 C 415.847656 128.101562 388.039062 128.023438 370.828125 145.234375 C 353.753906 162.308594 353.570312 190.082031 370.828125 207.363281 C 388 224.511719 415.792969 224.480469 432.957031 207.363281 C 450.089844 190.230469 450.089844 162.355469 432.957031 145.234375 Z M 409.945312 184.339844 C 405.507812 188.777344 398.292969 188.777344 393.855469 184.339844 C 389.371094 179.878906 389.417969 172.660156 393.855469 168.246094 C 398.308594 163.792969 405.507812 163.8125 409.945312 168.246094 C 414.382812 172.683594 414.382812 179.902344 409.945312 184.339844 Z M 409.945312 184.339844 " style=" stroke:none;fill-rule:nonzero;fill:rgb(100%,39.215686%,14.901961%);fill-opacity:1;" />
<path d="M 199.015625 0 L 199.015625 255.0625 L 16.277344 255.0625 C 7.289062 255.0625 0.00390625 247.773438 0.00390625 238.785156 L 0.00390625 173.917969 C 0.00390625 168.707031 3.710938 164.261719 8.828125 163.265625 C 25.558594 160.003906 38.019531 145.078125 38.019531 127.53125 C 38.019531 113.421875 28.8125 95.867188 8.824219 91.84375 C 3.71875 90.816406 0.00390625 86.394531 0.00390625 81.1875 L 0.00390625 16.277344 C 0.00390625 7.289062 7.292969 0 16.28125 0 Z M 199.015625 0 " style=" stroke:none;fill-rule:nonzero;fill:rgb(18.431373%,75.294118%,94.117647%);fill-opacity:1;" />
<path d="M 199.015625 127.53125 L 199.015625 255.058594 L 16.28125 255.058594 C 7.289062 255.058594 0 247.773438 0 238.792969 L 0 173.921875 C 0 168.710938 3.710938 164.265625 8.828125 163.261719 C 25.582031 160.015625 38.015625 145.039062 38.015625 127.53125 Z M 199.015625 127.53125 " style=" stroke:none;fill-rule:nonzero;fill:rgb(5.882353%,66.27451%,86.666667%);fill-opacity:1;" />
<path d="M 335.425781 109.820312 C 352.558594 92.695312 352.558594 64.820312 335.425781 47.691406 C 318.292969 30.570312 290.429688 30.570312 273.296875 47.691406 C 256.164062 64.820312 256.164062 92.699219 273.296875 109.820312 C 290.394531 126.917969 318.179688 127.066406 335.425781 109.820312 Z M 296.308594 70.714844 C 300.714844 66.304688 307.9375 66.238281 312.410156 70.714844 C 316.8125 75.09375 316.890625 82.324219 312.410156 86.804688 C 307.96875 91.25 300.753906 91.25 296.308594 86.804688 C 291.871094 82.367188 291.871094 75.152344 296.308594 70.714844 Z M 296.308594 70.714844 " style=" stroke:none;fill-rule:nonzero;fill:rgb(100%,48.627451%,28.235294%);fill-opacity:1;" />
<path d="M 425.753906 54.902344 C 419.398438 48.542969 409.09375 48.542969 402.738281 54.902344 L 280.503906 177.136719 C 274.144531 183.492188 274.144531 193.792969 280.503906 200.152344 C 286.859375 206.507812 297.164062 206.507812 303.519531 200.152344 L 425.753906 77.917969 C 432.109375 71.5625 432.109375 61.257812 425.753906 54.902344 Z M 425.753906 54.902344 " style=" stroke:none;fill-rule:nonzero;fill:rgb(100%,48.627451%,28.235294%);fill-opacity:1;" />
<path d="M 376.140625 127.53125 L 303.515625 200.152344 C 297.160156 206.511719 286.855469 206.511719 280.507812 200.152344 C 274.152344 193.796875 274.152344 183.492188 280.507812 177.136719 L 330.113281 127.53125 Z M 376.140625 127.53125 " style=" stroke:none;fill-rule:nonzero;fill:rgb(100%,39.215686%,14.901961%);fill-opacity:1;" />
<path d="M 94.101562 96.9375 L 146.019531 96.9375 C 155.007812 96.9375 162.292969 89.648438 162.292969 80.660156 C 162.292969 71.671875 155.007812 64.386719 146.019531 64.386719 L 94.101562 64.386719 C 85.113281 64.386719 77.828125 71.671875 77.828125 80.660156 C 77.828125 89.648438 85.113281 96.9375 94.101562 96.9375 Z M 94.101562 96.9375 " style=" stroke:none;fill-rule:nonzero;fill:rgb(61.960784%,88.627451%,97.254902%);fill-opacity:1;" />
<path d="M 146.015625 111.253906 L 94.101562 111.253906 C 85.113281 111.253906 77.828125 118.542969 77.828125 127.53125 C 77.828125 136.519531 85.113281 143.804688 94.101562 143.804688 L 146.019531 143.804688 C 155.007812 143.804688 162.292969 136.519531 162.292969 127.53125 C 162.292969 118.542969 155.007812 111.253906 146.015625 111.253906 Z M 146.015625 111.253906 " style=" stroke:none;fill-rule:nonzero;fill:rgb(61.960784%,88.627451%,97.254902%);fill-opacity:1;" />
<path d="M 146.015625 158.125 L 94.101562 158.125 C 85.113281 158.125 77.828125 165.410156 77.828125 174.398438 C 77.828125 183.386719 85.113281 190.675781 94.101562 190.675781 L 146.019531 190.675781 C 155.007812 190.675781 162.292969 183.386719 162.292969 174.398438 C 162.292969 165.410156 155.007812 158.125 146.015625 158.125 Z M 146.015625 158.125 " style=" stroke:none;fill-rule:nonzero;fill:rgb(36.862745%,80.784314%,95.686275%);fill-opacity:1;" />
<path d="M 162.289062 127.53125 C 162.289062 136.523438 155.003906 143.808594 146.019531 143.808594 L 94.101562 143.808594 C 85.109375 143.808594 77.820312 136.523438 77.820312 127.53125 Z M 162.289062 127.53125 " style=" stroke:none;fill-rule:nonzero;fill:rgb(36.862745%,80.784314%,95.686275%);fill-opacity:1;" />
</g>
</svg>