<svg xmlns="http://www.w3.org/2000/svg" height="512pt" version="1.1" viewBox="-3 0 512 512" width="512pt">
<g id="surface1">
<path d="M 260.742188 0 L 46.378906 0 C 20.804688 0 0 20.804688 0 46.378906 L 0 465.625 C 0 491.195312 20.804688 512 46.375 512 L 260.742188 512 C 286.3125 512 307.117188 491.195312 307.117188 465.625 L 307.117188 46.378906 C 307.117188 20.804688 286.3125 0 260.742188 0 Z M 260.742188 0 " style=" stroke:none;fill-rule:nonzero;fill:rgb(36.862745%,80.784314%,95.686275%);fill-opacity:1;" />
<path d="M 307.117188 46.375 L 307.117188 465.621094 C 307.117188 491.191406 286.308594 512 260.742188 512 L 153.558594 512 L 153.558594 0 L 260.742188 0 C 286.308594 0 307.117188 20.808594 307.117188 46.375 Z M 307.117188 46.375 " style=" stroke:none;fill-rule:nonzero;fill:rgb(18.431373%,75.294118%,94.117647%);fill-opacity:1;" />
<path d="M 276.199219 46.375 L 276.199219 465.621094 C 276.199219 474.160156 269.277344 481.082031 260.742188 481.082031 L 46.378906 481.082031 C 37.839844 481.082031 30.917969 474.160156 30.917969 465.621094 L 30.917969 46.375 C 30.917969 37.839844 37.839844 30.917969 46.378906 30.917969 L 66.007812 30.917969 C 70.730469 30.917969 74.847656 34.128906 76 38.707031 L 81.859375 61.96875 C 84.136719 71.019531 92.277344 77.367188 101.617188 77.367188 L 205.5 77.367188 C 214.835938 77.367188 222.980469 71.015625 225.257812 61.96875 L 231.117188 38.707031 C 232.269531 34.128906 236.386719 30.917969 241.109375 30.917969 L 260.738281 30.917969 C 269.277344 30.917969 276.199219 37.839844 276.199219 46.375 Z M 276.199219 46.375 " style=" stroke:none;fill-rule:nonzero;fill:rgb(100%,94.509804%,71.372549%);fill-opacity:1;" />
<path d="M 276.199219 46.375 L 276.199219 465.621094 C 276.199219 474.15625 269.273438 481.082031 260.742188 481.082031 L 153.558594 481.082031 L 153.558594 77.367188 L 205.5 77.367188 C 214.839844 77.367188 222.980469 71.019531 225.257812 61.96875 L 231.121094 38.710938 C 232.273438 34.121094 236.386719 30.917969 241.105469 30.917969 L 260.738281 30.917969 C 269.273438 30.917969 276.199219 37.84375 276.199219 46.375 Z M 276.199219 46.375 " style=" stroke:none;fill-rule:nonzero;fill:rgb(100%,89.411765%,46.666667%);fill-opacity:1;" />
<path d="M 192.035156 431.199219 L 115.082031 431.199219 C 106.546875 431.199219 99.625 438.121094 99.625 446.660156 C 99.625 455.199219 106.546875 462.117188 115.082031 462.117188 L 192.035156 462.117188 C 200.570312 462.117188 207.492188 455.199219 207.492188 446.660156 C 207.492188 438.121094 200.570312 431.199219 192.035156 431.199219 Z M 192.035156 431.199219 " style=" stroke:none;fill-rule:nonzero;fill:rgb(36.862745%,80.784314%,95.686275%);fill-opacity:1;" />
<path d="M 227.355469 252.800781 C 211.238281 236.683594 185.152344 236.679688 169.03125 252.800781 C 152.953125 268.878906 152.953125 295.046875 169.03125 311.125 C 185.148438 327.242188 211.238281 327.246094 227.355469 311.125 C 243.472656 295.007812 243.476562 268.921875 227.355469 252.800781 Z M 205.75 289.519531 C 201.574219 293.695312 194.8125 293.695312 190.640625 289.519531 C 186.472656 285.351562 186.472656 278.574219 190.640625 274.40625 C 194.8125 270.234375 201.574219 270.230469 205.75 274.40625 C 209.925781 278.582031 209.925781 285.339844 205.75 289.519531 Z M 205.75 289.519531 " style=" stroke:none;fill-rule:nonzero;fill:rgb(100%,29.803922%,1.568627%);fill-opacity:1;" />
<path d="M 207.492188 446.660156 C 207.492188 455.195312 200.574219 462.117188 192.03125 462.117188 L 153.558594 462.117188 L 153.558594 431.199219 L 192.03125 431.199219 C 200.574219 431.199219 207.492188 438.125 207.492188 446.660156 Z M 207.492188 446.660156 " style=" stroke:none;fill-rule:nonzero;fill:rgb(18.431373%,75.294118%,94.117647%);fill-opacity:1;" />
<path d="M 135.792969 219.5625 C 151.875 203.484375 151.875 177.320312 135.792969 161.238281 C 119.714844 145.160156 93.550781 145.160156 77.46875 161.238281 C 61.390625 177.320312 61.390625 203.484375 77.46875 219.5625 C 93.546875 235.640625 119.710938 235.648438 135.792969 219.5625 Z M 99.078125 197.957031 C 94.910156 193.792969 94.910156 187.011719 99.078125 182.847656 C 103.242188 178.679688 110.019531 178.679688 114.1875 182.847656 C 118.351562 187.011719 118.351562 193.792969 114.1875 197.957031 C 110.019531 202.121094 103.242188 202.121094 99.078125 197.957031 Z M 99.078125 197.957031 " style=" stroke:none;fill-rule:nonzero;fill:rgb(100%,43.921569%,21.568627%);fill-opacity:1;" />
<path d="M 220.59375 189.609375 L 105.84375 304.359375 C 99.875 310.328125 90.195312 310.328125 84.238281 304.359375 C 78.269531 298.390625 78.269531 288.714844 84.238281 282.746094 L 198.980469 168.003906 C 204.949219 162.035156 214.625 162.035156 220.59375 168.003906 C 226.550781 173.972656 226.550781 183.640625 220.59375 189.609375 Z M 220.59375 189.609375 " style=" stroke:none;fill-rule:nonzero;fill:rgb(100%,43.921569%,21.568627%);fill-opacity:1;" />
<path d="M 220.59375 189.609375 L 153.5625 256.640625 L 153.5625 213.421875 L 198.980469 168.003906 C 204.949219 162.035156 214.625 162.035156 220.59375 168.003906 C 226.550781 173.972656 226.550781 183.640625 220.59375 189.609375 Z M 220.59375 189.609375 " style=" stroke:none;fill-rule:nonzero;fill:rgb(100%,29.803922%,1.568627%);fill-opacity:1;" />
<path d="M 356.144531 322.785156 C 350.242188 328.710938 340.539062 328.785156 334.542969 322.785156 C 328.574219 316.816406 328.574219 307.140625 334.542969 301.171875 C 347 288.714844 353.222656 272.359375 353.222656 256 C 353.222656 239.640625 347 223.28125 334.542969 210.824219 C 328.574219 204.855469 328.574219 195.179688 334.542969 189.210938 C 340.511719 183.253906 350.1875 183.253906 356.144531 189.210938 C 392.972656 226.042969 392.976562 285.957031 356.144531 322.785156 Z M 356.144531 322.785156 " style=" stroke:none;fill-rule:nonzero;fill:rgb(100%,43.921569%,21.568627%);fill-opacity:1;" />
<path d="M 447.5625 256 C 447.5625 299.289062 430.703125 339.992188 400.097656 370.597656 C 394.125 376.566406 384.464844 376.578125 378.480469 370.597656 C 372.523438 364.640625 372.523438 354.964844 378.480469 348.996094 C 429.878906 297.597656 429.890625 214.414062 378.480469 163.003906 C 372.523438 157.035156 372.523438 147.359375 378.480469 141.402344 C 384.449219 135.433594 394.128906 135.433594 400.097656 141.402344 C 430.703125 172.007812 447.5625 212.710938 447.5625 256 Z M 447.5625 256 " style=" stroke:none;fill-rule:nonzero;fill:rgb(100%,43.921569%,21.568627%);fill-opacity:1;" />
<path d="M 506.660156 256 C 506.660156 311.675781 485.472656 367.339844 443.089844 409.722656 C 437.105469 415.703125 427.433594 415.6875 421.484375 409.722656 C 415.515625 403.753906 415.515625 394.085938 421.484375 388.117188 C 457.910156 351.695312 476.121094 303.851562 476.121094 256 C 476.121094 208.148438 457.910156 160.304688 421.484375 123.882812 C 415.515625 117.914062 415.515625 108.246094 421.484375 102.277344 C 427.445312 96.308594 437.121094 96.308594 443.089844 102.277344 C 485.472656 144.660156 506.660156 200.324219 506.660156 256 Z M 506.660156 256 " style=" stroke:none;fill-rule:nonzero;fill:rgb(100%,43.921569%,21.568627%);fill-opacity:1;" />
<path d="M 383.769531 256 C 383.769531 280.179688 374.5625 304.371094 356.144531 322.785156 C 350.242188 328.710938 340.539062 328.785156 334.542969 322.785156 C 328.574219 316.816406 328.574219 307.140625 334.542969 301.171875 C 347 288.714844 353.222656 272.359375 353.222656 256 Z M 383.769531 256 " style=" stroke:none;fill-rule:nonzero;fill:rgb(100%,29.803922%,1.568627%);fill-opacity:1;" />
<path d="M 447.5625 256 C 447.5625 299.289062 430.703125 339.992188 400.097656 370.597656 C 394.125 376.566406 384.464844 376.578125 378.480469 370.597656 C 372.523438 364.640625 372.523438 354.964844 378.480469 348.996094 C 403.324219 324.152344 417.003906 291.128906 417.003906 256 Z M 447.5625 256 " style=" stroke:none;fill-rule:nonzero;fill:rgb(100%,29.803922%,1.568627%);fill-opacity:1;" />
<path d="M 506.660156 256 C 506.660156 311.675781 485.472656 367.339844 443.089844 409.722656 C 437.105469 415.703125 427.433594 415.6875 421.484375 409.722656 C 415.515625 403.753906 415.515625 394.085938 421.484375 388.117188 C 457.910156 351.695312 476.121094 303.851562 476.121094 256 Z M 506.660156 256 " style=" stroke:none;fill-rule:nonzero;fill:rgb(100%,29.803922%,1.568627%);fill-opacity:1;" />
</g>
</svg>