<svg xmlns="http://www.w3.org/2000/svg" height="511pt" version="1.1" viewBox="1 -86 511.99998 511" width="511pt">
<g id="surface1">
<path d="M 333.496094 0.5 C 307.925781 0.5 287.195312 21.230469 287.195312 46.796875 L 287.195312 153.589844 L 388.851562 153.589844 L 388.851562 0.5 Z M 333.496094 0.5 " style=" stroke:none;fill-rule:nonzero;fill:rgb(74.509804%,92.156863%,98.039216%);fill-opacity:1;" />
<path d="M 486.484375 0.5 L 384.925781 0.5 L 384.925781 51.53125 L 486.484375 51.53125 C 500.578125 51.53125 512 40.105469 512 26.015625 C 512 11.921875 500.578125 0.5 486.484375 0.5 Z M 486.484375 0.5 " style=" stroke:none;fill-rule:nonzero;fill:rgb(61.960784%,88.627451%,97.254902%);fill-opacity:1;" />
<path d="M 462.3125 51.53125 L 384.925781 51.53125 L 384.925781 102.5625 L 462.3125 102.5625 C 476.402344 102.5625 487.828125 91.136719 487.828125 77.046875 C 487.828125 62.953125 476.402344 51.53125 462.3125 51.53125 Z M 462.3125 51.53125 " style=" stroke:none;fill-rule:nonzero;fill:rgb(49.411765%,84.705882%,96.470588%);fill-opacity:1;" />
<path d="M 437.273438 102.5625 L 384.925781 102.5625 L 384.925781 153.589844 L 437.273438 153.589844 C 451.363281 153.589844 462.789062 142.167969 462.789062 128.074219 C 462.789062 113.984375 451.363281 102.5625 437.273438 102.5625 Z M 437.273438 102.5625 " style=" stroke:none;fill-rule:nonzero;fill:rgb(36.862745%,80.784314%,95.686275%);fill-opacity:1;" />
<path d="M 178.503906 0.5 L 123.148438 0.5 L 123.148438 153.589844 L 224.804688 153.589844 L 224.804688 46.796875 C 224.804688 21.230469 204.074219 0.5 178.503906 0.5 Z M 178.503906 0.5 " style=" stroke:none;fill-rule:nonzero;fill:rgb(74.509804%,92.156863%,98.039216%);fill-opacity:1;" />
<path d="M 25.515625 0.5 C 11.421875 0.5 0 11.921875 0 26.015625 C 0 40.105469 11.421875 51.53125 25.515625 51.53125 L 127.074219 51.53125 L 127.074219 0.5 Z M 25.515625 0.5 " style=" stroke:none;fill-rule:nonzero;fill:rgb(61.960784%,88.627451%,97.254902%);fill-opacity:1;" />
<path d="M 49.6875 51.53125 C 35.597656 51.53125 24.171875 62.953125 24.171875 77.046875 C 24.171875 91.136719 35.597656 102.5625 49.6875 102.5625 L 127.074219 102.5625 L 127.074219 51.53125 Z M 49.6875 51.53125 " style=" stroke:none;fill-rule:nonzero;fill:rgb(49.411765%,84.705882%,96.470588%);fill-opacity:1;" />
<path d="M 74.726562 102.5625 C 60.636719 102.5625 49.210938 113.984375 49.210938 128.074219 C 49.210938 142.167969 60.636719 153.589844 74.726562 153.589844 L 127.074219 153.589844 L 127.074219 102.5625 Z M 74.726562 102.5625 " style=" stroke:none;fill-rule:nonzero;fill:rgb(36.862745%,80.784314%,95.686275%);fill-opacity:1;" />
<path d="M 368.269531 196.945312 C 368.390625 203.28125 369.648438 197.25 264.035156 335.226562 C 260.222656 340.164062 252.738281 340.175781 248.917969 335.226562 L 146.65625 202.925781 C 144.035156 199.527344 143.949219 194.589844 146.789062 191.078125 C 159.582031 175.238281 183.511719 145.640625 196.5625 129.492188 C 198.371094 127.382812 201.027344 126.148438 203.824219 126.148438 L 309.125 126.148438 C 312.308594 126.148438 315.070312 127.730469 316.558594 129.691406 C 370.019531 195.855469 368.226562 192.273438 368.269531 196.945312 Z M 368.269531 196.945312 " style=" stroke:none;fill-rule:nonzero;fill:rgb(100%,58.039216%,41.568627%);fill-opacity:1;" />
<path d="M 368.269531 196.945312 C 368.390625 203.28125 369.648438 197.25 264.035156 335.226562 C 262.121094 337.703125 259.292969 338.933594 256.476562 338.933594 L 256.476562 126.148438 L 309.125 126.148438 C 313.878906 126.148438 316.285156 129.417969 316.386719 129.496094 C 369.257812 194.914062 368.222656 191.914062 368.269531 196.945312 Z M 368.269531 196.945312 " style=" stroke:none;fill-rule:nonzero;fill:rgb(100%,43.921569%,21.568627%);fill-opacity:1;" />
<path d="M 368.269531 196.945312 L 144.679688 196.945312 C 144.726562 191.921875 143.675781 194.933594 196.5625 129.496094 C 198.371094 127.382812 201.027344 126.148438 203.824219 126.148438 L 309.125 126.148438 C 313.878906 126.148438 316.285156 129.417969 316.386719 129.496094 C 369.257812 194.914062 368.222656 191.914062 368.269531 196.945312 Z M 368.269531 196.945312 " style=" stroke:none;fill-rule:nonzero;fill:rgb(100%,72.54902%,61.568627%);fill-opacity:1;" />
<path d="M 368.269531 196.945312 L 256.472656 196.945312 L 256.472656 126.152344 L 309.125 126.152344 C 313.875 126.152344 316.285156 129.417969 316.386719 129.496094 C 369.257812 194.914062 368.222656 191.914062 368.269531 196.945312 Z M 368.269531 196.945312 " style=" stroke:none;fill-rule:nonzero;fill:rgb(100%,58.039216%,41.568627%);fill-opacity:1;" />
</g>
</svg>