<svg xmlns="http://www.w3.org/2000/svg" height="511pt" version="1.1" viewBox="1 -74 511.99999 511" width="511pt">
<g id="surface1">
<path d="M 449.867188 0.5 L 66.273438 0.5 C 46.894531 0.5 31.128906 16.265625 31.128906 35.644531 L 31.128906 268.613281 C 31.128906 276.929688 37.875 283.675781 46.191406 283.675781 L 469.949219 283.675781 C 478.269531 283.675781 485.011719 276.929688 485.011719 268.613281 L 485.011719 35.644531 C 485.011719 16.265625 469.246094 0.5 449.867188 0.5 Z M 449.867188 0.5 " style=" stroke:none;fill-rule:nonzero;fill:rgb(100%,43.921569%,21.568627%);fill-opacity:1;" />
<path d="M 485.007812 35.644531 L 485.007812 268.613281 C 485.007812 276.925781 478.269531 283.675781 469.945312 283.675781 L 258.066406 283.675781 L 258.066406 0.5 L 449.863281 0.5 C 469.242188 0.5 485.007812 16.265625 485.007812 35.644531 Z M 485.007812 35.644531 " style=" stroke:none;fill-rule:nonzero;fill:rgb(100%,29.803922%,1.568627%);fill-opacity:1;" />
<path d="M 454.882812 35.644531 L 454.882812 253.550781 L 61.25 253.550781 L 61.25 35.644531 C 61.25 32.875 63.507812 30.625 66.269531 30.625 L 449.863281 30.625 C 452.632812 30.625 454.882812 32.875 454.882812 35.644531 Z M 454.882812 35.644531 " style=" stroke:none;fill-rule:nonzero;fill:rgb(100%,96.078431%,80%);fill-opacity:1;" />
<path d="M 454.882812 35.644531 L 454.882812 253.550781 L 258.066406 253.550781 L 258.066406 30.625 L 449.863281 30.625 C 452.632812 30.625 454.882812 32.875 454.882812 35.644531 Z M 454.882812 35.644531 " style=" stroke:none;fill-rule:nonzero;fill:rgb(100%,92.156863%,60%);fill-opacity:1;" />
<path d="M 341.488281 217.679688 L 332.984375 122.59375 C 332.304688 114.996094 325.941406 109.171875 318.3125 109.171875 L 197.828125 109.171875 C 190.203125 109.171875 183.835938 114.996094 183.15625 122.59375 L 174.652344 217.679688 C 173.882812 226.300781 180.675781 233.726562 189.328125 233.726562 L 326.8125 233.726562 C 335.46875 233.726562 342.257812 226.300781 341.488281 217.679688 Z M 341.488281 217.679688 " style=" stroke:none;fill-rule:nonzero;fill:rgb(49.411765%,84.705882%,96.470588%);fill-opacity:1;" />
<path d="M 326.8125 233.726562 L 258.066406 233.726562 L 258.066406 109.171875 L 318.316406 109.171875 C 325.9375 109.171875 332.304688 114.996094 332.988281 122.597656 L 341.492188 217.679688 C 342.253906 226.296875 335.46875 233.726562 326.8125 233.726562 Z M 326.8125 233.726562 " style=" stroke:none;fill-rule:nonzero;fill:rgb(36.862745%,80.784314%,95.686275%);fill-opacity:1;" />
<path d="M 283.429688 149.808594 C 275.109375 149.808594 268.367188 143.0625 268.367188 134.746094 L 268.367188 88.828125 C 268.367188 83.3125 263.878906 78.824219 258.367188 78.824219 C 252.851562 78.824219 248.363281 83.3125 248.363281 88.828125 L 248.363281 134.746094 C 248.363281 143.0625 241.621094 149.808594 233.300781 149.808594 C 224.984375 149.808594 218.238281 143.0625 218.238281 134.746094 L 218.238281 88.828125 C 218.238281 66.699219 236.242188 48.699219 258.367188 48.699219 C 280.492188 48.699219 298.492188 66.699219 298.492188 88.828125 L 298.492188 134.746094 C 298.492188 143.0625 291.75 149.808594 283.429688 149.808594 Z M 283.429688 149.808594 " style=" stroke:none;fill-rule:nonzero;fill:rgb(5.882353%,66.27451%,86.666667%);fill-opacity:1;" />
<path d="M 298.492188 88.824219 L 298.492188 134.746094 C 298.492188 143.0625 291.746094 149.808594 283.429688 149.808594 C 275.105469 149.808594 268.367188 143.0625 268.367188 134.746094 L 268.367188 88.824219 C 268.367188 82.667969 262.816406 78.371094 258.066406 78.835938 L 258.066406 48.699219 L 258.367188 48.699219 C 280.488281 48.699219 298.492188 66.703125 298.492188 88.824219 Z M 298.492188 88.824219 " style=" stroke:none;fill-rule:nonzero;fill:rgb(5.098039%,56.862745%,74.117647%);fill-opacity:1;" />
<path d="M 496.933594 253.550781 L 15.0625 253.550781 C 6.742188 253.550781 0 260.292969 0 268.613281 L 0 317.816406 C 0 342.734375 20.269531 363.003906 45.1875 363.003906 L 466.808594 363.003906 C 491.726562 363.003906 511.996094 342.734375 511.996094 317.816406 L 511.996094 268.613281 C 511.996094 260.292969 505.253906 253.550781 496.933594 253.550781 Z M 496.933594 253.550781 " style=" stroke:none;fill-rule:nonzero;fill:rgb(100%,53.333333%,34.901961%);fill-opacity:1;" />
<path d="M 512 268.613281 L 512 317.816406 C 512 342.730469 491.726562 363.003906 466.8125 363.003906 L 258.066406 363.003906 L 258.066406 253.550781 L 496.9375 253.550781 C 505.253906 253.550781 512 260.296875 512 268.613281 Z M 512 268.613281 " style=" stroke:none;fill-rule:nonzero;fill:rgb(100%,48.627451%,28.235294%);fill-opacity:1;" />
<path d="M 158.15625 253.550781 L 158.15625 287.191406 C 158.15625 307.125 174.371094 323.339844 194.304688 323.339844 L 321.835938 323.339844 C 341.769531 323.339844 357.984375 307.125 357.984375 287.191406 L 357.984375 253.550781 Z M 158.15625 253.550781 " style=" stroke:none;fill-rule:nonzero;fill:rgb(100%,72.54902%,61.568627%);fill-opacity:1;" />
<path d="M 357.980469 253.550781 L 357.980469 287.191406 C 357.980469 307.121094 341.773438 323.339844 321.832031 323.339844 L 258.066406 323.339844 L 258.066406 253.550781 Z M 357.980469 253.550781 " style=" stroke:none;fill-rule:nonzero;fill:rgb(100%,63.137255%,48.235294%);fill-opacity:1;" />
</g>
</svg>