<svg xmlns="http://www.w3.org/2000/svg" height="512pt" version="1.1" viewBox="0 -5 512.00159 512" width="512pt">
<g id="surface1">
<path d="M 293.324219 32.367188 L 293.324219 470.4375 C 293.324219 488.320312 278.832031 502.804688 260.949219 502.804688 L 70.230469 502.804688 C 52.347656 502.804688 37.851562 488.320312 37.851562 470.4375 L 37.851562 32.367188 C 37.851562 14.484375 52.347656 0 70.230469 0 L 260.949219 0 C 278.832031 0 293.324219 14.484375 293.324219 32.367188 Z M 293.324219 32.367188 " style=" stroke:none;fill-rule:nonzero;fill:rgb(18.431373%,75.294118%,94.117647%);fill-opacity:1;" />
<path d="M 293.324219 32.367188 L 293.324219 470.4375 C 293.324219 488.320312 278.832031 502.804688 260.949219 502.804688 L 165.589844 502.804688 L 165.589844 0 L 260.949219 0 C 278.832031 0 293.324219 14.484375 293.324219 32.367188 Z M 293.324219 32.367188 " style=" stroke:none;fill-rule:nonzero;fill:rgb(5.882353%,66.27451%,86.666667%);fill-opacity:1;" />
<path d="M 37.851562 61.417969 L 293.324219 61.417969 L 293.324219 428.910156 L 37.851562 428.910156 Z M 37.851562 61.417969 " style=" stroke:none;fill-rule:nonzero;fill:rgb(74.509804%,92.156863%,98.039216%);fill-opacity:1;" />
<path d="M 165.589844 61.417969 L 293.324219 61.417969 L 293.324219 428.910156 L 165.589844 428.910156 Z M 165.589844 61.417969 " style=" stroke:none;fill-rule:nonzero;fill:rgb(61.960784%,88.627451%,97.254902%);fill-opacity:1;" />
<path d="M 211.847656 246.996094 L 112.898438 246.996094 C 104.46875 246.996094 97.632812 253.832031 97.632812 262.261719 L 97.632812 428.90625 L 227.113281 428.90625 L 227.113281 262.261719 C 227.113281 253.828125 220.277344 246.996094 211.847656 246.996094 Z M 211.847656 246.996094 " style=" stroke:none;fill-rule:nonzero;fill:rgb(100%,94.509804%,71.372549%);fill-opacity:1;" />
<path d="M 227.117188 262.261719 L 227.117188 428.910156 L 165.589844 428.910156 L 165.589844 246.996094 L 211.847656 246.996094 C 220.277344 246.996094 227.117188 253.824219 227.117188 262.261719 Z M 227.117188 262.261719 " style=" stroke:none;fill-rule:nonzero;fill:rgb(100%,89.411765%,46.666667%);fill-opacity:1;" />
<path d="M 188.226562 443.734375 L 142.949219 443.734375 C 134.011719 443.734375 126.761719 450.980469 126.761719 459.917969 C 126.761719 468.859375 134.011719 476.105469 142.949219 476.105469 L 188.226562 476.105469 C 197.164062 476.105469 204.414062 468.859375 204.414062 459.917969 C 204.414062 450.980469 197.164062 443.734375 188.226562 443.734375 Z M 188.226562 443.734375 " style=" stroke:none;fill-rule:nonzero;fill:rgb(74.509804%,92.156863%,98.039216%);fill-opacity:1;" />
<path d="M 419.425781 262.292969 C 410.996094 262.292969 404.160156 255.457031 404.160156 247.027344 L 404.160156 219.023438 C 404.160156 210.589844 410.996094 203.753906 419.425781 203.753906 C 427.859375 203.753906 434.695312 210.589844 434.695312 219.023438 L 434.695312 247.027344 C 434.695312 255.457031 427.859375 262.292969 419.425781 262.292969 Z M 419.425781 262.292969 " style=" stroke:none;fill-rule:nonzero;fill:rgb(100%,58.039216%,41.568627%);fill-opacity:1;" />
<path d="M 351.125 265.796875 L 331.324219 245.996094 C 325.363281 240.035156 325.363281 230.367188 331.324219 224.40625 C 337.285156 218.445312 346.953125 218.445312 352.917969 224.40625 L 372.71875 244.207031 C 378.679688 250.171875 378.679688 259.835938 372.71875 265.796875 C 366.757812 271.761719 357.089844 271.761719 351.125 265.796875 Z M 351.125 265.796875 " style=" stroke:none;fill-rule:nonzero;fill:rgb(100%,72.54902%,61.568627%);fill-opacity:1;" />
<path d="M 466.136719 265.796875 C 460.175781 259.835938 460.175781 250.171875 466.136719 244.207031 L 485.9375 224.40625 C 491.898438 218.445312 501.566406 218.445312 507.53125 224.40625 C 513.492188 230.367188 513.492188 240.035156 507.53125 245.996094 L 487.726562 265.796875 C 481.765625 271.761719 472.097656 271.761719 466.136719 265.796875 Z M 466.136719 265.796875 " style=" stroke:none;fill-rule:nonzero;fill:rgb(100%,58.039216%,41.568627%);fill-opacity:1;" />
<path d="M 324.976562 368.859375 L 189.84375 368.859375 C 181.410156 368.859375 174.574219 362.023438 174.574219 353.59375 C 174.574219 345.160156 181.410156 338.324219 189.84375 338.324219 L 324.976562 338.324219 C 333.410156 338.324219 340.246094 345.160156 340.246094 353.59375 C 340.246094 362.023438 333.410156 368.859375 324.976562 368.859375 Z M 324.976562 368.859375 " style=" stroke:none;fill-rule:nonzero;fill:rgb(100%,63.137255%,48.235294%);fill-opacity:1;" />
<path d="M 317.652344 323.273438 L 201.445312 323.273438 C 193.011719 323.273438 186.175781 316.4375 186.175781 308.003906 C 186.175781 299.574219 193.011719 292.738281 201.445312 292.738281 L 317.652344 292.738281 C 326.085938 292.738281 332.921875 299.574219 332.921875 308.003906 C 332.921875 316.4375 326.085938 323.273438 317.652344 323.273438 Z M 317.652344 323.273438 " style=" stroke:none;fill-rule:nonzero;fill:rgb(100%,72.54902%,61.568627%);fill-opacity:1;" />
<path d="M 480.8125 323.386719 C 480.878906 326.890625 481.574219 323.554688 423.140625 399.894531 C 421.03125 402.628906 416.890625 402.632812 414.777344 399.894531 L 358.199219 326.695312 C 356.746094 324.816406 356.699219 322.082031 358.273438 320.140625 C 365.351562 311.375 378.589844 295 385.8125 286.066406 C 388.796875 282.574219 389.507812 284.867188 448.089844 284.214844 C 449.851562 284.214844 451.378906 285.089844 452.203125 286.175781 C 481.78125 322.785156 480.789062 320.800781 480.8125 323.386719 Z M 480.8125 323.386719 " style=" stroke:none;fill-rule:nonzero;fill:rgb(100%,58.039216%,41.568627%);fill-opacity:1;" />
<path d="M 480.8125 323.386719 C 480.878906 326.890625 481.574219 323.554688 423.140625 399.894531 C 422.082031 401.265625 420.515625 401.945312 418.957031 401.945312 L 418.957031 284.214844 L 448.085938 284.214844 C 450.71875 284.214844 452.050781 286.023438 452.105469 286.066406 C 481.359375 322.261719 480.789062 320.601562 480.8125 323.386719 Z M 480.8125 323.386719 " style=" stroke:none;fill-rule:nonzero;fill:rgb(100%,43.921569%,21.568627%);fill-opacity:1;" />
<path d="M 480.8125 323.386719 L 357.101562 323.386719 C 357.128906 320.605469 356.546875 322.269531 385.8125 286.066406 C 388.796875 282.574219 389.507812 284.867188 448.089844 284.214844 C 450.71875 284.214844 452.050781 286.023438 452.109375 286.066406 C 481.359375 322.261719 480.789062 320.601562 480.8125 323.386719 Z M 480.8125 323.386719 " style=" stroke:none;fill-rule:nonzero;fill:rgb(100%,72.54902%,61.568627%);fill-opacity:1;" />
<path d="M 480.8125 323.386719 L 418.957031 323.386719 L 418.957031 284.214844 L 448.089844 284.214844 C 450.71875 284.214844 452.050781 286.023438 452.105469 286.066406 C 481.359375 322.261719 480.789062 320.601562 480.8125 323.386719 Z M 480.8125 323.386719 " style=" stroke:none;fill-rule:nonzero;fill:rgb(100%,58.039216%,41.568627%);fill-opacity:1;" />
<path d="M 330.511719 124.023438 C 330.507812 124.007812 330.492188 123.996094 330.476562 123.996094 L 330.503906 123.996094 C 330.128906 122.679688 329.585938 121.417969 328.875 120.230469 L 293.320312 61.414062 C 277.796875 61.414062 181.144531 61.414062 165.585938 61.414062 L 37.855469 61.414062 L 2.300781 120.230469 C 1.585938 121.417969 1.046875 122.679688 0.671875 123.996094 L 0.699219 123.996094 C 0.683594 123.996094 0.667969 124.007812 0.664062 124.023438 C -0.441406 127.789062 0.214844 128.679688 0.0234375 152.570312 C 0.0234375 175.15625 18.113281 193.511719 40.585938 193.953125 C 63.804688 194.40625 82.804688 174.933594 82.804688 151.714844 C 82.804688 151.820312 82.808594 152.675781 82.808594 152.570312 C 82.808594 175.429688 101.339844 193.960938 124.195312 193.960938 C 147.054688 193.960938 165.585938 175.429688 165.585938 152.570312 C 165.585938 175.429688 184.117188 193.960938 206.976562 193.960938 C 229.835938 193.960938 248.367188 175.429688 248.367188 152.570312 L 248.371094 151.714844 C 248.371094 174.933594 267.371094 194.40625 290.589844 193.953125 C 313.058594 193.511719 331.152344 175.15625 331.152344 152.570312 C 330.964844 128.855469 331.617188 127.796875 330.511719 124.023438 Z M 330.511719 124.023438 " style=" stroke:none;fill-rule:nonzero;fill:rgb(100%,53.333333%,34.901961%);fill-opacity:1;" />
<path d="M 101.722656 61.414062 L 82.804688 123.996094 L 0.671875 123.996094 C 1.046875 122.679688 1.585938 121.417969 2.300781 120.230469 L 37.855469 61.414062 Z M 101.722656 61.414062 " style=" stroke:none;fill-rule:nonzero;fill:rgb(100%,53.333333%,34.901961%);fill-opacity:1;" />
<path d="M 330.503906 123.996094 L 248.371094 123.996094 L 229.457031 61.414062 L 293.324219 61.414062 L 328.875 120.234375 C 329.585938 121.417969 330.128906 122.679688 330.503906 123.996094 Z M 330.503906 123.996094 " style=" stroke:none;fill-rule:nonzero;fill:rgb(100%,72.54902%,61.568627%);fill-opacity:1;" />
<path d="M 82.804688 151.714844 C 82.804688 174.9375 63.804688 194.40625 40.585938 193.953125 C 18.113281 193.511719 0.0234375 175.15625 0.0234375 152.570312 C 0.210938 128.683594 -0.441406 127.789062 0.660156 124.027344 C 0.667969 124.011719 0.679688 124 0.695312 124 L 82.769531 124 C 82.871094 123.996094 82.804688 151.816406 82.804688 151.714844 Z M 82.804688 151.714844 " style=" stroke:none;fill-rule:nonzero;fill:rgb(100%,43.921569%,21.568627%);fill-opacity:1;" />
<path d="M 82.808594 152.570312 C 82.808594 175.429688 101.339844 193.960938 124.195312 193.960938 C 147.054688 193.960938 165.585938 175.429688 165.585938 152.570312 L 165.585938 124.03125 C 165.585938 123.875 82.699219 123.996094 82.84375 123.996094 C 82.824219 123.992188 82.808594 152.675781 82.808594 152.570312 Z M 82.808594 152.570312 " style=" stroke:none;fill-rule:nonzero;fill:rgb(100%,63.137255%,48.235294%);fill-opacity:1;" />
<path d="M 165.585938 152.570312 C 165.585938 175.429688 184.121094 193.960938 206.976562 193.960938 C 229.835938 193.960938 248.367188 175.433594 248.367188 152.574219 C 248.367188 123.050781 248.433594 123.996094 248.332031 123.996094 L 165.625 123.996094 C 165.519531 123.992188 165.585938 152.675781 165.585938 152.570312 Z M 165.585938 152.570312 " style=" stroke:none;fill-rule:nonzero;fill:rgb(100%,43.921569%,21.568627%);fill-opacity:1;" />
<path d="M 331.152344 152.570312 C 331.152344 175.15625 313.058594 193.511719 290.589844 193.953125 C 267.371094 194.40625 248.371094 174.933594 248.371094 151.714844 C 248.371094 123.097656 248.304688 123.996094 248.40625 123.996094 L 330.476562 123.996094 C 330.492188 123.996094 330.507812 124.007812 330.511719 124.023438 C 331.617188 127.796875 330.964844 128.855469 331.152344 152.570312 Z M 331.152344 152.570312 " style=" stroke:none;fill-rule:nonzero;fill:rgb(100%,63.137255%,48.235294%);fill-opacity:1;" />
<path d="M 165.585938 61.414062 L 165.585938 123.996094 L 82.804688 123.996094 L 101.722656 61.414062 Z M 165.585938 61.414062 " style=" stroke:none;fill-rule:nonzero;fill:rgb(100%,72.54902%,61.568627%);fill-opacity:1;" />
<path d="M 248.371094 123.996094 L 165.585938 123.996094 L 165.585938 61.414062 L 229.453125 61.414062 Z M 248.371094 123.996094 " style=" stroke:none;fill-rule:nonzero;fill:rgb(100%,53.333333%,34.901961%);fill-opacity:1;" />
<path d="M 204.410156 459.921875 C 204.410156 468.859375 197.160156 476.105469 188.226562 476.105469 L 165.589844 476.105469 L 165.589844 443.730469 L 188.226562 443.730469 C 197.160156 443.730469 204.410156 450.976562 204.410156 459.921875 Z M 204.410156 459.921875 " style=" stroke:none;fill-rule:nonzero;fill:rgb(61.960784%,88.627451%,97.254902%);fill-opacity:1;" />
</g>
</svg>