<svg xmlns="http://www.w3.org/2000/svg" height="512pt" version="1.1" viewBox="0 -16 512.00073 512" width="512pt">
<g id="surface1">
<path d="M 499.554688 225.117188 L 401.945312 249.871094 L 401.945312 462.667969 C 401.945312 471.769531 394.5625 479.152344 385.460938 479.152344 L 126.542969 479.152344 C 117.4375 479.152344 110.058594 471.769531 110.058594 462.667969 L 110.058594 249.871094 L 12.441406 225.117188 C 2.925781 222.707031 -2.382812 212.5625 1.054688 203.367188 L 41.625 94.898438 C 49.074219 74.984375 62.328125 56.851562 80.8125 43.519531 C 102.25 28.089844 192.339844 0.125 255.242188 0 C 316.4375 -0.121094 408.117188 26.890625 431.1875 43.519531 C 449.035156 56.390625 462.671875 74.269531 470.375 94.898438 C 470.453125 95.117188 498.085938 168.992188 510.945312 203.375 C 514.386719 212.566406 509.074219 222.707031 499.554688 225.117188 Z M 499.554688 225.117188 " style=" stroke:none;fill-rule:nonzero;fill:rgb(74.509804%,92.156863%,98.039216%);fill-opacity:1;" />
<path d="M 499.554688 225.125 L 401.945312 249.871094 L 401.945312 462.667969 C 401.945312 471.765625 394.558594 479.152344 385.460938 479.152344 L 256 479.152344 L 256 0 C 317.167969 0.0898438 408.238281 26.980469 431.1875 43.519531 C 449.035156 56.390625 462.671875 74.269531 470.375 94.898438 C 470.453125 95.117188 498.082031 168.988281 510.949219 203.375 C 514.390625 212.5625 509.070312 222.707031 499.554688 225.125 Z M 499.554688 225.125 " style=" stroke:none;fill-rule:nonzero;fill:rgb(61.960784%,88.627451%,97.254902%);fill-opacity:1;" />
<path d="M 368.972656 18.660156 C 361.84375 74.890625 313.761719 118.140625 256 118.140625 C 198.054688 118.140625 150.136719 74.714844 143.027344 18.648438 C 176.613281 8.992188 220.296875 0.0703125 255.242188 0 C 290.71875 -0.0703125 334.878906 8.84375 368.972656 18.660156 Z M 368.972656 18.660156 " style=" stroke:none;fill-rule:nonzero;fill:rgb(100%,53.333333%,34.901961%);fill-opacity:1;" />
<path d="M 368.972656 18.660156 C 361.84375 74.890625 313.761719 118.140625 256 118.140625 L 256 0 C 291.128906 0.0507812 334.878906 8.84375 368.972656 18.660156 Z M 368.972656 18.660156 " style=" stroke:none;fill-rule:nonzero;fill:rgb(100%,29.803922%,1.568627%);fill-opacity:1;" />
<path d="M 499.558594 225.121094 L 401.949219 249.867188 L 401.949219 198.535156 L 500.550781 175.570312 L 510.949219 203.367188 C 514.386719 212.5625 509.078125 222.707031 499.558594 225.121094 Z M 499.558594 225.121094 " style=" stroke:none;fill-rule:nonzero;fill:rgb(100%,29.803922%,1.568627%);fill-opacity:1;" />
<path d="M 12.441406 225.121094 L 110.050781 249.867188 L 110.054688 198.535156 L 11.449219 175.570312 L 1.050781 203.367188 C -2.386719 212.5625 2.921875 222.707031 12.441406 225.121094 Z M 12.441406 225.121094 " style=" stroke:none;fill-rule:nonzero;fill:rgb(100%,53.333333%,34.901961%);fill-opacity:1;" />
<path d="M 339.875 11.144531 C 334.410156 52.566406 298.882812 84.621094 256 84.621094 C 213.117188 84.621094 177.578125 52.550781 172.125 11.132812 C 236.210938 -3.542969 275.371094 -3.625 339.875 11.144531 Z M 339.875 11.144531 " style=" stroke:none;fill-rule:nonzero;fill:rgb(100%,63.137255%,48.235294%);fill-opacity:1;" />
<path d="M 339.875 11.144531 C 334.410156 52.566406 298.882812 84.621094 256 84.621094 L 256 0 C 291.75 0.0507812 338.9375 10.664062 339.875 11.144531 Z M 339.875 11.144531 " style=" stroke:none;fill-rule:nonzero;fill:rgb(100%,58.039216%,41.568627%);fill-opacity:1;" />
<path d="M 401.945312 403.3125 L 401.945312 462.664062 C 401.945312 471.769531 394.5625 479.148438 385.460938 479.148438 L 126.542969 479.148438 C 117.4375 479.148438 110.058594 471.769531 110.058594 462.664062 L 110.058594 403.3125 Z M 401.945312 403.3125 " style=" stroke:none;fill-rule:nonzero;fill:rgb(100%,63.137255%,48.235294%);fill-opacity:1;" />
<path d="M 143.027344 154.480469 L 143.027344 479.152344 L 126.542969 479.152344 C 117.4375 479.152344 110.058594 471.769531 110.058594 462.667969 L 110.058594 154.007812 C 110.058594 144.640625 117.882812 137.089844 127.351562 137.542969 C 136.210938 137.96875 143.027344 145.605469 143.027344 154.480469 Z M 143.027344 154.480469 " style=" stroke:none;fill-rule:nonzero;fill:rgb(49.411765%,84.705882%,96.470588%);fill-opacity:1;" />
<path d="M 143.027344 403.3125 L 143.027344 479.152344 L 126.542969 479.152344 C 117.4375 479.152344 110.058594 471.769531 110.058594 462.667969 L 110.058594 403.3125 Z M 143.027344 403.3125 " style=" stroke:none;fill-rule:nonzero;fill:rgb(100%,53.333333%,34.901961%);fill-opacity:1;" />
<path d="M 401.945312 403.3125 L 401.945312 462.664062 C 401.945312 471.765625 394.558594 479.148438 385.460938 479.148438 L 256 479.148438 L 256 403.308594 L 401.945312 403.308594 Z M 401.945312 403.3125 " style=" stroke:none;fill-rule:nonzero;fill:rgb(100%,43.921569%,21.568627%);fill-opacity:1;" />
<path d="M 401.945312 154.480469 L 401.945312 462.664062 C 401.945312 471.769531 394.5625 479.148438 385.460938 479.148438 L 368.976562 479.148438 L 368.976562 154.007812 C 368.976562 144.640625 376.800781 137.089844 386.265625 137.542969 C 395.128906 137.96875 401.945312 145.605469 401.945312 154.480469 Z M 401.945312 154.480469 " style=" stroke:none;fill-rule:nonzero;fill:rgb(36.862745%,80.784314%,95.686275%);fill-opacity:1;" />
<path d="M 401.945312 403.3125 L 401.945312 462.664062 C 401.945312 471.769531 394.5625 479.148438 385.460938 479.148438 L 368.976562 479.148438 L 368.976562 403.308594 L 401.945312 403.308594 Z M 401.945312 403.3125 " style=" stroke:none;fill-rule:nonzero;fill:rgb(100%,29.803922%,1.568627%);fill-opacity:1;" />
</g>
</svg>