<svg xmlns="http://www.w3.org/2000/svg" height="512pt" version="1.1" viewBox="-80 0 512 512.00003" width="512pt">
<g id="surface1">
<path d="M 304.261719 0 L 48.332031 0 C 21.683594 0 0 21.683594 0 48.332031 L 0 463.667969 C 0 490.316406 21.683594 512 48.332031 512 L 304.261719 512 C 330.914062 512 352.59375 490.316406 352.59375 463.667969 L 352.59375 48.332031 C 352.59375 21.683594 330.914062 0 304.261719 0 Z M 304.261719 0 " style=" stroke:none;fill-rule:nonzero;fill:rgb(100%,91.372549%,80%);fill-opacity:1;" />
<path d="M 352.59375 48.335938 L 352.59375 463.664062 C 352.59375 490.320312 330.914062 512 304.265625 512 L 176.296875 512 L 176.296875 0 L 304.265625 0 C 330.914062 0 352.59375 21.679688 352.59375 48.335938 Z M 352.59375 48.335938 " style=" stroke:none;fill-rule:nonzero;fill:rgb(100%,82.745098%,60%);fill-opacity:1;" />
<path d="M 290.25 42.84375 L 60.488281 42.84375 C 52.074219 42.84375 45.25 49.667969 45.25 58.082031 L 45.25 279.363281 C 45.25 287.78125 52.074219 294.601562 60.488281 294.601562 L 290.25 294.601562 C 298.667969 294.601562 305.488281 287.78125 305.488281 279.363281 L 305.488281 58.082031 C 305.488281 49.667969 298.667969 42.84375 290.25 42.84375 Z M 290.25 42.84375 " style=" stroke:none;fill-rule:nonzero;fill:rgb(49.411765%,84.705882%,96.470588%);fill-opacity:1;" />
<path d="M 305.484375 58.078125 L 305.484375 279.363281 C 305.484375 287.777344 298.667969 294.601562 290.25 294.601562 L 176.296875 294.601562 L 176.296875 42.839844 L 290.25 42.839844 C 298.667969 42.839844 305.484375 49.667969 305.484375 58.078125 Z M 305.484375 58.078125 " style=" stroke:none;fill-rule:nonzero;fill:rgb(18.431373%,75.294118%,94.117647%);fill-opacity:1;" />
<path d="M 95.199219 186.105469 C 89.25 180.152344 89.25 170.503906 95.199219 164.554688 L 170.542969 89.210938 C 176.492188 83.257812 186.140625 83.257812 192.09375 89.210938 C 198.042969 95.160156 198.042969 104.808594 192.09375 110.757812 L 116.75 186.105469 C 110.800781 192.054688 101.152344 192.054688 95.199219 186.105469 Z M 95.199219 186.105469 " style=" stroke:none;fill-rule:nonzero;fill:rgb(74.509804%,92.156863%,98.039216%);fill-opacity:1;" />
<path d="M 160.5 251.40625 C 154.550781 245.457031 154.550781 235.808594 160.5 229.855469 L 235.847656 154.511719 C 241.796875 148.5625 251.445312 148.5625 257.394531 154.511719 C 263.347656 160.464844 263.347656 170.109375 257.394531 176.0625 L 182.050781 251.40625 C 176.101562 257.355469 166.453125 257.359375 160.5 251.40625 Z M 160.5 251.40625 " style=" stroke:none;fill-rule:nonzero;fill:rgb(74.509804%,92.156863%,98.039216%);fill-opacity:1;" />
<path d="M 257.394531 176.0625 C 177.746094 254.941406 182.300781 252.917969 176.296875 255.035156 L 176.296875 214.066406 L 235.847656 154.515625 C 241.800781 148.5625 251.441406 148.5625 257.394531 154.515625 C 263.347656 160.46875 263.347656 170.109375 257.394531 176.0625 Z M 257.394531 176.0625 " style=" stroke:none;fill-rule:nonzero;fill:rgb(61.960784%,88.627451%,97.254902%);fill-opacity:1;" />
<path d="M 140.976562 205.628906 C 135.027344 199.675781 135.027344 190.027344 140.976562 184.078125 L 190.066406 134.988281 C 196.019531 129.039062 205.667969 129.039062 211.617188 134.988281 C 217.570312 140.9375 217.570312 150.585938 211.617188 156.539062 L 162.527344 205.628906 C 156.578125 211.578125 146.929688 211.578125 140.976562 205.628906 Z M 140.976562 205.628906 " style=" stroke:none;fill-rule:nonzero;fill:rgb(74.509804%,92.156863%,98.039216%);fill-opacity:1;" />
<path d="M 192.09375 110.761719 L 176.296875 126.558594 L 176.296875 85.585938 C 181.640625 83.738281 187.816406 84.9375 192.09375 89.214844 C 198.046875 95.15625 198.046875 104.808594 192.09375 110.761719 Z M 192.09375 110.761719 " style=" stroke:none;fill-rule:nonzero;fill:rgb(61.960784%,88.627451%,97.254902%);fill-opacity:1;" />
<path d="M 211.621094 156.535156 L 176.296875 191.859375 L 176.296875 148.765625 L 190.074219 134.988281 C 196.015625 129.035156 205.667969 129.035156 211.621094 134.988281 C 217.574219 140.941406 217.574219 150.582031 211.621094 156.535156 Z M 211.621094 156.535156 " style=" stroke:none;fill-rule:nonzero;fill:rgb(61.960784%,88.627451%,97.254902%);fill-opacity:1;" />
<path d="M 142.457031 392.96875 C 142.457031 401.820312 135.285156 408.980469 126.449219 408.980469 L 111.171875 408.980469 L 111.171875 424.257812 C 111.171875 433.105469 103.996094 440.269531 95.160156 440.269531 C 86.320312 440.269531 79.148438 433.105469 79.148438 424.257812 L 79.148438 408.980469 L 63.871094 408.980469 C 55.03125 408.980469 47.859375 401.820312 47.859375 392.96875 C 47.859375 384.132812 55.03125 376.96875 63.871094 376.96875 L 79.148438 376.96875 L 79.148438 361.679688 C 79.148438 352.84375 86.320312 345.679688 95.160156 345.679688 C 103.996094 345.679688 111.171875 352.84375 111.171875 361.679688 L 111.171875 376.96875 L 126.449219 376.96875 C 135.285156 376.96875 142.457031 384.132812 142.457031 392.96875 Z M 142.457031 392.96875 " style=" stroke:none;fill-rule:nonzero;fill:rgb(100%,71.372549%,33.333333%);fill-opacity:1;" />
<path d="M 311.375 369.800781 C 311.375 385.851562 298.367188 398.859375 282.316406 398.859375 C 266.261719 398.859375 253.242188 385.851562 253.242188 369.800781 C 253.242188 353.746094 266.261719 340.726562 282.316406 340.726562 C 298.367188 340.726562 311.375 353.746094 311.375 369.800781 Z M 311.375 369.800781 " style=" stroke:none;fill-rule:nonzero;fill:rgb(100%,48.627451%,28.235294%);fill-opacity:1;" />
<path d="M 142.457031 392.96875 C 142.457031 401.820312 135.285156 408.980469 126.449219 408.980469 L 111.171875 408.980469 L 111.171875 424.257812 C 111.171875 433.105469 103.996094 440.269531 95.160156 440.269531 L 95.160156 345.679688 C 103.996094 345.679688 111.171875 352.84375 111.171875 361.679688 L 111.171875 376.96875 L 126.449219 376.96875 C 135.285156 376.96875 142.457031 384.132812 142.457031 392.96875 Z M 142.457031 392.96875 " style=" stroke:none;fill-rule:nonzero;fill:rgb(100%,62.352941%,13.333333%);fill-opacity:1;" />
<path d="M 311.375 369.800781 C 311.375 385.851562 298.367188 398.859375 282.316406 398.859375 L 282.316406 340.726562 C 298.367188 340.726562 311.375 353.746094 311.375 369.800781 Z M 311.375 369.800781 " style=" stroke:none;fill-rule:nonzero;fill:rgb(100%,39.215686%,14.901961%);fill-opacity:1;" />
<path d="M 257.535156 428.109375 C 257.535156 444.160156 244.527344 457.167969 228.472656 457.167969 C 212.421875 457.167969 199.402344 444.160156 199.402344 428.109375 C 199.402344 412.054688 212.421875 399.035156 228.472656 399.035156 C 244.527344 399.035156 257.535156 412.054688 257.535156 428.109375 Z M 257.535156 428.109375 " style=" stroke:none;fill-rule:nonzero;fill:rgb(0%,93.333333%,54.117647%);fill-opacity:1;" />
<path d="M 257.535156 428.109375 C 257.535156 444.160156 244.527344 457.167969 228.472656 457.167969 L 228.472656 399.035156 C 244.527344 399.035156 257.535156 412.054688 257.535156 428.109375 Z M 257.535156 428.109375 " style=" stroke:none;fill-rule:nonzero;fill:rgb(0%,80%,46.27451%);fill-opacity:1;" />
</g>
</svg>