<svg xmlns="http://www.w3.org/2000/svg" height="512pt" version="1.1" viewBox="0 -7 512.00009 512" width="512pt">
<g id="surface1">
<path d="M 297.140625 295.671875 C 297.140625 304.117188 290.296875 310.96875 281.84375 310.96875 L 255.449219 310.96875 L 255.449219 280.375 L 281.84375 280.375 C 290.296875 280.375 297.140625 287.21875 297.140625 295.671875 Z M 297.140625 295.671875 " style=" stroke:none;fill-rule:nonzero;fill:rgb(36.862745%,80.784314%,95.686275%);fill-opacity:1;" />
<path d="M 260.3125 405.90625 C 243.179688 410.621094 225.179688 413.117188 206.609375 413.035156 C 84.929688 412.628906 -9.035156 308.820312 0.691406 189.671875 C 9.546875 79.695312 102.480469 -0.234375 206.609375 0 C 282.382812 0.152344 354.292969 42.570312 390.007812 112.324219 C 453.929688 237.757812 377.644531 373.679688 260.3125 405.90625 Z M 260.3125 405.90625 " style=" stroke:none;fill-rule:nonzero;fill:rgb(74.509804%,92.156863%,98.039216%);fill-opacity:1;" />
<path d="M 260.3125 405.90625 C 243.179688 410.621094 225.179688 413.117188 206.609375 413.035156 L 206.609375 0 C 282.382812 0.152344 354.292969 42.570312 390.007812 112.324219 C 453.929688 237.757812 377.644531 373.679688 260.3125 405.90625 Z M 260.3125 405.90625 " style=" stroke:none;fill-rule:nonzero;fill:rgb(49.411765%,84.705882%,96.470588%);fill-opacity:1;" />
<path d="M 259.722656 290.59375 L 241.671875 337.097656 L 212.320312 412.710938 C 210.414062 412.769531 208.515625 412.800781 206.609375 412.800781 C 187.425781 412.84375 168.679688 410.171875 150.691406 405.121094 L 116.394531 278.558594 C 111.773438 261.488281 100.566406 246.964844 85.246094 238.175781 L 0.691406 189.671875 C 4.832031 138.269531 28.839844 87.941406 69.890625 51.6875 C 71.015625 52.332031 56.644531 44.089844 182.480469 116.273438 C 197.734375 125.023438 203.007812 144.480469 194.25 159.726562 L 193.820312 160.484375 L 159.890625 219.632812 C 155.238281 227.730469 162.703125 237.410156 171.710938 234.960938 C 196.136719 228.699219 202.242188 225.816406 211.441406 225.519531 C 230.023438 224.835938 242.242188 235.398438 245.820312 236.796875 C 264.730469 247.660156 271.011719 271.929688 259.722656 290.59375 Z M 259.722656 290.59375 " style=" stroke:none;fill-rule:nonzero;fill:rgb(0%,93.333333%,54.117647%);fill-opacity:1;" />
<path d="M 259.722656 290.59375 L 241.671875 337.097656 L 212.320312 412.710938 C 210.414062 412.769531 208.515625 412.800781 206.609375 412.800781 L 206.609375 225.945312 C 227.769531 222.941406 242.015625 235.3125 245.820312 236.796875 C 264.730469 247.660156 271.011719 271.929688 259.722656 290.59375 Z M 259.722656 290.59375 " style=" stroke:none;fill-rule:nonzero;fill:rgb(0%,80%,46.27451%);fill-opacity:1;" />
<path d="M 389.996094 112.324219 L 346.257812 124.171875 C 322.070312 130.726562 297.140625 116.425781 290.582031 92.226562 L 268.199219 9.601562 C 319.976562 25.925781 364.453125 62.394531 389.996094 112.324219 Z M 389.996094 112.324219 " style=" stroke:none;fill-rule:nonzero;fill:rgb(0%,80%,46.27451%);fill-opacity:1;" />
<path d="M 512 292.828125 L 512 476.113281 C 512 488.484375 501.933594 498.550781 489.5625 498.550781 L 165.476562 498.550781 C 153.109375 498.550781 143.042969 488.484375 143.042969 476.113281 L 143.042969 292.828125 C 143.042969 280.457031 153.109375 270.390625 165.476562 270.390625 L 489.5625 270.390625 C 501.933594 270.390625 512 280.457031 512 292.828125 Z M 512 292.828125 " style=" stroke:none;fill-rule:nonzero;fill:rgb(5.098039%,56.862745%,74.117647%);fill-opacity:1;" />
<path d="M 512 292.828125 L 512 476.113281 C 512 488.484375 501.933594 498.550781 489.5625 498.550781 L 327.519531 498.550781 L 327.519531 270.390625 L 489.5625 270.390625 C 501.933594 270.390625 512 280.457031 512 292.828125 Z M 512 292.828125 " style=" stroke:none;fill-rule:nonzero;fill:rgb(4.313725%,47.45098%,61.568627%);fill-opacity:1;" />
<path d="M 485.5625 439.796875 L 353.957031 439.796875 C 345.507812 439.796875 338.660156 446.644531 338.660156 455.09375 C 338.660156 463.542969 345.507812 470.390625 353.957031 470.390625 L 485.5625 470.390625 C 494.011719 470.390625 500.859375 463.542969 500.859375 455.09375 C 500.859375 446.644531 494.011719 439.796875 485.5625 439.796875 Z M 485.5625 439.796875 " style=" stroke:none;fill-rule:nonzero;fill:rgb(49.411765%,84.705882%,96.470588%);fill-opacity:1;" />
<path d="M 255.449219 439.796875 L 187.203125 439.796875 C 178.753906 439.796875 171.90625 446.644531 171.90625 455.09375 C 171.90625 463.542969 178.753906 470.390625 187.203125 470.390625 L 255.449219 470.390625 C 263.898438 470.390625 270.746094 463.542969 270.746094 455.09375 C 270.746094 446.644531 263.898438 439.796875 255.449219 439.796875 Z M 255.449219 439.796875 " style=" stroke:none;fill-rule:nonzero;fill:rgb(61.960784%,88.627451%,97.254902%);fill-opacity:1;" />
<path d="M 404.71875 308.785156 C 380.566406 308.785156 360.917969 328.433594 360.917969 352.585938 C 360.917969 376.738281 380.566406 396.386719 404.71875 396.386719 C 428.871094 396.386719 448.519531 376.738281 448.519531 352.585938 C 448.519531 328.433594 428.871094 308.785156 404.71875 308.785156 Z M 404.71875 308.785156 " style=" stroke:none;fill-rule:nonzero;fill:rgb(100%,39.215686%,14.901961%);fill-opacity:1;" />
<path d="M 453.460938 308.785156 C 429.308594 308.785156 409.660156 328.433594 409.660156 352.585938 C 409.660156 376.738281 429.3125 396.386719 453.460938 396.386719 C 477.613281 396.386719 497.261719 376.738281 497.261719 352.585938 C 497.261719 328.433594 477.613281 308.785156 453.460938 308.785156 Z M 453.460938 308.785156 " style=" stroke:none;fill-rule:nonzero;fill:rgb(100%,89.411765%,46.666667%);fill-opacity:1;" />
<path d="M 266.117188 327.503906 L 266.117188 377.667969 C 266.117188 386.113281 259.273438 392.964844 250.820312 392.964844 L 187.199219 392.964844 C 178.757812 392.964844 171.902344 386.113281 171.902344 377.667969 L 171.902344 327.503906 C 171.902344 319.058594 178.757812 312.203125 187.199219 312.203125 L 250.820312 312.203125 C 259.273438 312.203125 266.117188 319.058594 266.117188 327.503906 Z M 266.117188 327.503906 " style=" stroke:none;fill-rule:nonzero;fill:rgb(100%,89.411765%,46.666667%);fill-opacity:1;" />
<path d="M 448.515625 352.589844 C 448.515625 367.726562 440.792969 381.09375 429.085938 388.96875 C 417.378906 381.09375 409.660156 367.726562 409.660156 352.589844 C 409.660156 337.445312 417.378906 324.074219 429.085938 316.210938 C 440.792969 324.074219 448.515625 337.445312 448.515625 352.589844 Z M 448.515625 352.589844 " style=" stroke:none;fill-rule:nonzero;fill:rgb(100%,39.215686%,14.901961%);fill-opacity:1;" />
<path d="M 448.515625 352.589844 C 448.515625 367.726562 440.792969 381.09375 429.085938 388.96875 C 417.378906 381.09375 409.660156 367.726562 409.660156 352.589844 C 409.660156 337.445312 417.378906 324.074219 429.085938 316.210938 C 440.792969 324.074219 448.515625 337.445312 448.515625 352.589844 Z M 448.515625 352.589844 " style=" stroke:none;fill-rule:nonzero;fill:rgb(100%,63.137255%,48.235294%);fill-opacity:1;" />
<path d="M 266.117188 327.503906 L 266.117188 377.667969 C 266.117188 386.113281 259.273438 392.964844 250.820312 392.964844 L 219.011719 392.964844 L 219.011719 312.203125 L 250.820312 312.203125 C 259.273438 312.203125 266.117188 319.058594 266.117188 327.503906 Z M 266.117188 327.503906 " style=" stroke:none;fill-rule:nonzero;fill:rgb(100%,80.392157%,0%);fill-opacity:1;" />
</g>
</svg>