<svg xmlns="http://www.w3.org/2000/svg" height="512pt" version="1.1" viewBox="-3 0 512 512.00004" width="512pt">
<g id="surface1">
<path d="M 15.433594 310.808594 C 6.910156 310.808594 0 303.898438 0 295.375 L 0 89.4375 C 0 40.121094 40.121094 0 89.4375 0 C 97.960938 0 104.867188 6.910156 104.867188 15.433594 C 104.867188 23.957031 97.960938 30.867188 89.4375 30.867188 C 57.140625 30.867188 30.867188 57.140625 30.867188 89.4375 L 30.867188 295.375 C 30.867188 303.898438 23.957031 310.808594 15.433594 310.808594 Z M 15.433594 310.808594 " style=" stroke:none;fill-rule:nonzero;fill:rgb(61.960784%,88.627451%,97.254902%);fill-opacity:1;" />
<path d="M 489.84375 310.808594 C 481.320312 310.808594 474.410156 303.898438 474.410156 295.375 L 474.410156 89.4375 C 474.410156 57.140625 448.132812 30.867188 415.839844 30.867188 C 407.316406 30.867188 400.40625 23.957031 400.40625 15.433594 C 400.40625 6.910156 407.316406 0 415.839844 0 C 465.152344 0 505.273438 40.121094 505.273438 89.4375 L 505.273438 295.375 C 505.273438 303.898438 498.367188 310.808594 489.84375 310.808594 Z M 489.84375 310.808594 " style=" stroke:none;fill-rule:nonzero;fill:rgb(49.411765%,84.705882%,96.470588%);fill-opacity:1;" />
<path d="M 294.695312 298.050781 C 294.695312 306.566406 287.792969 313.480469 279.265625 313.480469 L 226.011719 313.480469 C 217.480469 313.480469 210.578125 306.566406 210.578125 298.050781 C 210.578125 289.519531 217.480469 282.617188 226.011719 282.617188 L 279.265625 282.617188 C 287.792969 282.617188 294.695312 289.519531 294.695312 298.050781 Z M 294.695312 298.050781 " style=" stroke:none;fill-rule:nonzero;fill:rgb(61.960784%,88.627451%,97.254902%);fill-opacity:1;" />
<path d="M 308.523438 415.667969 L 308.523438 456.121094 C 308.523438 486.9375 283.453125 512 252.636719 512 C 221.824219 512 196.75 486.9375 196.75 456.121094 L 196.75 415.667969 C 196.75 407.148438 203.664062 400.234375 212.183594 400.234375 C 220.710938 400.234375 227.617188 407.148438 227.617188 415.667969 L 227.617188 456.121094 C 227.617188 469.917969 238.839844 481.132812 252.636719 481.132812 C 266.433594 481.132812 277.660156 469.917969 277.660156 456.121094 L 277.660156 415.667969 C 277.660156 407.148438 284.5625 400.234375 293.09375 400.234375 C 301.609375 400.234375 308.523438 407.148438 308.523438 415.667969 Z M 308.523438 415.667969 " style=" stroke:none;fill-rule:nonzero;fill:rgb(100%,43.921569%,21.568627%);fill-opacity:1;" />
<path d="M 120.71875 174.65625 C 54.152344 174.65625 0 228.8125 0 295.375 C 0 361.941406 54.152344 416.09375 120.71875 416.09375 C 187.285156 416.09375 241.4375 361.941406 241.4375 295.375 C 241.4375 228.8125 187.285156 174.65625 120.71875 174.65625 Z M 120.71875 174.65625 " style=" stroke:none;fill-rule:nonzero;fill:rgb(100%,48.627451%,28.235294%);fill-opacity:1;" />
<path d="M 241.441406 295.371094 C 241.441406 361.941406 187.285156 416.101562 120.714844 416.101562 C 120.222656 416.101562 119.738281 416.101562 119.253906 416.078125 L 119.253906 174.675781 C 181.082031 172.042969 241.441406 224.863281 241.441406 295.371094 Z M 241.441406 295.371094 " style=" stroke:none;fill-rule:nonzero;fill:rgb(100%,29.803922%,1.568627%);fill-opacity:1;" />
<path d="M 210.578125 295.371094 C 210.578125 344.921875 170.265625 385.234375 120.714844 385.234375 C 71.175781 385.234375 30.867188 344.921875 30.867188 295.371094 C 30.867188 245.832031 71.175781 205.523438 120.714844 205.523438 C 170.265625 205.523438 210.578125 245.835938 210.578125 295.371094 Z M 210.578125 295.371094 " style=" stroke:none;fill-rule:nonzero;fill:rgb(74.509804%,92.156863%,98.039216%);fill-opacity:1;" />
<path d="M 210.578125 295.371094 C 210.578125 344.921875 170.265625 385.234375 120.714844 385.234375 C 120.234375 385.234375 119.738281 385.234375 119.253906 385.214844 L 119.253906 205.542969 C 166.121094 203.546875 210.578125 243.265625 210.578125 295.371094 Z M 210.578125 295.371094 " style=" stroke:none;fill-rule:nonzero;fill:rgb(49.411765%,84.705882%,96.470588%);fill-opacity:1;" />
<path d="M 110.011719 264.09375 C 110.011719 275.457031 100.800781 284.667969 89.4375 284.667969 C 78.070312 284.667969 68.859375 275.457031 68.859375 264.09375 C 68.859375 252.726562 78.070312 243.515625 89.4375 243.515625 C 100.800781 243.515625 110.011719 252.726562 110.011719 264.09375 Z M 110.011719 264.09375 " style=" stroke:none;fill-rule:nonzero;fill:rgb(18.431373%,75.294118%,94.117647%);fill-opacity:1;" />
<path d="M 172.582031 326.660156 C 172.582031 338.023438 163.367188 347.238281 152.003906 347.238281 C 140.636719 347.238281 131.425781 338.023438 131.425781 326.660156 C 131.425781 315.296875 140.636719 306.082031 152.003906 306.082031 C 163.367188 306.082031 172.582031 315.296875 172.582031 326.660156 Z M 172.582031 326.660156 " style=" stroke:none;fill-rule:nonzero;fill:rgb(5.882353%,66.27451%,86.666667%);fill-opacity:1;" />
<path d="M 84.375 346.0625 C 80.425781 346.0625 76.476562 344.558594 73.460938 341.542969 C 67.4375 335.515625 67.4375 325.742188 73.460938 319.71875 L 143.214844 249.964844 C 149.242188 243.9375 159.015625 243.9375 165.039062 249.964844 C 171.066406 255.988281 171.066406 265.761719 165.039062 271.789062 L 95.285156 341.542969 C 92.273438 344.558594 88.324219 346.0625 84.375 346.0625 Z M 84.375 346.0625 " style=" stroke:none;fill-rule:nonzero;fill:rgb(18.431373%,75.294118%,94.117647%);fill-opacity:1;" />
<path d="M 165.039062 271.792969 L 119.253906 317.566406 L 119.253906 273.929688 L 143.21875 249.96875 C 149.238281 243.941406 159.011719 243.941406 165.039062 249.96875 C 171.070312 255.988281 171.070312 265.761719 165.039062 271.792969 Z M 165.039062 271.792969 " style=" stroke:none;fill-rule:nonzero;fill:rgb(5.882353%,66.27451%,86.666667%);fill-opacity:1;" />
<path d="M 384.84375 174.65625 C 318.277344 174.65625 264.125 228.8125 264.125 295.375 C 264.125 361.941406 318.277344 416.09375 384.84375 416.09375 C 451.410156 416.09375 505.5625 361.941406 505.5625 295.375 C 505.5625 228.8125 451.410156 174.65625 384.84375 174.65625 Z M 384.84375 174.65625 " style=" stroke:none;fill-rule:nonzero;fill:rgb(100%,48.627451%,28.235294%);fill-opacity:1;" />
<path d="M 505.566406 295.371094 C 505.566406 361.941406 451.410156 416.101562 384.839844 416.101562 C 384.347656 416.101562 383.863281 416.101562 383.378906 416.078125 L 383.378906 174.675781 C 445.207031 172.042969 505.566406 224.863281 505.566406 295.371094 Z M 505.566406 295.371094 " style=" stroke:none;fill-rule:nonzero;fill:rgb(100%,29.803922%,1.568627%);fill-opacity:1;" />
<path d="M 474.703125 295.371094 C 474.703125 344.921875 434.390625 385.234375 384.839844 385.234375 C 335.300781 385.234375 294.992188 344.921875 294.992188 295.371094 C 294.992188 245.832031 335.300781 205.523438 384.839844 205.523438 C 434.390625 205.523438 474.703125 245.835938 474.703125 295.371094 Z M 474.703125 295.371094 " style=" stroke:none;fill-rule:nonzero;fill:rgb(74.509804%,92.156863%,98.039216%);fill-opacity:1;" />
<path d="M 474.703125 295.371094 C 474.703125 344.921875 434.390625 385.234375 384.839844 385.234375 C 384.355469 385.234375 383.863281 385.234375 383.378906 385.214844 L 383.378906 205.542969 C 430.246094 203.546875 474.703125 243.265625 474.703125 295.371094 Z M 474.703125 295.371094 " style=" stroke:none;fill-rule:nonzero;fill:rgb(49.411765%,84.705882%,96.470588%);fill-opacity:1;" />
<path d="M 374.136719 264.09375 C 374.136719 275.457031 364.925781 284.667969 353.5625 284.667969 C 342.195312 284.667969 332.984375 275.457031 332.984375 264.09375 C 332.984375 252.726562 342.195312 243.515625 353.5625 243.515625 C 364.925781 243.515625 374.136719 252.726562 374.136719 264.09375 Z M 374.136719 264.09375 " style=" stroke:none;fill-rule:nonzero;fill:rgb(18.431373%,75.294118%,94.117647%);fill-opacity:1;" />
<path d="M 436.703125 326.660156 C 436.703125 338.023438 427.492188 347.238281 416.128906 347.238281 C 404.761719 347.238281 395.550781 338.023438 395.550781 326.660156 C 395.550781 315.296875 404.761719 306.082031 416.128906 306.082031 C 427.492188 306.082031 436.703125 315.296875 436.703125 326.660156 Z M 436.703125 326.660156 " style=" stroke:none;fill-rule:nonzero;fill:rgb(5.882353%,66.27451%,86.666667%);fill-opacity:1;" />
<path d="M 348.5 346.0625 C 334.875 346.0625 327.835938 329.46875 337.585938 319.71875 L 407.339844 249.964844 C 413.367188 243.9375 423.136719 243.9375 429.164062 249.964844 C 435.191406 255.992188 435.191406 265.761719 429.164062 271.789062 L 359.414062 341.542969 C 356.398438 344.558594 352.449219 346.0625 348.5 346.0625 Z M 348.5 346.0625 " style=" stroke:none;fill-rule:nonzero;fill:rgb(18.431373%,75.294118%,94.117647%);fill-opacity:1;" />
<path d="M 429.164062 271.792969 L 383.378906 317.566406 L 383.378906 273.929688 L 407.34375 249.96875 C 413.359375 243.941406 423.136719 243.941406 429.164062 249.96875 C 435.195312 255.988281 435.195312 265.761719 429.164062 271.792969 Z M 429.164062 271.792969 " style=" stroke:none;fill-rule:nonzero;fill:rgb(5.882353%,66.27451%,86.666667%);fill-opacity:1;" />
<path d="M 308.523438 415.667969 L 308.523438 456.121094 C 308.523438 486.9375 283.453125 512 252.636719 512 L 252.636719 481.132812 C 266.433594 481.132812 277.660156 469.917969 277.660156 456.121094 L 277.660156 415.667969 C 277.660156 407.148438 284.5625 400.234375 293.09375 400.234375 C 301.609375 400.234375 308.523438 407.148438 308.523438 415.667969 Z M 308.523438 415.667969 " style=" stroke:none;fill-rule:nonzero;fill:rgb(100%,29.803922%,1.568627%);fill-opacity:1;" />
</g>
</svg>