<svg xmlns="http://www.w3.org/2000/svg" height="512pt" version="1.1" viewBox="0 -8 512.00016 512" width="512pt">
<g id="surface1">
<path d="M 0 0.0898438 C 0.0195312 0.0585938 0.03125 0.03125 0.0390625 0 L 0 0.0976562 C 0 0.0976562 0 0.0976562 0 0.0898438 Z M 0 0.0898438 " style=" stroke:none;fill-rule:nonzero;fill:rgb(100%,71.372549%,33.333333%);fill-opacity:1;" />
<path d="M 512 155.761719 L 512 480.476562 C 512 489.21875 504.921875 496.296875 496.1875 496.296875 L 34.039062 496.296875 C 25.308594 496.296875 18.226562 489.21875 18.226562 480.476562 L 18.226562 155.761719 C 18.265625 155.652344 74.371094 22.265625 74.441406 22.144531 C 76.90625 16.269531 82.652344 12.46875 89.007812 12.46875 L 441.230469 12.46875 C 447.582031 12.46875 453.320312 16.269531 455.789062 22.136719 C 456.136719 22.941406 512.109375 155.652344 512 155.761719 Z M 512 155.761719 " style=" stroke:none;fill-rule:nonzero;fill:rgb(100%,71.372549%,33.333333%);fill-opacity:1;" />
<path d="M 512 155.761719 L 512 480.476562 C 512 489.21875 504.921875 496.296875 496.1875 496.296875 L 265.113281 496.296875 L 265.113281 12.46875 L 441.230469 12.46875 C 447.582031 12.46875 453.320312 16.269531 455.789062 22.136719 C 456.136719 22.941406 512.109375 155.652344 512 155.761719 Z M 512 155.761719 " style=" stroke:none;fill-rule:nonzero;fill:rgb(100%,62.352941%,13.333333%);fill-opacity:1;" />
<path d="M 85.367188 383.863281 L 187.171875 383.863281 C 195.90625 383.863281 202.984375 376.78125 202.984375 368.046875 C 202.984375 359.316406 195.902344 352.234375 187.171875 352.234375 L 85.367188 352.234375 C 76.632812 352.234375 69.550781 359.316406 69.550781 368.046875 C 69.550781 376.78125 76.632812 383.863281 85.367188 383.863281 Z M 85.367188 383.863281 " style=" stroke:none;fill-rule:nonzero;fill:rgb(86.666667%,49.019608%,0%);fill-opacity:1;" />
<path d="M 223.167969 410.113281 L 85.367188 410.113281 C 76.632812 410.113281 69.550781 417.195312 69.550781 425.929688 C 69.550781 434.664062 76.632812 441.742188 85.367188 441.742188 L 223.167969 441.742188 C 231.902344 441.742188 238.980469 434.660156 238.980469 425.929688 C 238.980469 417.195312 231.902344 410.113281 223.167969 410.113281 Z M 223.167969 410.113281 " style=" stroke:none;fill-rule:nonzero;fill:rgb(86.666667%,49.019608%,0%);fill-opacity:1;" />
<path d="M 409.0625 240.125 C 409.230469 259.984375 392.871094 276.351562 372.835938 276.351562 L 157.390625 276.351562 C 137.382812 276.351562 121.167969 260.132812 121.167969 240.125 C 121.167969 220.117188 137.382812 203.898438 157.390625 203.898438 L 372.835938 203.898438 C 394.601562 203.898438 408.902344 221.628906 409.0625 240.125 Z M 409.0625 240.125 " style=" stroke:none;fill-rule:nonzero;fill:rgb(93.333333%,52.941176%,0%);fill-opacity:1;" />
<path d="M 352.859375 386.539062 C 360.875 390.152344 370.210938 386.53125 373.777344 378.621094 C 385.703125 352.164062 423.40625 352.09375 435.351562 378.613281 C 438.933594 386.578125 448.296875 390.128906 456.261719 386.542969 C 464.226562 382.957031 467.777344 373.59375 464.191406 365.628906 C 453.648438 342.210938 430.242188 327.078125 404.566406 327.078125 C 378.898438 327.078125 355.496094 342.207031 344.941406 365.621094 C 341.351562 373.585938 344.898438 382.949219 352.859375 386.539062 Z M 352.859375 386.539062 " style=" stroke:none;fill-rule:nonzero;fill:rgb(100%,39.215686%,14.901961%);fill-opacity:1;" />
<path d="M 456.273438 405.375 C 448.308594 401.789062 438.945312 405.339844 435.359375 413.304688 C 429.914062 425.394531 417.828125 433.210938 404.5625 433.210938 C 391.308594 433.210938 379.222656 425.394531 373.777344 413.304688 C 370.195312 405.339844 360.832031 401.789062 352.867188 405.375 C 344.902344 408.960938 341.351562 418.324219 344.9375 426.289062 C 355.480469 449.707031 378.886719 464.839844 404.5625 464.839844 C 430.246094 464.839844 453.65625 449.707031 464.199219 426.289062 C 467.785156 418.324219 464.234375 408.960938 456.273438 405.375 Z M 456.273438 405.375 " style=" stroke:none;fill-rule:nonzero;fill:rgb(100%,39.215686%,14.901961%);fill-opacity:1;" />
<path d="M 409.0625 240.125 C 409.230469 259.984375 392.871094 276.351562 372.835938 276.351562 L 265.113281 276.351562 L 265.113281 203.898438 L 372.835938 203.898438 C 394.601562 203.898438 408.902344 221.628906 409.0625 240.125 Z M 409.0625 240.125 " style=" stroke:none;fill-rule:nonzero;fill:rgb(86.666667%,49.019608%,0%);fill-opacity:1;" />
<path d="M 512 155.761719 L 18.226562 155.761719 C 18.246094 155.703125 36.335938 112.703125 51.976562 75.503906 L 478.289062 75.503906 C 493.933594 112.632812 512 155.5625 512 155.761719 Z M 512 155.761719 " style=" stroke:none;fill-rule:nonzero;fill:rgb(100%,82.745098%,60%);fill-opacity:1;" />
<path d="M 512 155.761719 L 265.113281 155.761719 L 265.113281 75.503906 L 478.289062 75.503906 C 493.933594 112.632812 512 155.5625 512 155.761719 Z M 512 155.761719 " style=" stroke:none;fill-rule:nonzero;fill:rgb(100%,76.862745%,46.666667%);fill-opacity:1;" />
</g>
</svg>