<svg xmlns="http://www.w3.org/2000/svg" height="512pt" version="1.1" viewBox="0 -1 512.00002 512" width="512pt">
<g id="surface1">
<path d="M 512 15.207031 L 512 495.371094 C 512 503.765625 507.476562 510.582031 501.890625 510.582031 L 171.847656 510.582031 L 171.847656 0 L 501.890625 0 C 507.476562 0 512 6.8125 512 15.207031 Z M 512 15.207031 " style=" stroke:none;fill-rule:nonzero;fill:rgb(18.431373%,75.294118%,94.117647%);fill-opacity:1;" />
<path d="M 512 15.207031 L 512 495.371094 C 512 503.765625 507.476562 510.582031 501.890625 510.582031 L 341.925781 510.582031 L 341.925781 0 L 501.890625 0 C 507.476562 0 512 6.8125 512 15.207031 Z M 512 15.207031 " style=" stroke:none;fill-rule:nonzero;fill:rgb(5.882353%,66.27451%,86.666667%);fill-opacity:1;" />
<path d="M 512 83.390625 L 512 495.371094 C 512 503.765625 505.1875 510.582031 496.792969 510.582031 L 15.207031 510.582031 C 6.8125 510.582031 0 503.765625 0 495.371094 L 0 15.207031 C 0 6.8125 6.8125 0 15.207031 0 L 192.023438 0 C 198.503906 0 204.273438 4.105469 206.390625 10.21875 L 224.132812 61.367188 C 225.554688 65.445312 229.394531 68.183594 233.714844 68.183594 L 496.792969 68.183594 C 505.1875 68.183594 512 74.996094 512 83.390625 Z M 512 83.390625 " style=" stroke:none;fill-rule:nonzero;fill:rgb(61.960784%,88.627451%,97.254902%);fill-opacity:1;" />
<path d="M 512 83.390625 L 512 495.371094 C 512 503.765625 505.1875 510.582031 496.792969 510.582031 L 258.605469 510.582031 L 258.605469 68.183594 L 496.792969 68.183594 C 505.1875 68.183594 512 74.996094 512 83.390625 Z M 512 83.390625 " style=" stroke:none;fill-rule:nonzero;fill:rgb(49.411765%,84.705882%,96.470588%);fill-opacity:1;" />
<path d="M 145.828125 68.738281 L 102.230469 68.738281 C 93.832031 68.738281 87.023438 61.929688 87.023438 53.53125 C 87.023438 45.132812 93.832031 38.324219 102.230469 38.324219 L 145.828125 38.324219 C 154.226562 38.324219 161.035156 45.132812 161.035156 53.53125 C 161.035156 61.929688 154.226562 68.738281 145.828125 68.738281 Z M 145.828125 68.738281 " style=" stroke:none;fill-rule:nonzero;fill:rgb(5.882353%,66.27451%,86.666667%);fill-opacity:1;" />
<path d="M 234.070312 141.625 L 234.070312 344.957031 C 234.070312 353.351562 227.257812 360.164062 218.863281 360.164062 L 48.085938 360.164062 C 39.691406 360.164062 32.878906 353.351562 32.878906 344.957031 L 32.878906 141.625 C 32.878906 133.222656 39.691406 126.417969 48.085938 126.417969 L 218.863281 126.417969 C 227.257812 126.417969 234.070312 133.222656 234.070312 141.625 Z M 234.070312 141.625 " style=" stroke:none;fill-rule:nonzero;fill:rgb(100%,94.509804%,71.372549%);fill-opacity:1;" />
<path d="M 234.070312 141.625 L 234.070312 344.957031 C 234.070312 353.351562 227.257812 360.164062 218.863281 360.164062 L 133.476562 360.164062 L 133.476562 126.417969 L 218.863281 126.417969 C 227.257812 126.417969 234.070312 133.222656 234.070312 141.625 Z M 234.070312 141.625 " style=" stroke:none;fill-rule:nonzero;fill:rgb(100%,89.411765%,46.666667%);fill-opacity:1;" />
<path d="M 471.75 289.234375 L 471.75 343.710938 C 471.75 352.113281 464.9375 358.917969 456.542969 358.917969 L 309.867188 358.917969 C 301.472656 358.917969 294.660156 352.113281 294.660156 343.710938 L 294.660156 289.234375 C 294.660156 280.828125 301.472656 274.027344 309.867188 274.027344 L 456.542969 274.027344 C 464.9375 274.027344 471.75 280.828125 471.75 289.234375 Z M 471.75 289.234375 " style=" stroke:none;fill-rule:nonzero;fill:rgb(100%,94.509804%,71.372549%);fill-opacity:1;" />
<path d="M 234.070312 272.78125 L 234.070312 344.957031 C 234.070312 353.351562 227.257812 360.164062 218.863281 360.164062 L 48.085938 360.164062 C 39.691406 360.164062 32.878906 353.351562 32.878906 344.957031 L 32.878906 272.78125 Z M 234.070312 272.78125 " style=" stroke:none;fill-rule:nonzero;fill:rgb(100%,63.137255%,48.235294%);fill-opacity:1;" />
<path d="M 234.070312 272.78125 L 234.070312 344.957031 C 234.070312 353.351562 227.257812 360.164062 218.863281 360.164062 L 133.476562 360.164062 L 133.476562 272.78125 Z M 234.070312 272.78125 " style=" stroke:none;fill-rule:nonzero;fill:rgb(100%,53.333333%,34.901961%);fill-opacity:1;" />
<path d="M 178.226562 195.8125 L 169.066406 193.359375 L 180.070312 182.351562 C 186.011719 176.410156 186.011719 166.785156 180.070312 160.84375 C 174.132812 154.902344 164.503906 154.90625 158.566406 160.84375 L 147.558594 171.851562 L 145.105469 162.691406 C 142.929688 154.578125 134.585938 149.765625 126.476562 151.9375 C 118.363281 154.113281 113.550781 162.449219 115.722656 170.5625 L 118.179688 179.722656 L 109.019531 177.269531 C 100.917969 175.097656 92.566406 179.910156 90.394531 188.023438 C 88.21875 196.136719 93.035156 204.472656 101.148438 206.648438 L 110.304688 209.101562 L 86.875 232.535156 C 80.933594 238.472656 80.933594 248.101562 86.875 254.042969 C 92.8125 259.980469 102.441406 259.980469 108.378906 254.042969 L 131.8125 230.609375 L 134.269531 239.769531 C 136.433594 247.84375 144.742188 252.703125 152.894531 250.519531 C 161.007812 248.347656 165.820312 240.007812 163.648438 231.894531 L 161.195312 222.734375 C 169.628906 224.863281 171.058594 225.710938 174.300781 225.710938 C 181.011719 225.710938 187.160156 221.230469 188.980469 214.4375 C 191.152344 206.324219 186.335938 197.984375 178.226562 195.8125 Z M 178.226562 195.8125 " style=" stroke:none;fill-rule:nonzero;fill:rgb(100%,48.627451%,28.235294%);fill-opacity:1;" />
<path d="M 309.867188 156.832031 L 412.289062 156.832031 C 420.6875 156.832031 427.496094 150.023438 427.496094 141.625 C 427.496094 133.226562 420.6875 126.417969 412.289062 126.417969 L 309.867188 126.417969 C 301.46875 126.417969 294.660156 133.226562 294.660156 141.625 C 294.660156 150.023438 301.46875 156.832031 309.867188 156.832031 Z M 309.867188 156.832031 " style=" stroke:none;fill-rule:nonzero;fill:rgb(5.098039%,56.862745%,74.117647%);fill-opacity:1;" />
<path d="M 309.867188 201.863281 L 456.542969 201.863281 C 464.941406 201.863281 471.75 195.054688 471.75 186.65625 C 471.75 178.257812 464.941406 171.449219 456.542969 171.449219 L 309.867188 171.449219 C 301.46875 171.449219 294.660156 178.257812 294.660156 186.65625 C 294.660156 195.054688 301.46875 201.863281 309.867188 201.863281 Z M 309.867188 201.863281 " style=" stroke:none;fill-rule:nonzero;fill:rgb(5.098039%,56.862745%,74.117647%);fill-opacity:1;" />
<path d="M 456.542969 216.480469 L 309.867188 216.480469 C 301.46875 216.480469 294.660156 223.289062 294.660156 231.6875 C 294.660156 240.085938 301.46875 246.894531 309.867188 246.894531 L 456.542969 246.894531 C 464.941406 246.894531 471.75 240.085938 471.75 231.6875 C 471.75 223.289062 464.941406 216.480469 456.542969 216.480469 Z M 456.542969 216.480469 " style=" stroke:none;fill-rule:nonzero;fill:rgb(5.098039%,56.862745%,74.117647%);fill-opacity:1;" />
<path d="M 471.75 412.773438 C 471.75 421.179688 464.9375 427.980469 456.542969 427.980469 L 40.484375 427.980469 C 32.089844 427.980469 25.277344 421.179688 25.277344 412.773438 C 25.277344 404.378906 32.089844 397.566406 40.484375 397.566406 L 456.542969 397.566406 C 464.9375 397.566406 471.75 404.378906 471.75 412.773438 Z M 471.75 412.773438 " style=" stroke:none;fill-rule:nonzero;fill:rgb(5.882353%,66.27451%,86.666667%);fill-opacity:1;" />
<path d="M 471.75 463.8125 C 471.75 472.207031 464.9375 479.019531 456.542969 479.019531 L 40.484375 479.019531 C 32.089844 479.019531 25.277344 472.207031 25.277344 463.8125 C 25.277344 455.40625 32.089844 448.601562 40.484375 448.601562 L 456.542969 448.601562 C 464.9375 448.601562 471.75 455.40625 471.75 463.8125 Z M 471.75 463.8125 " style=" stroke:none;fill-rule:nonzero;fill:rgb(5.882353%,66.27451%,86.666667%);fill-opacity:1;" />
<path d="M 74.449219 53.53125 C 74.449219 61.929688 67.640625 68.738281 59.238281 68.738281 C 50.839844 68.738281 44.03125 61.929688 44.03125 53.53125 C 44.03125 45.132812 50.839844 38.324219 59.238281 38.324219 C 67.640625 38.324219 74.449219 45.132812 74.449219 53.53125 Z M 74.449219 53.53125 " style=" stroke:none;fill-rule:nonzero;fill:rgb(5.882353%,66.27451%,86.666667%);fill-opacity:1;" />
<path d="M 471.75 463.8125 C 471.75 472.207031 464.9375 479.019531 456.542969 479.019531 L 258.605469 479.019531 L 258.605469 448.601562 L 456.542969 448.601562 C 464.9375 448.601562 471.75 455.40625 471.75 463.8125 Z M 471.75 463.8125 " style=" stroke:none;fill-rule:nonzero;fill:rgb(5.098039%,56.862745%,74.117647%);fill-opacity:1;" />
<path d="M 456.542969 427.980469 L 258.605469 427.980469 L 258.605469 397.566406 L 456.542969 397.566406 C 464.9375 397.566406 471.75 404.378906 471.75 412.773438 C 471.75 421.179688 464.9375 427.980469 456.542969 427.980469 Z M 456.542969 427.980469 " style=" stroke:none;fill-rule:nonzero;fill:rgb(5.098039%,56.862745%,74.117647%);fill-opacity:1;" />
<path d="M 471.75 289.234375 L 471.75 343.710938 C 471.75 352.113281 464.9375 358.917969 456.542969 358.917969 L 385.308594 358.917969 L 385.308594 274.027344 L 456.542969 274.027344 C 464.9375 274.027344 471.75 280.828125 471.75 289.234375 Z M 471.75 289.234375 " style=" stroke:none;fill-rule:nonzero;fill:rgb(100%,89.411765%,46.666667%);fill-opacity:1;" />
</g>
</svg>