<svg xmlns="http://www.w3.org/2000/svg" height="511pt" version="1.1" viewBox="1 0 511.99998 511" width="511pt">
<g id="surface1">
<path d="M 496.617188 0.5 L 15.375 0.5 C 6.882812 0.5 0 7.382812 0 15.875 L 0 495.609375 C 0 504.101562 6.882812 510.988281 15.375 510.988281 L 496.617188 510.988281 C 505.109375 510.988281 511.996094 504.101562 511.996094 495.609375 L 511.996094 15.875 C 511.996094 7.382812 505.113281 0.5 496.617188 0.5 Z M 496.617188 0.5 " style=" stroke:none;fill-rule:nonzero;fill:rgb(100%,63.137255%,48.235294%);fill-opacity:1;" />
<path d="M 512 15.875 L 512 495.609375 C 512 504.097656 505.113281 510.988281 496.625 510.988281 L 369.835938 510.988281 L 369.835938 0.5 L 496.625 0.5 C 505.113281 0.5 512 7.386719 512 15.875 Z M 512 15.875 " style=" stroke:none;fill-rule:nonzero;fill:rgb(100%,58.039216%,41.568627%);fill-opacity:1;" />
<path d="M 511.996094 85.683594 L 511.996094 495.609375 C 511.996094 504.101562 505.109375 510.988281 496.617188 510.988281 L 15.375 510.988281 C 6.882812 510.988281 0 504.101562 0 495.609375 L 0 15.875 C 0 7.382812 6.882812 0.5 15.375 0.5 L 230.847656 0.5 L 255.996094 85.683594 Z M 511.996094 85.683594 " style=" stroke:none;fill-rule:nonzero;fill:rgb(100%,39.215686%,14.901961%);fill-opacity:1;" />
<path d="M 198.464844 58.585938 L 111.195312 58.585938 C 102.707031 58.585938 95.820312 51.703125 95.820312 43.210938 C 95.820312 34.71875 102.707031 27.835938 111.195312 27.835938 L 198.464844 27.835938 C 206.957031 27.835938 213.839844 34.71875 213.839844 43.210938 C 213.839844 51.703125 206.957031 58.585938 198.464844 58.585938 Z M 198.464844 58.585938 " style=" stroke:none;fill-rule:nonzero;fill:rgb(100%,58.039216%,41.568627%);fill-opacity:1;" />
<path d="M 0 85.683594 L 511.996094 85.683594 L 511.996094 298.335938 L 0 298.335938 Z M 0 85.683594 " style=" stroke:none;fill-rule:nonzero;fill:rgb(100%,96.078431%,80%);fill-opacity:1;" />
<path d="M 255.996094 85.683594 L 512 85.683594 L 512 298.335938 L 255.996094 298.335938 Z M 255.996094 85.683594 " style=" stroke:none;fill-rule:nonzero;fill:rgb(100%,94.509804%,71.372549%);fill-opacity:1;" />
<path d="M 0 298.335938 L 0 495.609375 C 0 504.101562 6.882812 510.988281 15.375 510.988281 L 496.617188 510.988281 C 505.109375 510.988281 511.996094 504.101562 511.996094 495.609375 L 511.996094 298.335938 Z M 0 298.335938 " style=" stroke:none;fill-rule:nonzero;fill:rgb(100%,92.156863%,60%);fill-opacity:1;" />
<path d="M 512 298.335938 L 512 495.609375 C 512 504.097656 505.113281 510.988281 496.625 510.988281 L 255.996094 510.988281 L 255.996094 298.335938 Z M 512 298.335938 " style=" stroke:none;fill-rule:nonzero;fill:rgb(100%,89.411765%,46.666667%);fill-opacity:1;" />
<path d="M 154.832031 155.511719 L 154.832031 229.195312 C 154.832031 237.683594 147.945312 244.570312 139.457031 244.570312 L 58.128906 244.570312 C 49.640625 244.570312 42.75 237.683594 42.75 229.195312 L 42.75 155.511719 C 42.75 147.015625 49.640625 140.136719 58.128906 140.136719 L 139.457031 140.136719 C 147.945312 140.136719 154.832031 147.015625 154.832031 155.511719 Z M 154.832031 155.511719 " style=" stroke:none;fill-rule:nonzero;fill:rgb(100%,53.333333%,34.901961%);fill-opacity:1;" />
<path d="M 154.832031 357.738281 L 154.832031 431.429688 C 154.832031 439.917969 147.945312 446.808594 139.457031 446.808594 L 58.128906 446.808594 C 49.640625 446.808594 42.75 439.917969 42.75 431.429688 L 42.75 357.738281 C 42.75 349.25 49.640625 342.363281 58.128906 342.363281 L 139.457031 342.363281 C 147.945312 342.363281 154.832031 349.25 154.832031 357.738281 Z M 154.832031 357.738281 " style=" stroke:none;fill-rule:nonzero;fill:rgb(100%,53.333333%,34.901961%);fill-opacity:1;" />
<path d="M 403.753906 210.824219 L 418.75 210.824219 C 420.496094 210.824219 421.917969 212.246094 421.917969 213.992188 C 421.917969 215.738281 420.496094 217.160156 418.75 217.160156 L 385.511719 217.160156 C 377.019531 217.160156 370.136719 224.046875 370.136719 232.539062 C 370.136719 241.03125 377.019531 247.914062 385.511719 247.914062 L 396.492188 247.914062 L 396.492188 258.847656 C 396.492188 267.339844 403.375 274.222656 411.867188 274.222656 C 420.359375 274.222656 427.242188 267.339844 427.242188 258.847656 L 427.242188 246.835938 C 441.851562 243.058594 452.671875 229.765625 452.671875 213.996094 C 452.671875 195.289062 437.453125 180.074219 418.75 180.074219 L 403.753906 180.074219 C 402.007812 180.074219 400.585938 178.652344 400.585938 176.90625 C 400.585938 175.160156 402.007812 173.738281 403.753906 173.738281 L 436.992188 173.738281 C 445.484375 173.738281 452.371094 166.851562 452.371094 158.363281 C 452.371094 149.871094 445.484375 142.984375 436.992188 142.984375 L 427.242188 142.984375 L 427.242188 132.050781 C 427.242188 123.558594 420.359375 116.675781 411.867188 116.675781 C 403.375 116.675781 396.492188 123.558594 396.492188 132.050781 L 396.492188 143.777344 C 381.265625 147.109375 369.832031 160.695312 369.832031 176.90625 C 369.835938 195.609375 385.050781 210.824219 403.753906 210.824219 Z M 403.753906 210.824219 " style=" stroke:none;fill-rule:nonzero;fill:rgb(0%,93.333333%,54.117647%);fill-opacity:1;" />
<path d="M 418.75 381.183594 L 403.753906 381.183594 C 399.5625 381.183594 399.566406 374.84375 403.753906 374.84375 L 436.992188 374.84375 C 445.484375 374.84375 452.371094 367.960938 452.371094 359.46875 C 452.371094 350.976562 445.484375 344.09375 436.992188 344.09375 L 427.242188 344.09375 L 427.242188 333.160156 C 427.242188 324.667969 420.359375 317.78125 411.867188 317.78125 C 403.375 317.78125 396.492188 324.667969 396.492188 333.160156 L 396.492188 344.882812 C 381.265625 348.21875 369.832031 361.804688 369.832031 378.011719 C 369.832031 396.71875 385.050781 411.933594 403.753906 411.933594 L 418.75 411.933594 C 422.945312 411.933594 422.9375 418.269531 418.75 418.269531 L 385.511719 418.269531 C 377.019531 418.269531 370.136719 425.15625 370.136719 433.644531 C 370.136719 442.136719 377.019531 449.023438 385.511719 449.023438 L 396.492188 449.023438 L 396.492188 459.957031 C 396.492188 468.449219 403.375 475.332031 411.867188 475.332031 C 420.359375 475.332031 427.242188 468.449219 427.242188 459.957031 L 427.242188 447.945312 C 441.851562 444.164062 452.671875 430.875 452.671875 415.101562 C 452.671875 396.398438 437.453125 381.183594 418.75 381.183594 Z M 418.75 381.183594 " style=" stroke:none;fill-rule:nonzero;fill:rgb(0%,93.333333%,54.117647%);fill-opacity:1;" />
<path d="M 70.398438 43.210938 C 70.398438 51.703125 63.511719 58.585938 55.019531 58.585938 C 46.527344 58.585938 39.644531 51.703125 39.644531 43.210938 C 39.644531 34.71875 46.527344 27.835938 55.019531 27.835938 C 63.511719 27.835938 70.398438 34.71875 70.398438 43.210938 Z M 70.398438 43.210938 " style=" stroke:none;fill-rule:nonzero;fill:rgb(100%,58.039216%,41.568627%);fill-opacity:1;" />
<path d="M 208.816406 187.433594 L 321.839844 187.433594 C 330.332031 187.433594 337.214844 180.550781 337.214844 172.058594 C 337.214844 163.566406 330.332031 156.679688 321.839844 156.679688 L 208.816406 156.679688 C 200.324219 156.679688 193.441406 163.566406 193.441406 172.058594 C 193.441406 180.550781 200.324219 187.433594 208.816406 187.433594 Z M 208.816406 187.433594 " style=" stroke:none;fill-rule:nonzero;fill:rgb(100%,58.039216%,41.568627%);fill-opacity:1;" />
<path d="M 321.839844 199.851562 L 208.816406 199.851562 C 200.324219 199.851562 193.441406 206.734375 193.441406 215.226562 C 193.441406 223.71875 200.324219 230.601562 208.816406 230.601562 L 321.839844 230.601562 C 330.332031 230.601562 337.214844 223.71875 337.214844 215.226562 C 337.214844 206.734375 330.332031 199.851562 321.839844 199.851562 Z M 321.839844 199.851562 " style=" stroke:none;fill-rule:nonzero;fill:rgb(100%,58.039216%,41.568627%);fill-opacity:1;" />
<path d="M 321.839844 358.914062 L 208.816406 358.914062 C 200.324219 358.914062 193.441406 365.800781 193.441406 374.292969 C 193.441406 382.78125 200.324219 389.667969 208.816406 389.667969 L 321.839844 389.667969 C 330.332031 389.667969 337.214844 382.78125 337.214844 374.292969 C 337.214844 365.800781 330.332031 358.914062 321.839844 358.914062 Z M 321.839844 358.914062 " style=" stroke:none;fill-rule:nonzero;fill:rgb(100%,58.039216%,41.568627%);fill-opacity:1;" />
<path d="M 321.839844 402.085938 L 208.816406 402.085938 C 200.324219 402.085938 193.441406 408.96875 193.441406 417.460938 C 193.441406 425.953125 200.324219 432.835938 208.816406 432.835938 L 321.839844 432.835938 C 330.332031 432.835938 337.214844 425.953125 337.214844 417.460938 C 337.214844 408.96875 330.332031 402.085938 321.839844 402.085938 Z M 321.839844 402.085938 " style=" stroke:none;fill-rule:nonzero;fill:rgb(100%,58.039216%,41.568627%);fill-opacity:1;" />
<path d="M 337.210938 172.054688 C 337.210938 180.554688 330.332031 187.433594 321.835938 187.433594 L 255.996094 187.433594 L 255.996094 156.679688 L 321.835938 156.679688 C 330.332031 156.679688 337.210938 163.570312 337.210938 172.054688 Z M 337.210938 172.054688 " style=" stroke:none;fill-rule:nonzero;fill:rgb(100%,48.627451%,28.235294%);fill-opacity:1;" />
<path d="M 337.210938 215.222656 C 337.210938 223.71875 330.332031 230.597656 321.835938 230.597656 L 255.996094 230.597656 L 255.996094 199.847656 L 321.835938 199.847656 C 330.332031 199.847656 337.210938 206.734375 337.210938 215.222656 Z M 337.210938 215.222656 " style=" stroke:none;fill-rule:nonzero;fill:rgb(100%,48.627451%,28.235294%);fill-opacity:1;" />
<path d="M 337.210938 374.292969 C 337.210938 382.78125 330.332031 389.667969 321.835938 389.667969 L 255.996094 389.667969 L 255.996094 358.917969 L 321.835938 358.917969 C 330.332031 358.917969 337.210938 365.796875 337.210938 374.292969 Z M 337.210938 374.292969 " style=" stroke:none;fill-rule:nonzero;fill:rgb(100%,48.627451%,28.235294%);fill-opacity:1;" />
<path d="M 337.210938 417.460938 C 337.210938 425.945312 330.332031 432.835938 321.835938 432.835938 L 255.996094 432.835938 L 255.996094 402.082031 L 321.835938 402.082031 C 330.332031 402.082031 337.210938 408.972656 337.210938 417.460938 Z M 337.210938 417.460938 " style=" stroke:none;fill-rule:nonzero;fill:rgb(100%,48.627451%,28.235294%);fill-opacity:1;" />
<path d="M 452.667969 213.992188 C 452.667969 229.769531 441.851562 243.054688 427.246094 246.835938 L 427.246094 258.847656 C 427.246094 268.382812 418.664062 274.945312 411.253906 274.203125 L 411.253906 217.160156 L 418.746094 217.160156 C 420.5 217.160156 421.914062 215.746094 421.914062 213.992188 C 421.914062 212.25 420.5 210.824219 418.746094 210.824219 L 411.253906 210.824219 L 411.253906 180.074219 L 418.746094 180.074219 C 437.457031 180.074219 452.667969 195.292969 452.667969 213.992188 Z M 452.667969 213.992188 " style=" stroke:none;fill-rule:nonzero;fill:rgb(0%,80%,46.27451%);fill-opacity:1;" />
<path d="M 436.996094 173.738281 L 411.253906 173.738281 L 411.253906 116.691406 C 411.460938 116.671875 411.664062 116.671875 411.871094 116.671875 C 420.359375 116.671875 427.246094 123.558594 427.246094 132.046875 L 427.246094 142.984375 L 436.996094 142.984375 C 445.484375 142.984375 452.371094 149.875 452.371094 158.363281 C 452.371094 166.847656 445.484375 173.738281 436.996094 173.738281 Z M 436.996094 173.738281 " style=" stroke:none;fill-rule:nonzero;fill:rgb(0%,80%,46.27451%);fill-opacity:1;" />
<path d="M 452.667969 415.101562 C 452.667969 430.878906 441.851562 444.164062 427.246094 447.945312 L 427.246094 459.957031 C 427.246094 469.414062 418.777344 476.050781 411.253906 475.3125 L 411.253906 418.269531 L 418.746094 418.269531 C 422.945312 418.269531 422.929688 411.933594 418.746094 411.933594 L 411.253906 411.933594 L 411.253906 381.183594 L 418.746094 381.183594 C 437.457031 381.183594 452.667969 396.394531 452.667969 415.101562 Z M 452.667969 415.101562 " style=" stroke:none;fill-rule:nonzero;fill:rgb(0%,80%,46.27451%);fill-opacity:1;" />
<path d="M 436.996094 374.847656 L 411.253906 374.847656 L 411.253906 317.800781 C 418.710938 317.054688 427.246094 323.664062 427.246094 333.15625 L 427.246094 344.09375 L 436.996094 344.09375 C 445.484375 344.09375 452.371094 350.972656 452.371094 359.472656 C 452.371094 367.957031 445.484375 374.847656 436.996094 374.847656 Z M 436.996094 374.847656 " style=" stroke:none;fill-rule:nonzero;fill:rgb(0%,80%,46.27451%);fill-opacity:1;" />
<path d="M 154.832031 155.511719 L 154.832031 229.195312 C 154.832031 237.683594 147.945312 244.570312 139.457031 244.570312 L 98.792969 244.570312 L 98.792969 140.136719 L 139.457031 140.136719 C 147.945312 140.136719 154.832031 147.015625 154.832031 155.511719 Z M 154.832031 155.511719 " style=" stroke:none;fill-rule:nonzero;fill:rgb(100%,48.627451%,28.235294%);fill-opacity:1;" />
<path d="M 154.832031 357.738281 L 154.832031 431.429688 C 154.832031 439.917969 147.945312 446.808594 139.457031 446.808594 L 98.792969 446.808594 L 98.792969 342.363281 L 139.457031 342.363281 C 147.945312 342.363281 154.832031 349.25 154.832031 357.738281 Z M 154.832031 357.738281 " style=" stroke:none;fill-rule:nonzero;fill:rgb(100%,48.627451%,28.235294%);fill-opacity:1;" />
</g>
</svg>