<svg xmlns="http://www.w3.org/2000/svg" height="511pt" version="1.1" viewBox="0 1 511 511.99997" width="511pt">
<g id="surface1">
<path d="M 347.679688 109.277344 C 339.339844 109.277344 332.578125 102.515625 332.578125 94.171875 L 332.578125 15.101562 C 332.578125 6.761719 339.339844 0 347.679688 0 C 356.023438 0 362.785156 6.761719 362.785156 15.101562 L 362.785156 94.171875 C 362.785156 102.515625 356.023438 109.277344 347.679688 109.277344 Z M 347.679688 109.277344 " style=" stroke:none;fill-rule:nonzero;fill:rgb(100%,83.137255%,13.333333%);fill-opacity:1;" />
<path d="M 165.316406 109.277344 C 156.976562 109.277344 150.214844 102.515625 150.214844 94.171875 L 150.214844 15.101562 C 150.214844 6.761719 156.976562 0 165.316406 0 C 173.65625 0 180.421875 6.761719 180.421875 15.101562 L 180.421875 94.171875 C 180.421875 102.515625 173.65625 109.277344 165.316406 109.277344 Z M 165.316406 109.277344 " style=" stroke:none;fill-rule:nonzero;fill:rgb(100%,92.156863%,60%);fill-opacity:1;" />
<path d="M 271.601562 15.105469 L 271.601562 94.175781 C 271.601562 102.511719 264.835938 109.277344 256.5 109.277344 C 248.160156 109.277344 241.394531 102.511719 241.394531 94.175781 L 241.394531 15.105469 C 241.394531 6.757812 248.160156 0.00390625 256.5 0.00390625 C 264.835938 0.00390625 271.601562 6.757812 271.601562 15.105469 Z M 271.601562 15.105469 " style=" stroke:none;fill-rule:nonzero;fill:rgb(100%,92.156863%,60%);fill-opacity:1;" />
<path d="M 165.316406 511.996094 C 156.976562 511.996094 150.214844 505.234375 150.214844 496.894531 L 150.214844 417.824219 C 150.214844 409.484375 156.976562 402.722656 165.316406 402.722656 C 173.65625 402.722656 180.421875 409.484375 180.421875 417.824219 L 180.421875 496.894531 C 180.421875 505.234375 173.65625 511.996094 165.316406 511.996094 Z M 165.316406 511.996094 " style=" stroke:none;fill-rule:nonzero;fill:rgb(100%,92.156863%,60%);fill-opacity:1;" />
<path d="M 271.601562 417.828125 L 271.601562 496.898438 C 271.601562 505.234375 264.835938 512 256.5 512 C 248.160156 512 241.394531 505.234375 241.394531 496.898438 L 241.394531 417.828125 C 241.394531 409.480469 248.160156 402.722656 256.5 402.722656 C 264.835938 402.722656 271.601562 409.480469 271.601562 417.828125 Z M 271.601562 417.828125 " style=" stroke:none;fill-rule:nonzero;fill:rgb(100%,92.156863%,60%);fill-opacity:1;" />
<path d="M 347.679688 511.996094 C 339.339844 511.996094 332.578125 505.234375 332.578125 496.894531 L 332.578125 417.824219 C 332.578125 409.484375 339.339844 402.722656 347.679688 402.722656 C 356.023438 402.722656 362.785156 409.484375 362.785156 417.824219 L 362.785156 496.894531 C 362.785156 505.234375 356.023438 511.996094 347.679688 511.996094 Z M 347.679688 511.996094 " style=" stroke:none;fill-rule:nonzero;fill:rgb(100%,83.137255%,13.333333%);fill-opacity:1;" />
<path d="M 497.394531 170.085938 L 418.324219 170.085938 C 409.984375 170.085938 403.222656 163.324219 403.222656 154.984375 C 403.222656 146.640625 409.984375 139.878906 418.324219 139.878906 L 497.394531 139.878906 C 505.734375 139.878906 512.496094 146.640625 512.496094 154.984375 C 512.496094 163.324219 505.734375 170.085938 497.394531 170.085938 Z M 497.394531 170.085938 " style=" stroke:none;fill-rule:nonzero;fill:rgb(100%,83.137255%,13.333333%);fill-opacity:1;" />
<path d="M 497.394531 261.269531 L 418.324219 261.269531 C 409.984375 261.269531 403.222656 254.503906 403.222656 246.164062 C 403.222656 237.824219 409.984375 231.0625 418.324219 231.0625 L 497.394531 231.0625 C 505.734375 231.0625 512.496094 237.824219 512.496094 246.164062 C 512.496094 254.503906 505.734375 261.269531 497.394531 261.269531 Z M 497.394531 261.269531 " style=" stroke:none;fill-rule:nonzero;fill:rgb(100%,83.137255%,13.333333%);fill-opacity:1;" />
<path d="M 497.394531 352.449219 L 418.324219 352.449219 C 409.984375 352.449219 403.222656 345.6875 403.222656 337.347656 C 403.222656 329.007812 409.984375 322.246094 418.324219 322.246094 L 497.394531 322.246094 C 505.734375 322.246094 512.496094 329.007812 512.496094 337.347656 C 512.496094 345.6875 505.734375 352.449219 497.394531 352.449219 Z M 497.394531 352.449219 " style=" stroke:none;fill-rule:nonzero;fill:rgb(100%,83.137255%,13.333333%);fill-opacity:1;" />
<path d="M 94.671875 170.085938 L 15.601562 170.085938 C 7.261719 170.085938 0.5 163.324219 0.5 154.984375 C 0.5 146.640625 7.261719 139.878906 15.601562 139.878906 L 94.671875 139.878906 C 103.015625 139.878906 109.777344 146.640625 109.777344 154.984375 C 109.777344 163.324219 103.015625 170.085938 94.671875 170.085938 Z M 94.671875 170.085938 " style=" stroke:none;fill-rule:nonzero;fill:rgb(100%,92.156863%,60%);fill-opacity:1;" />
<path d="M 94.671875 261.269531 L 15.601562 261.269531 C 7.261719 261.269531 0.5 254.503906 0.5 246.164062 C 0.5 237.824219 7.261719 231.0625 15.601562 231.0625 L 94.671875 231.0625 C 103.015625 231.0625 109.777344 237.824219 109.777344 246.164062 C 109.777344 254.503906 103.015625 261.269531 94.671875 261.269531 Z M 94.671875 261.269531 " style=" stroke:none;fill-rule:nonzero;fill:rgb(100%,92.156863%,60%);fill-opacity:1;" />
<path d="M 94.671875 352.449219 L 15.601562 352.449219 C 7.261719 352.449219 0.5 345.6875 0.5 337.347656 C 0.5 329.007812 7.261719 322.246094 15.601562 322.246094 L 94.671875 322.246094 C 103.015625 322.246094 109.777344 329.007812 109.777344 337.347656 C 109.777344 345.6875 103.015625 352.449219 94.671875 352.449219 Z M 94.671875 352.449219 " style=" stroke:none;fill-rule:nonzero;fill:rgb(100%,92.156863%,60%);fill-opacity:1;" />
<path d="M 271.601562 15.105469 L 271.601562 94.175781 C 271.601562 102.511719 264.835938 109.277344 256.5 109.277344 L 256.5 0.00390625 C 264.835938 0.00390625 271.601562 6.757812 271.601562 15.105469 Z M 271.601562 15.105469 " style=" stroke:none;fill-rule:nonzero;fill:rgb(100%,83.137255%,13.333333%);fill-opacity:1;" />
<path d="M 271.601562 417.828125 L 271.601562 496.898438 C 271.601562 505.234375 264.835938 512 256.5 512 L 256.5 402.722656 C 264.835938 402.722656 271.601562 409.480469 271.601562 417.828125 Z M 271.601562 417.828125 " style=" stroke:none;fill-rule:nonzero;fill:rgb(100%,83.137255%,13.333333%);fill-opacity:1;" />
<path d="M 418.324219 79.070312 L 94.671875 79.070312 C 86.332031 79.070312 79.570312 85.832031 79.570312 94.171875 L 79.570312 417.824219 C 79.570312 426.164062 86.332031 432.929688 94.671875 432.929688 L 418.324219 432.929688 C 426.664062 432.929688 433.429688 426.164062 433.429688 417.824219 L 433.429688 94.171875 C 433.429688 85.832031 426.664062 79.070312 418.324219 79.070312 Z M 418.324219 79.070312 " style=" stroke:none;fill-rule:nonzero;fill:rgb(100%,53.333333%,34.901961%);fill-opacity:1;" />
<path d="M 433.429688 94.175781 L 433.429688 417.828125 C 433.429688 426.164062 426.660156 432.929688 418.324219 432.929688 L 256.5 432.929688 L 256.5 79.070312 L 418.324219 79.070312 C 426.660156 79.070312 433.429688 85.828125 433.429688 94.175781 Z M 433.429688 94.175781 " style=" stroke:none;fill-rule:nonzero;fill:rgb(100%,43.921569%,21.568627%);fill-opacity:1;" />
<path d="M 265.855469 240.894531 L 247.140625 240.894531 C 243.800781 240.894531 241.085938 238.179688 241.085938 234.839844 C 241.085938 231.5 243.800781 228.785156 247.140625 228.785156 L 287.015625 228.785156 C 295.355469 228.785156 302.117188 222.023438 302.117188 213.679688 C 302.117188 205.339844 295.355469 198.578125 287.015625 198.578125 L 271.601562 198.578125 L 271.601562 185 C 271.601562 176.65625 264.839844 169.894531 256.496094 169.894531 C 248.15625 169.894531 241.394531 176.65625 241.394531 185 L 241.394531 199.039062 C 224.121094 201.800781 210.878906 216.800781 210.878906 234.839844 C 210.878906 254.835938 227.144531 271.101562 247.140625 271.101562 L 265.855469 271.101562 C 269.195312 271.101562 271.910156 273.820312 271.910156 277.160156 C 271.910156 280.5 269.195312 283.214844 265.855469 283.214844 L 225.980469 283.214844 C 217.640625 283.214844 210.878906 289.976562 210.878906 298.316406 C 210.878906 306.660156 217.640625 313.421875 225.980469 313.421875 L 241.394531 313.421875 L 241.394531 327 C 241.394531 335.339844 248.15625 342.101562 256.496094 342.101562 C 264.839844 342.101562 271.601562 335.339844 271.601562 327 L 271.601562 312.960938 C 288.875 310.199219 302.117188 295.199219 302.117188 277.160156 C 302.117188 257.164062 285.851562 240.894531 265.855469 240.894531 Z M 265.855469 240.894531 " style=" stroke:none;fill-rule:nonzero;fill:rgb(100%,72.54902%,61.568627%);fill-opacity:1;" />
<path d="M 380.605469 116.789062 L 132.394531 116.789062 C 124.050781 116.789062 117.289062 123.550781 117.289062 131.890625 L 117.289062 380.105469 C 117.289062 388.445312 124.050781 395.210938 132.394531 395.210938 L 380.605469 395.210938 C 388.945312 395.210938 395.710938 388.445312 395.710938 380.105469 L 395.710938 131.890625 C 395.707031 123.550781 388.945312 116.789062 380.605469 116.789062 Z M 365.5 365.003906 L 147.496094 365.003906 L 147.496094 146.996094 L 365.503906 146.996094 L 365.503906 365.003906 Z M 365.5 365.003906 " style=" stroke:none;fill-rule:nonzero;fill:rgb(100%,72.54902%,61.568627%);fill-opacity:1;" />
<path d="M 302.121094 277.15625 C 302.121094 295.199219 288.878906 310.203125 271.601562 312.960938 L 271.601562 326.996094 C 271.601562 335.34375 264.835938 342.097656 256.5 342.097656 L 256.5 283.21875 L 265.851562 283.21875 C 269.195312 283.21875 271.914062 280.5 271.914062 277.15625 C 271.914062 273.824219 269.195312 271.105469 265.851562 271.105469 L 256.5 271.105469 L 256.5 240.898438 L 265.851562 240.898438 C 285.847656 240.898438 302.121094 257.160156 302.121094 277.15625 Z M 302.121094 277.15625 " style=" stroke:none;fill-rule:nonzero;fill:rgb(100%,63.137255%,48.235294%);fill-opacity:1;" />
<path d="M 287.015625 228.785156 L 256.5 228.785156 L 256.5 169.894531 C 264.835938 169.894531 271.601562 176.660156 271.601562 184.996094 L 271.601562 198.578125 L 287.015625 198.578125 C 295.355469 198.578125 302.121094 205.34375 302.121094 213.683594 C 302.121094 222.019531 295.355469 228.785156 287.015625 228.785156 Z M 287.015625 228.785156 " style=" stroke:none;fill-rule:nonzero;fill:rgb(100%,63.137255%,48.235294%);fill-opacity:1;" />
<path d="M 380.605469 116.789062 L 256.5 116.789062 L 256.5 146.996094 L 365.503906 146.996094 L 365.503906 365.003906 L 256.5 365.003906 L 256.5 395.210938 L 380.605469 395.210938 C 388.945312 395.210938 395.710938 388.445312 395.710938 380.109375 L 395.710938 131.894531 C 395.710938 123.554688 388.945312 116.789062 380.605469 116.789062 Z M 380.605469 116.789062 " style=" stroke:none;fill-rule:nonzero;fill:rgb(100%,63.137255%,48.235294%);fill-opacity:1;" />
</g>
</svg>