<svg xmlns="http://www.w3.org/2000/svg" height="511pt" version="1.1" viewBox="1 0 511.99999 511" width="511pt">
<g id="surface1">
<path d="M 385.554688 77.339844 L 126.445312 77.339844 C 117.980469 77.339844 111.125 70.472656 111.125 62.015625 C 111.125 53.546875 117.980469 46.691406 126.445312 46.691406 L 348.5625 46.691406 L 328.53125 26.660156 C 322.542969 20.671875 322.542969 10.96875 328.53125 4.980469 C 334.515625 -0.992188 344.210938 -0.992188 350.195312 4.980469 L 396.390625 51.175781 C 406.015625 60.796875 399.199219 77.339844 385.554688 77.339844 Z M 385.554688 77.339844 " style=" stroke:none;fill-rule:nonzero;fill:rgb(0%,86.666667%,50.196078%);fill-opacity:1;" />
<path d="M 400.875 450.039062 C 400.875 458.5 394.019531 465.363281 385.554688 465.363281 L 163.4375 465.363281 L 183.46875 485.394531 C 189.457031 491.382812 189.457031 501.085938 183.46875 507.074219 C 177.484375 513.050781 167.789062 513.050781 161.804688 507.074219 L 115.609375 460.878906 C 105.984375 451.253906 112.800781 434.714844 126.445312 434.714844 L 385.554688 434.714844 C 394.019531 434.714844 400.875 441.582031 400.875 450.039062 Z M 400.875 450.039062 " style=" stroke:none;fill-rule:nonzero;fill:rgb(0%,100%,58.039216%);fill-opacity:1;" />
<path d="M 443.015625 366.222656 L 15.324219 366.222656 C 6.859375 366.222656 0 359.359375 0 350.898438 L 0 116.203125 C 0 107.738281 6.859375 100.878906 15.324219 100.878906 L 443.015625 100.878906 C 451.476562 100.878906 458.339844 107.738281 458.339844 116.203125 L 458.339844 350.898438 C 458.339844 359.359375 451.476562 366.222656 443.015625 366.222656 Z M 443.015625 366.222656 " style=" stroke:none;fill-rule:nonzero;fill:rgb(65.098039%,100%,70.980392%);fill-opacity:1;" />
<path d="M 443.015625 100.878906 L 229.164062 100.878906 L 229.164062 366.214844 L 443.015625 366.214844 C 451.472656 366.214844 458.339844 359.359375 458.339844 350.894531 L 458.339844 116.203125 C 458.339844 107.742188 451.472656 100.878906 443.015625 100.878906 Z M 443.015625 100.878906 " style=" stroke:none;fill-rule:nonzero;fill:rgb(0%,100%,58.039216%);fill-opacity:1;" />
<path d="M 30.648438 131.523438 L 427.695312 131.523438 L 427.695312 335.578125 L 30.648438 335.578125 Z M 30.648438 131.523438 " style=" stroke:none;fill-rule:nonzero;fill:rgb(0%,93.333333%,54.117647%);fill-opacity:1;" />
<path d="M 229.164062 131.523438 L 427.695312 131.523438 L 427.695312 335.578125 L 229.164062 335.578125 Z M 229.164062 131.523438 " style=" stroke:none;fill-rule:nonzero;fill:rgb(0%,80%,46.27451%);fill-opacity:1;" />
<path d="M 384.511719 181.210938 C 377.871094 181.210938 372.472656 175.808594 372.472656 169.171875 C 372.472656 160.707031 365.613281 153.847656 357.148438 153.847656 L 101.191406 153.847656 C 92.726562 153.847656 85.867188 160.707031 85.867188 169.171875 C 85.867188 175.808594 80.464844 181.210938 73.828125 181.210938 C 65.363281 181.210938 58.503906 188.070312 58.503906 196.53125 L 58.503906 270.570312 C 58.503906 279.035156 65.363281 285.894531 73.828125 285.894531 C 80.464844 285.894531 85.867188 291.296875 85.867188 297.933594 C 85.867188 306.394531 92.726562 313.257812 101.191406 313.257812 L 357.148438 313.257812 C 365.613281 313.257812 372.472656 306.394531 372.472656 297.933594 C 372.472656 291.296875 377.875 285.894531 384.511719 285.894531 C 392.972656 285.894531 399.835938 279.035156 399.835938 270.570312 L 399.835938 196.53125 C 399.835938 188.070312 392.972656 181.210938 384.511719 181.210938 Z M 384.511719 181.210938 " style=" stroke:none;fill-rule:nonzero;fill:rgb(0%,86.666667%,50.196078%);fill-opacity:1;" />
<path d="M 384.511719 181.214844 C 377.871094 181.214844 372.46875 175.808594 372.46875 169.167969 C 372.46875 160.710938 365.613281 153.847656 357.144531 153.847656 L 229.164062 153.847656 C 229.164062 191.0625 229.164062 282.546875 229.164062 313.257812 L 357.144531 313.257812 C 365.613281 313.257812 372.46875 306.394531 372.46875 297.933594 C 372.46875 291.296875 377.871094 285.890625 384.511719 285.890625 C 392.96875 285.890625 399.835938 279.035156 399.835938 270.566406 L 399.835938 196.535156 C 399.835938 188.066406 392.96875 181.214844 384.511719 181.214844 Z M 384.511719 181.214844 " style=" stroke:none;fill-rule:nonzero;fill:rgb(0%,66.666667%,38.823529%);fill-opacity:1;" />
<path d="M 369.191406 209.007812 L 369.191406 258.09375 C 357.953125 262.425781 349.003906 271.375 344.671875 282.609375 L 113.667969 282.609375 C 109.339844 271.375 100.378906 262.425781 89.152344 258.09375 L 89.152344 209.007812 C 100.378906 204.675781 109.339844 195.730469 113.667969 184.492188 L 344.671875 184.492188 C 349.003906 195.730469 357.953125 204.675781 369.191406 209.007812 Z M 369.191406 209.007812 " style=" stroke:none;fill-rule:nonzero;fill:rgb(77.254902%,100%,80.392157%);fill-opacity:1;" />
<path d="M 369.191406 209.007812 L 369.191406 258.09375 C 357.953125 262.425781 349.003906 271.375 344.671875 282.609375 L 229.164062 282.609375 L 229.164062 184.492188 L 344.671875 184.492188 C 349.003906 195.730469 357.953125 204.675781 369.191406 209.007812 Z M 369.191406 209.007812 " style=" stroke:none;fill-rule:nonzero;fill:rgb(65.098039%,100%,70.980392%);fill-opacity:1;" />
<path d="M 229.078125 277.078125 C 205.074219 277.078125 185.550781 257.550781 185.550781 233.550781 C 185.550781 209.550781 205.074219 190.023438 229.078125 190.023438 C 253.078125 190.023438 272.605469 209.550781 272.605469 233.550781 C 272.605469 257.550781 253.078125 277.078125 229.078125 277.078125 Z M 229.078125 220.667969 C 221.972656 220.667969 216.195312 226.449219 216.195312 233.550781 C 216.195312 240.652344 221.972656 246.429688 229.078125 246.429688 C 236.179688 246.429688 241.957031 240.652344 241.957031 233.550781 C 241.957031 226.449219 236.179688 220.667969 229.078125 220.667969 Z M 229.078125 220.667969 " style=" stroke:none;fill-rule:nonzero;fill:rgb(0%,86.666667%,50.196078%);fill-opacity:1;" />
<path d="M 229.164062 335.566406 L 229.164062 335.578125 L 427.695312 335.578125 L 427.695312 335.566406 Z M 229.164062 335.566406 " style=" stroke:none;fill-rule:nonzero;fill:rgb(65.098039%,100%,70.980392%);fill-opacity:1;" />
<path d="M 229.164062 190.019531 L 229.164062 220.664062 C 236.234375 220.714844 241.953125 226.476562 241.953125 233.546875 C 241.953125 240.625 236.234375 246.378906 229.164062 246.429688 L 229.164062 277.074219 C 253.128906 277.023438 272.601562 257.523438 272.601562 233.546875 C 272.601562 209.582031 253.128906 190.070312 229.164062 190.019531 Z M 229.164062 190.019531 " style=" stroke:none;fill-rule:nonzero;fill:rgb(0%,66.666667%,38.823529%);fill-opacity:1;" />
<path d="M 496.675781 419.183594 L 68.984375 419.183594 C 60.519531 419.183594 53.660156 412.324219 53.660156 403.863281 L 53.660156 169.167969 C 53.660156 160.703125 60.519531 153.84375 68.984375 153.84375 L 496.675781 153.84375 C 505.136719 153.84375 511.996094 160.703125 511.996094 169.167969 L 511.996094 403.863281 C 512 412.324219 505.136719 419.183594 496.675781 419.183594 Z M 496.675781 419.183594 " style=" stroke:none;fill-rule:nonzero;fill:rgb(77.254902%,100%,80.392157%);fill-opacity:1;" />
<path d="M 496.675781 153.84375 L 282.824219 153.84375 L 282.824219 419.179688 L 496.675781 419.179688 C 505.136719 419.179688 512 412.324219 512 403.855469 L 512 169.167969 C 512 160.707031 505.136719 153.84375 496.675781 153.84375 Z M 496.675781 153.84375 " style=" stroke:none;fill-rule:nonzero;fill:rgb(65.098039%,100%,70.980392%);fill-opacity:1;" />
<path d="M 84.308594 184.488281 L 481.355469 184.488281 L 481.355469 388.542969 L 84.308594 388.542969 Z M 84.308594 184.488281 " style=" stroke:none;fill-rule:nonzero;fill:rgb(0%,100%,58.039216%);fill-opacity:1;" />
<path d="M 481.355469 184.488281 L 481.355469 388.542969 L 282.824219 388.542969 L 282.824219 184.488281 " style=" stroke:none;fill-rule:nonzero;fill:rgb(0%,86.666667%,50.196078%);fill-opacity:1;" />
<path d="M 438.171875 234.171875 C 431.53125 234.171875 426.132812 228.773438 426.132812 222.136719 C 426.132812 213.671875 419.273438 206.8125 410.808594 206.8125 L 154.847656 206.8125 C 146.386719 206.8125 139.527344 213.671875 139.527344 222.136719 C 139.527344 228.773438 134.125 234.171875 127.488281 234.171875 C 119.023438 234.171875 112.164062 241.035156 112.164062 249.496094 L 112.164062 323.535156 C 112.164062 331.996094 119.023438 338.859375 127.488281 338.859375 C 134.125 338.859375 139.527344 344.257812 139.527344 350.898438 C 139.527344 359.359375 146.386719 366.222656 154.847656 366.222656 L 410.808594 366.222656 C 419.273438 366.222656 426.132812 359.359375 426.132812 350.898438 C 426.132812 344.257812 431.535156 338.859375 438.171875 338.859375 C 446.632812 338.859375 453.496094 331.996094 453.496094 323.535156 L 453.496094 249.496094 C 453.496094 241.035156 446.632812 234.171875 438.171875 234.171875 Z M 438.171875 234.171875 " style=" stroke:none;fill-rule:nonzero;fill:rgb(0%,86.666667%,50.196078%);fill-opacity:1;" />
<path d="M 438.171875 234.175781 C 431.53125 234.175781 426.128906 228.773438 426.128906 222.132812 C 426.128906 213.675781 419.273438 206.808594 410.804688 206.808594 L 282.824219 206.808594 C 282.824219 244.027344 282.824219 335.511719 282.824219 366.222656 L 410.804688 366.222656 C 419.273438 366.222656 426.128906 359.359375 426.128906 350.898438 C 426.128906 344.257812 431.53125 338.855469 438.171875 338.855469 C 446.632812 338.855469 453.496094 332 453.496094 323.53125 L 453.496094 249.5 C 453.496094 241.03125 446.632812 234.175781 438.171875 234.175781 Z M 438.171875 234.175781 " style=" stroke:none;fill-rule:nonzero;fill:rgb(0%,66.666667%,38.823529%);fill-opacity:1;" />
<path d="M 422.847656 261.972656 L 422.847656 311.058594 C 411.613281 315.390625 402.664062 324.339844 398.332031 335.574219 L 167.328125 335.574219 C 163 324.339844 154.039062 315.390625 142.8125 311.058594 L 142.8125 261.972656 C 154.039062 257.640625 163 248.691406 167.328125 237.457031 L 398.332031 237.457031 C 402.664062 248.691406 411.613281 257.640625 422.847656 261.972656 Z M 422.847656 261.972656 " style=" stroke:none;fill-rule:nonzero;fill:rgb(77.254902%,100%,80.392157%);fill-opacity:1;" />
<path d="M 422.847656 261.972656 L 422.847656 311.058594 C 411.613281 315.390625 402.664062 324.339844 398.332031 335.574219 L 282.824219 335.574219 L 282.824219 237.457031 L 398.332031 237.457031 C 402.664062 248.691406 411.613281 257.640625 422.847656 261.972656 Z M 422.847656 261.972656 " style=" stroke:none;fill-rule:nonzero;fill:rgb(65.098039%,100%,70.980392%);fill-opacity:1;" />
<path d="M 282.738281 330.042969 C 258.734375 330.042969 239.207031 310.515625 239.207031 286.515625 C 239.207031 262.515625 258.734375 242.988281 282.738281 242.988281 C 306.738281 242.988281 326.265625 262.515625 326.265625 286.515625 C 326.265625 310.515625 306.738281 330.042969 282.738281 330.042969 Z M 282.738281 273.632812 C 275.632812 273.632812 269.855469 279.410156 269.855469 286.515625 C 269.855469 293.617188 275.632812 299.394531 282.738281 299.394531 C 289.839844 299.394531 295.617188 293.617188 295.617188 286.515625 C 295.617188 279.410156 289.839844 273.632812 282.738281 273.632812 Z M 282.738281 273.632812 " style=" stroke:none;fill-rule:nonzero;fill:rgb(0%,86.666667%,50.196078%);fill-opacity:1;" />
<path d="M 282.824219 388.53125 L 282.824219 388.542969 L 481.355469 388.542969 L 481.355469 388.53125 Z M 282.824219 388.53125 " style=" stroke:none;fill-rule:nonzero;fill:rgb(65.098039%,100%,70.980392%);fill-opacity:1;" />
<path d="M 282.824219 242.984375 L 282.824219 273.628906 C 289.894531 273.679688 295.617188 279.441406 295.617188 286.511719 C 295.617188 293.589844 289.894531 299.34375 282.824219 299.394531 L 282.824219 330.039062 C 306.792969 329.988281 326.261719 310.488281 326.261719 286.511719 C 326.261719 262.546875 306.792969 243.035156 282.824219 242.984375 Z M 282.824219 242.984375 " style=" stroke:none;fill-rule:nonzero;fill:rgb(0%,66.666667%,38.823529%);fill-opacity:1;" />
<path d="M 400.875 450.039062 C 400.875 458.5 394.019531 465.363281 385.554688 465.363281 L 256 465.363281 L 256 434.714844 L 385.554688 434.714844 C 394.019531 434.714844 400.875 441.582031 400.875 450.039062 Z M 400.875 450.039062 " style=" stroke:none;fill-rule:nonzero;fill:rgb(0%,86.666667%,50.196078%);fill-opacity:1;" />
<path d="M 385.554688 77.339844 L 256 77.339844 L 256 46.691406 L 348.5625 46.691406 L 328.53125 26.660156 C 322.542969 20.671875 322.542969 10.96875 328.53125 4.980469 C 334.515625 -0.992188 344.210938 -0.992188 350.195312 4.980469 L 396.390625 51.175781 C 406.015625 60.796875 399.199219 77.339844 385.554688 77.339844 Z M 385.554688 77.339844 " style=" stroke:none;fill-rule:nonzero;fill:rgb(0%,66.666667%,38.823529%);fill-opacity:1;" />
</g>
</svg>