<svg xmlns="http://www.w3.org/2000/svg" height="512pt" version="1.1" viewBox="0 0 512 512.00179" width="512pt">
<g id="surface1">
<path d="M 267.070312 319.363281 C 266.195312 320.363281 173.609375 425.074219 126.488281 478.363281 L 80.105469 431.96875 L 33.636719 385.511719 C 84.65625 340.390625 186.382812 250.441406 192.636719 244.929688 C 198.863281 239.417969 207.679688 239.140625 212.824219 244.300781 C 220.144531 251.625 260.378906 291.859375 267.699219 299.179688 C 272.839844 304.320312 272.59375 313.140625 267.070312 319.363281 Z M 267.070312 319.363281 " style=" stroke:none;fill-rule:nonzero;fill:rgb(0%,100%,58.039216%);fill-opacity:1;" />
<path d="M 126.488281 478.359375 L 80.105469 431.964844 L 80.070312 431.929688 L 240.261719 271.738281 L 267.699219 299.179688 C 272.84375 304.320312 272.59375 313.136719 267.074219 319.359375 C 266.195312 320.363281 173.609375 425.074219 126.488281 478.359375 Z M 126.488281 478.359375 " style=" stroke:none;fill-rule:nonzero;fill:rgb(0%,86.666667%,50.196078%);fill-opacity:1;" />
<path d="M 300.65625 506.738281 C 300.292969 509.753906 297.6875 512 294.648438 512 L 15.457031 512 C 6.9375 512 0 505.078125 0 496.546875 L 0 215.085938 C 0 211.378906 3.296875 208.585938 6.964844 209.101562 C 31.21875 212.492188 49.890625 233.3125 49.902344 258.515625 C 49.902344 273.136719 51.054688 286.273438 41.996094 295.414062 C 61.140625 307.546875 67.566406 330.5625 67.796875 353.296875 C 92.742188 354.074219 115.1875 364.125 131.988281 380.015625 L 132 380.003906 C 132.363281 380.339844 133.257812 381.191406 134.046875 381.984375 L 134.046875 381.992188 C 154.488281 402.460938 164.410156 430.226562 162.496094 458.0625 C 181.84375 460.542969 188.597656 465.171875 197.414062 476.269531 C 204.480469 458.109375 231.375 450.972656 251.097656 450.972656 C 281.015625 450.972656 304.144531 477.066406 300.65625 506.738281 Z M 300.65625 506.738281 " style=" stroke:none;fill-rule:nonzero;fill:rgb(77.254902%,100%,80.392157%);fill-opacity:1;" />
<path d="M 285.136719 320.347656 L 244.859375 360.621094 C 238.824219 366.660156 229.765625 367.378906 224.613281 362.238281 L 149.761719 287.382812 C 144.617188 282.242188 145.339844 273.175781 151.378906 267.136719 L 191.65625 226.863281 Z M 285.136719 320.347656 " style=" stroke:none;fill-rule:nonzero;fill:rgb(100%,48.627451%,28.235294%);fill-opacity:1;" />
<path d="M 285.140625 320.347656 L 244.863281 360.625 C 238.824219 366.664062 229.769531 367.386719 224.609375 362.242188 L 187.183594 324.816406 L 238.394531 273.605469 Z M 285.140625 320.347656 " style=" stroke:none;fill-rule:nonzero;fill:rgb(100%,29.803922%,1.568627%);fill-opacity:1;" />
<path d="M 439.101562 72.898438 C 433.066406 66.863281 433.066406 57.078125 439.101562 51.039062 L 485.617188 4.527344 C 491.652344 -1.507812 501.4375 -1.507812 507.472656 4.527344 C 513.507812 10.5625 513.507812 20.347656 507.472656 26.382812 L 460.957031 72.898438 C 454.921875 78.933594 445.136719 78.933594 439.101562 72.898438 Z M 439.101562 72.898438 " style=" stroke:none;fill-rule:nonzero;fill:rgb(100%,89.411765%,46.666667%);fill-opacity:1;" />
<path d="M 507.472656 4.527344 L 439.101562 72.898438 C 445.136719 78.933594 454.921875 78.933594 460.957031 72.898438 L 507.472656 26.382812 C 513.507812 20.347656 513.507812 10.5625 507.472656 4.527344 Z M 507.472656 4.527344 " style=" stroke:none;fill-rule:nonzero;fill:rgb(100%,80.392157%,0%);fill-opacity:1;" />
<path d="M 198.089844 61.914062 C 191.8125 59.152344 184.988281 60.148438 180.675781 64.460938 L 144.953125 100.183594 C 138.917969 106.21875 139.640625 116.730469 146.570312 123.660156 L 220.546875 197.632812 L 307.917969 110.261719 Z M 198.089844 61.914062 " style=" stroke:none;fill-rule:nonzero;fill:rgb(100%,48.627451%,28.235294%);fill-opacity:1;" />
<path d="M 450.085938 313.910156 L 401.738281 204.082031 L 314.367188 291.453125 L 388.339844 365.429688 C 395.269531 372.355469 405.78125 373.082031 411.816406 367.046875 L 447.539062 331.324219 C 451.851562 327.007812 452.847656 320.1875 450.085938 313.910156 Z M 450.085938 313.910156 " style=" stroke:none;fill-rule:nonzero;fill:rgb(100%,29.803922%,1.568627%);fill-opacity:1;" />
<path d="M 462.183594 169.382812 L 297.171875 334.394531 C 291.132812 340.421875 281.347656 340.421875 275.308594 334.394531 L 227.726562 286.8125 L 177.609375 236.6875 C 171.574219 230.648438 171.574219 220.859375 177.609375 214.832031 L 341.847656 50.585938 C 376.3125 16.121094 431.988281 17.59375 463.429688 51.109375 C 495.113281 84.152344 494.832031 136.722656 462.183594 169.382812 Z M 462.183594 169.382812 " style=" stroke:none;fill-rule:nonzero;fill:rgb(100%,89.411765%,46.666667%);fill-opacity:1;" />
<path d="M 462.1875 169.382812 L 297.175781 334.394531 C 291.136719 340.421875 281.34375 340.421875 275.304688 334.394531 L 226.453125 285.546875 L 462.179688 49.820312 C 494.886719 82.523438 495.472656 136.082031 462.1875 169.382812 Z M 462.1875 169.382812 " style=" stroke:none;fill-rule:nonzero;fill:rgb(100%,80.392157%,0%);fill-opacity:1;" />
<path d="M 462.175781 169.382812 L 457.097656 174.460938 L 337.539062 54.902344 L 342.617188 49.820312 C 375.636719 16.800781 429.164062 16.808594 462.175781 49.820312 C 495.191406 82.835938 495.191406 136.367188 462.175781 169.382812 Z M 462.175781 169.382812 " style=" stroke:none;fill-rule:nonzero;fill:rgb(100%,48.627451%,28.235294%);fill-opacity:1;" />
<path d="M 462.171875 169.382812 L 457.09375 174.460938 L 397.316406 114.683594 L 462.179688 49.820312 C 495.199219 82.835938 495.191406 136.367188 462.171875 169.382812 Z M 462.171875 169.382812 " style=" stroke:none;fill-rule:nonzero;fill:rgb(100%,29.803922%,1.568627%);fill-opacity:1;" />
<path d="M 402.03125 109.980469 L 397.320312 114.679688 C 401.515625 110.476562 401.816406 110.160156 402.03125 109.980469 Z M 402.03125 109.980469 " style=" stroke:none;fill-rule:nonzero;fill:rgb(61.960784%,88.627451%,97.254902%);fill-opacity:1;" />
<path d="M 376.085938 207.167969 C 370.046875 213.203125 360.261719 213.203125 354.234375 207.167969 L 330.800781 183.738281 L 319.3125 172.257812 C 317.355469 170.292969 314.164062 170.292969 312.203125 172.257812 L 312.039062 172.425781 C 310.082031 174.382812 310.082031 177.574219 312.039062 179.535156 L 323.519531 191.023438 L 332.460938 199.964844 C 346.515625 214.007812 346.503906 236.75 332.460938 250.792969 C 318.714844 264.527344 296.472656 264.824219 282.367188 251.480469 C 281.046875 252.542969 279.769531 254.058594 278.285156 255.59375 C 268.640625 265.585938 259.71875 260.796875 256.308594 258.230469 C 255.597656 257.695312 255.125 257.253906 254.9375 257.066406 C 248.898438 251.027344 248.898438 241.242188 254.9375 235.203125 L 260.492188 229.648438 L 246.726562 215.875 C 240.6875 209.847656 240.6875 200.058594 246.726562 194.019531 C 252.765625 187.980469 262.542969 187.980469 268.578125 194.019531 C 274.308594 199.75 285.582031 211.019531 294.554688 219.984375 C 298.027344 223.457031 301.160156 226.589844 303.488281 228.929688 C 305.457031 230.894531 308.640625 230.894531 310.609375 228.929688 C 312.574219 226.960938 312.566406 223.777344 310.609375 221.820312 L 290.1875 201.398438 C 276.132812 187.34375 276.132812 164.605469 290.1875 150.558594 L 290.351562 150.394531 C 304.117188 136.628906 326.382812 136.402344 340.4375 149.703125 L 346.019531 144.121094 C 352.058594 138.09375 361.835938 138.082031 367.875 144.121094 C 368.308594 144.554688 368.707031 144.996094 369.070312 145.46875 C 373.882812 151.539062 373.480469 160.378906 367.875 165.984375 L 362.308594 171.539062 L 376.085938 185.3125 C 382.125 191.339844 382.125 201.128906 376.085938 207.167969 Z M 376.085938 207.167969 " style=" stroke:none;fill-rule:nonzero;fill:rgb(100%,48.627451%,28.235294%);fill-opacity:1;" />
<path d="M 282.363281 251.480469 C 281.050781 252.542969 279.769531 254.058594 278.289062 255.59375 C 268.644531 265.589844 259.710938 260.796875 256.300781 258.234375 C 255.59375 257.703125 255.121094 257.257812 254.933594 257.066406 L 293.285156 218.714844 L 294.550781 219.984375 C 298.027344 223.457031 301.160156 226.589844 303.484375 228.929688 C 305.449219 230.894531 308.640625 230.894531 310.609375 228.929688 C 312.574219 226.960938 312.570312 223.777344 310.609375 221.816406 L 300.394531 211.601562 L 322.242188 189.753906 L 332.457031 199.96875 C 346.511719 214.007812 346.503906 236.746094 332.457031 250.792969 C 318.710938 264.527344 296.46875 264.828125 282.363281 251.480469 Z M 282.363281 251.480469 " style=" stroke:none;fill-rule:nonzero;fill:rgb(100%,29.803922%,1.568627%);fill-opacity:1;" />
<path d="M 329.53125 182.46875 L 367.875 144.125 C 368.304688 144.554688 368.707031 145 369.070312 145.464844 C 373.878906 151.539062 373.476562 160.378906 367.875 165.980469 L 362.308594 171.53125 L 376.085938 185.308594 C 382.125 191.335938 382.125 201.125 376.085938 207.167969 C 370.046875 213.207031 360.261719 213.199219 354.230469 207.167969 Z M 329.53125 182.46875 " style=" stroke:none;fill-rule:nonzero;fill:rgb(100%,29.803922%,1.568627%);fill-opacity:1;" />
<path d="M 300.65625 506.738281 C 300.292969 509.753906 297.6875 512 294.648438 512 L 15.457031 512 C 11.191406 512 7.328125 510.269531 4.535156 507.46875 L 132 380.003906 C 151.898438 398.152344 164.609375 427.292969 162.496094 458.0625 C 179.367188 460.222656 187.625 463.703125 197.40625 476.257812 C 204.507812 458.113281 231.371094 450.972656 251.097656 450.972656 C 280.898438 450.972656 304.15625 476.960938 300.65625 506.738281 Z M 300.65625 506.738281 " style=" stroke:none;fill-rule:nonzero;fill:rgb(65.098039%,100%,70.980392%);fill-opacity:1;" />
</g>
</svg>