<svg xmlns="http://www.w3.org/2000/svg" height="512pt" version="1.1" viewBox="0 -4 512.00085 512" width="512pt">
<g id="surface1">
<path d="M 511.460938 490.210938 L 494.265625 438.234375 C 493.53125 436.015625 493.558594 433.613281 494.347656 431.410156 L 511 384.949219 C 513.445312 378.125 508.386719 370.941406 501.136719 370.941406 L 411.972656 370.941406 C 406.1875 370.941406 401.496094 375.628906 401.496094 381.414062 L 401.496094 493.5 C 401.496094 499.285156 406.1875 503.972656 411.972656 503.972656 L 501.519531 503.972656 C 508.65625 503.976562 513.707031 496.988281 511.460938 490.210938 Z M 511.460938 490.210938 " style=" stroke:none;fill-rule:nonzero;fill:rgb(100%,29.803922%,1.568627%);fill-opacity:1;" />
<path d="M 113.132812 105.140625 L 398.753906 105.140625 L 398.753906 318.742188 L 113.132812 318.742188 Z M 113.132812 105.140625 " style=" stroke:none;fill-rule:nonzero;fill:rgb(61.960784%,88.627451%,97.254902%);fill-opacity:1;" />
<path d="M 255.941406 105.136719 L 398.75 105.136719 L 398.75 318.738281 L 255.941406 318.738281 Z M 255.941406 105.136719 " style=" stroke:none;fill-rule:nonzero;fill:rgb(49.411765%,84.705882%,96.470588%);fill-opacity:1;" />
<path d="M 367.929688 63.332031 L 143.953125 63.332031 L 143.953125 13.882812 C 143.953125 6.214844 150.167969 0 157.835938 0 L 354.046875 0 C 361.714844 0 367.929688 6.214844 367.929688 13.882812 Z M 367.929688 63.332031 " style=" stroke:none;fill-rule:nonzero;fill:rgb(18.431373%,75.294118%,94.117647%);fill-opacity:1;" />
<path d="M 367.929688 13.878906 L 367.929688 63.332031 L 255.941406 63.332031 L 255.941406 0 L 354.050781 0 C 361.71875 0 367.929688 6.214844 367.929688 13.878906 Z M 367.929688 13.878906 " style=" stroke:none;fill-rule:nonzero;fill:rgb(5.882353%,66.27451%,86.666667%);fill-opacity:1;" />
<path d="M 110.394531 381.414062 L 110.394531 493.503906 C 110.394531 499.285156 105.699219 503.980469 99.917969 503.980469 L 10.621094 503.980469 C 3.402344 503.980469 -1.648438 496.855469 0.722656 490.046875 L 17.5625 441.78125 C 18.339844 439.582031 18.339844 437.179688 17.597656 434.960938 L 0.5625 384.785156 C -1.742188 377.988281 3.308594 370.9375 10.484375 370.9375 L 99.917969 370.9375 C 105.699219 370.9375 110.394531 375.632812 110.394531 381.414062 Z M 110.394531 381.414062 " style=" stroke:none;fill-rule:nonzero;fill:rgb(100%,29.803922%,1.568627%);fill-opacity:1;" />
<path d="M 110.394531 425.0625 L 110.394531 493.503906 C 110.394531 499.285156 105.699219 503.980469 99.917969 503.980469 L 64.660156 461.230469 L 64.660156 425.0625 Z M 110.394531 425.0625 " style=" stroke:none;fill-rule:nonzero;fill:rgb(100%,72.54902%,61.568627%);fill-opacity:1;" />
<path d="M 401.496094 425.0625 L 401.496094 493.503906 C 401.496094 499.285156 406.1875 503.980469 411.96875 503.980469 L 447.230469 461.230469 L 447.230469 425.0625 Z M 401.496094 425.0625 " style=" stroke:none;fill-rule:nonzero;fill:rgb(100%,72.54902%,61.568627%);fill-opacity:1;" />
<path d="M 431.511719 298.570312 L 80.371094 298.570312 C 71.695312 298.570312 64.660156 305.605469 64.660156 314.28125 L 64.660156 461.230469 L 447.222656 461.230469 L 447.222656 314.28125 C 447.222656 305.605469 440.1875 298.570312 431.511719 298.570312 Z M 431.511719 298.570312 " style=" stroke:none;fill-rule:nonzero;fill:rgb(100%,48.627451%,28.235294%);fill-opacity:1;" />
<path d="M 447.222656 314.28125 L 447.222656 461.230469 L 255.941406 461.230469 L 255.941406 298.566406 L 431.511719 298.566406 C 440.183594 298.566406 447.222656 305.605469 447.222656 314.28125 Z M 447.222656 314.28125 " style=" stroke:none;fill-rule:nonzero;fill:rgb(100%,39.215686%,14.901961%);fill-opacity:1;" />
<path d="M 149.644531 338.984375 L 161.621094 355.417969 C 162.484375 356.601562 163.695312 357.488281 165.085938 357.949219 L 184.839844 364.539062 C 189.410156 366.0625 191.136719 371.625 188.230469 375.46875 L 176.136719 391.460938 C 175.199219 392.699219 174.699219 394.214844 174.710938 395.769531 L 174.890625 416.605469 C 174.929688 421.488281 170.109375 424.933594 165.503906 423.304688 L 146.296875 416.53125 C 144.777344 415.996094 143.125 415.996094 141.609375 416.53125 L 122.402344 423.304688 C 117.796875 424.933594 112.972656 421.488281 113.015625 416.605469 L 113.195312 395.769531 C 113.207031 394.214844 112.707031 392.699219 111.769531 391.460938 L 99.675781 375.46875 C 96.769531 371.625 98.492188 366.0625 103.066406 364.539062 L 122.816406 357.949219 C 124.207031 357.488281 125.417969 356.601562 126.28125 355.417969 L 138.261719 338.984375 C 141.074219 335.125 146.832031 335.125 149.644531 338.984375 Z M 149.644531 338.984375 " style=" stroke:none;fill-rule:nonzero;fill:rgb(100%,87.058824%,33.333333%);fill-opacity:1;" />
<path d="M 261.632812 338.984375 L 273.609375 355.417969 C 274.472656 356.601562 275.683594 357.488281 277.074219 357.949219 L 296.828125 364.539062 C 301.398438 366.0625 303.125 371.625 300.21875 375.46875 L 288.125 391.460938 C 287.1875 392.699219 286.6875 394.214844 286.699219 395.769531 L 286.875 416.605469 C 286.917969 421.488281 282.097656 424.933594 277.492188 423.304688 L 258.285156 416.53125 C 256.765625 415.996094 255.113281 415.996094 253.597656 416.53125 L 234.390625 423.304688 C 229.785156 424.933594 224.960938 421.488281 225.003906 416.605469 L 225.183594 395.769531 C 225.195312 394.214844 224.695312 392.699219 223.757812 391.460938 L 211.664062 375.46875 C 208.757812 371.625 210.480469 366.0625 215.050781 364.539062 L 234.804688 357.949219 C 236.195312 357.488281 237.40625 356.601562 238.269531 355.417969 L 250.25 338.984375 C 253.0625 335.125 258.820312 335.125 261.632812 338.984375 Z M 261.632812 338.984375 " style=" stroke:none;fill-rule:nonzero;fill:rgb(100%,87.058824%,33.333333%);fill-opacity:1;" />
<path d="M 300.21875 375.464844 L 288.121094 391.457031 C 287.1875 392.695312 286.683594 394.214844 286.695312 395.765625 L 286.875 416.609375 C 286.914062 421.488281 282.097656 424.9375 277.488281 423.300781 L 258.289062 416.523438 C 257.535156 416.253906 256.738281 416.125 255.941406 416.125 L 255.941406 336.089844 C 258.078125 336.089844 260.226562 337.050781 261.628906 338.980469 L 273.613281 355.414062 C 274.472656 356.597656 275.6875 357.488281 277.070312 357.949219 L 296.824219 364.539062 C 301.402344 366.058594 303.121094 371.617188 300.21875 375.464844 Z M 300.21875 375.464844 " style=" stroke:none;fill-rule:nonzero;fill:rgb(100%,80.392157%,0%);fill-opacity:1;" />
<path d="M 373.621094 338.984375 L 385.601562 355.417969 C 386.460938 356.601562 387.671875 357.488281 389.0625 357.949219 L 408.816406 364.539062 C 413.386719 366.0625 415.113281 371.625 412.207031 375.46875 L 400.113281 391.460938 C 399.175781 392.699219 398.675781 394.214844 398.6875 395.769531 L 398.867188 416.605469 C 398.90625 421.488281 394.085938 424.933594 389.480469 423.304688 L 370.273438 416.53125 C 368.757812 415.996094 367.101562 415.996094 365.585938 416.53125 L 346.378906 423.304688 C 341.773438 424.933594 336.949219 421.488281 336.992188 416.605469 L 337.171875 395.769531 C 337.183594 394.214844 336.683594 392.699219 335.746094 391.460938 L 323.652344 375.46875 C 320.746094 371.625 322.46875 366.0625 327.042969 364.539062 L 346.796875 357.949219 C 348.183594 357.488281 349.394531 356.601562 350.257812 355.417969 L 362.238281 338.984375 C 365.050781 335.125 370.808594 335.125 373.621094 338.984375 Z M 373.621094 338.984375 " style=" stroke:none;fill-rule:nonzero;fill:rgb(100%,87.058824%,33.333333%);fill-opacity:1;" />
<path d="M 412.207031 375.464844 L 400.109375 391.457031 C 399.175781 392.695312 398.671875 394.214844 398.683594 395.765625 L 398.863281 416.609375 C 398.902344 421.488281 394.085938 424.9375 389.476562 423.300781 L 370.277344 416.523438 C 369.523438 416.253906 368.726562 416.125 367.929688 416.125 L 367.929688 336.089844 C 370.066406 336.089844 372.214844 337.050781 373.617188 338.980469 L 385.601562 355.414062 C 386.460938 356.597656 387.675781 357.488281 389.058594 357.949219 L 408.8125 364.539062 C 413.390625 366.058594 415.109375 371.617188 412.207031 375.464844 Z M 412.207031 375.464844 " style=" stroke:none;fill-rule:nonzero;fill:rgb(100%,80.392157%,0%);fill-opacity:1;" />
<path d="M 293.269531 51.988281 L 218.613281 51.988281 L 196.945312 113.433594 L 314.9375 113.433594 Z M 293.269531 51.988281 " style=" stroke:none;fill-rule:nonzero;fill:rgb(100%,72.54902%,61.568627%);fill-opacity:1;" />
<path d="M 78.949219 113.433594 L 78.949219 123.179688 C 78.949219 153.097656 103.203125 177.355469 133.125 177.355469 L 142.769531 177.355469 C 172.6875 177.355469 196.945312 153.097656 196.945312 123.179688 L 196.945312 113.433594 Z M 78.949219 113.433594 " style=" stroke:none;fill-rule:nonzero;fill:rgb(100%,43.921569%,21.568627%);fill-opacity:1;" />
<path d="M 196.945312 113.433594 L 196.945312 123.179688 C 196.945312 153.097656 221.199219 177.355469 251.117188 177.355469 L 260.761719 177.355469 C 290.683594 177.355469 314.9375 153.097656 314.9375 123.179688 L 314.9375 113.433594 Z M 196.945312 113.433594 " style=" stroke:none;fill-rule:nonzero;fill:rgb(100%,63.137255%,48.235294%);fill-opacity:1;" />
<path d="M 314.9375 113.433594 L 314.9375 123.179688 C 314.9375 153.097656 339.191406 177.355469 369.113281 177.355469 L 378.757812 177.355469 C 408.679688 177.355469 432.933594 153.097656 432.933594 123.179688 L 432.933594 113.433594 Z M 314.9375 113.433594 " style=" stroke:none;fill-rule:nonzero;fill:rgb(100%,43.921569%,21.568627%);fill-opacity:1;" />
<path d="M 284.105469 205.136719 L 227.777344 205.136719 C 207.035156 205.136719 190.21875 221.953125 190.21875 242.699219 L 190.21875 298.570312 L 321.664062 298.570312 L 321.664062 242.699219 C 321.664062 221.953125 304.847656 205.136719 284.105469 205.136719 Z M 284.105469 205.136719 " style=" stroke:none;fill-rule:nonzero;fill:rgb(18.431373%,75.294118%,94.117647%);fill-opacity:1;" />
<path d="M 321.660156 242.695312 L 321.660156 298.566406 L 255.941406 298.566406 L 255.941406 205.140625 L 284.109375 205.140625 C 304.847656 205.140625 321.660156 221.953125 321.660156 242.695312 Z M 321.660156 242.695312 " style=" stroke:none;fill-rule:nonzero;fill:rgb(5.882353%,66.27451%,86.666667%);fill-opacity:1;" />
<path d="M 432.9375 113.425781 L 367.9375 51.988281 L 143.945312 51.988281 L 78.945312 113.425781 L 78.945312 113.4375 L 78.949219 113.4375 L 78.949219 123.179688 C 78.949219 153.097656 103.203125 177.351562 133.125 177.351562 L 142.769531 177.351562 C 172.6875 177.351562 196.945312 153.097656 196.945312 123.179688 C 196.945312 153.097656 221.199219 177.351562 251.121094 177.351562 L 260.765625 177.351562 C 290.683594 177.351562 314.9375 153.097656 314.9375 123.179688 C 314.9375 153.097656 339.195312 177.351562 369.113281 177.351562 L 378.757812 177.351562 C 408.679688 177.351562 432.933594 153.097656 432.933594 123.179688 L 432.933594 113.4375 L 432.9375 113.4375 Z M 432.9375 113.425781 " style=" stroke:none;fill-rule:nonzero;fill:rgb(100%,29.803922%,1.568627%);fill-opacity:1;" />
<path d="M 188.230469 375.464844 L 176.132812 391.457031 C 175.199219 392.695312 174.695312 394.214844 174.707031 395.765625 L 174.882812 416.609375 C 174.925781 421.488281 170.109375 424.9375 165.5 423.300781 L 146.296875 416.523438 C 145.542969 416.253906 144.75 416.125 143.953125 416.125 L 143.953125 336.089844 C 146.089844 336.089844 148.238281 337.050781 149.640625 338.980469 L 161.625 355.414062 C 162.480469 356.597656 163.699219 357.488281 165.082031 357.949219 L 184.835938 364.539062 C 189.414062 366.058594 191.132812 371.617188 188.230469 375.464844 Z M 188.230469 375.464844 " style=" stroke:none;fill-rule:nonzero;fill:rgb(100%,80.392157%,0%);fill-opacity:1;" />
<path d="M 367.9375 51.988281 L 143.945312 51.988281 L 78.945312 113.425781 L 78.945312 113.4375 L 432.9375 113.4375 L 432.9375 113.425781 Z M 367.9375 51.988281 " style=" stroke:none;fill-rule:nonzero;fill:rgb(100%,53.333333%,34.901961%);fill-opacity:1;" />
<path d="M 293.269531 51.988281 L 218.613281 51.988281 L 196.945312 113.433594 L 314.9375 113.433594 Z M 293.269531 51.988281 " style=" stroke:none;fill-rule:nonzero;fill:rgb(100%,72.54902%,61.568627%);fill-opacity:1;" />
<path d="M 78.949219 113.433594 L 78.949219 123.179688 C 78.949219 153.097656 103.203125 177.355469 133.125 177.355469 L 142.769531 177.355469 C 172.6875 177.355469 196.945312 153.097656 196.945312 123.179688 L 196.945312 113.433594 Z M 78.949219 113.433594 " style=" stroke:none;fill-rule:nonzero;fill:rgb(100%,29.803922%,1.568627%);fill-opacity:1;" />
<path d="M 196.945312 113.433594 L 196.945312 123.179688 C 196.945312 153.097656 221.199219 177.355469 251.117188 177.355469 L 260.761719 177.355469 C 290.683594 177.355469 314.9375 153.097656 314.9375 123.179688 L 314.9375 113.433594 Z M 196.945312 113.433594 " style=" stroke:none;fill-rule:nonzero;fill:rgb(100%,63.137255%,48.235294%);fill-opacity:1;" />
<path d="M 314.9375 113.433594 L 314.9375 123.179688 C 314.9375 153.097656 339.191406 177.355469 369.113281 177.355469 L 378.757812 177.355469 C 408.679688 177.355469 432.933594 153.097656 432.933594 123.179688 L 432.933594 113.433594 Z M 314.9375 113.433594 " style=" stroke:none;fill-rule:nonzero;fill:rgb(100%,29.803922%,1.568627%);fill-opacity:1;" />
</g>
</svg>