<svg xmlns="http://www.w3.org/2000/svg" height="511pt" version="1.1" viewBox="-12 0 511 511.99943" width="511pt">
<g id="surface1">
<path d="M 427.738281 63.585938 C 425.285156 57.675781 419.511719 53.824219 413.113281 53.824219 L 74.941406 53.824219 C 68.542969 53.824219 62.769531 57.675781 60.316406 63.585938 C 57.859375 69.496094 59.203125 76.304688 63.722656 80.839844 L 195.152344 223.941406 L 195.152344 329.574219 C 195.152344 338.320312 202.242188 345.410156 210.988281 345.410156 L 277.066406 345.410156 C 285.8125 345.410156 292.902344 338.320312 292.902344 329.574219 L 292.902344 223.941406 L 424.332031 80.839844 C 428.847656 76.304688 430.191406 69.496094 427.738281 63.585938 Z M 427.738281 63.585938 " style=" stroke:none;fill-rule:nonzero;fill:rgb(61.960784%,88.627451%,97.254902%);fill-opacity:1;" />
<path d="M 424.429688 80.746094 C 424.394531 80.777344 424.363281 80.808594 424.332031 80.839844 L 292.898438 223.941406 L 292.898438 329.574219 C 292.898438 338.324219 285.816406 345.410156 277.0625 345.410156 L 244.027344 345.410156 L 244.027344 53.824219 L 413.109375 53.824219 C 419.507812 53.824219 425.28125 57.675781 427.734375 63.589844 C 430.171875 69.449219 428.871094 76.207031 424.429688 80.746094 Z M 424.429688 80.746094 " style=" stroke:none;fill-rule:nonzero;fill:rgb(49.411765%,84.705882%,96.470588%);fill-opacity:1;" />
<path d="M 133.0625 442.234375 L 116.761719 463.792969 C 115.117188 465.96875 114.238281 468.628906 114.261719 471.363281 L 114.503906 499.523438 C 114.578125 508.09375 106.109375 514.132812 98.023438 511.28125 L 72.15625 502.160156 C 70.824219 501.695312 69.433594 501.453125 68.039062 501.453125 C 66.65625 501.453125 65.261719 501.695312 63.921875 502.160156 L 38.054688 511.28125 C 29.96875 514.132812 21.511719 508.09375 21.574219 499.523438 L 21.816406 471.363281 C 21.847656 468.628906 20.960938 465.96875 19.3125 463.792969 L 3.011719 442.234375 C -2.097656 435.488281 0.933594 425.722656 8.957031 423.039062 L 35.742188 414.109375 C 38.179688 413.296875 40.3125 411.742188 41.824219 409.664062 L 58.050781 387.410156 C 60.511719 384.019531 64.28125 382.328125 68.039062 382.328125 C 71.808594 382.328125 75.566406 384.019531 78.035156 387.410156 L 94.253906 409.664062 C 95.761719 411.742188 97.894531 413.296875 100.335938 414.109375 L 127.121094 423.039062 C 135.144531 425.722656 138.175781 435.488281 133.0625 442.234375 Z M 133.0625 442.234375 " style=" stroke:none;fill-rule:nonzero;fill:rgb(100%,87.058824%,33.333333%);fill-opacity:1;" />
<path d="M 254.019531 387.410156 L 270.238281 409.664062 C 271.753906 411.742188 273.882812 413.296875 276.320312 414.109375 L 303.101562 423.039062 C 311.128906 425.71875 314.15625 435.480469 309.054688 442.230469 L 292.746094 463.796875 C 291.101562 465.972656 290.222656 468.628906 290.246094 471.359375 L 290.488281 499.515625 C 290.558594 508.09375 282.09375 514.136719 274.007812 511.285156 L 248.140625 502.15625 C 245.476562 501.21875 242.574219 501.21875 239.910156 502.15625 L 214.042969 511.285156 C 205.957031 514.136719 197.492188 508.09375 197.566406 499.515625 L 197.804688 471.359375 C 197.828125 468.632812 196.949219 465.972656 195.304688 463.796875 L 178.996094 442.230469 C 173.894531 435.480469 176.921875 425.71875 184.949219 423.039062 L 211.730469 414.109375 C 214.171875 413.296875 216.296875 411.742188 217.8125 409.664062 L 234.03125 387.410156 C 238.972656 380.632812 249.082031 380.632812 254.019531 387.410156 Z M 254.019531 387.410156 " style=" stroke:none;fill-rule:nonzero;fill:rgb(100%,87.058824%,33.333333%);fill-opacity:1;" />
<path d="M 430.007812 387.410156 L 446.226562 409.664062 C 447.742188 411.742188 449.867188 413.296875 452.308594 414.109375 L 479.089844 423.039062 C 487.117188 425.71875 490.144531 435.480469 485.042969 442.230469 L 468.734375 463.796875 C 467.089844 465.972656 466.210938 468.628906 466.234375 471.359375 L 466.472656 499.515625 C 466.546875 508.09375 458.082031 514.136719 449.992188 511.285156 L 424.128906 502.15625 C 421.464844 501.21875 418.5625 501.21875 415.898438 502.15625 L 390.03125 511.285156 C 381.945312 514.136719 373.476562 508.09375 373.550781 499.515625 L 373.792969 471.359375 C 373.816406 468.632812 372.9375 465.972656 371.289062 463.796875 L 354.984375 442.230469 C 349.882812 435.480469 352.910156 425.71875 360.933594 423.039062 L 387.71875 414.109375 C 390.15625 413.296875 392.285156 411.742188 393.796875 409.664062 L 410.019531 387.410156 C 414.960938 380.632812 425.066406 380.632812 430.007812 387.410156 Z M 430.007812 387.410156 " style=" stroke:none;fill-rule:nonzero;fill:rgb(100%,87.058824%,33.333333%);fill-opacity:1;" />
<path d="M 453.113281 0 L 34.9375 0 C 24.007812 0 15.148438 8.859375 15.148438 19.789062 L 15.148438 60.957031 C 15.148438 71.886719 24.007812 80.746094 34.9375 80.746094 L 453.113281 80.746094 C 464.042969 80.746094 472.902344 71.886719 472.902344 60.957031 L 472.902344 19.789062 C 472.902344 8.859375 464.042969 0 453.113281 0 Z M 453.113281 0 " style=" stroke:none;fill-rule:nonzero;fill:rgb(18.431373%,75.294118%,94.117647%);fill-opacity:1;" />
<path d="M 472.910156 19.796875 L 472.910156 60.960938 C 472.910156 71.886719 464.039062 80.746094 453.113281 80.746094 L 244.027344 80.746094 L 244.027344 0 L 453.113281 0 C 464.039062 0 472.910156 8.859375 472.910156 19.796875 Z M 472.910156 19.796875 " style=" stroke:none;fill-rule:nonzero;fill:rgb(5.882353%,66.27451%,86.666667%);fill-opacity:1;" />
<path d="M 133.0625 442.234375 L 116.761719 463.792969 C 115.117188 465.96875 114.238281 468.628906 114.261719 471.363281 L 114.503906 499.523438 C 114.578125 508.09375 106.109375 514.132812 98.023438 511.28125 L 72.15625 502.160156 C 70.824219 501.695312 69.433594 501.453125 68.039062 501.453125 L 68.039062 382.328125 C 71.808594 382.328125 75.566406 384.019531 78.035156 387.410156 L 94.253906 409.664062 C 95.761719 411.742188 97.894531 413.296875 100.335938 414.109375 L 127.121094 423.039062 C 135.144531 425.722656 138.175781 435.488281 133.0625 442.234375 Z M 133.0625 442.234375 " style=" stroke:none;fill-rule:nonzero;fill:rgb(100%,80.392157%,0%);fill-opacity:1;" />
<path d="M 309.050781 442.234375 L 292.75 463.792969 C 291.105469 465.96875 290.226562 468.628906 290.25 471.363281 L 290.492188 499.523438 C 290.566406 508.09375 282.097656 514.132812 274.011719 511.28125 L 248.144531 502.160156 C 246.8125 501.695312 245.421875 501.453125 244.027344 501.453125 L 244.027344 382.328125 C 247.796875 382.328125 251.554688 384.019531 254.023438 387.410156 L 270.242188 409.664062 C 271.75 411.742188 273.882812 413.296875 276.324219 414.109375 L 303.109375 423.039062 C 311.132812 425.722656 314.164062 435.488281 309.050781 442.234375 Z M 309.050781 442.234375 " style=" stroke:none;fill-rule:nonzero;fill:rgb(100%,80.392157%,0%);fill-opacity:1;" />
<path d="M 485.039062 442.234375 L 468.738281 463.792969 C 467.089844 465.96875 466.214844 468.628906 466.234375 471.363281 L 466.480469 499.523438 C 466.550781 508.09375 458.085938 514.132812 449.996094 511.28125 L 424.132812 502.160156 C 422.800781 501.695312 421.40625 501.453125 420.015625 501.453125 L 420.015625 382.328125 C 423.78125 382.328125 427.542969 384.019531 430.011719 387.410156 L 446.230469 409.664062 C 447.738281 411.742188 449.871094 413.296875 452.308594 414.109375 L 479.09375 423.039062 C 487.121094 425.722656 490.148438 435.488281 485.039062 442.234375 Z M 485.039062 442.234375 " style=" stroke:none;fill-rule:nonzero;fill:rgb(100%,80.392157%,0%);fill-opacity:1;" />
</g>
</svg>