<svg xmlns="http://www.w3.org/2000/svg" height="512pt" version="1.1" viewBox="0 -28 512.00117 512" width="512pt">
<g id="surface1">
<path d="M 454.589844 138.910156 L 264.871094 2.851562 C 259.566406 -0.949219 252.433594 -0.949219 247.132812 2.851562 L 57.414062 138.910156 C 53.425781 141.769531 51.0625 146.375 51.0625 151.277344 L 51.0625 440.167969 C 51.0625 448.574219 57.878906 455.386719 66.28125 455.386719 L 445.71875 455.386719 C 454.125 455.386719 460.9375 448.574219 460.9375 440.167969 L 460.9375 151.277344 C 460.9375 146.375 458.574219 141.769531 454.589844 138.910156 Z M 454.589844 138.910156 " style=" stroke:none;fill-rule:nonzero;fill:rgb(61.960784%,88.627451%,97.254902%);fill-opacity:1;" />
<path d="M 460.9375 151.277344 L 460.9375 440.167969 C 460.9375 448.570312 454.121094 455.386719 445.71875 455.386719 L 256 455.386719 L 256 0 C 259.105469 0 262.21875 0.945312 264.867188 2.851562 L 454.585938 138.910156 C 458.574219 141.773438 460.9375 146.378906 460.9375 151.277344 Z M 460.9375 151.277344 " style=" stroke:none;fill-rule:nonzero;fill:rgb(49.411765%,84.705882%,96.470588%);fill-opacity:1;" />
<path d="M 386.199219 192.621094 L 125.800781 192.621094 C 117.398438 192.621094 110.582031 199.433594 110.582031 207.839844 L 110.582031 455.386719 L 401.417969 455.386719 L 401.417969 207.839844 C 401.417969 199.433594 394.605469 192.621094 386.199219 192.621094 Z M 386.199219 192.621094 " style=" stroke:none;fill-rule:nonzero;fill:rgb(100%,72.54902%,61.568627%);fill-opacity:1;" />
<path d="M 401.414062 207.839844 L 401.414062 455.386719 L 256 455.386719 L 256 192.621094 L 386.195312 192.621094 C 394.605469 192.621094 401.414062 199.4375 401.414062 207.839844 Z M 401.414062 207.839844 " style=" stroke:none;fill-rule:nonzero;fill:rgb(100%,63.137255%,48.235294%);fill-opacity:1;" />
<path d="M 487.914062 200.261719 L 256 33.945312 L 24.085938 200.261719 C 17.253906 205.15625 7.75 203.589844 2.851562 196.761719 C -2.046875 189.933594 -0.480469 180.421875 6.351562 175.523438 L 247.132812 2.851562 C 252.433594 -0.949219 259.570312 -0.949219 264.871094 2.851562 C 269.355469 6.070312 505.429688 175.367188 505.648438 175.523438 C 512.480469 180.421875 514.046875 189.929688 509.148438 196.761719 C 504.238281 203.609375 494.726562 205.144531 487.914062 200.261719 Z M 487.914062 200.261719 " style=" stroke:none;fill-rule:nonzero;fill:rgb(5.882353%,66.27451%,86.666667%);fill-opacity:1;" />
<path d="M 509.148438 196.761719 C 504.238281 203.609375 494.730469 205.140625 487.914062 200.261719 L 256 33.945312 L 256 0 C 259.105469 0 262.21875 0.945312 264.867188 2.851562 C 269.363281 6.066406 505.425781 175.363281 505.648438 175.527344 C 512.476562 180.425781 514.046875 189.933594 509.148438 196.761719 Z M 509.148438 196.761719 " style=" stroke:none;fill-rule:nonzero;fill:rgb(5.098039%,56.862745%,74.117647%);fill-opacity:1;" />
<path d="M 270.316406 105.859375 L 241.683594 105.859375 C 233.28125 105.859375 226.464844 99.046875 226.464844 90.640625 C 226.464844 82.238281 233.28125 75.421875 241.683594 75.421875 L 270.316406 75.421875 C 278.722656 75.421875 285.535156 82.238281 285.535156 90.640625 C 285.535156 99.046875 278.722656 105.859375 270.316406 105.859375 Z M 270.316406 105.859375 " style=" stroke:none;fill-rule:nonzero;fill:rgb(5.882353%,66.27451%,86.666667%);fill-opacity:1;" />
<path d="M 285.535156 90.640625 C 285.535156 99.050781 278.726562 105.859375 270.316406 105.859375 L 256 105.859375 L 256 75.421875 L 270.316406 75.421875 C 278.726562 75.421875 285.535156 82.238281 285.535156 90.640625 Z M 285.535156 90.640625 " style=" stroke:none;fill-rule:nonzero;fill:rgb(5.098039%,56.862745%,74.117647%);fill-opacity:1;" />
<path d="M 281.929688 144.414062 L 230.074219 144.414062 C 221.667969 144.414062 214.855469 137.597656 214.855469 129.195312 C 214.855469 120.789062 221.667969 113.976562 230.074219 113.976562 L 281.929688 113.976562 C 290.332031 113.976562 297.144531 120.789062 297.144531 129.195312 C 297.144531 137.597656 290.332031 144.414062 281.929688 144.414062 Z M 281.929688 144.414062 " style=" stroke:none;fill-rule:nonzero;fill:rgb(5.882353%,66.27451%,86.666667%);fill-opacity:1;" />
<path d="M 297.148438 129.191406 C 297.148438 137.601562 290.332031 144.410156 281.933594 144.410156 L 256 144.410156 L 256 113.972656 L 281.933594 113.972656 C 290.332031 113.972656 297.148438 120.792969 297.148438 129.191406 Z M 297.148438 129.191406 " style=" stroke:none;fill-rule:nonzero;fill:rgb(5.098039%,56.862745%,74.117647%);fill-opacity:1;" />
<path d="M 386.199219 192.621094 L 125.800781 192.621094 C 117.398438 192.621094 110.582031 199.433594 110.582031 207.839844 L 110.582031 279.363281 L 401.417969 279.363281 L 401.417969 207.839844 C 401.417969 199.433594 394.605469 192.621094 386.199219 192.621094 Z M 386.199219 192.621094 " style=" stroke:none;fill-rule:nonzero;fill:rgb(100%,43.921569%,21.568627%);fill-opacity:1;" />
<path d="M 401.414062 207.839844 L 401.414062 279.363281 L 256 279.363281 L 256 192.621094 L 386.195312 192.621094 C 394.605469 192.621094 401.414062 199.4375 401.414062 207.839844 Z M 401.414062 207.839844 " style=" stroke:none;fill-rule:nonzero;fill:rgb(100%,29.803922%,1.568627%);fill-opacity:1;" />
<path d="M 303.554688 321.46875 L 208.445312 321.46875 C 191.847656 321.46875 178.386719 334.925781 178.386719 351.527344 C 178.386719 368.125 191.84375 381.582031 208.445312 381.582031 L 303.554688 381.582031 C 320.15625 381.582031 333.613281 368.125 333.613281 351.527344 C 333.613281 334.925781 320.15625 321.46875 303.554688 321.46875 Z M 303.554688 321.46875 " style=" stroke:none;fill-rule:nonzero;fill:rgb(100%,43.921569%,21.568627%);fill-opacity:1;" />
<path d="M 333.613281 351.527344 C 333.613281 368.058594 320.203125 381.578125 303.550781 381.578125 L 256 381.578125 L 256 321.46875 L 303.550781 321.46875 C 320.160156 321.46875 333.613281 334.921875 333.613281 351.527344 Z M 333.613281 351.527344 " style=" stroke:none;fill-rule:nonzero;fill:rgb(100%,29.803922%,1.568627%);fill-opacity:1;" />
</g>
</svg>