<svg xmlns="http://www.w3.org/2000/svg" height="512pt" version="1.1" viewBox="-18 0 512 512.00002" width="512pt">
<g id="surface1">
<path d="M 460.730469 0 L 15.179688 0 C 6.796875 0 0 6.796875 0 15.179688 L 0 496.820312 C 0 505.203125 6.796875 511.996094 15.179688 511.996094 L 460.730469 511.996094 C 469.113281 511.996094 475.90625 505.203125 475.90625 496.820312 L 475.90625 15.179688 C 475.910156 6.796875 469.113281 0 460.730469 0 Z M 460.730469 0 " style=" stroke:none;fill-rule:nonzero;fill:rgb(100%,96.078431%,80%);fill-opacity:1;" />
<path d="M 460.734375 0 L 237.953125 0 L 237.953125 192.050781 C 237.621094 192.050781 237.285156 192.070312 236.964844 192.101562 L 237.953125 192.101562 L 237.953125 512 L 460.734375 512 C 469.113281 512 475.914062 505.199219 475.914062 496.820312 L 475.914062 15.179688 C 475.914062 6.800781 469.113281 0 460.734375 0 Z M 460.734375 0 " style=" stroke:none;fill-rule:nonzero;fill:rgb(100%,94.509804%,71.372549%);fill-opacity:1;" />
<path d="M 0 80.070312 L 475.90625 80.070312 L 475.90625 192.101562 L 0 192.101562 Z M 0 80.070312 " style=" stroke:none;fill-rule:nonzero;fill:rgb(100%,48.627451%,28.235294%);fill-opacity:1;" />
<path d="M 475.914062 80.066406 L 475.914062 192.101562 L 236.964844 192.101562 C 237.285156 192.070312 237.621094 192.050781 237.953125 192.050781 L 237.953125 80.066406 Z M 475.914062 80.066406 " style=" stroke:none;fill-rule:nonzero;fill:rgb(100%,29.803922%,1.568627%);fill-opacity:1;" />
<path d="M 0 136.085938 L 475.90625 136.085938 L 475.90625 192.101562 L 0 192.101562 Z M 0 136.085938 " style=" stroke:none;fill-rule:nonzero;fill:rgb(0%,93.333333%,54.117647%);fill-opacity:1;" />
<path d="M 475.914062 136.085938 L 475.914062 192.101562 L 236.964844 192.101562 C 237.285156 192.070312 237.621094 192.050781 237.953125 192.050781 L 237.953125 136.085938 Z M 475.914062 136.085938 " style=" stroke:none;fill-rule:nonzero;fill:rgb(0%,66.666667%,38.823529%);fill-opacity:1;" />
<path d="M 377.171875 261.441406 L 316.609375 156.550781 C 314.785156 153.390625 310.75 152.3125 307.59375 154.132812 L 247.542969 188.800781 C 244.386719 190.625 243.304688 194.664062 245.128906 197.820312 L 305.6875 302.710938 C 308.417969 307.445312 315.390625 306.996094 317.496094 301.953125 L 330.414062 271.007812 C 331.558594 268.261719 334.398438 266.621094 337.347656 267.003906 L 370.609375 271.289062 C 376.03125 271.988281 379.902344 266.175781 377.171875 261.441406 Z M 377.171875 261.441406 " style=" stroke:none;fill-rule:nonzero;fill:rgb(100%,29.803922%,1.568627%);fill-opacity:1;" />
<path d="M 228.363281 188.800781 L 168.316406 154.132812 C 165.160156 152.3125 161.121094 153.390625 159.296875 156.550781 L 98.738281 261.441406 C 96.007812 266.175781 99.878906 271.988281 105.300781 271.289062 L 138.558594 267.003906 C 141.507812 266.621094 144.347656 268.261719 145.492188 271.007812 L 158.410156 301.953125 C 160.515625 306.996094 167.488281 307.445312 170.21875 302.710938 L 230.78125 197.820312 C 232.601562 194.664062 231.519531 190.625 228.363281 188.800781 Z M 228.363281 188.800781 " style=" stroke:none;fill-rule:nonzero;fill:rgb(100%,48.627451%,28.235294%);fill-opacity:1;" />
<path d="M 341.605469 144.246094 C 341.605469 201.488281 295.199219 247.898438 237.953125 247.898438 C 180.707031 247.898438 134.300781 201.488281 134.300781 144.246094 C 134.300781 87 180.707031 40.589844 237.953125 40.589844 C 295.199219 40.589844 341.605469 87 341.605469 144.246094 Z M 341.605469 144.246094 " style=" stroke:none;fill-rule:nonzero;fill:rgb(100%,87.058824%,33.333333%);fill-opacity:1;" />
<path d="M 341.609375 144.242188 C 341.609375 201.847656 294.839844 247.894531 237.953125 247.894531 L 237.953125 192.101562 L 236.964844 192.101562 C 237.285156 192.070312 237.621094 192.050781 237.953125 192.050781 L 237.953125 40.597656 C 295.320312 40.597656 341.609375 87.105469 341.609375 144.242188 Z M 341.609375 144.242188 " style=" stroke:none;fill-rule:nonzero;fill:rgb(93.333333%,74.901961%,0%);fill-opacity:1;" />
<path d="M 246.660156 90.929688 C 263.355469 111.046875 263.0625 111.367188 266.542969 112.777344 L 289.675781 122.160156 C 296.332031 124.859375 298.820312 132.996094 294.8125 138.957031 C 281.109375 159.328125 279.996094 159.972656 279.789062 164.21875 L 278.59375 188.992188 C 278.238281 196.316406 271.121094 201.371094 264.085938 199.296875 C 239.433594 192.011719 239 191.265625 234.75 192.523438 L 211.820312 199.296875 C 204.789062 201.371094 197.667969 196.316406 197.316406 188.992188 C 196.023438 162.246094 196.554688 161.941406 194.207031 158.449219 L 181.097656 138.957031 C 177.089844 133 179.578125 124.859375 186.234375 122.160156 C 211.445312 111.9375 211.40625 112.429688 213.820312 109.519531 L 229.25 90.929688 C 233.773438 85.476562 242.136719 85.476562 246.660156 90.929688 Z M 246.660156 90.929688 " style=" stroke:none;fill-rule:nonzero;fill:rgb(100%,96.078431%,80%);fill-opacity:1;" />
<path d="M 289.671875 122.160156 C 267.773438 112.867188 265.195312 113.28125 262.085938 109.511719 L 246.65625 90.925781 C 244.390625 88.203125 241.171875 86.835938 237.953125 86.835938 L 237.953125 192.050781 C 241.214844 192.050781 243.414062 193.488281 264.089844 199.296875 C 271.203125 201.390625 278.257812 196.207031 278.589844 188.996094 C 280.179688 165.648438 278.71875 162.90625 281.707031 158.445312 C 294.542969 139.109375 295.355469 138.773438 296.207031 136.085938 C 297.957031 130.621094 295.304688 124.449219 289.671875 122.160156 Z M 289.671875 122.160156 " style=" stroke:none;fill-rule:nonzero;fill:rgb(100%,87.058824%,33.333333%);fill-opacity:1;" />
<path d="M 407.726562 361.28125 L 68.183594 361.28125 C 59.800781 361.28125 53.003906 368.078125 53.003906 376.457031 L 53.003906 441.558594 C 53.003906 449.941406 59.800781 456.738281 68.183594 456.738281 L 407.726562 456.738281 C 416.109375 456.738281 422.90625 449.941406 422.90625 441.558594 L 422.90625 376.457031 C 422.90625 368.078125 416.109375 361.28125 407.726562 361.28125 Z M 407.726562 361.28125 " style=" stroke:none;fill-rule:nonzero;fill:rgb(100%,87.058824%,33.333333%);fill-opacity:1;" />
<path d="M 407.722656 361.285156 L 237.953125 361.285156 L 237.953125 456.730469 L 407.722656 456.730469 C 416.113281 456.730469 422.902344 449.941406 422.902344 441.554688 L 422.902344 376.460938 C 422.902344 368.074219 416.113281 361.285156 407.722656 361.285156 Z M 407.722656 361.285156 " style=" stroke:none;fill-rule:nonzero;fill:rgb(100%,83.137255%,13.333333%);fill-opacity:1;" />
<path d="M 362.570312 393.832031 L 113.339844 393.832031 C 104.957031 393.832031 98.160156 400.625 98.160156 409.007812 C 98.160156 417.390625 104.957031 424.1875 113.339844 424.1875 L 362.570312 424.1875 C 370.953125 424.1875 377.75 417.390625 377.75 409.007812 C 377.75 400.625 370.953125 393.832031 362.570312 393.832031 Z M 362.570312 393.832031 " style=" stroke:none;fill-rule:nonzero;fill:rgb(100%,48.627451%,28.235294%);fill-opacity:1;" />
<path d="M 377.753906 409.011719 C 377.753906 417.390625 370.953125 424.191406 362.574219 424.191406 L 237.953125 424.191406 L 237.953125 393.835938 L 362.574219 393.835938 C 370.953125 393.835938 377.753906 400.625 377.753906 409.011719 Z M 377.753906 409.011719 " style=" stroke:none;fill-rule:nonzero;fill:rgb(100%,29.803922%,1.568627%);fill-opacity:1;" />
</g>
</svg>