<svg xmlns="http://www.w3.org/2000/svg" height="511pt" version="1.1" viewBox="1 0 511.99997 511" width="511pt">
<g id="surface1">
<path d="M 496.621094 0.5 L 15.378906 0.5 C 6.886719 0.5 0.00390625 7.382812 0.00390625 15.875 L 0.00390625 495.605469 C 0.00390625 504.097656 6.886719 510.984375 15.378906 510.984375 L 496.617188 510.984375 C 505.109375 510.984375 511.996094 504.097656 511.996094 495.605469 L 511.996094 15.875 C 511.996094 7.382812 505.113281 0.5 496.621094 0.5 Z M 496.621094 0.5 " style=" stroke:none;fill-rule:nonzero;fill:rgb(18.431373%,75.294118%,94.117647%);fill-opacity:1;" />
<path d="M 512 15.875 L 512 495.605469 C 512 504.09375 505.113281 510.984375 496.625 510.984375 L 369.835938 510.984375 L 369.835938 0.5 L 496.625 0.5 C 505.113281 0.5 512 7.386719 512 15.875 Z M 512 15.875 " style=" stroke:none;fill-rule:nonzero;fill:rgb(5.882353%,66.27451%,86.666667%);fill-opacity:1;" />
<path d="M 256 85.683594 L 230.84375 0.503906 L 15.375 0.503906 C 6.886719 0.503906 0 7.378906 0 15.878906 L 0 495.609375 C 0 504.097656 6.886719 510.984375 15.375 510.984375 L 496.625 510.984375 C 505.113281 510.984375 512 504.097656 512 495.609375 L 512 85.683594 Z M 256 85.683594 " style=" stroke:none;fill-rule:nonzero;fill:rgb(74.509804%,92.156863%,98.039216%);fill-opacity:1;" />
<path d="M 512 85.683594 L 512 495.609375 C 512 504.097656 505.113281 510.984375 496.625 510.984375 L 256 510.984375 L 256 85.683594 Z M 512 85.683594 " style=" stroke:none;fill-rule:nonzero;fill:rgb(61.960784%,88.627451%,97.254902%);fill-opacity:1;" />
<path d="M 198.46875 58.585938 L 111.203125 58.585938 C 102.710938 58.585938 95.824219 51.703125 95.824219 43.210938 C 95.824219 34.71875 102.710938 27.835938 111.203125 27.835938 L 198.46875 27.835938 C 206.957031 27.835938 213.84375 34.71875 213.84375 43.210938 C 213.84375 51.703125 206.957031 58.585938 198.46875 58.585938 Z M 198.46875 58.585938 " style=" stroke:none;fill-rule:nonzero;fill:rgb(18.431373%,75.294118%,94.117647%);fill-opacity:1;" />
<path d="M 70.402344 43.210938 C 70.402344 51.703125 63.515625 58.585938 55.023438 58.585938 C 46.53125 58.585938 39.648438 51.703125 39.648438 43.210938 C 39.648438 34.71875 46.53125 27.835938 55.023438 27.835938 C 63.515625 27.835938 70.402344 34.71875 70.402344 43.210938 Z M 70.402344 43.210938 " style=" stroke:none;fill-rule:nonzero;fill:rgb(18.431373%,75.294118%,94.117647%);fill-opacity:1;" />
<path d="M 221.402344 318.804688 L 189.523438 409.882812 C 185.085938 422.558594 173.105469 431.164062 159.542969 431.164062 C 137.65625 431.164062 122.332031 409.554688 129.558594 388.898438 L 154.089844 318.804688 Z M 221.402344 318.804688 " style=" stroke:none;fill-rule:nonzero;fill:rgb(100%,48.627451%,28.235294%);fill-opacity:1;" />
<path d="M 221.402344 318.804688 L 189.523438 409.882812 C 186.839844 417.550781 181.417969 423.699219 174.570312 427.378906 L 174.570312 318.804688 Z M 221.402344 318.804688 " style=" stroke:none;fill-rule:nonzero;fill:rgb(100%,39.215686%,14.901961%);fill-opacity:1;" />
<path d="M 126.90625 198.417969 C 108.382812 198.417969 93.363281 213.433594 93.363281 231.957031 L 93.363281 298.871094 C 93.363281 317.394531 108.382812 332.414062 126.90625 332.414062 L 314.066406 332.414062 L 314.066406 198.417969 Z M 126.90625 198.417969 " style=" stroke:none;fill-rule:nonzero;fill:rgb(100%,92.156863%,60%);fill-opacity:1;" />
<path d="M 314.070312 265.390625 L 314.070312 332.417969 L 126.902344 332.417969 C 108.378906 332.417969 93.363281 317.402344 93.363281 298.867188 L 93.363281 265.390625 Z M 314.070312 265.390625 " style=" stroke:none;fill-rule:nonzero;fill:rgb(100%,85.490196%,26.666667%);fill-opacity:1;" />
<path d="M 400.648438 156.613281 L 284.65625 198.394531 L 284.65625 332.390625 L 400.648438 374.171875 C 409.402344 377.324219 418.636719 370.839844 418.636719 361.535156 L 418.636719 169.25 C 418.636719 159.945312 409.402344 153.460938 400.648438 156.613281 Z M 400.648438 156.613281 " style=" stroke:none;fill-rule:nonzero;fill:rgb(100%,48.627451%,28.235294%);fill-opacity:1;" />
<path d="M 418.636719 265.390625 L 418.636719 361.539062 C 418.636719 370.839844 409.402344 377.328125 400.648438 374.167969 L 284.734375 332.417969 L 284.652344 332.386719 L 284.652344 265.390625 Z M 418.636719 265.390625 " style=" stroke:none;fill-rule:nonzero;fill:rgb(100%,39.215686%,14.901961%);fill-opacity:1;" />
</g>
</svg>