<svg xmlns="http://www.w3.org/2000/svg" height="511pt" version="1.1" viewBox="1 -27 511.99998 511" width="511pt">
<g id="surface1">
<path d="M 17.214844 366.914062 C 17.75 367.449219 18.328125 367.941406 18.929688 368.40625 C 18.332031 367.953125 17.75 367.449219 17.214844 366.914062 Z M 17.214844 366.914062 " style=" stroke:none;fill-rule:nonzero;fill:rgb(100%,85.490196%,26.666667%);fill-opacity:1;" />
<path d="M 496.242188 425.238281 L 20.660156 425.238281 C 11.957031 425.238281 4.902344 432.296875 4.902344 441 C 4.902344 449.703125 11.957031 456.757812 20.660156 456.757812 L 496.242188 456.757812 C 504.945312 456.757812 512 449.703125 512 441 C 512 432.296875 504.945312 425.238281 496.242188 425.238281 Z M 496.242188 425.238281 " style=" stroke:none;fill-rule:nonzero;fill:rgb(74.509804%,92.156863%,98.039216%);fill-opacity:1;" />
<path d="M 466.121094 283.238281 L 308.707031 283.238281 L 308.707031 185.039062 L 452.113281 185.039062 Z M 466.121094 283.238281 " style=" stroke:none;fill-rule:nonzero;fill:rgb(74.509804%,92.156863%,98.039216%);fill-opacity:1;" />
<path d="M 466.121094 283.238281 L 394.414062 283.238281 L 394.414062 185.039062 L 452.113281 185.039062 Z M 466.121094 283.238281 " style=" stroke:none;fill-rule:nonzero;fill:rgb(61.960784%,88.627451%,97.254902%);fill-opacity:1;" />
<path d="M 480.136719 167.257812 C 480.136719 181.011719 468.984375 192.160156 455.230469 192.160156 L 308.707031 192.160156 L 308.707031 142.339844 L 455.21875 142.339844 C 468.980469 142.339844 480.136719 153.496094 480.136719 167.257812 Z M 480.136719 167.257812 " style=" stroke:none;fill-rule:nonzero;fill:rgb(5.882353%,66.27451%,86.666667%);fill-opacity:1;" />
<path d="M 480.136719 167.257812 C 480.136719 181.011719 468.984375 192.160156 455.230469 192.160156 L 394.414062 192.160156 L 394.414062 142.339844 L 455.21875 142.339844 C 468.980469 142.339844 480.136719 153.496094 480.136719 167.257812 Z M 480.136719 167.257812 " style=" stroke:none;fill-rule:nonzero;fill:rgb(5.098039%,56.862745%,74.117647%);fill-opacity:1;" />
<path d="M 507.449219 307.632812 L 507.449219 360.511719 C 507.449219 369.222656 500.390625 376.269531 491.691406 376.269531 L 308.707031 376.269531 L 308.707031 276.117188 L 475.933594 276.117188 C 493.339844 276.117188 507.449219 290.226562 507.449219 307.632812 Z M 507.449219 307.632812 " style=" stroke:none;fill-rule:nonzero;fill:rgb(5.882353%,66.27451%,86.666667%);fill-opacity:1;" />
<path d="M 507.449219 307.632812 L 507.449219 360.511719 C 507.449219 369.222656 500.390625 376.269531 491.691406 376.269531 L 394.414062 376.269531 L 394.414062 276.117188 L 475.933594 276.117188 C 493.339844 276.117188 507.449219 290.226562 507.449219 307.632812 Z M 507.449219 307.632812 " style=" stroke:none;fill-rule:nonzero;fill:rgb(5.098039%,56.862745%,74.117647%);fill-opacity:1;" />
<path d="M 417.15625 311.546875 C 381.464844 311.546875 352.429688 340.585938 352.429688 376.273438 C 352.429688 411.964844 381.464844 441 417.15625 441 C 452.847656 441 481.882812 411.964844 481.882812 376.273438 C 481.882812 340.582031 452.84375 311.546875 417.15625 311.546875 Z M 417.15625 311.546875 " style=" stroke:none;fill-rule:nonzero;fill:rgb(4.313725%,47.45098%,61.568627%);fill-opacity:1;" />
<path d="M 450.359375 376.273438 C 450.359375 394.585938 435.460938 409.480469 417.148438 409.480469 C 398.839844 409.480469 383.949219 394.585938 383.949219 376.273438 C 383.949219 357.960938 398.839844 343.0625 417.148438 343.0625 C 435.460938 343.0625 450.359375 357.957031 450.359375 376.273438 Z M 450.359375 376.273438 " style=" stroke:none;fill-rule:nonzero;fill:rgb(74.509804%,92.156863%,98.039216%);fill-opacity:1;" />
<path d="M 431.203125 376.273438 C 431.203125 384.03125 424.914062 390.320312 417.15625 390.320312 C 409.398438 390.320312 403.109375 384.03125 403.109375 376.273438 C 403.109375 368.515625 409.398438 362.226562 417.15625 362.226562 C 424.914062 362.226562 431.203125 368.515625 431.203125 376.273438 Z M 431.203125 376.273438 " style=" stroke:none;fill-rule:nonzero;fill:rgb(4.313725%,47.45098%,61.568627%);fill-opacity:1;" />
<path d="M 305.378906 41.832031 L 36.421875 41.832031 C 27.71875 41.832031 20.660156 48.890625 20.660156 57.59375 L 20.660156 360.511719 C 20.660156 369.214844 27.71875 376.273438 36.421875 376.273438 L 321.136719 376.273438 L 321.136719 57.59375 C 321.136719 48.890625 314.082031 41.832031 305.378906 41.832031 Z M 305.378906 41.832031 " style=" stroke:none;fill-rule:nonzero;fill:rgb(100%,94.509804%,71.372549%);fill-opacity:1;" />
<path d="M 321.132812 57.585938 L 321.132812 376.269531 L 168.449219 376.269531 L 168.449219 41.828125 L 305.375 41.828125 C 314.085938 41.828125 321.132812 48.890625 321.132812 57.585938 Z M 321.132812 57.585938 " style=" stroke:none;fill-rule:nonzero;fill:rgb(100%,92.156863%,60%);fill-opacity:1;" />
<path d="M 20.660156 276.117188 L 20.660156 360.515625 C 20.660156 369.21875 27.71875 376.273438 36.421875 376.273438 L 321.136719 376.273438 L 321.136719 276.117188 Z M 20.660156 276.117188 " style=" stroke:none;fill-rule:nonzero;fill:rgb(100%,85.490196%,26.666667%);fill-opacity:1;" />
<path d="M 168.449219 276.117188 L 321.132812 276.117188 L 321.132812 376.269531 L 168.449219 376.269531 Z M 168.449219 276.117188 " style=" stroke:none;fill-rule:nonzero;fill:rgb(100%,80.392157%,0%);fill-opacity:1;" />
<path d="M 321.136719 0.5 C 312.433594 0.5 305.378906 7.554688 305.378906 16.257812 L 305.378906 344.753906 L 15.757812 344.753906 C 7.054688 344.753906 0 351.808594 0 360.511719 C 0 369.214844 7.054688 376.273438 15.757812 376.273438 L 336.898438 376.273438 L 336.898438 16.257812 C 336.898438 7.554688 329.839844 0.5 321.136719 0.5 Z M 321.136719 0.5 " style=" stroke:none;fill-rule:nonzero;fill:rgb(18.431373%,75.294118%,94.117647%);fill-opacity:1;" />
<path d="M 125.875 41.832031 L 125.875 155.972656 C 125.875 160.496094 131.207031 162.902344 134.601562 159.914062 L 160.484375 137.117188 C 166.4375 131.875 175.363281 131.875 181.316406 137.117188 L 207.199219 159.914062 C 210.59375 162.902344 215.925781 160.496094 215.925781 155.972656 L 215.925781 41.832031 Z M 125.875 41.832031 " style=" stroke:none;fill-rule:nonzero;fill:rgb(100%,43.921569%,21.568627%);fill-opacity:1;" />
<path d="M 215.925781 41.828125 L 215.925781 155.976562 C 215.925781 160.496094 210.589844 162.902344 207.195312 159.917969 L 181.320312 137.117188 C 177.683594 133.914062 172.933594 132.675781 168.449219 133.378906 L 168.449219 41.828125 Z M 215.925781 41.828125 " style=" stroke:none;fill-rule:nonzero;fill:rgb(100%,29.803922%,1.568627%);fill-opacity:1;" />
<path d="M 139.34375 311.546875 C 103.652344 311.546875 74.617188 340.585938 74.617188 376.273438 C 74.617188 411.964844 103.652344 441 139.34375 441 C 175.035156 441 204.070312 411.964844 204.070312 376.273438 C 204.070312 340.582031 175.035156 311.546875 139.34375 311.546875 Z M 139.34375 311.546875 " style=" stroke:none;fill-rule:nonzero;fill:rgb(4.313725%,47.45098%,61.568627%);fill-opacity:1;" />
<path d="M 172.550781 376.273438 C 172.550781 394.585938 157.652344 409.480469 139.339844 409.480469 C 121.027344 409.480469 106.140625 394.585938 106.140625 376.273438 C 106.140625 357.960938 121.027344 343.0625 139.339844 343.0625 C 157.652344 343.0625 172.550781 357.957031 172.550781 376.273438 Z M 172.550781 376.273438 " style=" stroke:none;fill-rule:nonzero;fill:rgb(74.509804%,92.156863%,98.039216%);fill-opacity:1;" />
<path d="M 153.390625 376.273438 C 153.390625 384.03125 147.101562 390.320312 139.34375 390.320312 C 131.585938 390.320312 125.296875 384.03125 125.296875 376.273438 C 125.296875 368.515625 131.585938 362.226562 139.34375 362.226562 C 147.101562 362.226562 153.390625 368.515625 153.390625 376.273438 Z M 153.390625 376.273438 " style=" stroke:none;fill-rule:nonzero;fill:rgb(4.313725%,47.45098%,61.568627%);fill-opacity:1;" />
<path d="M 481.878906 376.273438 C 481.878906 411.960938 452.851562 441 417.148438 441 C 416.886719 441 416.636719 441 416.371094 440.988281 L 416.371094 311.554688 C 416.636719 311.542969 416.886719 311.542969 417.148438 311.542969 C 452.851562 311.542969 481.878906 340.582031 481.878906 376.273438 Z M 481.878906 376.273438 " style=" stroke:none;fill-rule:nonzero;fill:rgb(3.529412%,37.647059%,49.019608%);fill-opacity:1;" />
<path d="M 450.359375 376.273438 C 450.359375 394.585938 435.460938 409.480469 417.148438 409.480469 C 416.886719 409.480469 416.636719 409.480469 416.371094 409.472656 L 416.371094 343.074219 C 416.636719 343.0625 416.886719 343.0625 417.148438 343.0625 C 435.460938 343.0625 450.359375 357.957031 450.359375 376.273438 Z M 450.359375 376.273438 " style=" stroke:none;fill-rule:nonzero;fill:rgb(61.960784%,88.627451%,97.254902%);fill-opacity:1;" />
<path d="M 431.195312 376.273438 C 431.195312 384.035156 424.914062 390.320312 417.148438 390.320312 C 416.886719 390.320312 416.636719 390.308594 416.371094 390.296875 L 416.371094 362.246094 C 416.636719 362.234375 416.886719 362.226562 417.148438 362.226562 C 424.914062 362.222656 431.195312 368.519531 431.195312 376.273438 Z M 431.195312 376.273438 " style=" stroke:none;fill-rule:nonzero;fill:rgb(3.529412%,37.647059%,49.019608%);fill-opacity:1;" />
<path d="M 204.074219 376.273438 C 204.074219 411.960938 175.035156 441 139.347656 441 L 139.347656 311.542969 C 175.035156 311.542969 204.074219 340.582031 204.074219 376.273438 Z M 204.074219 376.273438 " style=" stroke:none;fill-rule:nonzero;fill:rgb(3.529412%,37.647059%,49.019608%);fill-opacity:1;" />
<path d="M 172.546875 376.273438 C 172.546875 394.585938 157.660156 409.472656 139.347656 409.480469 L 139.347656 343.0625 C 157.660156 343.070312 172.546875 357.957031 172.546875 376.273438 Z M 172.546875 376.273438 " style=" stroke:none;fill-rule:nonzero;fill:rgb(61.960784%,88.627451%,97.254902%);fill-opacity:1;" />
<path d="M 153.394531 376.273438 C 153.394531 384.035156 147.101562 390.320312 139.347656 390.320312 L 139.347656 362.226562 C 147.101562 362.222656 153.394531 368.519531 153.394531 376.273438 Z M 153.394531 376.273438 " style=" stroke:none;fill-rule:nonzero;fill:rgb(3.529412%,37.647059%,49.019608%);fill-opacity:1;" />
<path d="M 321.136719 0.5 C 312.433594 0.5 305.378906 7.554688 305.378906 16.257812 L 305.378906 344.753906 L 336.898438 376.273438 L 336.898438 16.257812 C 336.898438 7.554688 329.839844 0.5 321.136719 0.5 Z M 321.136719 0.5 " style=" stroke:none;fill-rule:nonzero;fill:rgb(36.862745%,80.784314%,95.686275%);fill-opacity:1;" />
</g>
</svg>