<svg xmlns="http://www.w3.org/2000/svg" height="511pt" version="1.1" viewBox="-102 1 511 511.99998" width="511pt">
<g id="surface1">
<path d="M 261.242188 0 L 46.875 0 C 21.304688 0 0.5 20.804688 0.5 46.375 L 0.5 465.625 C 0.5 491.195312 21.304688 512 46.875 512 L 261.242188 512 C 286.8125 512 307.617188 491.195312 307.617188 465.625 L 307.617188 46.375 C 307.617188 20.804688 286.8125 0 261.242188 0 Z M 261.242188 0 " style=" stroke:none;fill-rule:nonzero;fill:rgb(5.882353%,66.27451%,86.666667%);fill-opacity:1;" />
<path d="M 276.699219 46.375 L 276.699219 465.625 C 276.699219 474.160156 269.777344 481.082031 261.242188 481.082031 L 46.875 481.082031 C 38.339844 481.082031 31.417969 474.160156 31.417969 465.625 L 31.417969 46.375 C 31.417969 37.839844 38.339844 30.917969 46.875 30.917969 L 66.507812 30.917969 C 71.230469 30.917969 75.347656 34.128906 76.5 38.707031 L 82.359375 61.96875 C 84.636719 71.019531 92.78125 77.367188 102.117188 77.367188 L 206 77.367188 C 215.339844 77.367188 223.480469 71.019531 225.757812 61.96875 L 231.617188 38.707031 C 232.769531 34.128906 236.890625 30.917969 241.609375 30.917969 L 261.242188 30.917969 C 269.777344 30.917969 276.699219 37.839844 276.699219 46.375 Z M 276.699219 46.375 " style=" stroke:none;fill-rule:nonzero;fill:rgb(100%,94.509804%,71.372549%);fill-opacity:1;" />
<path d="M 192.535156 431.203125 L 115.582031 431.203125 C 107.046875 431.203125 100.125 438.121094 100.125 446.660156 C 100.125 455.199219 107.046875 462.121094 115.582031 462.121094 L 192.535156 462.121094 C 201.070312 462.121094 207.992188 455.199219 207.992188 446.660156 C 207.992188 438.121094 201.070312 431.203125 192.535156 431.203125 Z M 192.535156 431.203125 " style=" stroke:none;fill-rule:nonzero;fill:rgb(5.882353%,66.27451%,86.666667%);fill-opacity:1;" />
<path d="M 307.617188 46.375 L 307.617188 465.625 C 307.617188 491.191406 286.808594 512 261.242188 512 L 154.058594 512 L 154.058594 0 L 261.242188 0 C 286.808594 0 307.617188 20.808594 307.617188 46.375 Z M 307.617188 46.375 " style=" stroke:none;fill-rule:nonzero;fill:rgb(5.098039%,56.862745%,74.117647%);fill-opacity:1;" />
<path d="M 261.242188 0 L 46.875 0 C 21.304688 0 0.5 20.804688 0.5 46.375 L 0.5 465.625 C 0.5 491.195312 21.304688 512 46.875 512 L 261.242188 512 C 286.8125 512 307.617188 491.195312 307.617188 465.625 L 307.617188 46.375 C 307.617188 20.804688 286.8125 0 261.242188 0 Z M 261.242188 0 " style=" stroke:none;fill-rule:nonzero;fill:rgb(18.431373%,75.294118%,94.117647%);fill-opacity:1;" />
<path d="M 307.617188 46.375 L 307.617188 465.625 C 307.617188 491.191406 286.808594 512 261.242188 512 L 154.058594 512 L 154.058594 0 L 261.242188 0 C 286.808594 0 307.617188 20.808594 307.617188 46.375 Z M 307.617188 46.375 " style=" stroke:none;fill-rule:nonzero;fill:rgb(5.882353%,66.27451%,86.666667%);fill-opacity:1;" />
<path d="M 276.699219 46.375 L 276.699219 465.625 C 276.699219 474.160156 269.777344 481.082031 261.242188 481.082031 L 46.875 481.082031 C 38.339844 481.082031 31.417969 474.160156 31.417969 465.625 L 31.417969 46.375 C 31.417969 37.839844 38.339844 30.917969 46.875 30.917969 L 66.507812 30.917969 C 71.230469 30.917969 75.347656 34.128906 76.5 38.707031 L 82.359375 61.96875 C 84.636719 71.019531 92.78125 77.367188 102.117188 77.367188 L 206 77.367188 C 215.339844 77.367188 223.480469 71.019531 225.757812 61.96875 L 231.617188 38.707031 C 232.769531 34.128906 236.890625 30.917969 241.609375 30.917969 L 261.242188 30.917969 C 269.777344 30.917969 276.699219 37.839844 276.699219 46.375 Z M 276.699219 46.375 " style=" stroke:none;fill-rule:nonzero;fill:rgb(100%,94.509804%,71.372549%);fill-opacity:1;" />
<path d="M 276.699219 46.375 L 276.699219 465.625 C 276.699219 474.15625 269.773438 481.082031 261.242188 481.082031 L 154.058594 481.082031 L 154.058594 77.367188 L 206 77.367188 C 215.339844 77.367188 223.480469 71.019531 225.757812 61.96875 L 231.621094 38.710938 C 232.777344 34.121094 236.886719 30.917969 241.609375 30.917969 L 261.242188 30.917969 C 269.773438 30.917969 276.699219 37.84375 276.699219 46.375 Z M 276.699219 46.375 " style=" stroke:none;fill-rule:nonzero;fill:rgb(100%,89.411765%,46.666667%);fill-opacity:1;" />
<path d="M 249.0625 322.566406 L 172.523438 322.566406 C 163.988281 322.566406 157.066406 329.488281 157.066406 338.027344 C 157.066406 346.5625 163.988281 353.484375 172.523438 353.484375 L 249.0625 353.484375 C 257.597656 353.484375 264.519531 346.5625 264.519531 338.027344 C 264.519531 329.488281 257.597656 322.566406 249.0625 322.566406 Z M 249.0625 322.566406 " style=" stroke:none;fill-rule:nonzero;fill:rgb(100%,43.921569%,21.568627%);fill-opacity:1;" />
<path d="M 249.0625 283.011719 L 209.164062 283.011719 C 200.628906 283.011719 193.707031 289.933594 193.707031 298.46875 C 193.707031 307.007812 200.628906 313.929688 209.164062 313.929688 L 249.0625 313.929688 C 257.597656 313.929688 264.519531 307.007812 264.519531 298.46875 C 264.519531 289.933594 257.597656 283.011719 249.0625 283.011719 Z M 249.0625 283.011719 " style=" stroke:none;fill-rule:nonzero;fill:rgb(100%,43.921569%,21.568627%);fill-opacity:1;" />
<path d="M 192.535156 431.203125 L 115.582031 431.203125 C 107.046875 431.203125 100.125 438.121094 100.125 446.660156 C 100.125 455.199219 107.046875 462.121094 115.582031 462.121094 L 192.535156 462.121094 C 201.070312 462.121094 207.992188 455.199219 207.992188 446.660156 C 207.992188 438.121094 201.070312 431.203125 192.535156 431.203125 Z M 192.535156 431.203125 " style=" stroke:none;fill-rule:nonzero;fill:rgb(18.431373%,75.294118%,94.117647%);fill-opacity:1;" />
<path d="M 207.988281 446.660156 C 207.988281 455.195312 201.074219 462.121094 192.53125 462.121094 L 154.058594 462.121094 L 154.058594 431.203125 L 192.53125 431.203125 C 201.074219 431.203125 207.988281 438.125 207.988281 446.660156 Z M 207.988281 446.660156 " style=" stroke:none;fill-rule:nonzero;fill:rgb(5.098039%,56.862745%,74.117647%);fill-opacity:1;" />
<path d="M 259.933594 242.765625 C 259.933594 251.3125 253.015625 258.226562 244.472656 258.226562 L 63.644531 258.226562 C 55.101562 258.226562 48.1875 251.3125 48.1875 242.765625 L 48.1875 129.496094 C 48.1875 120.949219 55.101562 114.035156 63.644531 114.035156 C 72.179688 114.035156 79.105469 120.949219 79.105469 129.496094 L 79.105469 188.03125 L 88.253906 188.03125 C 110.773438 188.03125 132.941406 184.570312 154.058594 177.890625 C 182.648438 168.863281 209.289062 153.980469 232.207031 133.894531 C 238.640625 128.269531 248.398438 128.917969 254.027344 135.335938 C 259.652344 141.757812 259.003906 151.527344 252.582031 157.15625 C 223.945312 182.242188 190.210938 200.234375 154.058594 210.117188 C 132.777344 215.941406 110.660156 218.949219 88.253906 218.949219 L 79.105469 218.949219 L 79.105469 227.308594 L 244.472656 227.308594 C 253.015625 227.308594 259.933594 234.234375 259.933594 242.765625 Z M 259.933594 242.765625 " style=" stroke:none;fill-rule:nonzero;fill:rgb(100%,53.333333%,34.901961%);fill-opacity:1;" />
<path d="M 259.933594 242.765625 C 259.933594 251.3125 253.015625 258.226562 244.472656 258.226562 L 154.058594 258.226562 L 154.058594 227.308594 L 244.472656 227.308594 C 253.015625 227.308594 259.933594 234.234375 259.933594 242.765625 Z M 259.933594 242.765625 " style=" stroke:none;fill-rule:nonzero;fill:rgb(100%,43.921569%,21.568627%);fill-opacity:1;" />
<path d="M 252.582031 157.15625 C 223.945312 182.242188 190.210938 200.234375 154.058594 210.117188 L 154.058594 177.890625 C 182.648438 168.863281 209.289062 153.980469 232.207031 133.894531 C 238.640625 128.269531 248.398438 128.917969 254.027344 135.335938 C 259.652344 141.757812 259.003906 151.527344 252.582031 157.15625 Z M 252.582031 157.15625 " style=" stroke:none;fill-rule:nonzero;fill:rgb(100%,43.921569%,21.568627%);fill-opacity:1;" />
<path d="M 178.8125 298.472656 C 178.8125 307.003906 171.886719 313.929688 163.355469 313.929688 L 59.058594 313.929688 C 50.515625 313.929688 43.597656 307.003906 43.597656 298.472656 C 43.597656 289.925781 50.515625 283.011719 59.058594 283.011719 L 163.355469 283.011719 C 171.886719 283.011719 178.8125 289.925781 178.8125 298.472656 Z M 178.8125 298.472656 " style=" stroke:none;fill-rule:nonzero;fill:rgb(100%,53.333333%,34.901961%);fill-opacity:1;" />
<path d="M 178.8125 298.472656 C 178.8125 307.003906 171.886719 313.929688 163.355469 313.929688 L 154.058594 313.929688 L 154.058594 283.011719 L 163.355469 283.011719 C 171.886719 283.011719 178.8125 289.925781 178.8125 298.472656 Z M 178.8125 298.472656 " style=" stroke:none;fill-rule:nonzero;fill:rgb(100%,43.921569%,21.568627%);fill-opacity:1;" />
<path d="M 207.988281 446.660156 C 207.988281 455.195312 201.074219 462.121094 192.53125 462.121094 L 154.058594 462.121094 L 154.058594 431.203125 L 192.53125 431.203125 C 201.074219 431.203125 207.988281 438.125 207.988281 446.660156 Z M 207.988281 446.660156 " style=" stroke:none;fill-rule:nonzero;fill:rgb(5.882353%,66.27451%,86.666667%);fill-opacity:1;" />
<path d="M 126.230469 322.566406 L 59.058594 322.566406 C 50.519531 322.566406 43.597656 329.488281 43.597656 338.027344 C 43.597656 346.5625 50.519531 353.484375 59.058594 353.484375 L 126.230469 353.484375 C 134.765625 353.484375 141.6875 346.5625 141.6875 338.027344 C 141.6875 329.488281 134.765625 322.566406 126.230469 322.566406 Z M 126.230469 322.566406 " style=" stroke:none;fill-rule:nonzero;fill:rgb(100%,53.333333%,34.901961%);fill-opacity:1;" />
</g>
</svg>