<svg xmlns="http://www.w3.org/2000/svg" height="512pt" version="1.1" viewBox="0 -100 512 512" width="512pt">
<g id="surface1">
<path d="M 512 33.421875 L 512 278.445312 C 512 296.871094 497.003906 311.867188 478.578125 311.867188 L 33.421875 311.867188 C 14.996094 311.867188 0 296.871094 0 278.445312 L 0 33.421875 C 0 14.984375 14.996094 0 33.421875 0 L 478.578125 0 C 497.003906 0 512 14.984375 512 33.421875 Z M 512 33.421875 " style=" stroke:none;fill-rule:nonzero;fill:rgb(77.254902%,100%,80.392157%);fill-opacity:1;" />
<path d="M 512 33.421875 L 512 278.445312 C 512 296.871094 497.003906 311.867188 478.578125 311.867188 L 256 311.867188 L 256 0 L 478.578125 0 C 497.003906 0 512 14.984375 512 33.421875 Z M 512 33.421875 " style=" stroke:none;fill-rule:nonzero;fill:rgb(65.098039%,100%,70.980392%);fill-opacity:1;" />
<path d="M 352.875 0 L 415.125 0 L 415.125 311.867188 L 352.875 311.867188 Z M 352.875 0 " style=" stroke:none;fill-rule:nonzero;fill:rgb(0%,80%,46.27451%);fill-opacity:1;" />
<path d="M 384.003906 0 L 415.125 0 L 415.125 311.867188 L 384.003906 311.867188 Z M 384.003906 0 " style=" stroke:none;fill-rule:nonzero;fill:rgb(0%,66.666667%,38.823529%);fill-opacity:1;" />
<path d="M 307.730469 91.707031 C 290.1875 83.339844 269.917969 96.128906 269.917969 115.566406 L 269.917969 196.300781 C 269.917969 215.734375 290.1875 228.523438 307.730469 220.15625 L 355.699219 197.277344 L 355.699219 114.585938 Z M 307.730469 91.707031 " style=" stroke:none;fill-rule:nonzero;fill:rgb(100%,48.627451%,28.235294%);fill-opacity:1;" />
<path d="M 460.269531 91.707031 L 412.300781 114.585938 L 412.300781 197.277344 L 460.269531 220.15625 C 477.808594 228.523438 498.082031 215.734375 498.082031 196.300781 L 498.082031 115.566406 C 498.082031 96.128906 477.8125 83.339844 460.269531 91.707031 Z M 460.269531 91.707031 " style=" stroke:none;fill-rule:nonzero;fill:rgb(100%,39.215686%,14.901961%);fill-opacity:1;" />
<path d="M 384.460938 104.117188 L 383.546875 104.117188 C 354.929688 104.117188 331.730469 127.316406 331.730469 155.933594 C 331.730469 184.546875 354.929688 207.746094 383.546875 207.746094 L 384.460938 207.746094 C 413.074219 207.746094 436.273438 184.546875 436.273438 155.933594 C 436.273438 127.316406 413.074219 104.117188 384.460938 104.117188 Z M 384.460938 104.117188 " style=" stroke:none;fill-rule:nonzero;fill:rgb(100%,89.411765%,46.666667%);fill-opacity:1;" />
<path d="M 384.460938 104.117188 L 383.546875 104.117188 L 383.546875 207.746094 L 384.460938 207.746094 C 413.074219 207.746094 436.273438 184.546875 436.273438 155.933594 C 436.273438 127.316406 413.074219 104.117188 384.460938 104.117188 Z M 384.460938 104.117188 " style=" stroke:none;fill-rule:nonzero;fill:rgb(100%,80.392157%,0%);fill-opacity:1;" />
<path d="M 151.511719 238.476562 L 54.515625 238.476562 C 45.933594 238.476562 38.972656 231.519531 38.972656 222.933594 C 38.972656 214.347656 45.933594 207.390625 54.515625 207.390625 L 151.511719 207.390625 C 160.097656 207.390625 167.058594 214.347656 167.058594 222.933594 C 167.058594 231.519531 160.097656 238.476562 151.511719 238.476562 Z M 151.511719 238.476562 " style=" stroke:none;fill-rule:nonzero;fill:rgb(0%,80%,46.27451%);fill-opacity:1;" />
<path d="M 167.054688 222.929688 C 167.054688 231.523438 160.101562 238.476562 151.507812 238.476562 L 103.019531 238.476562 L 103.019531 207.386719 L 151.507812 207.386719 C 160.101562 207.386719 167.054688 214.351562 167.054688 222.929688 Z M 167.054688 222.929688 " style=" stroke:none;fill-rule:nonzero;fill:rgb(0%,66.666667%,38.823529%);fill-opacity:1;" />
<path d="M 148.222656 79.363281 L 57.804688 79.363281 C 49.222656 79.363281 42.261719 86.324219 42.261719 94.910156 L 42.261719 166.207031 C 42.261719 174.792969 49.222656 181.75 57.804688 181.75 L 148.222656 181.75 C 156.808594 181.75 163.769531 174.792969 163.769531 166.207031 L 163.769531 94.910156 C 163.769531 86.324219 156.808594 79.363281 148.222656 79.363281 Z M 148.222656 79.363281 " style=" stroke:none;fill-rule:nonzero;fill:rgb(0%,80%,46.27451%);fill-opacity:1;" />
<path d="M 163.769531 94.90625 L 163.769531 166.203125 C 163.769531 174.792969 156.804688 181.75 148.222656 181.75 L 103.019531 181.75 L 103.019531 79.359375 L 148.222656 79.359375 C 156.804688 79.359375 163.769531 86.324219 163.769531 94.90625 Z M 163.769531 94.90625 " style=" stroke:none;fill-rule:nonzero;fill:rgb(0%,66.666667%,38.823529%);fill-opacity:1;" />
<path d="M 73.351562 110.453125 L 132.679688 110.453125 L 132.679688 150.660156 L 73.351562 150.660156 Z M 73.351562 110.453125 " style=" stroke:none;fill-rule:nonzero;fill:rgb(100%,89.411765%,46.666667%);fill-opacity:1;" />
<path d="M 103.019531 110.449219 L 132.679688 110.449219 L 132.679688 150.660156 L 103.019531 150.660156 Z M 103.019531 110.449219 " style=" stroke:none;fill-rule:nonzero;fill:rgb(100%,80.392157%,0%);fill-opacity:1;" />
</g>
</svg>