<svg xmlns="http://www.w3.org/2000/svg" height="511pt" version="1.1" viewBox="1 -7 511.99999 511" width="511pt">
<g id="surface1">
<path d="M 463.316406 143.207031 C 462.929688 144.988281 426.050781 317.175781 425.679688 318.898438 C 424.15625 325.972656 417.898438 331.03125 410.65625 331.03125 L 157.460938 331.03125 L 139.527344 247.363281 L 132.617188 215.089844 L 117.210938 143.207031 Z M 463.316406 143.207031 " style=" stroke:none;fill-rule:nonzero;fill:rgb(74.509804%,92.156863%,98.039216%);fill-opacity:1;" />
<path d="M 463.316406 143.207031 C 462.929688 144.988281 426.050781 317.175781 425.679688 318.898438 C 424.15625 325.972656 417.898438 331.03125 410.65625 331.03125 L 290.269531 331.03125 L 290.269531 143.207031 Z M 463.316406 143.207031 " style=" stroke:none;fill-rule:nonzero;fill:rgb(61.960784%,88.627451%,97.254902%);fill-opacity:1;" />
<path d="M 339.144531 143.207031 L 327.019531 331.035156 L 359.355469 331.035156 L 371.492188 143.207031 Z M 339.144531 143.207031 " style=" stroke:none;fill-rule:nonzero;fill:rgb(18.431373%,75.294118%,94.117647%);fill-opacity:1;" />
<path d="M 417.140625 190.21875 C 364.835938 190.21875 322.28125 147.664062 322.28125 95.359375 C 322.28125 43.054688 364.835938 0.5 417.140625 0.5 C 469.445312 0.5 512 43.054688 512 95.359375 C 512 147.664062 469.445312 190.21875 417.140625 190.21875 Z M 417.140625 190.21875 " style=" stroke:none;fill-rule:nonzero;fill:rgb(100%,53.333333%,34.901961%);fill-opacity:1;" />
<path d="M 417.140625 0.503906 L 417.140625 190.214844 C 469.441406 190.214844 511.996094 147.664062 511.996094 95.359375 C 511.996094 43.058594 469.441406 0.503906 417.140625 0.503906 Z M 417.140625 0.503906 " style=" stroke:none;fill-rule:nonzero;fill:rgb(100%,29.803922%,1.568627%);fill-opacity:1;" />
<path d="M 209.039062 143.207031 L 221.175781 331.035156 L 253.511719 331.035156 L 241.390625 143.207031 Z M 209.039062 143.207031 " style=" stroke:none;fill-rule:nonzero;fill:rgb(36.862745%,80.784314%,95.686275%);fill-opacity:1;" />
<path d="M 447.914062 215.089844 L 444.464844 231.230469 L 441.011719 247.363281 L 139.527344 247.363281 L 132.617188 215.089844 Z M 447.914062 215.089844 " style=" stroke:none;fill-rule:nonzero;fill:rgb(18.431373%,75.294118%,94.117647%);fill-opacity:1;" />
<path d="M 447.914062 215.089844 L 444.464844 231.230469 L 441.011719 247.363281 L 290.269531 247.363281 L 290.269531 215.089844 Z M 447.914062 215.089844 " style=" stroke:none;fill-rule:nonzero;fill:rgb(5.882353%,66.27451%,86.666667%);fill-opacity:1;" />
<path d="M 368.222656 411.632812 L 190.4375 411.632812 L 124.402344 103.429688 C 117.953125 73.335938 90.9375 51.492188 60.15625 51.492188 L 15.363281 51.492188 C 6.878906 51.492188 0 58.371094 0 66.855469 C 0 75.339844 6.878906 82.214844 15.363281 82.214844 L 60.15625 82.214844 C 76.542969 82.214844 90.925781 93.84375 94.359375 109.867188 L 163 430.214844 C 164.515625 437.296875 170.777344 442.355469 178.019531 442.355469 L 368.222656 442.355469 C 376.707031 442.355469 383.585938 435.476562 383.585938 426.996094 C 383.585938 418.511719 376.707031 411.632812 368.222656 411.632812 Z M 368.222656 411.632812 " style=" stroke:none;fill-rule:nonzero;fill:rgb(18.431373%,75.294118%,94.117647%);fill-opacity:1;" />
<path d="M 481.269531 95.359375 C 481.269531 130.722656 452.503906 159.492188 417.140625 159.492188 C 381.777344 159.492188 353.007812 130.722656 353.007812 95.359375 C 353.007812 59.996094 381.777344 31.230469 417.140625 31.230469 C 452.503906 31.230469 481.269531 59.996094 481.269531 95.359375 Z M 481.269531 95.359375 " style=" stroke:none;fill-rule:nonzero;fill:rgb(100%,96.078431%,80%);fill-opacity:1;" />
<path d="M 481.269531 95.359375 C 481.269531 130.722656 452.503906 159.492188 417.140625 159.492188 L 417.140625 31.230469 C 452.503906 31.230469 481.269531 59.996094 481.269531 95.359375 Z M 481.269531 95.359375 " style=" stroke:none;fill-rule:nonzero;fill:rgb(100%,92.156863%,60%);fill-opacity:1;" />
<path d="M 451.148438 79.996094 L 432.5 79.996094 L 432.5 61.351562 C 432.5 52.867188 425.625 45.988281 417.140625 45.988281 C 408.65625 45.988281 401.777344 52.867188 401.777344 61.351562 L 401.777344 79.996094 L 383.128906 79.996094 C 374.648438 79.996094 367.769531 86.875 367.769531 95.359375 C 367.769531 103.84375 374.648438 110.722656 383.128906 110.722656 L 401.777344 110.722656 L 401.777344 129.367188 C 401.777344 137.851562 408.65625 144.730469 417.140625 144.730469 C 425.625 144.730469 432.5 137.851562 432.5 129.367188 L 432.5 110.722656 L 451.148438 110.722656 C 459.632812 110.722656 466.511719 103.84375 466.511719 95.359375 C 466.511719 86.875 459.632812 79.996094 451.148438 79.996094 Z M 451.148438 79.996094 " style=" stroke:none;fill-rule:nonzero;fill:rgb(100%,53.333333%,34.901961%);fill-opacity:1;" />
<path d="M 466.511719 95.359375 C 466.511719 103.839844 459.632812 110.722656 451.152344 110.722656 L 432.5 110.722656 L 432.5 129.371094 C 432.5 137.851562 425.621094 144.734375 417.140625 144.734375 L 417.140625 45.988281 C 425.621094 45.988281 432.5 52.867188 432.5 61.347656 L 432.5 80 L 451.152344 80 C 459.632812 80 466.511719 86.878906 466.511719 95.359375 Z M 466.511719 95.359375 " style=" stroke:none;fill-rule:nonzero;fill:rgb(100%,29.803922%,1.568627%);fill-opacity:1;" />
<path d="M 367.621094 357.375 C 329.074219 357.375 297.71875 388.734375 297.71875 427.277344 C 297.71875 465.824219 329.074219 497.183594 367.621094 497.183594 C 406.167969 497.183594 437.527344 465.824219 437.527344 427.277344 C 437.527344 388.734375 406.167969 357.375 367.621094 357.375 Z M 367.621094 357.375 " style=" stroke:none;fill-rule:nonzero;fill:rgb(5.098039%,56.862745%,74.117647%);fill-opacity:1;" />
<path d="M 408.050781 427.285156 C 408.050781 449.574219 389.914062 467.710938 367.621094 467.710938 C 345.332031 467.710938 327.183594 449.578125 327.183594 427.285156 C 327.183594 404.984375 345.332031 386.847656 367.621094 386.847656 C 389.914062 386.847656 408.050781 404.984375 408.050781 427.285156 Z M 408.050781 427.285156 " style=" stroke:none;fill-rule:nonzero;fill:rgb(74.509804%,92.156863%,98.039216%);fill-opacity:1;" />
<path d="M 384.238281 427.28125 C 384.238281 436.777344 376.539062 444.472656 367.042969 444.472656 C 357.550781 444.472656 349.851562 436.777344 349.851562 427.28125 C 349.851562 417.785156 357.550781 410.085938 367.042969 410.085938 C 376.539062 410.085938 384.238281 417.785156 384.238281 427.28125 Z M 384.238281 427.28125 " style=" stroke:none;fill-rule:nonzero;fill:rgb(5.882353%,66.27451%,86.666667%);fill-opacity:1;" />
<path d="M 437.523438 427.285156 C 437.523438 465.824219 406.164062 497.183594 367.621094 497.183594 C 367.425781 497.183594 367.230469 497.183594 367.042969 497.175781 L 367.042969 357.382812 C 367.230469 357.371094 367.425781 357.371094 367.621094 357.371094 C 406.164062 357.375 437.523438 388.734375 437.523438 427.285156 Z M 437.523438 427.285156 " style=" stroke:none;fill-rule:nonzero;fill:rgb(4.313725%,47.45098%,61.568627%);fill-opacity:1;" />
<path d="M 408.050781 427.285156 C 408.050781 449.574219 389.914062 467.710938 367.621094 467.710938 C 367.425781 467.710938 367.238281 467.710938 367.042969 467.703125 L 367.042969 386.855469 C 367.238281 386.847656 367.425781 386.847656 367.621094 386.847656 C 389.914062 386.847656 408.050781 404.984375 408.050781 427.285156 Z M 408.050781 427.285156 " style=" stroke:none;fill-rule:nonzero;fill:rgb(61.960784%,88.627451%,97.254902%);fill-opacity:1;" />
<path d="M 384.234375 427.285156 C 384.234375 436.773438 376.542969 444.476562 367.042969 444.476562 L 367.042969 410.09375 C 376.542969 410.089844 384.234375 417.785156 384.234375 427.285156 Z M 384.234375 427.285156 " style=" stroke:none;fill-rule:nonzero;fill:rgb(4.313725%,47.45098%,61.568627%);fill-opacity:1;" />
<path d="M 191.792969 357.375 C 153.246094 357.375 121.890625 388.734375 121.890625 427.277344 C 121.890625 465.824219 153.246094 497.183594 191.792969 497.183594 C 230.339844 497.183594 261.699219 465.824219 261.699219 427.277344 C 261.699219 388.734375 230.339844 357.375 191.792969 357.375 Z M 191.792969 357.375 " style=" stroke:none;fill-rule:nonzero;fill:rgb(5.098039%,56.862745%,74.117647%);fill-opacity:1;" />
<path d="M 232.222656 427.285156 C 232.222656 449.574219 214.085938 467.710938 191.792969 467.710938 C 169.5 467.710938 151.355469 449.578125 151.355469 427.285156 C 151.355469 404.984375 169.503906 386.847656 191.792969 386.847656 C 214.085938 386.847656 232.222656 404.984375 232.222656 427.285156 Z M 232.222656 427.285156 " style=" stroke:none;fill-rule:nonzero;fill:rgb(74.509804%,92.156863%,98.039216%);fill-opacity:1;" />
<path d="M 208.410156 427.28125 C 208.410156 436.777344 200.710938 444.472656 191.214844 444.472656 C 181.71875 444.472656 174.023438 436.777344 174.023438 427.28125 C 174.023438 417.785156 181.71875 410.085938 191.214844 410.085938 C 200.710938 410.085938 208.410156 417.785156 208.410156 427.28125 Z M 208.410156 427.28125 " style=" stroke:none;fill-rule:nonzero;fill:rgb(5.882353%,66.27451%,86.666667%);fill-opacity:1;" />
<path d="M 261.695312 427.285156 C 261.695312 465.824219 230.335938 497.183594 191.792969 497.183594 C 191.597656 497.183594 191.398438 497.183594 191.214844 497.175781 L 191.214844 357.382812 C 191.398438 357.371094 191.597656 357.371094 191.792969 357.371094 C 230.335938 357.375 261.695312 388.734375 261.695312 427.285156 Z M 261.695312 427.285156 " style=" stroke:none;fill-rule:nonzero;fill:rgb(4.313725%,47.45098%,61.568627%);fill-opacity:1;" />
<path d="M 232.222656 427.285156 C 232.222656 449.574219 214.085938 467.710938 191.792969 467.710938 C 191.597656 467.710938 191.410156 467.710938 191.214844 467.703125 L 191.214844 386.855469 C 191.410156 386.847656 191.597656 386.847656 191.792969 386.847656 C 214.085938 386.847656 232.222656 404.984375 232.222656 427.285156 Z M 232.222656 427.285156 " style=" stroke:none;fill-rule:nonzero;fill:rgb(61.960784%,88.627451%,97.254902%);fill-opacity:1;" />
<path d="M 208.40625 427.285156 C 208.40625 436.773438 200.714844 444.476562 191.214844 444.476562 L 191.214844 410.09375 C 200.714844 410.089844 208.40625 417.785156 208.40625 427.285156 Z M 208.40625 427.285156 " style=" stroke:none;fill-rule:nonzero;fill:rgb(4.313725%,47.45098%,61.568627%);fill-opacity:1;" />
</g>
</svg>