<svg xmlns="http://www.w3.org/2000/svg" height="512pt" version="1.1" viewBox="0 -25 512.00103 512" width="512pt">
<g id="surface1">
<path d="M 512 16.46875 L 512 444.613281 C 512 453.707031 504.628906 461.078125 495.535156 461.078125 L 16.464844 461.078125 C 7.371094 461.078125 0 453.707031 0 444.613281 L 0 16.46875 C 0 7.378906 7.371094 0.0078125 16.464844 0.0078125 L 495.535156 0.0078125 C 504.628906 0.0078125 512 7.378906 512 16.46875 Z M 512 16.46875 " style=" stroke:none;fill-rule:nonzero;fill:rgb(100%,88.235294%,73.333333%);fill-opacity:1;" />
<path d="M 512 16.46875 L 512 444.613281 C 512 453.703125 504.625 461.078125 495.535156 461.078125 L 256 461.078125 L 256 0.0078125 L 495.535156 0.0078125 C 504.675781 0.0078125 512 7.441406 512 16.46875 Z M 512 16.46875 " style=" stroke:none;fill-rule:nonzero;fill:rgb(100%,82.745098%,60%);fill-opacity:1;" />
<path d="M 512 16.464844 L 512 102.175781 L 0 102.175781 L 0 16.464844 C 0 7.371094 7.371094 0 16.464844 0 L 495.535156 0 C 504.628906 0 512 7.371094 512 16.464844 Z M 512 16.464844 " style=" stroke:none;fill-rule:nonzero;fill:rgb(18.431373%,75.294118%,94.117647%);fill-opacity:1;" />
<path d="M 512 16.46875 L 512 102.167969 L 256 102.167969 L 256 0.0078125 L 495.535156 0.0078125 C 504.5625 0.0078125 512 7.339844 512 16.46875 Z M 512 16.46875 " style=" stroke:none;fill-rule:nonzero;fill:rgb(5.882353%,66.27451%,86.666667%);fill-opacity:1;" />
<path d="M 217.75 67.292969 L 36.648438 67.292969 C 27.554688 67.292969 20.183594 59.921875 20.183594 50.828125 C 20.183594 41.734375 27.554688 34.367188 36.648438 34.367188 L 217.75 34.367188 C 226.839844 34.367188 234.210938 41.734375 234.210938 50.828125 C 234.210938 59.921875 226.839844 67.292969 217.75 67.292969 Z M 217.75 67.292969 " style=" stroke:none;fill-rule:nonzero;fill:rgb(61.960784%,88.627451%,97.254902%);fill-opacity:1;" />
<path d="M 419.175781 50.828125 C 419.175781 59.921875 411.804688 67.292969 402.710938 67.292969 C 393.617188 67.292969 386.246094 59.921875 386.246094 50.828125 C 386.246094 41.734375 393.617188 34.367188 402.710938 34.367188 C 411.804688 34.367188 419.175781 41.734375 419.175781 50.828125 Z M 419.175781 50.828125 " style=" stroke:none;fill-rule:nonzero;fill:rgb(61.960784%,88.627451%,97.254902%);fill-opacity:1;" />
<path d="M 467.46875 50.828125 C 467.46875 59.921875 460.097656 67.292969 451.003906 67.292969 C 441.910156 67.292969 434.539062 59.921875 434.539062 50.828125 C 434.539062 41.734375 441.910156 34.367188 451.003906 34.367188 C 460.097656 34.367188 467.46875 41.734375 467.46875 50.828125 Z M 467.46875 50.828125 " style=" stroke:none;fill-rule:nonzero;fill:rgb(61.960784%,88.627451%,97.254902%);fill-opacity:1;" />
<path d="M 0 102.175781 L 0 130.078125 C 0 165.425781 28.652344 194.078125 64 194.078125 C 99.347656 194.078125 128 165.425781 128 130.078125 L 128 102.175781 Z M 0 102.175781 " style=" stroke:none;fill-rule:nonzero;fill:rgb(100%,53.333333%,34.901961%);fill-opacity:1;" />
<path d="M 128 102.175781 L 128 130.429688 C 128 165.582031 156.496094 194.078125 191.648438 194.078125 L 192 194.078125 C 227.347656 194.078125 256 165.425781 256 130.078125 L 256 102.175781 Z M 128 102.175781 " style=" stroke:none;fill-rule:nonzero;fill:rgb(100%,29.803922%,1.568627%);fill-opacity:1;" />
<path d="M 256 102.175781 L 256 130.078125 C 256 165.425781 284.652344 194.078125 320 194.078125 C 355.347656 194.078125 384 165.425781 384 130.078125 L 384 102.175781 Z M 256 102.175781 " style=" stroke:none;fill-rule:nonzero;fill:rgb(100%,53.333333%,34.901961%);fill-opacity:1;" />
<path d="M 384 102.175781 L 384 130.429688 C 384 165.582031 412.496094 194.078125 447.648438 194.078125 L 448 194.078125 C 483.347656 194.078125 512 165.425781 512 130.078125 L 512 102.175781 Z M 384 102.175781 " style=" stroke:none;fill-rule:nonzero;fill:rgb(100%,29.803922%,1.568627%);fill-opacity:1;" />
<path d="M 208.464844 243.4375 L 208.464844 461.078125 L 47.535156 461.078125 L 47.535156 243.4375 C 47.535156 234.339844 54.914062 226.976562 64 226.976562 L 192 226.976562 C 201.089844 226.976562 208.464844 234.339844 208.464844 243.4375 Z M 208.464844 243.4375 " style=" stroke:none;fill-rule:nonzero;fill:rgb(100%,71.372549%,33.333333%);fill-opacity:1;" />
<path d="M 208.464844 243.4375 L 208.464844 461.078125 L 128 461.078125 L 128 226.976562 L 192 226.976562 C 201.089844 226.976562 208.464844 234.339844 208.464844 243.4375 Z M 208.464844 243.4375 " style=" stroke:none;fill-rule:nonzero;fill:rgb(100%,62.352941%,13.333333%);fill-opacity:1;" />
<path d="M 80.464844 259.902344 L 175.535156 259.902344 L 175.535156 461.078125 L 80.464844 461.078125 Z M 80.464844 259.902344 " style=" stroke:none;fill-rule:nonzero;fill:rgb(100%,91.372549%,80%);fill-opacity:1;" />
<path d="M 475.183594 226.972656 L 294.703125 226.972656 C 285.609375 226.972656 278.238281 234.34375 278.238281 243.4375 L 278.238281 365.386719 C 278.238281 374.476562 285.609375 381.847656 294.703125 381.847656 L 475.183594 381.847656 C 484.273438 381.847656 491.644531 374.476562 491.644531 365.386719 L 491.644531 243.4375 C 491.644531 234.34375 484.273438 226.972656 475.183594 226.972656 Z M 475.183594 226.972656 " style=" stroke:none;fill-rule:nonzero;fill:rgb(100%,71.372549%,33.333333%);fill-opacity:1;" />
<path d="M 491.640625 243.4375 L 491.640625 365.390625 C 491.640625 374.480469 484.277344 381.855469 475.175781 381.855469 L 384.945312 381.855469 L 384.945312 226.976562 L 475.175781 226.976562 C 484.277344 226.976562 491.640625 234.339844 491.640625 243.4375 Z M 491.640625 243.4375 " style=" stroke:none;fill-rule:nonzero;fill:rgb(100%,62.352941%,13.333333%);fill-opacity:1;" />
<path d="M 311.164062 259.902344 L 458.710938 259.902344 L 458.710938 348.929688 L 311.164062 348.929688 Z M 311.164062 259.902344 " style=" stroke:none;fill-rule:nonzero;fill:rgb(100%,91.372549%,80%);fill-opacity:1;" />
<path d="M 128 259.902344 L 175.539062 259.902344 L 175.539062 461.078125 L 128 461.078125 Z M 128 259.902344 " style=" stroke:none;fill-rule:nonzero;fill:rgb(100%,82.745098%,60%);fill-opacity:1;" />
<path d="M 384.945312 259.902344 L 458.714844 259.902344 L 458.714844 348.929688 L 384.945312 348.929688 Z M 384.945312 259.902344 " style=" stroke:none;fill-rule:nonzero;fill:rgb(100%,82.745098%,60%);fill-opacity:1;" />
</g>
</svg>